<svg width="1012" height="372" viewBox="0 0 1012 372" fill="none" xmlns="http://www.w3.org/2000/svg">
<mask id="path-1-outside-1_1025_2" maskUnits="userSpaceOnUse" x="6" y="139" width="1000" height="99" fill="black">
<rect fill="white" x="6" y="139" width="1000" height="99"/>
<path d="M39.56 234.56C33.4067 234.56 27.73 233.433 22.53 231.18C17.4167 228.84 13.2133 225.547 9.92 221.3L21.62 207.26C24.1333 210.553 26.7767 213.067 29.55 214.8C32.3233 216.447 35.3133 217.27 38.52 217.27C47.1 217.27 51.39 212.243 51.39 202.19V158.9H19.41V142H72.32V201.02C72.32 212.287 69.5467 220.693 64 226.24C58.4533 231.787 50.3067 234.56 39.56 234.56ZM90.9577 233L131.518 142H152.318L193.008 233H170.908L137.628 152.66H145.948L112.538 233H90.9577ZM111.238 213.5L116.828 197.51H163.628L169.348 213.5H111.238ZM231.038 233L201.268 142H223.108L248.978 222.6H238.058L265.098 142H284.598L310.598 222.6H300.068L326.588 142H346.738L316.968 233H294.348L271.338 162.28H277.318L253.658 233H231.038ZM355.188 233L395.748 142H416.548L457.238 233H435.138L401.858 152.66H410.178L376.768 233H355.188ZM375.468 213.5L381.058 197.51H427.858L433.578 213.5H375.468ZM478.379 233V142H519.719C529.599 142 538.309 143.907 545.849 147.72C553.389 151.447 559.282 156.69 563.529 163.45C567.776 170.21 569.899 178.227 569.899 187.5C569.899 196.687 567.776 204.703 563.529 211.55C559.282 218.31 553.389 223.597 545.849 227.41C538.309 231.137 529.599 233 519.719 233H478.379ZM499.439 215.71H518.679C524.746 215.71 529.989 214.583 534.409 212.33C538.916 209.99 542.382 206.697 544.809 202.45C547.322 198.203 548.579 193.22 548.579 187.5C548.579 181.693 547.322 176.71 544.809 172.55C542.382 168.303 538.916 165.053 534.409 162.8C529.989 160.46 524.746 159.29 518.679 159.29H499.439V215.71ZM616.401 233L586.631 142H608.471L634.341 222.6H623.421L650.461 142H669.961L695.961 222.6H685.431L711.951 142H732.101L702.331 233H679.711L656.701 162.28H662.681L639.021 233H616.401ZM755.558 233V142H776.618V233H755.558ZM809.915 233V142H849.305C857.451 142 864.471 143.343 870.365 146.03C876.258 148.63 880.808 152.4 884.015 157.34C887.221 162.28 888.825 168.173 888.825 175.02C888.825 181.78 887.221 187.63 884.015 192.57C880.808 197.51 876.258 201.323 870.365 204.01C864.471 206.61 857.451 207.91 849.305 207.91H821.615L830.975 198.42V233H809.915ZM830.975 200.76L821.615 190.75H848.135C854.635 190.75 859.488 189.363 862.695 186.59C865.901 183.817 867.505 179.96 867.505 175.02C867.505 169.993 865.901 166.093 862.695 163.32C859.488 160.547 854.635 159.16 848.135 159.16H821.615L830.975 149.15V200.76ZM899.03 233L939.59 142H960.39L1001.08 233H978.98L945.7 152.66H954.02L920.61 233H899.03ZM919.31 213.5L924.9 197.51H971.7L977.42 213.5H919.31Z"/>
</mask>
<path d="M39.56 234.56C33.4067 234.56 27.73 233.433 22.53 231.18C17.4167 228.84 13.2133 225.547 9.92 221.3L21.62 207.26C24.1333 210.553 26.7767 213.067 29.55 214.8C32.3233 216.447 35.3133 217.27 38.52 217.27C47.1 217.27 51.39 212.243 51.39 202.19V158.9H19.41V142H72.32V201.02C72.32 212.287 69.5467 220.693 64 226.24C58.4533 231.787 50.3067 234.56 39.56 234.56ZM90.9577 233L131.518 142H152.318L193.008 233H170.908L137.628 152.66H145.948L112.538 233H90.9577ZM111.238 213.5L116.828 197.51H163.628L169.348 213.5H111.238ZM231.038 233L201.268 142H223.108L248.978 222.6H238.058L265.098 142H284.598L310.598 222.6H300.068L326.588 142H346.738L316.968 233H294.348L271.338 162.28H277.318L253.658 233H231.038ZM355.188 233L395.748 142H416.548L457.238 233H435.138L401.858 152.66H410.178L376.768 233H355.188ZM375.468 213.5L381.058 197.51H427.858L433.578 213.5H375.468ZM478.379 233V142H519.719C529.599 142 538.309 143.907 545.849 147.72C553.389 151.447 559.282 156.69 563.529 163.45C567.776 170.21 569.899 178.227 569.899 187.5C569.899 196.687 567.776 204.703 563.529 211.55C559.282 218.31 553.389 223.597 545.849 227.41C538.309 231.137 529.599 233 519.719 233H478.379ZM499.439 215.71H518.679C524.746 215.71 529.989 214.583 534.409 212.33C538.916 209.99 542.382 206.697 544.809 202.45C547.322 198.203 548.579 193.22 548.579 187.5C548.579 181.693 547.322 176.71 544.809 172.55C542.382 168.303 538.916 165.053 534.409 162.8C529.989 160.46 524.746 159.29 518.679 159.29H499.439V215.71ZM616.401 233L586.631 142H608.471L634.341 222.6H623.421L650.461 142H669.961L695.961 222.6H685.431L711.951 142H732.101L702.331 233H679.711L656.701 162.28H662.681L639.021 233H616.401ZM755.558 233V142H776.618V233H755.558ZM809.915 233V142H849.305C857.451 142 864.471 143.343 870.365 146.03C876.258 148.63 880.808 152.4 884.015 157.34C887.221 162.28 888.825 168.173 888.825 175.02C888.825 181.78 887.221 187.63 884.015 192.57C880.808 197.51 876.258 201.323 870.365 204.01C864.471 206.61 857.451 207.91 849.305 207.91H821.615L830.975 198.42V233H809.915ZM830.975 200.76L821.615 190.75H848.135C854.635 190.75 859.488 189.363 862.695 186.59C865.901 183.817 867.505 179.96 867.505 175.02C867.505 169.993 865.901 166.093 862.695 163.32C859.488 160.547 854.635 159.16 848.135 159.16H821.615L830.975 149.15V200.76ZM899.03 233L939.59 142H960.39L1001.08 233H978.98L945.7 152.66H954.02L920.61 233H899.03ZM919.31 213.5L924.9 197.51H971.7L977.42 213.5H919.31Z" fill="white"/>
<path d="M22.53 231.18L21.2816 233.908L21.3093 233.921L21.3372 233.933L22.53 231.18ZM9.92 221.3L7.61534 219.379L6.07119 221.232L7.54934 223.138L9.92 221.3ZM21.62 207.26L24.0049 205.44L21.7231 202.45L19.3153 205.339L21.62 207.26ZM29.55 214.8L27.96 217.344L27.989 217.362L28.0184 217.38L29.55 214.8ZM51.39 158.9H54.39V155.9H51.39V158.9ZM19.41 158.9H16.41V161.9H19.41V158.9ZM19.41 142V139H16.41V142H19.41ZM72.32 142H75.32V139H72.32V142ZM64 226.24L61.8787 224.119L64 226.24ZM39.56 234.56V231.56C33.7815 231.56 28.515 230.504 23.7228 228.427L22.53 231.18L21.3372 233.933C26.945 236.363 33.0319 237.56 39.56 237.56V234.56ZM22.53 231.18L23.7784 228.452C19.0843 226.304 15.2733 223.308 12.2907 219.462L9.92 221.3L7.54934 223.138C11.1534 227.786 15.749 231.376 21.2816 233.908L22.53 231.18ZM9.92 221.3L12.2247 223.221L23.9247 209.181L21.62 207.26L19.3153 205.339L7.61534 219.379L9.92 221.3ZM21.62 207.26L19.2351 209.08C21.9117 212.587 24.8107 215.376 27.96 217.344L29.55 214.8L31.14 212.256C28.7426 210.758 26.355 208.519 24.0049 205.44L21.62 207.26ZM29.55 214.8L28.0184 217.38C31.2524 219.3 34.771 220.27 38.52 220.27V217.27V214.27C35.8557 214.27 33.3943 213.594 31.0816 212.22L29.55 214.8ZM38.52 217.27V220.27C43.4077 220.27 47.5796 218.816 50.4544 215.448C53.2515 212.17 54.39 207.573 54.39 202.19H51.39H48.39C48.39 206.86 47.3835 209.803 45.8906 211.552C44.4754 213.211 42.2123 214.27 38.52 214.27V217.27ZM51.39 202.19H54.39V158.9H51.39H48.39V202.19H51.39ZM51.39 158.9V155.9H19.41V158.9V161.9H51.39V158.9ZM19.41 158.9H22.41V142H19.41H16.41V158.9H19.41ZM19.41 142V145H72.32V142V139H19.41V142ZM72.32 142H69.32V201.02H72.32H75.32V142H72.32ZM72.32 201.02H69.32C69.32 211.84 66.6565 219.341 61.8787 224.119L64 226.24L66.1213 228.361C72.4368 222.046 75.32 212.733 75.32 201.02H72.32ZM64 226.24L61.8787 224.119C57.0768 228.921 49.8122 231.56 39.56 231.56V234.56V237.56C50.8011 237.56 59.8299 234.653 66.1213 228.361L64 226.24ZM90.9577 233L88.2176 231.779L86.3361 236H90.9577V233ZM131.518 142V139H129.57L128.778 140.779L131.518 142ZM152.318 142L155.056 140.775L154.263 139H152.318V142ZM193.008 233V236H197.635L195.746 231.775L193.008 233ZM170.908 233L168.136 234.148L168.903 236H170.908V233ZM137.628 152.66V149.66H133.138L134.856 153.808L137.628 152.66ZM145.948 152.66L148.718 153.812L150.444 149.66H145.948V152.66ZM112.538 233V236H114.539L115.308 234.152L112.538 233ZM111.238 213.5L108.406 212.51L107.011 216.5H111.238V213.5ZM116.828 197.51V194.51H114.698L113.996 196.52L116.828 197.51ZM163.628 197.51L166.452 196.5L165.741 194.51H163.628V197.51ZM169.348 213.5V216.5H173.607L172.172 212.49L169.348 213.5ZM90.9577 233L93.6979 234.221L134.258 143.221L131.518 142L128.778 140.779L88.2176 231.779L90.9577 233ZM131.518 142V145H152.318V142V139H131.518V142ZM152.318 142L149.579 143.225L190.269 234.225L193.008 233L195.746 231.775L155.056 140.775L152.318 142ZM193.008 233V230H170.908V233V236H193.008V233ZM170.908 233L173.679 231.852L140.399 151.512L137.628 152.66L134.856 153.808L168.136 234.148L170.908 233ZM137.628 152.66V155.66H145.948V152.66V149.66H137.628V152.66ZM145.948 152.66L143.178 151.508L109.768 231.848L112.538 233L115.308 234.152L148.718 153.812L145.948 152.66ZM112.538 233V230H90.9577V233V236H112.538V233ZM111.238 213.5L114.07 214.49L119.66 198.5L116.828 197.51L113.996 196.52L108.406 212.51L111.238 213.5ZM116.828 197.51V200.51H163.628V197.51V194.51H116.828V197.51ZM163.628 197.51L160.803 198.52L166.523 214.51L169.348 213.5L172.172 212.49L166.452 196.5L163.628 197.51ZM169.348 213.5V210.5H111.238V213.5V216.5H169.348V213.5ZM231.038 233L228.187 233.933L228.863 236H231.038V233ZM201.268 142V139H197.13L198.417 142.933L201.268 142ZM223.108 142L225.964 141.083L225.296 139H223.108V142ZM248.978 222.6V225.6H253.091L251.834 221.683L248.978 222.6ZM238.058 222.6L235.214 221.646L233.887 225.6H238.058V222.6ZM265.098 142V139H262.94L262.254 141.046L265.098 142ZM284.598 142L287.453 141.079L286.782 139H284.598V142ZM310.598 222.6V225.6H314.718L313.453 221.679L310.598 222.6ZM300.068 222.6L297.218 221.662L295.922 225.6H300.068V222.6ZM326.588 142V139H324.417L323.738 141.062L326.588 142ZM346.738 142L349.589 142.933L350.876 139H346.738V142ZM316.968 233V236H319.143L319.819 233.933L316.968 233ZM294.348 233L291.495 233.928L292.169 236H294.348V233ZM271.338 162.28V159.28H267.207L268.485 163.208L271.338 162.28ZM277.318 162.28L280.163 163.232L281.485 159.28H277.318V162.28ZM253.658 233V236H255.818L256.503 233.952L253.658 233ZM231.038 233L233.889 232.067L204.119 141.067L201.268 142L198.417 142.933L228.187 233.933L231.038 233ZM201.268 142V145H223.108V142V139H201.268V142ZM223.108 142L220.251 142.917L246.121 223.517L248.978 222.6L251.834 221.683L225.964 141.083L223.108 142ZM248.978 222.6V219.6H238.058V222.6V225.6H248.978V222.6ZM238.058 222.6L240.902 223.554L267.942 142.954L265.098 142L262.254 141.046L235.214 221.646L238.058 222.6ZM265.098 142V145H284.598V142V139H265.098V142ZM284.598 142L281.743 142.921L307.743 223.521L310.598 222.6L313.453 221.679L287.453 141.079L284.598 142ZM310.598 222.6V219.6H300.068V222.6V225.6H310.598V222.6ZM300.068 222.6L302.918 223.538L329.438 142.938L326.588 142L323.738 141.062L297.218 221.662L300.068 222.6ZM326.588 142V145H346.738V142V139H326.588V142ZM346.738 142L343.887 141.067L314.117 232.067L316.968 233L319.819 233.933L349.589 142.933L346.738 142ZM316.968 233V230H294.348V233V236H316.968V233ZM294.348 233L297.201 232.072L274.191 161.352L271.338 162.28L268.485 163.208L291.495 233.928L294.348 233ZM271.338 162.28V165.28H277.318V162.28V159.28H271.338V162.28ZM277.318 162.28L274.473 161.328L250.813 232.048L253.658 233L256.503 233.952L280.163 163.232L277.318 162.28ZM253.658 233V230H231.038V233V236H253.658V233ZM355.188 233L352.448 231.779L350.566 236H355.188V233ZM395.748 142V139H393.8L393.008 140.779L395.748 142ZM416.548 142L419.286 140.775L418.493 139H416.548V142ZM457.238 233V236H461.866L459.977 231.775L457.238 233ZM435.138 233L432.366 234.148L433.133 236H435.138V233ZM401.858 152.66V149.66H397.368L399.086 153.808L401.858 152.66ZM410.178 152.66L412.948 153.812L414.674 149.66H410.178V152.66ZM376.768 233V236H378.769L379.538 234.152L376.768 233ZM375.468 213.5L372.636 212.51L371.241 216.5H375.468V213.5ZM381.058 197.51V194.51H378.929L378.226 196.52L381.058 197.51ZM427.858 197.51L430.683 196.5L429.971 194.51H427.858V197.51ZM433.578 213.5V216.5H437.837L436.403 212.49L433.578 213.5ZM355.188 233L357.928 234.221L398.488 143.221L395.748 142L393.008 140.779L352.448 231.779L355.188 233ZM395.748 142V145H416.548V142V139H395.748V142ZM416.548 142L413.809 143.225L454.499 234.225L457.238 233L459.977 231.775L419.286 140.775L416.548 142ZM457.238 233V230H435.138V233V236H457.238V233ZM435.138 233L437.909 231.852L404.629 151.512L401.858 152.66L399.086 153.808L432.366 234.148L435.138 233ZM401.858 152.66V155.66H410.178V152.66V149.66H401.858V152.66ZM410.178 152.66L407.408 151.508L373.998 231.848L376.768 233L379.538 234.152L412.948 153.812L410.178 152.66ZM376.768 233V230H355.188V233V236H376.768V233ZM375.468 213.5L378.3 214.49L383.89 198.5L381.058 197.51L378.226 196.52L372.636 212.51L375.468 213.5ZM381.058 197.51V200.51H427.858V197.51V194.51H381.058V197.51ZM427.858 197.51L425.033 198.52L430.753 214.51L433.578 213.5L436.403 212.49L430.683 196.5L427.858 197.51ZM433.578 213.5V210.5H375.468V213.5V216.5H433.578V213.5ZM478.379 233H475.379V236H478.379V233ZM478.379 142V139H475.379V142H478.379ZM545.849 147.72L544.495 150.397L544.507 150.403L544.52 150.409L545.849 147.72ZM563.529 163.45L560.989 165.046L563.529 163.45ZM563.529 211.55L566.069 213.146L566.074 213.139L566.078 213.131L563.529 211.55ZM545.849 227.41L547.178 230.099L547.191 230.093L547.203 230.087L545.849 227.41ZM499.439 215.71H496.439V218.71H499.439V215.71ZM534.409 212.33L535.772 215.003L535.782 214.998L535.792 214.992L534.409 212.33ZM544.809 202.45L542.227 200.922L542.216 200.942L542.204 200.962L544.809 202.45ZM544.809 172.55L542.204 174.038L542.222 174.07L542.241 174.101L544.809 172.55ZM534.409 162.8L533.005 165.451L533.036 165.468L533.067 165.483L534.409 162.8ZM499.439 159.29V156.29H496.439V159.29H499.439ZM478.379 233H481.379V142H478.379H475.379V233H478.379ZM478.379 142V145H519.719V142V139H478.379V142ZM519.719 142V145C529.208 145 537.44 146.829 544.495 150.397L545.849 147.72L547.203 145.043C539.178 140.984 529.99 139 519.719 139V142ZM545.849 147.72L544.52 150.409C551.591 153.904 557.053 158.781 560.989 165.046L563.529 163.45L566.069 161.854C561.512 154.599 555.188 148.989 547.178 145.031L545.849 147.72ZM563.529 163.45L560.989 165.046C564.889 171.255 566.899 178.698 566.899 187.5H569.899H572.899C572.899 177.755 570.662 169.165 566.069 161.854L563.529 163.45ZM569.899 187.5H566.899C566.899 196.208 564.892 203.661 560.98 209.969L563.529 211.55L566.078 213.131C570.659 205.746 572.899 197.165 572.899 187.5H569.899ZM563.529 211.55L560.989 209.954C557.049 216.225 551.578 221.151 544.495 224.733L545.849 227.41L547.203 230.087C555.2 226.043 561.516 220.395 566.069 213.146L563.529 211.55ZM545.849 227.41L544.52 224.721C537.459 228.21 529.218 230 519.719 230V233V236C529.98 236 539.159 234.063 547.178 230.099L545.849 227.41ZM519.719 233V230H478.379V233V236H519.719V233ZM499.439 215.71V218.71H518.679V215.71V212.71H499.439V215.71ZM518.679 215.71V218.71C525.115 218.71 530.846 217.514 535.772 215.003L534.409 212.33L533.047 209.657C529.132 211.653 524.376 212.71 518.679 212.71V215.71ZM534.409 212.33L535.792 214.992C540.789 212.397 544.69 208.706 547.414 203.938L544.809 202.45L542.204 200.962C540.075 204.688 537.042 207.583 533.027 209.668L534.409 212.33ZM544.809 202.45L547.391 203.978C550.219 199.199 551.579 193.671 551.579 187.5H548.579H545.579C545.579 192.769 544.426 197.207 542.227 200.922L544.809 202.45ZM548.579 187.5H551.579C551.579 181.254 550.224 175.711 547.377 170.999L544.809 172.55L542.241 174.101C544.421 177.709 545.579 182.133 545.579 187.5H548.579ZM544.809 172.55L547.414 171.062C544.684 166.284 540.77 162.626 535.751 160.117L534.409 162.8L533.067 165.483C537.061 167.48 540.081 170.322 542.204 174.038L544.809 172.55ZM534.409 162.8L535.813 160.149C530.877 157.536 525.132 156.29 518.679 156.29V159.29V162.29C524.36 162.29 529.101 163.384 533.005 165.451L534.409 162.8ZM518.679 159.29V156.29H499.439V159.29V162.29H518.679V159.29ZM499.439 159.29H496.439V215.71H499.439H502.439V159.29H499.439ZM616.401 233L613.55 233.933L614.226 236H616.401V233ZM586.631 142V139H582.494L583.78 142.933L586.631 142ZM608.471 142L611.328 141.083L610.659 139H608.471V142ZM634.341 222.6V225.6H638.455L637.198 221.683L634.341 222.6ZM623.422 222.6L620.577 221.646L619.251 225.6H623.422V222.6ZM650.461 142V139H648.304L647.617 141.046L650.461 142ZM669.961 142L672.817 141.079L672.146 139H669.961V142ZM695.961 222.6V225.6H700.081L698.817 221.679L695.961 222.6ZM685.432 222.6L682.582 221.662L681.286 225.6H685.432V222.6ZM711.951 142V139H709.78L709.102 141.062L711.951 142ZM732.102 142L734.953 142.933L736.239 139H732.102V142ZM702.331 233V236H704.507L705.183 233.933L702.331 233ZM679.711 233L676.859 233.928L677.533 236H679.711V233ZM656.701 162.28V159.28H652.571L653.849 163.208L656.701 162.28ZM662.682 162.28L665.526 163.232L666.849 159.28H662.682V162.28ZM639.021 233V236H641.181L641.867 233.952L639.021 233ZM616.401 233L619.253 232.067L589.483 141.067L586.631 142L583.78 142.933L613.55 233.933L616.401 233ZM586.631 142V145H608.471V142V139H586.631V142ZM608.471 142L605.615 142.917L631.485 223.517L634.341 222.6L637.198 221.683L611.328 141.083L608.471 142ZM634.341 222.6V219.6H623.422V222.6V225.6H634.341V222.6ZM623.422 222.6L626.266 223.554L653.306 142.954L650.461 142L647.617 141.046L620.577 221.646L623.422 222.6ZM650.461 142V145H669.961V142V139H650.461V142ZM669.961 142L667.106 142.921L693.106 223.521L695.961 222.6L698.817 221.679L672.817 141.079L669.961 142ZM695.961 222.6V219.6H685.432V222.6V225.6H695.961V222.6ZM685.432 222.6L688.281 223.538L714.801 142.938L711.951 142L709.102 141.062L682.582 221.662L685.432 222.6ZM711.951 142V145H732.102V142V139H711.951V142ZM732.102 142L729.25 141.067L699.48 232.067L702.331 233L705.183 233.933L734.953 142.933L732.102 142ZM702.331 233V230H679.711V233V236H702.331V233ZM679.711 233L682.564 232.072L659.554 161.352L656.701 162.28L653.849 163.208L676.859 233.928L679.711 233ZM656.701 162.28V165.28H662.682V162.28V159.28H656.701V162.28ZM662.682 162.28L659.836 161.328L636.177 232.048L639.021 233L641.867 233.952L665.526 163.232L662.682 162.28ZM639.021 233V230H616.401V233V236H639.021V233ZM755.558 233H752.558V236H755.558V233ZM755.558 142V139H752.558V142H755.558ZM776.618 142H779.618V139H776.618V142ZM776.618 233V236H779.618V233H776.618ZM755.558 233H758.558V142H755.558H752.558V233H755.558ZM755.558 142V145H776.618V142V139H755.558V142ZM776.618 142H773.618V233H776.618H779.618V142H776.618ZM776.618 233V230H755.558V233V236H776.618V233ZM809.915 233H806.915V236H809.915V233ZM809.915 142V139H806.915V142H809.915ZM870.365 146.03L869.12 148.76L869.137 148.767L869.154 148.775L870.365 146.03ZM884.015 157.34L881.498 158.973L884.015 157.34ZM870.365 204.01L871.576 206.755L871.592 206.747L871.609 206.74L870.365 204.01ZM821.615 207.91L819.479 205.803L814.442 210.91H821.615V207.91ZM830.975 198.42H833.975V191.106L828.839 196.313L830.975 198.42ZM830.975 233V236H833.975V233H830.975ZM830.975 200.76L828.783 202.809L833.975 208.361V200.76H830.975ZM821.615 190.75V187.75H814.702L819.423 192.799L821.615 190.75ZM821.615 159.16L819.423 157.111L814.702 162.16H821.615V159.16ZM830.975 149.15H833.975V141.549L828.783 147.101L830.975 149.15ZM809.915 233H812.915V142H809.915H806.915V233H809.915ZM809.915 142V145H849.305V142V139H809.915V142ZM849.305 142V145C857.129 145 863.705 146.291 869.12 148.76L870.365 146.03L871.609 143.3C865.238 140.396 857.773 139 849.305 139V142ZM870.365 146.03L869.154 148.775C874.565 151.162 878.639 154.569 881.498 158.973L884.015 157.34L886.531 155.707C882.977 150.231 877.951 146.098 871.576 143.285L870.365 146.03ZM884.015 157.34L881.498 158.973C884.341 163.352 885.825 168.657 885.825 175.02H888.825H891.825C891.825 167.69 890.102 161.208 886.531 155.707L884.015 157.34ZM888.825 175.02H885.825C885.825 181.288 884.345 186.552 881.498 190.937L884.015 192.57L886.531 194.203C890.098 188.708 891.825 182.272 891.825 175.02H888.825ZM884.015 192.57L881.498 190.937C878.633 195.35 874.548 198.806 869.12 201.28L870.365 204.01L871.609 206.74C877.968 203.841 882.983 199.67 886.531 194.203L884.015 192.57ZM870.365 204.01L869.154 201.265C863.729 203.659 857.141 204.91 849.305 204.91V207.91V210.91C857.762 210.91 865.214 209.561 871.576 206.755L870.365 204.01ZM849.305 207.91V204.91H821.615V207.91V210.91H849.305V207.91ZM821.615 207.91L823.751 210.017L833.111 200.527L830.975 198.42L828.839 196.313L819.479 205.803L821.615 207.91ZM830.975 198.42H827.975V233H830.975H833.975V198.42H830.975ZM830.975 233V230H809.915V233V236H830.975V233ZM830.975 200.76L833.166 198.711L823.806 188.701L821.615 190.75L819.423 192.799L828.783 202.809L830.975 200.76ZM821.615 190.75V193.75H848.135V190.75V187.75H821.615V190.75ZM848.135 190.75V193.75C854.987 193.75 860.68 192.299 864.657 188.859L862.695 186.59L860.732 184.321C858.296 186.428 854.283 187.75 848.135 187.75V190.75ZM862.695 186.59L864.657 188.859C868.634 185.419 870.505 180.672 870.505 175.02H867.505H864.505C864.505 179.248 863.168 182.214 860.732 184.321L862.695 186.59ZM867.505 175.02H870.505C870.505 169.3 868.646 164.501 864.657 161.051L862.695 163.32L860.732 165.589C863.156 167.686 864.505 170.687 864.505 175.02H867.505ZM862.695 163.32L864.657 161.051C860.68 157.611 854.987 156.16 848.135 156.16V159.16V162.16C854.283 162.16 858.296 163.482 860.732 165.589L862.695 163.32ZM848.135 159.16V156.16H821.615V159.16V162.16H848.135V159.16ZM821.615 159.16L823.806 161.209L833.166 151.199L830.975 149.15L828.783 147.101L819.423 157.111L821.615 159.16ZM830.975 149.15H827.975V200.76H830.975H833.975V149.15H830.975ZM899.03 233L896.289 231.779L894.408 236H899.03V233ZM939.59 142V139H937.642L936.849 140.779L939.59 142ZM960.39 142L963.128 140.775L962.334 139H960.39V142ZM1001.08 233V236H1005.71L1003.82 231.775L1001.08 233ZM978.98 233L976.208 234.148L976.975 236H978.98V233ZM945.7 152.66V149.66H941.21L942.928 153.808L945.7 152.66ZM954.02 152.66L956.79 153.812L958.516 149.66H954.02V152.66ZM920.61 233V236H922.611L923.38 234.152L920.61 233ZM919.31 213.5L916.478 212.51L915.083 216.5H919.31V213.5ZM924.9 197.51V194.51H922.77L922.068 196.52L924.9 197.51ZM971.7 197.51L974.524 196.5L973.813 194.51H971.7V197.51ZM977.42 213.5V216.5H981.679L980.244 212.49L977.42 213.5ZM899.03 233L901.77 234.221L942.33 143.221L939.59 142L936.849 140.779L896.289 231.779L899.03 233ZM939.59 142V145H960.39V142V139H939.59V142ZM960.39 142L957.651 143.225L998.341 234.225L1001.08 233L1003.82 231.775L963.128 140.775L960.39 142ZM1001.08 233V230H978.98V233V236H1001.08V233ZM978.98 233L981.751 231.852L948.471 151.512L945.7 152.66L942.928 153.808L976.208 234.148L978.98 233ZM945.7 152.66V155.66H954.02V152.66V149.66H945.7V152.66ZM954.02 152.66L951.25 151.508L917.84 231.848L920.61 233L923.38 234.152L956.79 153.812L954.02 152.66ZM920.61 233V230H899.03V233V236H920.61V233ZM919.31 213.5L922.142 214.49L927.732 198.5L924.9 197.51L922.068 196.52L916.478 212.51L919.31 213.5ZM924.9 197.51V200.51H971.7V197.51V194.51H924.9V197.51ZM971.7 197.51L968.875 198.52L974.595 214.51L977.42 213.5L980.244 212.49L974.524 196.5L971.7 197.51ZM977.42 213.5V210.5H919.31V213.5V216.5H977.42V213.5Z" fill="white" mask="url(#path-1-outside-1_1025_2)"/>
<mask id="path-3-outside-2_1025_2" maskUnits="userSpaceOnUse" x="0" y="238" width="1012" height="111" fill="black">
<rect fill="white" y="238" width="1012" height="111"/>
<path d="M39.56 341.56C33.4067 341.56 27.73 340.433 22.53 338.18C17.4167 335.84 13.2133 332.547 9.92 328.3L21.62 314.26C24.1333 317.553 26.7767 320.067 29.55 321.8C32.3233 323.447 35.3133 324.27 38.52 324.27C47.1 324.27 51.39 319.243 51.39 309.19V265.9H19.41V249H72.32V308.02C72.32 319.287 69.5467 327.693 64 333.24C58.4533 338.787 50.3067 341.56 39.56 341.56ZM90.9577 340L131.518 249H152.318L193.008 340H170.908L137.628 259.66H145.948L112.538 340H90.9577ZM111.238 320.5L116.828 304.51H163.628L169.348 320.5H111.238ZM231.038 340L201.268 249H223.108L248.978 329.6H238.058L265.098 249H284.598L310.598 329.6H300.068L326.588 249H346.738L316.968 340H294.348L271.338 269.28H277.318L253.658 340H231.038ZM355.188 340L395.748 249H416.548L457.238 340H435.138L401.858 259.66H410.178L376.768 340H355.188ZM375.468 320.5L381.058 304.51H427.858L433.578 320.5H375.468ZM478.379 340V249H519.719C529.599 249 538.309 250.907 545.849 254.72C553.389 258.447 559.282 263.69 563.529 270.45C567.776 277.21 569.899 285.227 569.899 294.5C569.899 303.687 567.776 311.703 563.529 318.55C559.282 325.31 553.389 330.597 545.849 334.41C538.309 338.137 529.599 340 519.719 340H478.379ZM499.439 322.71H518.679C524.746 322.71 529.989 321.583 534.409 319.33C538.916 316.99 542.382 313.697 544.809 309.45C547.322 305.203 548.579 300.22 548.579 294.5C548.579 288.693 547.322 283.71 544.809 279.55C542.382 275.303 538.916 272.053 534.409 269.8C529.989 267.46 524.746 266.29 518.679 266.29H499.439V322.71ZM616.401 340L586.631 249H608.471L634.341 329.6H623.421L650.461 249H669.961L695.961 329.6H685.431L711.951 249H732.101L702.331 340H679.711L656.701 269.28H662.681L639.021 340H616.401ZM755.558 340V249H776.618V340H755.558ZM809.915 340V249H849.305C857.451 249 864.471 250.343 870.365 253.03C876.258 255.63 880.808 259.4 884.015 264.34C887.221 269.28 888.825 275.173 888.825 282.02C888.825 288.78 887.221 294.63 884.015 299.57C880.808 304.51 876.258 308.323 870.365 311.01C864.471 313.61 857.451 314.91 849.305 314.91H821.615L830.975 305.42V340H809.915ZM830.975 307.76L821.615 297.75H848.135C854.635 297.75 859.488 296.363 862.695 293.59C865.901 290.817 867.505 286.96 867.505 282.02C867.505 276.993 865.901 273.093 862.695 270.32C859.488 267.547 854.635 266.16 848.135 266.16H821.615L830.975 256.15V307.76ZM899.03 340L939.59 249H960.39L1001.08 340H978.98L945.7 259.66H954.02L920.61 340H899.03ZM919.31 320.5L924.9 304.51H971.7L977.42 320.5H919.31Z"/>
</mask>
<path d="M22.53 338.18L19.6171 344.545L19.6816 344.575L19.7467 344.603L22.53 338.18ZM9.92 328.3L4.54245 323.819L0.939432 328.142L4.38846 332.59L9.92 328.3ZM21.62 314.26L27.1847 310.013L21.8606 303.037L16.2425 309.779L21.62 314.26ZM29.55 321.8L25.84 327.736L25.9076 327.778L25.9762 327.819L29.55 321.8ZM51.39 265.9H58.39V258.9H51.39V265.9ZM19.41 265.9H12.41V272.9H19.41V265.9ZM19.41 249V242H12.41V249H19.41ZM72.32 249H79.32V242H72.32V249ZM64 333.24L59.0503 328.29H59.0503L64 333.24ZM39.56 341.56V334.56C34.2812 334.56 29.5617 333.598 25.3133 331.757L22.53 338.18L19.7467 344.603C25.8983 347.269 32.5322 348.56 39.56 348.56V341.56ZM22.53 338.18L25.4429 331.815C21.3079 329.923 18.0199 327.322 15.4515 324.01L9.92 328.3L4.38846 332.59C8.4068 337.771 13.5254 341.757 19.6171 344.545L22.53 338.18ZM9.92 328.3L15.2975 332.781L26.9975 318.741L21.62 314.26L16.2425 309.779L4.54245 323.819L9.92 328.3ZM21.62 314.26L16.0553 318.507C18.9495 322.299 22.1895 325.454 25.84 327.736L29.55 321.8L33.26 315.864C31.3638 314.679 29.3171 312.808 27.1847 310.013L21.62 314.26ZM29.55 321.8L25.9762 327.819C29.8244 330.104 34.0479 331.27 38.52 331.27V324.27V317.27C36.5788 317.27 34.8223 316.789 33.1238 315.781L29.55 321.8ZM38.52 324.27V331.27C44.2046 331.27 49.6492 329.553 53.497 325.044C57.1636 320.748 58.39 315.048 58.39 309.19H51.39H44.39C44.39 313.385 43.4714 315.225 42.848 315.956C42.4058 316.474 41.4154 317.27 38.52 317.27V324.27ZM51.39 309.19H58.39V265.9H51.39H44.39V309.19H51.39ZM51.39 265.9V258.9H19.41V265.9V272.9H51.39V265.9ZM19.41 265.9H26.41V249H19.41H12.41V265.9H19.41ZM19.41 249V256H72.32V249V242H19.41V249ZM72.32 249H65.32V308.02H72.32H79.32V249H72.32ZM72.32 308.02H65.32C65.32 318.244 62.803 324.538 59.0503 328.29L64 333.24L68.9497 338.19C76.2904 330.849 79.32 320.329 79.32 308.02H72.32ZM64 333.24L59.0503 328.29C55.2414 332.099 49.1529 334.56 39.56 334.56V341.56V348.56C51.4604 348.56 61.6653 345.474 68.9497 338.19L64 333.24ZM90.9577 340L84.5641 337.15L80.1739 347H90.9577V340ZM131.518 249V242H126.974L125.124 246.15L131.518 249ZM152.318 249L158.708 246.143L156.856 242H152.318V249ZM193.008 340V347H203.806L199.398 337.143L193.008 340ZM170.908 340L164.441 342.679L166.231 347H170.908V340ZM137.628 259.66V252.66H127.151L131.161 262.339L137.628 259.66ZM145.948 259.66L152.411 262.348L156.44 252.66H145.948V259.66ZM112.538 340V347H117.208L119.001 342.688L112.538 340ZM111.238 320.5L104.63 318.19L101.375 327.5H111.238V320.5ZM116.828 304.51V297.51H111.859L110.22 302.2L116.828 304.51ZM163.628 304.51L170.219 302.152L168.558 297.51H163.628V304.51ZM169.348 320.5V327.5H179.286L175.939 318.142L169.348 320.5ZM90.9577 340L97.3514 342.85L137.911 251.85L131.518 249L125.124 246.15L84.5641 337.15L90.9577 340ZM131.518 249V256H152.318V249V242H131.518V249ZM152.318 249L145.927 251.857L186.617 342.857L193.008 340L199.398 337.143L158.708 246.143L152.318 249ZM193.008 340V333H170.908V340V347H193.008V340ZM170.908 340L177.375 337.321L144.095 256.981L137.628 259.66L131.161 262.339L164.441 342.679L170.908 340ZM137.628 259.66V266.66H145.948V259.66V252.66H137.628V259.66ZM145.948 259.66L139.484 256.972L106.074 337.312L112.538 340L119.001 342.688L152.411 262.348L145.948 259.66ZM112.538 340V333H90.9577V340V347H112.538V340ZM111.238 320.5L117.846 322.81L123.436 306.82L116.828 304.51L110.22 302.2L104.63 318.19L111.238 320.5ZM116.828 304.51V311.51H163.628V304.51V297.51H116.828V304.51ZM163.628 304.51L157.037 306.868L162.757 322.858L169.348 320.5L175.939 318.142L170.219 302.152L163.628 304.51ZM169.348 320.5V313.5H111.238V320.5V327.5H169.348V320.5ZM231.038 340L224.385 342.176L225.963 347H231.038V340ZM201.268 249V242H191.613L194.615 251.176L201.268 249ZM223.108 249L229.773 246.861L228.213 242H223.108V249ZM248.978 329.6V336.6H258.576L255.643 327.461L248.978 329.6ZM238.058 329.6L231.421 327.374L228.326 336.6H238.058V329.6ZM265.098 249V242H260.063L258.461 246.774L265.098 249ZM284.598 249L291.26 246.851L289.695 242H284.598V249ZM310.598 329.6V336.6H320.211L317.26 327.451L310.598 329.6ZM300.068 329.6L293.418 327.412L290.395 336.6H300.068V329.6ZM326.588 249V242H321.522L319.939 246.812L326.588 249ZM346.738 249L353.391 251.176L356.393 242H346.738V249ZM316.968 340V347H322.043L323.621 342.176L316.968 340ZM294.348 340L287.691 342.166L289.264 347H294.348V340ZM271.338 269.28V262.28H261.699L264.681 271.446L271.338 269.28ZM277.318 269.28L283.956 271.501L287.041 262.28H277.318V269.28ZM253.658 340V347H258.697L260.296 342.221L253.658 340ZM231.038 340L237.691 337.824L207.921 246.824L201.268 249L194.615 251.176L224.385 342.176L231.038 340ZM201.268 249V256H223.108V249V242H201.268V249ZM223.108 249L216.443 251.139L242.313 331.739L248.978 329.6L255.643 327.461L229.773 246.861L223.108 249ZM248.978 329.6V322.6H238.058V329.6V336.6H248.978V329.6ZM238.058 329.6L244.694 331.826L271.734 251.226L265.098 249L258.461 246.774L231.421 327.374L238.058 329.6ZM265.098 249V256H284.598V249V242H265.098V249ZM284.598 249L277.936 251.149L303.936 331.749L310.598 329.6L317.26 327.451L291.26 246.851L284.598 249ZM310.598 329.6V322.6H300.068V329.6V336.6H310.598V329.6ZM300.068 329.6L306.717 331.788L333.237 251.188L326.588 249L319.939 246.812L293.418 327.412L300.068 329.6ZM326.588 249V256H346.738V249V242H326.588V249ZM346.738 249L340.085 246.824L310.315 337.824L316.968 340L323.621 342.176L353.391 251.176L346.738 249ZM316.968 340V333H294.348V340V347H316.968V340ZM294.348 340L301.004 337.834L277.994 267.114L271.338 269.28L264.681 271.446L287.691 342.166L294.348 340ZM271.338 269.28V276.28H277.318V269.28V262.28H271.338V269.28ZM277.318 269.28L270.679 267.059L247.019 337.779L253.658 340L260.296 342.221L283.956 271.501L277.318 269.28ZM253.658 340V333H231.038V340V347H253.658V340ZM355.188 340L348.794 337.15L344.404 347H355.188V340ZM395.748 249V242H391.204L389.354 246.15L395.748 249ZM416.548 249L422.938 246.143L421.086 242H416.548V249ZM457.238 340V347H468.036L463.628 337.143L457.238 340ZM435.138 340L428.671 342.679L430.461 347H435.138V340ZM401.858 259.66V252.66H391.381L395.391 262.339L401.858 259.66ZM410.178 259.66L416.641 262.348L420.67 252.66H410.178V259.66ZM376.768 340V347H381.438L383.231 342.688L376.768 340ZM375.468 320.5L368.86 318.19L365.605 327.5H375.468V320.5ZM381.058 304.51V297.51H376.09L374.45 302.2L381.058 304.51ZM427.858 304.51L434.449 302.152L432.788 297.51H427.858V304.51ZM433.578 320.5V327.5H443.516L440.169 318.142L433.578 320.5ZM355.188 340L361.581 342.85L402.141 251.85L395.748 249L389.354 246.15L348.794 337.15L355.188 340ZM395.748 249V256H416.548V249V242H395.748V249ZM416.548 249L410.158 251.857L450.848 342.857L457.238 340L463.628 337.143L422.938 246.143L416.548 249ZM457.238 340V333H435.138V340V347H457.238V340ZM435.138 340L441.605 337.321L408.325 256.981L401.858 259.66L395.391 262.339L428.671 342.679L435.138 340ZM401.858 259.66V266.66H410.178V259.66V252.66H401.858V259.66ZM410.178 259.66L403.714 256.972L370.304 337.312L376.768 340L383.231 342.688L416.641 262.348L410.178 259.66ZM376.768 340V333H355.188V340V347H376.768V340ZM375.468 320.5L382.076 322.81L387.666 306.82L381.058 304.51L374.45 302.2L368.86 318.19L375.468 320.5ZM381.058 304.51V311.51H427.858V304.51V297.51H381.058V304.51ZM427.858 304.51L421.267 306.868L426.987 322.858L433.578 320.5L440.169 318.142L434.449 302.152L427.858 304.51ZM433.578 320.5V313.5H375.468V320.5V327.5H433.578V320.5ZM478.379 340H471.379V347H478.379V340ZM478.379 249V242H471.379V249H478.379ZM545.849 254.72L542.69 260.967L542.719 260.981L542.747 260.995L545.849 254.72ZM563.529 270.45L557.602 274.174L563.529 270.45ZM563.529 318.55L569.456 322.274L569.467 322.257L569.478 322.24L563.529 318.55ZM545.849 334.41L548.951 340.685L548.979 340.671L549.008 340.657L545.849 334.41ZM499.439 322.71H492.439V329.71H499.439V322.71ZM534.409 319.33L537.588 325.566L537.612 325.554L537.635 325.542L534.409 319.33ZM544.809 309.45L538.785 305.885L538.758 305.931L538.731 305.977L544.809 309.45ZM544.809 279.55L538.731 283.023L538.774 283.097L538.818 283.17L544.809 279.55ZM534.409 269.8L531.134 275.987L531.206 276.025L531.279 276.061L534.409 269.8ZM499.439 266.29V259.29H492.439V266.29H499.439ZM478.379 340H485.379V249H478.379H471.379V340H478.379ZM478.379 249V256H519.719V249V242H478.379V249ZM519.719 249V256C528.687 256 536.282 257.726 542.69 260.967L545.849 254.72L549.008 248.473C540.336 244.087 530.511 242 519.719 242V249ZM545.849 254.72L542.747 260.995C549.193 264.181 554.081 268.569 557.602 274.174L563.529 270.45L569.456 266.726C564.484 258.811 557.585 252.712 548.951 248.445L545.849 254.72ZM563.529 270.45L557.602 274.174C561.04 279.648 562.899 286.327 562.899 294.5H569.899H576.899C576.899 284.126 574.511 274.772 569.456 266.726L563.529 270.45ZM569.899 294.5H562.899C562.899 302.57 561.047 309.271 557.58 314.86L563.529 318.55L569.478 322.24C574.504 314.136 576.899 304.803 576.899 294.5H569.899ZM563.529 318.55L557.602 314.826C554.071 320.446 549.164 324.889 542.69 328.163L545.849 334.41L549.008 340.657C557.614 336.304 564.493 330.174 569.456 322.274L563.529 318.55ZM545.849 334.41L542.747 328.135C536.327 331.308 528.71 333 519.719 333V340V347C530.488 347 540.291 344.965 548.951 340.685L545.849 334.41ZM519.719 340V333H478.379V340V347H519.719V340ZM499.439 322.71V329.71H518.679V322.71V315.71H499.439V322.71ZM518.679 322.71V329.71C525.608 329.71 531.988 328.421 537.588 325.566L534.409 319.33L531.23 313.094C527.99 314.745 523.883 315.71 518.679 315.71V322.71ZM534.409 319.33L537.635 325.542C543.288 322.607 547.766 318.384 550.887 312.923L544.809 309.45L538.731 305.977C536.999 309.009 534.544 311.373 531.183 313.118L534.409 319.33ZM544.809 309.45L550.833 313.015C554.081 307.527 555.579 301.272 555.579 294.5H548.579H541.579C541.579 299.168 540.564 302.879 538.785 305.885L544.809 309.45ZM548.579 294.5H555.579C555.579 287.667 554.092 281.378 550.8 275.93L544.809 279.55L538.818 283.17C540.553 286.042 541.579 289.719 541.579 294.5H548.579ZM544.809 279.55L550.887 276.077C547.753 270.593 543.243 266.391 537.54 263.539L534.409 269.8L531.279 276.061C534.589 277.716 537.012 280.014 538.731 283.023L544.809 279.55ZM534.409 269.8L537.684 263.613C532.062 260.637 525.647 259.29 518.679 259.29V266.29V273.29C523.845 273.29 527.916 274.283 531.134 275.987L534.409 269.8ZM518.679 266.29V259.29H499.439V266.29V273.29H518.679V266.29ZM499.439 266.29H492.439V322.71H499.439H506.439V266.29H499.439ZM616.401 340L609.748 342.176L611.326 347H616.401V340ZM586.631 249V242H576.976L579.978 251.176L586.631 249ZM608.471 249L615.137 246.861L613.576 242H608.471V249ZM634.341 329.6V336.6H643.94L641.007 327.461L634.341 329.6ZM623.422 329.6L616.785 327.374L613.69 336.6H623.422V329.6ZM650.461 249V242H645.426L643.825 246.774L650.461 249ZM669.961 249L676.623 246.851L675.059 242H669.961V249ZM695.961 329.6V336.6H705.575L702.623 327.451L695.961 329.6ZM685.432 329.6L678.782 327.412L675.759 336.6H685.432V329.6ZM711.951 249V242H706.886L705.302 246.812L711.951 249ZM732.102 249L738.755 251.176L741.757 242H732.102V249ZM702.331 340V347H707.407L708.984 342.176L702.331 340ZM679.711 340L673.055 342.166L674.628 347H679.711V340ZM656.701 269.28V262.28H647.063L650.045 271.446L656.701 269.28ZM662.682 269.28L669.32 271.501L672.405 262.28H662.682V269.28ZM639.021 340V347H644.061L645.66 342.221L639.021 340ZM616.401 340L623.055 337.824L593.285 246.824L586.631 249L579.978 251.176L609.748 342.176L616.401 340ZM586.631 249V256H608.471V249V242H586.631V249ZM608.471 249L601.806 251.139L627.676 331.739L634.341 329.6L641.007 327.461L615.137 246.861L608.471 249ZM634.341 329.6V322.6H623.422V329.6V336.6H634.341V329.6ZM623.422 329.6L630.058 331.826L657.098 251.226L650.461 249L643.825 246.774L616.785 327.374L623.422 329.6ZM650.461 249V256H669.961V249V242H650.461V249ZM669.961 249L663.3 251.149L689.299 331.749L695.961 329.6L702.623 327.451L676.623 246.851L669.961 249ZM695.961 329.6V322.6H685.432V329.6V336.6H695.961V329.6ZM685.432 329.6L692.081 331.788L718.601 251.188L711.951 249L705.302 246.812L678.782 327.412L685.432 329.6ZM711.951 249V256H732.102V249V242H711.951V249ZM732.102 249L725.448 246.824L695.678 337.824L702.331 340L708.984 342.176L738.755 251.176L732.102 249ZM702.331 340V333H679.711V340V347H702.331V340ZM679.711 340L686.368 337.834L663.358 267.114L656.701 269.28L650.045 271.446L673.055 342.166L679.711 340ZM656.701 269.28V276.28H662.682V269.28V262.28H656.701V269.28ZM662.682 269.28L656.043 267.059L632.383 337.779L639.021 340L645.66 342.221L669.32 271.501L662.682 269.28ZM639.021 340V333H616.401V340V347H639.021V340ZM755.558 340H748.558V347H755.558V340ZM755.558 249V242H748.558V249H755.558ZM776.618 249H783.618V242H776.618V249ZM776.618 340V347H783.618V340H776.618ZM755.558 340H762.558V249H755.558H748.558V340H755.558ZM755.558 249V256H776.618V249V242H755.558V249ZM776.618 249H769.618V340H776.618H783.618V249H776.618ZM776.618 340V333H755.558V340V347H776.618V340ZM809.915 340H802.915V347H809.915V340ZM809.915 249V242H802.915V249H809.915ZM870.365 253.03L867.461 259.399L867.5 259.417L867.539 259.434L870.365 253.03ZM884.015 264.34L878.143 268.151L884.015 264.34ZM870.365 311.01L873.19 317.414L873.229 317.397L873.268 317.379L870.365 311.01ZM821.615 314.91L816.631 309.995L804.879 321.91H821.615V314.91ZM830.975 305.42H837.975V288.354L825.991 300.505L830.975 305.42ZM830.975 340V347H837.975V340H830.975ZM830.975 307.76L825.862 312.541L837.975 325.495V307.76H830.975ZM821.615 297.75V290.75H805.486L816.502 302.531L821.615 297.75ZM821.615 266.16L816.502 261.379L805.486 273.16H821.615V266.16ZM830.975 256.15H837.975V238.415L825.862 251.369L830.975 256.15ZM809.915 340H816.915V249H809.915H802.915V340H809.915ZM809.915 249V256H849.305V249V242H809.915V249ZM849.305 249V256C856.7 256 862.682 257.221 867.461 259.399L870.365 253.03L873.268 246.661C866.26 243.466 858.203 242 849.305 242V249ZM870.365 253.03L867.539 259.434C872.308 261.538 875.747 264.46 878.143 268.151L884.015 264.34L889.886 260.529C885.869 254.34 880.208 249.722 873.19 246.626L870.365 253.03ZM884.015 264.34L878.143 268.151C880.5 271.782 881.825 276.301 881.825 282.02H888.825H895.825C895.825 274.045 893.943 266.778 889.886 260.529L884.015 264.34ZM888.825 282.02H881.825C881.825 287.632 880.509 292.114 878.143 295.759L884.015 299.57L889.886 303.381C893.934 297.146 895.825 289.928 895.825 282.02H888.825ZM884.015 299.57L878.143 295.759C875.734 299.471 872.267 302.45 867.461 304.641L870.365 311.01L873.268 317.379C880.249 314.197 885.882 309.549 889.886 303.381L884.015 299.57ZM870.365 311.01L867.539 304.606C862.738 306.724 856.727 307.91 849.305 307.91V314.91V321.91C858.176 321.91 866.204 320.496 873.19 317.414L870.365 311.01ZM849.305 314.91V307.91H821.615V314.91V321.91H849.305V314.91ZM821.615 314.91L826.598 319.825L835.958 310.335L830.975 305.42L825.991 300.505L816.631 309.995L821.615 314.91ZM830.975 305.42H823.975V340H830.975H837.975V305.42H830.975ZM830.975 340V333H809.915V340V347H830.975V340ZM830.975 307.76L836.088 302.979L826.728 292.969L821.615 297.75L816.502 302.531L825.862 312.541L830.975 307.76ZM821.615 297.75V304.75H848.135V297.75V290.75H821.615V297.75ZM848.135 297.75V304.75C855.456 304.75 862.268 303.214 867.274 298.885L862.695 293.59L858.116 288.295C856.708 289.513 853.813 290.75 848.135 290.75V297.75ZM862.695 293.59L867.274 298.885C872.278 294.556 874.505 288.621 874.505 282.02H867.505H860.505C860.505 285.299 859.524 287.077 858.116 288.295L862.695 293.59ZM867.505 282.02H874.505C874.505 275.376 872.306 269.378 867.274 265.025L862.695 270.32L858.116 275.615C859.496 276.809 860.505 278.611 860.505 282.02H867.505ZM862.695 270.32L867.274 265.025C862.268 260.696 855.456 259.16 848.135 259.16V266.16V273.16C853.813 273.16 856.708 274.397 858.116 275.615L862.695 270.32ZM848.135 266.16V259.16H821.615V266.16V273.16H848.135V266.16ZM821.615 266.16L826.728 270.941L836.088 260.931L830.975 256.15L825.862 251.369L816.502 261.379L821.615 266.16ZM830.975 256.15H823.975V307.76H830.975H837.975V256.15H830.975ZM899.03 340L892.636 337.15L888.246 347H899.03V340ZM939.59 249V242H935.046L933.196 246.15L939.59 249ZM960.39 249L966.78 246.143L964.927 242H960.39V249ZM1001.08 340V347H1011.88L1007.47 337.143L1001.08 340ZM978.98 340L972.513 342.679L974.302 347H978.98V340ZM945.7 259.66V252.66H935.223L939.232 262.339L945.7 259.66ZM954.02 259.66L960.483 262.348L964.512 252.66H954.02V259.66ZM920.61 340V347H925.28L927.073 342.688L920.61 340ZM919.31 320.5L912.702 318.19L909.447 327.5H919.31V320.5ZM924.9 304.51V297.51H919.931L918.292 302.2L924.9 304.51ZM971.7 304.51L978.291 302.152L976.63 297.51H971.7V304.51ZM977.42 320.5V327.5H987.358L984.011 318.142L977.42 320.5ZM899.03 340L905.423 342.85L945.983 251.85L939.59 249L933.196 246.15L892.636 337.15L899.03 340ZM939.59 249V256H960.39V249V242H939.59V249ZM960.39 249L953.999 251.857L994.689 342.857L1001.08 340L1007.47 337.143L966.78 246.143L960.39 249ZM1001.08 340V333H978.98V340V347H1001.08V340ZM978.98 340L985.447 337.321L952.167 256.981L945.7 259.66L939.232 262.339L972.513 342.679L978.98 340ZM945.7 259.66V266.66H954.02V259.66V252.66H945.7V259.66ZM954.02 259.66L947.556 256.972L914.146 337.312L920.61 340L927.073 342.688L960.483 262.348L954.02 259.66ZM920.61 340V333H899.03V340V347H920.61V340ZM919.31 320.5L925.917 322.81L931.507 306.82L924.9 304.51L918.292 302.2L912.702 318.19L919.31 320.5ZM924.9 304.51V311.51H971.7V304.51V297.51H924.9V304.51ZM971.7 304.51L965.109 306.868L970.829 322.858L977.42 320.5L984.011 318.142L978.291 302.152L971.7 304.51ZM977.42 320.5V313.5H919.31V320.5V327.5H977.42V320.5Z" fill="white" mask="url(#path-3-outside-2_1025_2)"/>
<mask id="path-5-outside-3_1025_2" maskUnits="userSpaceOnUse" x="0" y="24" width="1012" height="111" fill="black">
<rect fill="white" y="24" width="1012" height="111"/>
<path d="M39.56 127.56C33.4067 127.56 27.73 126.433 22.53 124.18C17.4167 121.84 13.2133 118.547 9.92 114.3L21.62 100.26C24.1333 103.553 26.7767 106.067 29.55 107.8C32.3233 109.447 35.3133 110.27 38.52 110.27C47.1 110.27 51.39 105.243 51.39 95.19V51.9H19.41V35H72.32V94.02C72.32 105.287 69.5467 113.693 64 119.24C58.4533 124.787 50.3067 127.56 39.56 127.56ZM90.9577 126L131.518 35H152.318L193.008 126H170.908L137.628 45.66H145.948L112.538 126H90.9577ZM111.238 106.5L116.828 90.51H163.628L169.348 106.5H111.238ZM231.038 126L201.268 35H223.108L248.978 115.6H238.058L265.098 35H284.598L310.598 115.6H300.068L326.588 35H346.738L316.968 126H294.348L271.338 55.28H277.318L253.658 126H231.038ZM355.188 126L395.748 35H416.548L457.238 126H435.138L401.858 45.66H410.178L376.768 126H355.188ZM375.468 106.5L381.058 90.51H427.858L433.578 106.5H375.468ZM478.379 126V35H519.719C529.599 35 538.309 36.9067 545.849 40.72C553.389 44.4467 559.282 49.69 563.529 56.45C567.776 63.21 569.899 71.2267 569.899 80.5C569.899 89.6867 567.776 97.7033 563.529 104.55C559.282 111.31 553.389 116.597 545.849 120.41C538.309 124.137 529.599 126 519.719 126H478.379ZM499.439 108.71H518.679C524.746 108.71 529.989 107.583 534.409 105.33C538.916 102.99 542.382 99.6967 544.809 95.45C547.322 91.2033 548.579 86.22 548.579 80.5C548.579 74.6933 547.322 69.71 544.809 65.55C542.382 61.3033 538.916 58.0533 534.409 55.8C529.989 53.46 524.746 52.29 518.679 52.29H499.439V108.71ZM616.401 126L586.631 35H608.471L634.341 115.6H623.421L650.461 35H669.961L695.961 115.6H685.431L711.951 35H732.101L702.331 126H679.711L656.701 55.28H662.681L639.021 126H616.401ZM755.558 126V35H776.618V126H755.558ZM809.915 126V35H849.305C857.451 35 864.471 36.3433 870.365 39.03C876.258 41.63 880.808 45.4 884.015 50.34C887.221 55.28 888.825 61.1733 888.825 68.02C888.825 74.78 887.221 80.63 884.015 85.57C880.808 90.51 876.258 94.3233 870.365 97.01C864.471 99.61 857.451 100.91 849.305 100.91H821.615L830.975 91.42V126H809.915ZM830.975 93.76L821.615 83.75H848.135C854.635 83.75 859.488 82.3633 862.695 79.59C865.901 76.8167 867.505 72.96 867.505 68.02C867.505 62.9933 865.901 59.0933 862.695 56.32C859.488 53.5467 854.635 52.16 848.135 52.16H821.615L830.975 42.15V93.76ZM899.03 126L939.59 35H960.39L1001.08 126H978.98L945.7 45.66H954.02L920.61 126H899.03ZM919.31 106.5L924.9 90.51H971.7L977.42 106.5H919.31Z"/>
</mask>
<path d="M22.53 124.18L19.6171 130.545L19.6816 130.575L19.7467 130.603L22.53 124.18ZM9.92 114.3L4.54245 109.819L0.939432 114.142L4.38846 118.59L9.92 114.3ZM21.62 100.26L27.1847 96.0133L21.8606 89.0369L16.2425 95.7787L21.62 100.26ZM29.55 107.8L25.84 113.736L25.9076 113.778L25.9762 113.819L29.55 107.8ZM51.39 51.9H58.39V44.9H51.39V51.9ZM19.41 51.9H12.41V58.9H19.41V51.9ZM19.41 35V28H12.41V35H19.41ZM72.32 35H79.32V28H72.32V35ZM64 119.24L59.0503 114.29H59.0503L64 119.24ZM39.56 127.56V120.56C34.2812 120.56 29.5617 119.598 25.3133 117.757L22.53 124.18L19.7467 130.603C25.8983 133.269 32.5322 134.56 39.56 134.56V127.56ZM22.53 124.18L25.4429 117.815C21.3079 115.923 18.0199 113.322 15.4515 110.01L9.92 114.3L4.38846 118.59C8.4068 123.771 13.5254 127.757 19.6171 130.545L22.53 124.18ZM9.92 114.3L15.2975 118.781L26.9975 104.741L21.62 100.26L16.2425 95.7787L4.54245 109.819L9.92 114.3ZM21.62 100.26L16.0553 104.507C18.9495 108.299 22.1895 111.454 25.84 113.736L29.55 107.8L33.26 101.864C31.3638 100.679 29.3171 98.8075 27.1847 96.0133L21.62 100.26ZM29.55 107.8L25.9762 113.819C29.8244 116.104 34.0479 117.27 38.52 117.27V110.27V103.27C36.5788 103.27 34.8223 102.789 33.1238 101.781L29.55 107.8ZM38.52 110.27V117.27C44.2046 117.27 49.6492 115.553 53.497 111.044C57.1636 106.748 58.39 101.048 58.39 95.19H51.39H44.39C44.39 99.385 43.4714 101.225 42.848 101.956C42.4058 102.474 41.4154 103.27 38.52 103.27V110.27ZM51.39 95.19H58.39V51.9H51.39H44.39V95.19H51.39ZM51.39 51.9V44.9H19.41V51.9V58.9H51.39V51.9ZM19.41 51.9H26.41V35H19.41H12.41V51.9H19.41ZM19.41 35V42H72.32V35V28H19.41V35ZM72.32 35H65.32V94.02H72.32H79.32V35H72.32ZM72.32 94.02H65.32C65.32 104.244 62.803 110.538 59.0503 114.29L64 119.24L68.9497 124.19C76.2904 116.849 79.32 106.329 79.32 94.02H72.32ZM64 119.24L59.0503 114.29C55.2414 118.099 49.1529 120.56 39.56 120.56V127.56V134.56C51.4604 134.56 61.6653 131.474 68.9497 124.19L64 119.24ZM90.9577 126L84.5641 123.15L80.1739 133H90.9577V126ZM131.518 35V28H126.974L125.124 32.1502L131.518 35ZM152.318 35L158.708 32.1426L156.856 28H152.318V35ZM193.008 126V133H203.806L199.398 123.143L193.008 126ZM170.908 126L164.441 128.679L166.231 133H170.908V126ZM137.628 45.66V38.66H127.151L131.161 48.3389L137.628 45.66ZM145.948 45.66L152.411 48.3478L156.44 38.66H145.948V45.66ZM112.538 126V133H117.208L119.001 128.688L112.538 126ZM111.238 106.5L104.63 104.19L101.375 113.5H111.238V106.5ZM116.828 90.51V83.51H111.859L110.22 88.1999L116.828 90.51ZM163.628 90.51L170.219 88.1523L168.558 83.51H163.628V90.51ZM169.348 106.5V113.5H179.286L175.939 104.142L169.348 106.5ZM90.9577 126L97.3514 128.85L137.911 37.8497L131.518 35L125.124 32.1502L84.5641 123.15L90.9577 126ZM131.518 35V42H152.318V35V28H131.518V35ZM152.318 35L145.927 37.8574L186.617 128.857L193.008 126L199.398 123.143L158.708 32.1426L152.318 35ZM193.008 126V119H170.908V126V133H193.008V126ZM170.908 126L177.375 123.321L144.095 42.9811L137.628 45.66L131.161 48.3389L164.441 128.679L170.908 126ZM137.628 45.66V52.66H145.948V45.66V38.66H137.628V45.66ZM145.948 45.66L139.484 42.9721L106.074 123.312L112.538 126L119.001 128.688L152.411 48.3478L145.948 45.66ZM112.538 126V119H90.9577V126V133H112.538V126ZM111.238 106.5L117.846 108.81L123.436 92.8201L116.828 90.51L110.22 88.1999L104.63 104.19L111.238 106.5ZM116.828 90.51V97.51H163.628V90.51V83.51H116.828V90.51ZM163.628 90.51L157.037 92.8678L162.757 108.858L169.348 106.5L175.939 104.142L170.219 88.1523L163.628 90.51ZM169.348 106.5V99.5H111.238V106.5V113.5H169.348V106.5ZM231.038 126L224.385 128.176L225.963 133H231.038V126ZM201.268 35V28H191.613L194.615 37.1765L201.268 35ZM223.108 35L229.773 32.8607L228.213 28H223.108V35ZM248.978 115.6V122.6H258.576L255.643 113.461L248.978 115.6ZM238.058 115.6L231.421 113.374L228.326 122.6H238.058V115.6ZM265.098 35V28H260.063L258.461 32.7736L265.098 35ZM284.598 35L291.26 32.851L289.695 28H284.598V35ZM310.598 115.6V122.6H320.211L317.26 113.451L310.598 115.6ZM300.068 115.6L293.418 113.412L290.395 122.6H300.068V115.6ZM326.588 35V28H321.522L319.939 32.8122L326.588 35ZM346.738 35L353.391 37.1765L356.393 28H346.738V35ZM316.968 126V133H322.043L323.621 128.176L316.968 126ZM294.348 126L287.691 128.166L289.264 133H294.348V126ZM271.338 55.28V48.28H261.699L264.681 57.4458L271.338 55.28ZM277.318 55.28L283.956 57.5009L287.041 48.28H277.318V55.28ZM253.658 126V133H258.697L260.296 128.221L253.658 126ZM231.038 126L237.691 123.824L207.921 32.8235L201.268 35L194.615 37.1765L224.385 128.176L231.038 126ZM201.268 35V42H223.108V35V28H201.268V35ZM223.108 35L216.443 37.1393L242.313 117.739L248.978 115.6L255.643 113.461L229.773 32.8607L223.108 35ZM248.978 115.6V108.6H238.058V115.6V122.6H248.978V115.6ZM238.058 115.6L244.694 117.826L271.734 37.2264L265.098 35L258.461 32.7736L231.421 113.374L238.058 115.6ZM265.098 35V42H284.598V35V28H265.098V35ZM284.598 35L277.936 37.149L303.936 117.749L310.598 115.6L317.26 113.451L291.26 32.851L284.598 35ZM310.598 115.6V108.6H300.068V115.6V122.6H310.598V115.6ZM300.068 115.6L306.717 117.788L333.237 37.1878L326.588 35L319.939 32.8122L293.418 113.412L300.068 115.6ZM326.588 35V42H346.738V35V28H326.588V35ZM346.738 35L340.085 32.8235L310.315 123.824L316.968 126L323.621 128.176L353.391 37.1765L346.738 35ZM316.968 126V119H294.348V126V133H316.968V126ZM294.348 126L301.004 123.834L277.994 53.1142L271.338 55.28L264.681 57.4458L287.691 128.166L294.348 126ZM271.338 55.28V62.28H277.318V55.28V48.28H271.338V55.28ZM277.318 55.28L270.679 53.0591L247.019 123.779L253.658 126L260.296 128.221L283.956 57.5009L277.318 55.28ZM253.658 126V119H231.038V126V133H253.658V126ZM355.188 126L348.794 123.15L344.404 133H355.188V126ZM395.748 35V28H391.204L389.354 32.1502L395.748 35ZM416.548 35L422.938 32.1426L421.086 28H416.548V35ZM457.238 126V133H468.036L463.628 123.143L457.238 126ZM435.138 126L428.671 128.679L430.461 133H435.138V126ZM401.858 45.66V38.66H391.381L395.391 48.3389L401.858 45.66ZM410.178 45.66L416.641 48.3478L420.67 38.66H410.178V45.66ZM376.768 126V133H381.438L383.231 128.688L376.768 126ZM375.468 106.5L368.86 104.19L365.605 113.5H375.468V106.5ZM381.058 90.51V83.51H376.09L374.45 88.1999L381.058 90.51ZM427.858 90.51L434.449 88.1523L432.788 83.51H427.858V90.51ZM433.578 106.5V113.5H443.516L440.169 104.142L433.578 106.5ZM355.188 126L361.581 128.85L402.141 37.8497L395.748 35L389.354 32.1502L348.794 123.15L355.188 126ZM395.748 35V42H416.548V35V28H395.748V35ZM416.548 35L410.158 37.8574L450.848 128.857L457.238 126L463.628 123.143L422.938 32.1426L416.548 35ZM457.238 126V119H435.138V126V133H457.238V126ZM435.138 126L441.605 123.321L408.325 42.9811L401.858 45.66L395.391 48.3389L428.671 128.679L435.138 126ZM401.858 45.66V52.66H410.178V45.66V38.66H401.858V45.66ZM410.178 45.66L403.714 42.9721L370.304 123.312L376.768 126L383.231 128.688L416.641 48.3478L410.178 45.66ZM376.768 126V119H355.188V126V133H376.768V126ZM375.468 106.5L382.076 108.81L387.666 92.8201L381.058 90.51L374.45 88.1999L368.86 104.19L375.468 106.5ZM381.058 90.51V97.51H427.858V90.51V83.51H381.058V90.51ZM427.858 90.51L421.267 92.8678L426.987 108.858L433.578 106.5L440.169 104.142L434.449 88.1523L427.858 90.51ZM433.578 106.5V99.5H375.468V106.5V113.5H433.578V106.5ZM478.379 126H471.379V133H478.379V126ZM478.379 35V28H471.379V35H478.379ZM545.849 40.72L542.69 46.9666L542.719 46.9811L542.747 46.9953L545.849 40.72ZM563.529 56.45L557.602 60.1736L563.529 56.45ZM563.529 104.55L569.456 108.274L569.467 108.257L569.478 108.24L563.529 104.55ZM545.849 120.41L548.951 126.685L548.979 126.671L549.008 126.657L545.849 120.41ZM499.439 108.71H492.439V115.71H499.439V108.71ZM534.409 105.33L537.588 111.566L537.612 111.554L537.635 111.542L534.409 105.33ZM544.809 95.45L538.785 91.8848L538.758 91.9307L538.731 91.977L544.809 95.45ZM544.809 65.55L538.731 69.023L538.774 69.0969L538.818 69.1698L544.809 65.55ZM534.409 55.8L531.134 61.9865L531.206 62.0246L531.279 62.061L534.409 55.8ZM499.439 52.29V45.29H492.439V52.29H499.439ZM478.379 126H485.379V35H478.379H471.379V126H478.379ZM478.379 35V42H519.719V35V28H478.379V35ZM519.719 35V42C528.687 42 536.282 43.726 542.69 46.9666L545.849 40.72L549.008 34.4734C540.336 30.0873 530.511 28 519.719 28V35ZM545.849 40.72L542.747 46.9953C549.193 50.181 554.081 54.5687 557.602 60.1736L563.529 56.45L569.456 52.7264C564.484 44.8113 557.585 38.7124 548.951 34.4446L545.849 40.72ZM563.529 56.45L557.602 60.1736C561.04 65.6476 562.899 72.3272 562.899 80.5H569.899H576.899C576.899 70.1262 574.511 60.7724 569.456 52.7264L563.529 56.45ZM569.899 80.5H562.899C562.899 88.57 561.047 95.2706 557.58 100.86L563.529 104.55L569.478 108.24C574.504 100.136 576.899 90.8034 576.899 80.5H569.899ZM563.529 104.55L557.602 100.826C554.071 106.446 549.164 110.889 542.69 114.163L545.849 120.41L549.008 126.657C557.614 122.304 564.493 116.174 569.456 108.274L563.529 104.55ZM545.849 120.41L542.747 114.135C536.327 117.308 528.71 119 519.719 119V126V133C530.488 133 540.291 130.965 548.951 126.685L545.849 120.41ZM519.719 126V119H478.379V126V133H519.719V126ZM499.439 108.71V115.71H518.679V108.71V101.71H499.439V108.71ZM518.679 108.71V115.71C525.608 115.71 531.988 114.421 537.588 111.566L534.409 105.33L531.23 99.0937C527.99 100.745 523.883 101.71 518.679 101.71V108.71ZM534.409 105.33L537.635 111.542C543.288 108.607 547.766 104.384 550.887 98.923L544.809 95.45L538.731 91.977C536.999 95.0092 534.544 97.3726 531.183 99.1175L534.409 105.33ZM544.809 95.45L550.833 99.0152C554.081 93.5273 555.579 87.272 555.579 80.5H548.579H541.579C541.579 85.168 540.564 88.8794 538.785 91.8848L544.809 95.45ZM548.579 80.5H555.579C555.579 73.6674 554.092 67.3782 550.8 61.9302L544.809 65.55L538.818 69.1698C540.553 72.0418 541.579 75.7192 541.579 80.5H548.579ZM544.809 65.55L550.887 62.077C547.753 56.5927 543.243 52.3906 537.54 49.539L534.409 55.8L531.279 62.061C534.589 63.716 537.012 66.014 538.731 69.023L544.809 65.55ZM534.409 55.8L537.684 49.6135C532.062 46.6369 525.647 45.29 518.679 45.29V52.29V59.29C523.845 59.29 527.916 60.2831 531.134 61.9865L534.409 55.8ZM518.679 52.29V45.29H499.439V52.29V59.29H518.679V52.29ZM499.439 52.29H492.439V108.71H499.439H506.439V52.29H499.439ZM616.401 126L609.748 128.176L611.326 133H616.401V126ZM586.631 35V28H576.976L579.978 37.1765L586.631 35ZM608.471 35L615.137 32.8607L613.576 28H608.471V35ZM634.341 115.6V122.6H643.94L641.007 113.461L634.341 115.6ZM623.422 115.6L616.785 113.374L613.69 122.6H623.422V115.6ZM650.461 35V28H645.426L643.825 32.7736L650.461 35ZM669.961 35L676.623 32.851L675.059 28H669.961V35ZM695.961 115.6V122.6H705.575L702.623 113.451L695.961 115.6ZM685.432 115.6L678.782 113.412L675.759 122.6H685.432V115.6ZM711.951 35V28H706.886L705.302 32.8122L711.951 35ZM732.102 35L738.755 37.1765L741.757 28H732.102V35ZM702.331 126V133H707.407L708.984 128.176L702.331 126ZM679.711 126L673.055 128.166L674.628 133H679.711V126ZM656.701 55.28V48.28H647.063L650.045 57.4458L656.701 55.28ZM662.682 55.28L669.32 57.5009L672.405 48.28H662.682V55.28ZM639.021 126V133H644.061L645.66 128.221L639.021 126ZM616.401 126L623.055 123.824L593.285 32.8235L586.631 35L579.978 37.1765L609.748 128.176L616.401 126ZM586.631 35V42H608.471V35V28H586.631V35ZM608.471 35L601.806 37.1393L627.676 117.739L634.341 115.6L641.007 113.461L615.137 32.8607L608.471 35ZM634.341 115.6V108.6H623.422V115.6V122.6H634.341V115.6ZM623.422 115.6L630.058 117.826L657.098 37.2264L650.461 35L643.825 32.7736L616.785 113.374L623.422 115.6ZM650.461 35V42H669.961V35V28H650.461V35ZM669.961 35L663.3 37.149L689.299 117.749L695.961 115.6L702.623 113.451L676.623 32.851L669.961 35ZM695.961 115.6V108.6H685.432V115.6V122.6H695.961V115.6ZM685.432 115.6L692.081 117.788L718.601 37.1878L711.951 35L705.302 32.8122L678.782 113.412L685.432 115.6ZM711.951 35V42H732.102V35V28H711.951V35ZM732.102 35L725.448 32.8235L695.678 123.824L702.331 126L708.984 128.176L738.755 37.1765L732.102 35ZM702.331 126V119H679.711V126V133H702.331V126ZM679.711 126L686.368 123.834L663.358 53.1142L656.701 55.28L650.045 57.4458L673.055 128.166L679.711 126ZM656.701 55.28V62.28H662.682V55.28V48.28H656.701V55.28ZM662.682 55.28L656.043 53.0591L632.383 123.779L639.021 126L645.66 128.221L669.32 57.5009L662.682 55.28ZM639.021 126V119H616.401V126V133H639.021V126ZM755.558 126H748.558V133H755.558V126ZM755.558 35V28H748.558V35H755.558ZM776.618 35H783.618V28H776.618V35ZM776.618 126V133H783.618V126H776.618ZM755.558 126H762.558V35H755.558H748.558V126H755.558ZM755.558 35V42H776.618V35V28H755.558V35ZM776.618 35H769.618V126H776.618H783.618V35H776.618ZM776.618 126V119H755.558V126V133H776.618V126ZM809.915 126H802.915V133H809.915V126ZM809.915 35V28H802.915V35H809.915ZM870.365 39.03L867.461 45.3993L867.5 45.4171L867.539 45.4344L870.365 39.03ZM884.015 50.34L878.143 54.1513L884.015 50.34ZM870.365 97.01L873.19 103.414L873.229 103.397L873.268 103.379L870.365 97.01ZM821.615 100.91L816.631 95.9945L804.879 107.91H821.615V100.91ZM830.975 91.42H837.975V74.3543L825.991 86.5045L830.975 91.42ZM830.975 126V133H837.975V126H830.975ZM830.975 93.76L825.862 98.541L837.975 111.495V93.76H830.975ZM821.615 83.75V76.75H805.486L816.502 88.531L821.615 83.75ZM821.615 52.16L816.502 47.379L805.486 59.16H821.615V52.16ZM830.975 42.15H837.975V24.4149L825.862 37.369L830.975 42.15ZM809.915 126H816.915V35H809.915H802.915V126H809.915ZM809.915 35V42H849.305V35V28H809.915V35ZM849.305 35V42C856.7 42 862.682 43.2209 867.461 45.3993L870.365 39.03L873.268 32.6606C866.26 29.4658 858.203 28 849.305 28V35ZM870.365 39.03L867.539 45.4344C872.308 47.5384 875.747 50.4601 878.143 54.1513L884.015 50.34L889.886 46.5287C885.869 40.3399 880.208 35.7216 873.19 32.6256L870.365 39.03ZM884.015 50.34L878.143 54.1513C880.5 57.7818 881.825 62.3014 881.825 68.02H888.825H895.825C895.825 60.0452 893.943 52.7782 889.886 46.5287L884.015 50.34ZM888.825 68.02H881.825C881.825 73.6323 880.509 78.114 878.143 81.7587L884.015 85.57L889.886 89.3813C893.934 83.146 895.825 75.9277 895.825 68.02H888.825ZM884.015 85.57L878.143 81.7587C875.734 85.4707 872.267 88.4496 867.461 90.6406L870.365 97.01L873.268 103.379C880.249 100.197 885.882 95.5493 889.886 89.3813L884.015 85.57ZM870.365 97.01L867.539 90.6056C862.738 92.7235 856.727 93.91 849.305 93.91V100.91V107.91C858.176 107.91 866.204 106.496 873.19 103.414L870.365 97.01ZM849.305 100.91V93.91H821.615V100.91V107.91H849.305V100.91ZM821.615 100.91L826.598 105.825L835.958 96.3355L830.975 91.42L825.991 86.5045L816.631 95.9945L821.615 100.91ZM830.975 91.42H823.975V126H830.975H837.975V91.42H830.975ZM830.975 126V119H809.915V126V133H830.975V126ZM830.975 93.76L836.088 88.979L826.728 78.969L821.615 83.75L816.502 88.531L825.862 98.541L830.975 93.76ZM821.615 83.75V90.75H848.135V83.75V76.75H821.615V83.75ZM848.135 83.75V90.75C855.456 90.75 862.268 89.2136 867.274 84.8845L862.695 79.59L858.116 74.2955C856.708 75.5131 853.813 76.75 848.135 76.75V83.75ZM862.695 79.59L867.274 84.8845C872.278 80.5564 874.505 74.6211 874.505 68.02H867.505H860.505C860.505 71.2989 859.524 73.0769 858.116 74.2955L862.695 79.59ZM867.505 68.02H874.505C874.505 61.3759 872.306 55.3779 867.274 51.0255L862.695 56.32L858.116 61.6145C859.496 62.8087 860.505 64.6108 860.505 68.02H867.505ZM862.695 56.32L867.274 51.0255C862.268 46.6964 855.456 45.16 848.135 45.16V52.16V59.16C853.813 59.16 856.708 60.3969 858.116 61.6145L862.695 56.32ZM848.135 52.16V45.16H821.615V52.16V59.16H848.135V52.16ZM821.615 52.16L826.728 56.941L836.088 46.931L830.975 42.15L825.862 37.369L816.502 47.379L821.615 52.16ZM830.975 42.15H823.975V93.76H830.975H837.975V42.15H830.975ZM899.03 126L892.636 123.15L888.246 133H899.03V126ZM939.59 35V28H935.046L933.196 32.1502L939.59 35ZM960.39 35L966.78 32.1426L964.927 28H960.39V35ZM1001.08 126V133H1011.88L1007.47 123.143L1001.08 126ZM978.98 126L972.513 128.679L974.302 133H978.98V126ZM945.7 45.66V38.66H935.223L939.232 48.3389L945.7 45.66ZM954.02 45.66L960.483 48.3478L964.512 38.66H954.02V45.66ZM920.61 126V133H925.28L927.073 128.688L920.61 126ZM919.31 106.5L912.702 104.19L909.447 113.5H919.31V106.5ZM924.9 90.51V83.51H919.931L918.292 88.1999L924.9 90.51ZM971.7 90.51L978.291 88.1523L976.63 83.51H971.7V90.51ZM977.42 106.5V113.5H987.358L984.011 104.142L977.42 106.5ZM899.03 126L905.423 128.85L945.983 37.8497L939.59 35L933.196 32.1502L892.636 123.15L899.03 126ZM939.59 35V42H960.39V35V28H939.59V35ZM960.39 35L953.999 37.8574L994.689 128.857L1001.08 126L1007.47 123.143L966.78 32.1426L960.39 35ZM1001.08 126V119H978.98V126V133H1001.08V126ZM978.98 126L985.447 123.321L952.167 42.9811L945.7 45.66L939.232 48.3389L972.513 128.679L978.98 126ZM945.7 45.66V52.66H954.02V45.66V38.66H945.7V45.66ZM954.02 45.66L947.556 42.9721L914.146 123.312L920.61 126L927.073 128.688L960.483 48.3478L954.02 45.66ZM920.61 126V119H899.03V126V133H920.61V126ZM919.31 106.5L925.917 108.81L931.507 92.8201L924.9 90.51L918.292 88.1999L912.702 104.19L919.31 106.5ZM924.9 90.51V97.51H971.7V90.51V83.51H924.9V90.51ZM971.7 90.51L965.109 92.8678L970.829 108.858L977.42 106.5L984.011 104.142L978.291 88.1523L971.7 90.51ZM977.42 106.5V99.5H919.31V106.5V113.5H977.42V106.5Z" fill="white" mask="url(#path-5-outside-3_1025_2)"/>
</svg>
