<svg width="33" height="33" viewBox="0 0 33 33" fill="none" xmlns="http://www.w3.org/2000/svg">
<path fill-rule="evenodd" clip-rule="evenodd" d="M25.1431 16.5C25.1431 16.8647 24.9982 17.2144 24.7403 17.4723C24.4825 17.7301 24.1327 17.875 23.7681 17.875L6.58057 17.875C6.21589 17.875 5.86616 17.7301 5.6083 17.4723C5.35043 17.2144 5.20557 16.8647 5.20557 16.5C5.20557 16.1353 5.35043 15.7856 5.6083 15.5277C5.86616 15.2699 6.21589 15.125 6.58057 15.125L23.7681 15.125C24.1327 15.125 24.4825 15.2699 24.7403 15.5277C24.9982 15.7856 25.1431 16.1353 25.1431 16.5Z" fill="black"/>
<path fill-rule="evenodd" clip-rule="evenodd" d="M27.2056 16.5C27.2055 16.8647 27.0606 17.2144 26.8027 17.4722L20.6152 23.6597C20.3574 23.9177 20.0076 24.0627 19.6429 24.0628C19.2781 24.0629 18.9283 23.9182 18.6703 23.6603C18.4122 23.4025 18.2672 23.0528 18.2671 22.688C18.267 22.3233 18.4117 21.9734 18.6696 21.7154L23.8863 16.5L18.6709 11.2847C18.4131 11.0267 18.2683 10.6768 18.2685 10.312C18.2686 9.9473 18.4136 9.59755 18.6716 9.33972C18.9296 9.0819 19.2795 8.93713 19.6442 8.93726C20.009 8.93738 20.3587 9.0824 20.6166 9.34041L26.8041 15.5279C27.0614 15.7859 27.2059 16.1356 27.2056 16.5Z" fill="black"/>
</svg>
