<svg width="35" height="35" viewBox="0 0 35 35" fill="none" xmlns="http://www.w3.org/2000/svg">
<path d="M26.2501 18.9554H18.9584V26.247C18.9584 26.6338 18.8048 27.0047 18.5313 27.2782C18.2578 27.5517 17.8869 27.7054 17.5001 27.7054C17.1133 27.7054 16.7424 27.5517 16.4689 27.2782C16.1954 27.0047 16.0417 26.6338 16.0417 26.247V18.9554H8.75008C8.36331 18.9554 7.99237 18.8017 7.71888 18.5282C7.44539 18.2547 7.29175 17.8838 7.29175 17.497C7.29175 17.1103 7.44539 16.7393 7.71888 16.4658C7.99237 16.1923 8.36331 16.0387 8.75008 16.0387H16.0417V8.74703C16.0417 8.36026 16.1954 7.98932 16.4689 7.71583C16.7424 7.44234 17.1133 7.2887 17.5001 7.2887C17.8869 7.2887 18.2578 7.44234 18.5313 7.71583C18.8048 7.98932 18.9584 8.36026 18.9584 8.74703V16.0387H26.2501C26.6369 16.0387 27.0078 16.1923 27.2813 16.4658C27.5548 16.7393 27.7084 17.1103 27.7084 17.497C27.7084 17.8838 27.5548 18.2547 27.2813 18.5282C27.0078 18.8017 26.6369 18.9554 26.2501 18.9554Z" fill="white"/>
</svg>
