<svg width="664" height="115" viewBox="0 0 664 115" fill="none" xmlns="http://www.w3.org/2000/svg">
<g filter="url(#filter0_d_8_55)">
<path d="M24.7126 62.81C24.7126 62.81 24.5746 95.654 43.6186 95.654V98H1.66656V95.654C22.5046 95.654 22.3666 62.81 22.3666 62.81H24.7126ZM0.562557 0.847992H34.3726L92.3326 72.332V98H85.0186L16.9846 12.992C8.15256 1.95199 4.15056 3.46999 0.562557 3.19399V0.847992ZM71.0806 3.19399V0.847992H112.895V3.19399C92.0566 3.056 92.3326 35.9 92.3326 35.9H89.9866C89.9866 35.9 90.1246 3.056 71.0806 3.19399ZM190.015 76.472C190.015 80.52 190.797 83.602 192.361 85.718C193.925 87.742 196.547 89.214 200.227 90.134V91.928C190.751 92.48 181.735 94.596 173.179 98.276L171.247 96.758L171.523 86.546V85.028L170.419 86.132C167.107 89.904 163.197 92.894 158.689 95.102C154.181 97.31 149.673 98.414 145.165 98.414C143.785 98.414 142.405 98.322 141.025 98.138C139.645 97.954 137.989 97.448 136.057 96.62C134.125 95.792 132.469 94.734 131.089 93.446C129.709 92.066 128.513 90.134 127.501 87.65C126.581 85.074 126.121 82.13 126.121 78.818V53.564C126.121 50.712 125.155 48.412 123.223 46.664C121.383 44.916 118.945 43.996 115.909 43.904V41.972C125.845 38.2 134.999 33.048 143.371 26.516L145.441 27.758L145.165 74.678C145.165 85.258 148.569 90.548 155.377 90.548C161.265 90.548 166.417 88.018 170.833 82.958L170.971 53.564C170.971 50.712 170.005 48.412 168.073 46.664C166.233 44.916 163.795 43.996 160.759 43.904V41.972C170.695 38.2 179.849 33.048 188.221 26.516L190.291 27.758L190.015 76.472ZM233.219 53.978C236.071 55.542 238.233 56.784 239.705 57.704C241.177 58.532 243.063 59.82 245.363 61.568C247.755 63.316 249.549 64.972 250.745 66.536C251.941 68.008 252.999 69.894 253.919 72.194C254.931 74.494 255.437 76.978 255.437 79.646C255.437 85.718 253.137 90.548 248.537 94.136C243.937 97.724 237.681 99.518 229.769 99.518C229.585 99.518 229.355 99.518 229.079 99.518C228.803 99.518 228.619 99.518 228.527 99.518C228.343 99.518 228.067 99.518 227.699 99.518C227.423 99.518 227.193 99.518 227.009 99.518C222.961 99.518 218.821 98.644 214.589 96.896C210.357 95.148 206.585 92.572 203.273 89.168L205.619 87.098C207.735 85.258 210.173 84.522 212.933 84.89C215.785 85.166 218.039 86.5 219.695 88.892C225.031 96.344 231.103 98.828 237.911 96.344C241.315 94.596 243.017 91.744 243.017 87.788C243.017 85.764 242.557 83.924 241.637 82.268C240.809 80.52 239.383 78.864 237.359 77.3C235.427 75.736 233.679 74.494 232.115 73.574C230.643 72.654 228.435 71.366 225.491 69.71C222.731 68.238 220.661 67.134 219.281 66.398C217.901 65.57 216.107 64.374 213.899 62.81C211.783 61.154 210.173 59.682 209.069 58.394C207.965 57.014 206.999 55.312 206.171 53.288C205.343 51.264 204.929 49.148 204.929 46.94C204.929 43.536 205.849 40.454 207.689 37.694C209.529 34.934 211.875 32.772 214.727 31.208C217.671 29.644 220.661 28.494 223.697 27.758C226.825 26.93 229.815 26.516 232.667 26.516C235.335 26.516 238.003 26.884 240.671 27.62C243.431 28.264 246.191 29.414 248.951 31.07C251.803 32.634 254.333 34.566 256.541 36.866L254.333 38.936C252.217 40.776 249.733 41.558 246.881 41.282C244.029 41.006 241.821 39.672 240.257 37.28C235.749 30.748 230.781 27.988 225.353 29C222.961 29.368 221.029 30.426 219.557 32.174C218.177 33.922 217.487 36.084 217.487 38.66C217.487 40.224 217.855 41.742 218.591 43.214C219.327 44.594 220.569 45.974 222.317 47.354C224.157 48.642 225.721 49.7 227.009 50.528C228.389 51.356 230.459 52.506 233.219 53.978ZM332.571 88.892L333.813 90.134C332.433 92.434 330.317 94.274 327.465 95.654C324.705 97.034 321.715 97.724 318.495 97.724C315.551 97.724 312.745 96.804 310.077 94.964C307.501 93.124 305.615 90.686 304.419 87.65L304.005 86.822L303.453 87.512C296.645 94.78 288.733 98.414 279.717 98.414C274.289 98.414 269.873 96.758 266.469 93.446C263.065 90.042 261.363 86.224 261.363 81.992C261.363 78.772 261.823 76.012 262.743 73.712C263.755 71.412 265.733 69.066 268.677 66.674C271.621 64.19 275.807 61.798 281.235 59.498C286.755 57.106 293.931 54.484 302.763 51.632L303.177 51.494V51.08C302.993 43.444 301.935 37.97 300.003 34.658C298.163 31.346 295.173 29.69 291.033 29.69C286.157 29.69 282.339 33.83 279.579 42.11C278.659 44.778 276.865 46.664 274.197 47.768C271.621 48.872 269.045 48.826 266.469 47.63L264.813 46.802C267.021 40.914 270.747 36.222 275.991 32.726C281.235 29.138 287.859 27.344 295.863 27.344C313.435 27.344 322.221 34.704 322.221 49.424V78.818C322.221 82.406 322.911 85.212 324.291 87.236C325.671 89.168 327.281 90.134 329.121 90.134C330.225 90.134 331.375 89.72 332.571 88.892ZM303.315 85.028L303.591 84.89L303.453 84.476C303.177 83.372 303.039 82.176 303.039 80.888L303.177 53.564L302.487 53.84C294.851 56.232 289.239 59.222 285.651 62.81C282.155 66.306 280.407 70.676 280.407 75.92C280.407 80.06 281.419 83.326 283.443 85.718C285.467 88.018 288.273 89.168 291.861 89.168C296.185 89.168 300.003 87.788 303.315 85.028ZM422.119 68.882C422.119 78.634 418.301 85.856 410.665 90.548C403.121 95.24 392.495 97.586 378.787 97.586C376.579 97.586 372.945 97.54 367.885 97.448C363.377 97.356 359.927 97.31 357.535 97.31C347.967 97.31 340.285 97.402 334.489 97.586V95.378C337.525 95.01 339.917 94.412 341.665 93.584C343.505 92.664 344.931 91.146 345.943 89.03C347.047 86.822 347.599 83.924 347.599 80.336V19.064C347.599 13.82 346.541 10.14 344.425 8.024C342.309 5.908 338.997 4.574 334.489 4.02199V1.814C337.709 1.814 340.791 1.814 343.735 1.814C349.531 1.814 356.339 1.676 364.159 1.39999C372.163 1.124 379.109 0.985999 384.997 0.985999C388.953 0.985999 392.495 1.538 395.623 2.64199C398.751 3.654 401.235 5.126 403.075 7.05799C405.007 8.89799 406.479 11.014 407.491 13.406C408.503 15.798 409.009 18.374 409.009 21.134C409.009 24.446 408.365 27.39 407.077 29.966C405.881 32.542 404.087 34.704 401.695 36.452C399.303 38.2 396.773 39.672 394.105 40.868C391.437 42.064 388.171 43.214 384.307 44.318C388.079 44.318 392.035 44.778 396.175 45.698C400.315 46.526 404.363 47.86 408.319 49.7C412.367 51.448 415.679 54.024 418.255 57.428C420.831 60.74 422.119 64.558 422.119 68.882ZM400.729 70.676C400.729 66.72 400.131 63.27 398.935 60.326C397.739 57.29 396.175 54.944 394.243 53.288C392.311 51.632 390.195 50.252 387.895 49.148C385.595 48.044 383.295 47.354 380.995 47.078C378.695 46.802 376.579 46.618 374.647 46.526C372.715 46.434 371.151 46.48 369.955 46.664L368.161 46.802L367.885 77.576C367.885 83.832 368.943 88.386 371.059 91.238C373.267 94.09 376.763 95.516 381.547 95.516C387.435 95.516 392.081 93.262 395.485 88.754C398.981 84.246 400.729 78.22 400.729 70.676ZM393.967 23.066C393.967 17.086 392.587 12.348 389.827 8.852C387.159 5.356 383.479 3.608 378.787 3.608C375.291 3.608 371.795 4.068 368.299 4.988H367.885V44.318C368.253 44.318 368.713 44.318 369.265 44.318C369.909 44.226 371.151 44.088 372.991 43.904C374.831 43.628 376.533 43.306 378.097 42.938C379.753 42.478 381.593 41.742 383.617 40.73C385.641 39.626 387.343 38.384 388.723 37.004C390.195 35.532 391.437 33.6 392.449 31.208C393.461 28.816 393.967 26.102 393.967 23.066ZM460.823 26.93C470.759 27.206 478.763 30.656 484.835 37.28C490.907 43.904 493.943 52.506 493.943 63.086C493.943 74.126 490.953 82.866 484.973 89.306C478.993 95.654 470.851 98.828 460.547 98.828H459.719C454.751 98.644 450.197 97.678 446.057 95.93C442.009 94.182 438.559 91.79 435.707 88.754C432.855 85.626 430.601 81.9 428.945 77.576C427.381 73.16 426.599 68.284 426.599 62.948C426.507 51.54 429.681 42.616 436.121 36.176C442.193 30.012 450.427 26.93 460.823 26.93ZM467.723 96.206C472.599 95.286 475.957 92.02 477.797 86.408C479.729 80.704 479.867 73.298 478.211 64.19C475.175 47.446 470.161 36.636 463.169 31.76C459.949 29.644 456.499 28.908 452.819 29.552C447.851 30.564 444.401 33.922 442.469 39.626C440.629 45.33 440.583 52.736 442.331 61.844C443.895 69.848 445.919 76.564 448.403 81.992C450.887 87.328 453.739 91.238 456.959 93.722C460.271 96.114 463.859 96.942 467.723 96.206ZM571.139 77.438C571.139 83.05 571.921 87.236 573.485 89.996C575.049 92.664 577.671 94.32 581.351 94.964V97.034C574.267 96.85 567.735 96.758 561.755 96.758C555.867 96.758 549.703 96.85 543.263 97.034V94.826C545.839 94.274 547.955 92.94 549.611 90.824C551.267 88.708 552.095 85.166 552.095 80.198C552.279 67.134 552.417 58.854 552.509 55.358C552.601 50.482 552.095 46.526 550.991 43.49C549.979 40.362 548.599 38.2 546.851 37.004C545.195 35.808 543.217 35.256 540.917 35.348C538.617 35.348 536.271 35.9 533.879 37.004C531.579 38.016 529.279 39.442 526.979 41.282L526.703 77.438C526.703 82.866 527.393 86.96 528.773 89.72C530.245 92.48 532.499 94.228 535.535 94.964V97.034C529.095 96.85 522.931 96.758 517.043 96.758C511.063 96.758 504.531 96.85 497.447 97.034V94.964C500.667 94.412 503.151 93.078 504.899 90.962C506.739 88.846 507.659 85.258 507.659 80.198V53.564C507.659 47.768 504.255 44.548 497.447 43.904V41.972C507.383 38.2 516.537 33.048 524.909 26.516L526.979 27.758V38.246C530.383 34.934 534.339 32.312 538.847 30.38C543.355 28.356 547.725 27.344 551.957 27.344C553.429 27.344 554.855 27.436 556.235 27.62C557.615 27.804 559.225 28.31 561.065 29.138C562.997 29.966 564.653 31.07 566.033 32.45C567.505 33.738 568.701 35.67 569.621 38.246C570.633 40.73 571.139 43.628 571.139 46.94V77.438ZM653.766 78.956C653.766 84.66 654.548 88.846 656.112 91.514C657.676 94.182 660.298 95.838 663.978 96.482V98.69C656.986 98.506 652.11 98.414 649.35 98.414C646.682 98.414 641.852 98.506 634.86 98.69L634.998 92.066C628.466 96.574 621.52 98.828 614.16 98.828C604.224 98.828 596.22 95.562 590.148 89.03C584.168 82.406 581.132 73.712 581.04 62.948C580.948 51.54 584.122 42.616 590.562 36.176C596.726 30.104 604.96 27.068 615.264 27.068C622.9 27.16 629.478 29.322 634.998 33.554V27.896C634.998 22.1 631.64 18.88 624.924 18.236V16.304C634.4 12.716 643.416 7.56399 651.972 0.847992L654.042 2.08999L653.766 78.956ZM634.998 85.442V54.668C634.998 50.62 634.446 46.94 633.342 43.628C632.33 40.224 630.95 37.556 629.202 35.624C627.454 33.6 625.43 31.944 623.13 30.656C620.83 29.368 618.484 28.724 616.092 28.724C613.7 28.724 611.262 29.046 608.778 29.69C603.718 31.438 600.038 35.072 597.738 40.592C595.438 46.02 595.116 53.104 596.772 61.844C599.164 74.172 603.81 82.958 610.71 88.202C617.61 93.354 624.924 93.814 632.652 89.582C634.216 88.754 634.998 87.374 634.998 85.442Z" fill="white"/>
</g>
<defs>
<filter id="filter0_d_8_55" x="0.5625" y="0.848022" width="663.416" height="113.222" filterUnits="userSpaceOnUse" color-interpolation-filters="sRGB">
<feFlood flood-opacity="0" result="BackgroundImageFix"/>
<feColorMatrix in="SourceAlpha" type="matrix" values="0 0 0 0 0 0 0 0 0 0 0 0 0 0 0 0 0 0 127 0" result="hardAlpha"/>
<feOffset dy="14"/>
<feComposite in2="hardAlpha" operator="out"/>
<feColorMatrix type="matrix" values="0 0 0 0 0 0 0 0 0 0 0 0 0 0 0 0 0 0 0.25 0"/>
<feBlend mode="normal" in2="BackgroundImageFix" result="effect1_dropShadow_8_55"/>
<feBlend mode="normal" in="SourceGraphic" in2="effect1_dropShadow_8_55" result="shape"/>
</filter>
</defs>
</svg>
