<svg width="1440" height="326" viewBox="0 0 1440 326" fill="none" xmlns="http://www.w3.org/2000/svg">
<path fill-rule="evenodd" clip-rule="evenodd" d="M410.954 37.6902C299.466 33.4026 176.566 26.4432 89.7817 51.154C-2.14137 77.3281 -22.3752 121.815 -29.8305 163.199C-37.9293 208.156 -61.811 266.016 46.6614 290.514C155.376 315.067 282.61 267.866 411.054 262.772C510.388 258.832 614.736 283.002 699.611 264.616C797.725 243.362 873.279 204.319 866.985 164.006C860.847 124.69 758.212 97.9575 669.767 73.4591C594.171 52.5197 506.766 41.3749 410.954 37.6902Z" fill="#A6AC8A"/>
<path fill-rule="evenodd" clip-rule="evenodd" d="M1002.15 195.28C1130.03 196.767 1247.69 305.306 1363.59 285.884C1482.66 265.931 1489 175.343 1466.88 129.894C1446.4 87.8305 1475.88 121.974 1475.95 49.7043C1476.02 -22.5654 995 5.99999 995 5.99999L625.614 22.9202C625.614 22.9202 487.704 86.138 499.03 133.376C509.325 176.313 539.611 226.878 649.871 245.51C753.489 263.019 886.869 193.94 1002.15 195.28Z" fill="#27422E"/>
<path fill-rule="evenodd" clip-rule="evenodd" d="M-109.5 103.5C-134.681 194.892 -58.1674 -52.0073 -42.4981 40.2792C-23.0943 154.561 -82.565 257.469 24.6651 310.536C132.008 363.659 247.797 263.93 367.742 238.062C510.28 207.321 668.912 328.101 788.824 202.938C891.054 96.2309 977.782 58.3676 1041.5 40.2791C1105.22 22.1906 897.278 10.2715 593.5 14.0409C498.306 15.7182 142 14.0408 -30.5 14.0408C-163.637 57.4326 -73.8683 -25.823 -109.5 103.5Z" fill="#27422E"/>
</svg>
