<svg width="668" height="372" viewBox="0 0 668 372" fill="none" xmlns="http://www.w3.org/2000/svg">
<mask id="path-1-outside-1_1032_2" maskUnits="userSpaceOnUse" x="8" y="137" width="656" height="101" fill="black">
<rect fill="white" x="8" y="137" width="656" height="101"/>
<path d="M11.249 233V142H55.709C67.149 142 75.729 144.167 81.449 148.5C87.2557 152.833 90.159 158.553 90.159 165.66C90.159 170.427 88.989 174.587 86.649 178.14C84.309 181.607 81.1023 184.293 77.029 186.2C72.9557 188.107 68.2757 189.06 62.989 189.06L65.459 183.73C71.179 183.73 76.249 184.683 80.669 186.59C85.089 188.41 88.5123 191.14 90.939 194.78C93.4523 198.42 94.709 202.883 94.709 208.17C94.709 215.97 91.6323 222.08 85.479 226.5C79.3257 230.833 70.269 233 58.309 233H11.249ZM32.179 217.14H56.749C62.209 217.14 66.3257 216.273 69.099 214.54C71.959 212.72 73.389 209.86 73.389 205.96C73.389 202.147 71.959 199.33 69.099 197.51C66.3257 195.603 62.209 194.65 56.749 194.65H30.619V179.31H53.109C58.2223 179.31 62.1223 178.443 64.809 176.71C67.5823 174.89 68.969 172.16 68.969 168.52C68.969 164.967 67.5823 162.323 64.809 160.59C62.1223 158.77 58.2223 157.86 53.109 157.86H32.179V217.14ZM166.553 234.56C159.36 234.56 152.687 233.39 146.533 231.05C140.467 228.71 135.18 225.417 130.673 221.17C126.253 216.923 122.787 211.94 120.273 206.22C117.847 200.5 116.633 194.26 116.633 187.5C116.633 180.74 117.847 174.5 120.273 168.78C122.787 163.06 126.297 158.077 130.803 153.83C135.31 149.583 140.597 146.29 146.663 143.95C152.73 141.61 159.317 140.44 166.423 140.44C173.617 140.44 180.203 141.61 186.183 143.95C192.25 146.29 197.493 149.583 201.913 153.83C206.42 158.077 209.93 163.06 212.443 168.78C214.957 174.413 216.213 180.653 216.213 187.5C216.213 194.26 214.957 200.543 212.443 206.35C209.93 212.07 206.42 217.053 201.913 221.3C197.493 225.46 192.25 228.71 186.183 231.05C180.203 233.39 173.66 234.56 166.553 234.56ZM166.423 216.62C170.497 216.62 174.223 215.927 177.603 214.54C181.07 213.153 184.103 211.16 186.703 208.56C189.303 205.96 191.297 202.883 192.683 199.33C194.157 195.777 194.893 191.833 194.893 187.5C194.893 183.167 194.157 179.223 192.683 175.67C191.297 172.117 189.303 169.04 186.703 166.44C184.19 163.84 181.2 161.847 177.733 160.46C174.267 159.073 170.497 158.38 166.423 158.38C162.35 158.38 158.58 159.073 155.113 160.46C151.733 161.847 148.743 163.84 146.143 166.44C143.543 169.04 141.507 172.117 140.033 175.67C138.647 179.223 137.953 183.167 137.953 187.5C137.953 191.747 138.647 195.69 140.033 199.33C141.507 202.883 143.5 205.96 146.013 208.56C148.613 211.16 151.647 213.153 155.113 214.54C158.58 215.927 162.35 216.62 166.423 216.62ZM243.741 233V142H283.131C291.277 142 298.297 143.343 304.191 146.03C310.084 148.63 314.634 152.4 317.841 157.34C321.047 162.28 322.651 168.173 322.651 175.02C322.651 181.78 321.047 187.63 317.841 192.57C314.634 197.423 310.084 201.15 304.191 203.75C298.297 206.35 291.277 207.65 283.131 207.65H255.441L264.801 198.42V233H243.741ZM301.591 233L278.841 199.98H301.331L324.341 233H301.591ZM264.801 200.76L255.441 190.88H281.961C288.461 190.88 293.314 189.493 296.521 186.72C299.727 183.86 301.331 179.96 301.331 175.02C301.331 169.993 299.727 166.093 296.521 163.32C293.314 160.547 288.461 159.16 281.961 159.16H255.441L264.801 149.15V200.76ZM351.036 233V142H368.456L422.146 207.52H413.696V142H434.496V233H417.206L363.386 167.48H371.836V233H351.036ZM487.097 178.66H530.907V195.04H487.097V178.66ZM488.657 216.1H538.187V233H467.727V142H536.497V158.9H488.657V216.1ZM610.844 234.56C603.65 234.56 596.977 233.39 590.824 231.05C584.757 228.71 579.47 225.417 574.964 221.17C570.544 216.923 567.077 211.94 564.564 206.22C562.137 200.5 560.924 194.26 560.924 187.5C560.924 180.74 562.137 174.5 564.564 168.78C567.077 163.06 570.587 158.077 575.094 153.83C579.6 149.583 584.887 146.29 590.954 143.95C597.02 141.61 603.607 140.44 610.714 140.44C617.907 140.44 624.494 141.61 630.474 143.95C636.54 146.29 641.784 149.583 646.204 153.83C650.71 158.077 654.22 163.06 656.734 168.78C659.247 174.413 660.504 180.653 660.504 187.5C660.504 194.26 659.247 200.543 656.734 206.35C654.22 212.07 650.71 217.053 646.204 221.3C641.784 225.46 636.54 228.71 630.474 231.05C624.494 233.39 617.95 234.56 610.844 234.56ZM610.714 216.62C614.787 216.62 618.514 215.927 621.894 214.54C625.36 213.153 628.394 211.16 630.994 208.56C633.594 205.96 635.587 202.883 636.974 199.33C638.447 195.777 639.184 191.833 639.184 187.5C639.184 183.167 638.447 179.223 636.974 175.67C635.587 172.117 633.594 169.04 630.994 166.44C628.48 163.84 625.49 161.847 622.024 160.46C618.557 159.073 614.787 158.38 610.714 158.38C606.64 158.38 602.87 159.073 599.404 160.46C596.024 161.847 593.034 163.84 590.434 166.44C587.834 169.04 585.797 172.117 584.324 175.67C582.937 179.223 582.244 183.167 582.244 187.5C582.244 191.747 582.937 195.69 584.324 199.33C585.797 202.883 587.79 205.96 590.304 208.56C592.904 211.16 595.937 213.153 599.404 214.54C602.87 215.927 606.64 216.62 610.714 216.62Z"/>
</mask>
<path d="M11.249 233V142H55.709C67.149 142 75.729 144.167 81.449 148.5C87.2557 152.833 90.159 158.553 90.159 165.66C90.159 170.427 88.989 174.587 86.649 178.14C84.309 181.607 81.1023 184.293 77.029 186.2C72.9557 188.107 68.2757 189.06 62.989 189.06L65.459 183.73C71.179 183.73 76.249 184.683 80.669 186.59C85.089 188.41 88.5123 191.14 90.939 194.78C93.4523 198.42 94.709 202.883 94.709 208.17C94.709 215.97 91.6323 222.08 85.479 226.5C79.3257 230.833 70.269 233 58.309 233H11.249ZM32.179 217.14H56.749C62.209 217.14 66.3257 216.273 69.099 214.54C71.959 212.72 73.389 209.86 73.389 205.96C73.389 202.147 71.959 199.33 69.099 197.51C66.3257 195.603 62.209 194.65 56.749 194.65H30.619V179.31H53.109C58.2223 179.31 62.1223 178.443 64.809 176.71C67.5823 174.89 68.969 172.16 68.969 168.52C68.969 164.967 67.5823 162.323 64.809 160.59C62.1223 158.77 58.2223 157.86 53.109 157.86H32.179V217.14ZM166.553 234.56C159.36 234.56 152.687 233.39 146.533 231.05C140.467 228.71 135.18 225.417 130.673 221.17C126.253 216.923 122.787 211.94 120.273 206.22C117.847 200.5 116.633 194.26 116.633 187.5C116.633 180.74 117.847 174.5 120.273 168.78C122.787 163.06 126.297 158.077 130.803 153.83C135.31 149.583 140.597 146.29 146.663 143.95C152.73 141.61 159.317 140.44 166.423 140.44C173.617 140.44 180.203 141.61 186.183 143.95C192.25 146.29 197.493 149.583 201.913 153.83C206.42 158.077 209.93 163.06 212.443 168.78C214.957 174.413 216.213 180.653 216.213 187.5C216.213 194.26 214.957 200.543 212.443 206.35C209.93 212.07 206.42 217.053 201.913 221.3C197.493 225.46 192.25 228.71 186.183 231.05C180.203 233.39 173.66 234.56 166.553 234.56ZM166.423 216.62C170.497 216.62 174.223 215.927 177.603 214.54C181.07 213.153 184.103 211.16 186.703 208.56C189.303 205.96 191.297 202.883 192.683 199.33C194.157 195.777 194.893 191.833 194.893 187.5C194.893 183.167 194.157 179.223 192.683 175.67C191.297 172.117 189.303 169.04 186.703 166.44C184.19 163.84 181.2 161.847 177.733 160.46C174.267 159.073 170.497 158.38 166.423 158.38C162.35 158.38 158.58 159.073 155.113 160.46C151.733 161.847 148.743 163.84 146.143 166.44C143.543 169.04 141.507 172.117 140.033 175.67C138.647 179.223 137.953 183.167 137.953 187.5C137.953 191.747 138.647 195.69 140.033 199.33C141.507 202.883 143.5 205.96 146.013 208.56C148.613 211.16 151.647 213.153 155.113 214.54C158.58 215.927 162.35 216.62 166.423 216.62ZM243.741 233V142H283.131C291.277 142 298.297 143.343 304.191 146.03C310.084 148.63 314.634 152.4 317.841 157.34C321.047 162.28 322.651 168.173 322.651 175.02C322.651 181.78 321.047 187.63 317.841 192.57C314.634 197.423 310.084 201.15 304.191 203.75C298.297 206.35 291.277 207.65 283.131 207.65H255.441L264.801 198.42V233H243.741ZM301.591 233L278.841 199.98H301.331L324.341 233H301.591ZM264.801 200.76L255.441 190.88H281.961C288.461 190.88 293.314 189.493 296.521 186.72C299.727 183.86 301.331 179.96 301.331 175.02C301.331 169.993 299.727 166.093 296.521 163.32C293.314 160.547 288.461 159.16 281.961 159.16H255.441L264.801 149.15V200.76ZM351.036 233V142H368.456L422.146 207.52H413.696V142H434.496V233H417.206L363.386 167.48H371.836V233H351.036ZM487.097 178.66H530.907V195.04H487.097V178.66ZM488.657 216.1H538.187V233H467.727V142H536.497V158.9H488.657V216.1ZM610.844 234.56C603.65 234.56 596.977 233.39 590.824 231.05C584.757 228.71 579.47 225.417 574.964 221.17C570.544 216.923 567.077 211.94 564.564 206.22C562.137 200.5 560.924 194.26 560.924 187.5C560.924 180.74 562.137 174.5 564.564 168.78C567.077 163.06 570.587 158.077 575.094 153.83C579.6 149.583 584.887 146.29 590.954 143.95C597.02 141.61 603.607 140.44 610.714 140.44C617.907 140.44 624.494 141.61 630.474 143.95C636.54 146.29 641.784 149.583 646.204 153.83C650.71 158.077 654.22 163.06 656.734 168.78C659.247 174.413 660.504 180.653 660.504 187.5C660.504 194.26 659.247 200.543 656.734 206.35C654.22 212.07 650.71 217.053 646.204 221.3C641.784 225.46 636.54 228.71 630.474 231.05C624.494 233.39 617.95 234.56 610.844 234.56ZM610.714 216.62C614.787 216.62 618.514 215.927 621.894 214.54C625.36 213.153 628.394 211.16 630.994 208.56C633.594 205.96 635.587 202.883 636.974 199.33C638.447 195.777 639.184 191.833 639.184 187.5C639.184 183.167 638.447 179.223 636.974 175.67C635.587 172.117 633.594 169.04 630.994 166.44C628.48 163.84 625.49 161.847 622.024 160.46C618.557 159.073 614.787 158.38 610.714 158.38C606.64 158.38 602.87 159.073 599.404 160.46C596.024 161.847 593.034 163.84 590.434 166.44C587.834 169.04 585.797 172.117 584.324 175.67C582.937 179.223 582.244 183.167 582.244 187.5C582.244 191.747 582.937 195.69 584.324 199.33C585.797 202.883 587.79 205.96 590.304 208.56C592.904 211.16 595.937 213.153 599.404 214.54C602.87 215.927 606.64 216.62 610.714 216.62Z" fill="white"/>
<path d="M11.249 233H8.24899V236H11.249V233ZM11.249 142V139H8.24899V142H11.249ZM81.449 148.5L79.6374 150.891L79.646 150.898L79.6547 150.904L81.449 148.5ZM86.649 178.14L89.1355 179.818L89.1451 179.804L89.1545 179.79L86.649 178.14ZM77.029 186.2L78.3008 188.917L77.029 186.2ZM62.989 189.06L60.2671 187.799L58.2923 192.06H62.989V189.06ZM65.459 183.73V180.73H63.5428L62.7371 182.469L65.459 183.73ZM80.669 186.59L79.4807 189.345L79.5036 189.355L79.5267 189.364L80.669 186.59ZM90.939 194.78L88.4428 196.444L88.4564 196.464L88.4703 196.485L90.939 194.78ZM85.479 226.5L87.2063 228.953L87.2178 228.945L87.2292 228.937L85.479 226.5ZM32.179 217.14H29.179V220.14H32.179V217.14ZM69.099 214.54L70.689 217.084L70.6993 217.078L70.7096 217.071L69.099 214.54ZM69.099 197.51L67.3994 199.982L67.4434 200.012L67.4884 200.041L69.099 197.51ZM30.619 194.65H27.619V197.65H30.619V194.65ZM30.619 179.31V176.31H27.619V179.31H30.619ZM64.809 176.71L66.4354 179.231L66.4452 179.225L66.455 179.218L64.809 176.71ZM64.809 160.59L63.1264 163.074L63.1722 163.105L63.219 163.134L64.809 160.59ZM32.179 157.86V154.86H29.179V157.86H32.179ZM11.249 233H14.249V142H11.249H8.24899V233H11.249ZM11.249 142V145H55.709V142V139H11.249V142ZM55.709 142V145C66.8558 145 74.6674 147.126 79.6374 150.891L81.449 148.5L83.2606 146.109C76.7906 141.207 67.4422 139 55.709 139V142ZM81.449 148.5L79.6547 150.904C84.7201 154.684 87.159 159.522 87.159 165.66H90.159H93.159C93.159 157.585 89.7912 150.982 83.2432 146.096L81.449 148.5ZM90.159 165.66H87.159C87.159 169.913 86.123 173.484 84.1435 176.49L86.649 178.14L89.1545 179.79C91.855 175.689 93.159 170.94 93.159 165.66H90.159ZM86.649 178.14L84.1624 176.462C82.1488 179.445 79.3775 181.788 75.7572 183.483L77.029 186.2L78.3008 188.917C82.8271 186.798 86.4691 183.769 89.1355 179.818L86.649 178.14ZM77.029 186.2L75.7572 183.483C72.1458 185.173 67.9126 186.06 62.989 186.06V189.06V192.06C68.6387 192.06 73.7655 191.04 78.3008 188.917L77.029 186.2ZM62.989 189.06L65.7109 190.321L68.1809 184.991L65.459 183.73L62.7371 182.469L60.2671 187.799L62.989 189.06ZM65.459 183.73V186.73C70.846 186.73 75.4997 187.627 79.4807 189.345L80.669 186.59L81.8573 183.835C76.9983 181.739 71.512 180.73 65.459 180.73V183.73ZM80.669 186.59L79.5267 189.364C83.4485 190.979 86.3777 193.346 88.4428 196.444L90.939 194.78L93.4351 193.116C90.6469 188.934 86.7295 185.841 81.8112 183.816L80.669 186.59ZM90.939 194.78L88.4703 196.485C90.5746 199.532 91.709 203.371 91.709 208.17H94.709H97.709C97.709 202.396 96.33 197.308 93.4077 193.075L90.939 194.78ZM94.709 208.17H91.709C91.709 215.038 89.0705 220.226 83.7288 224.063L85.479 226.5L87.2292 228.937C94.1942 223.934 97.709 216.902 97.709 208.17H94.709ZM85.479 226.5L83.7517 224.047C78.3226 227.87 69.9865 230 58.309 230V233V236C70.5515 236 80.3288 233.796 87.2063 228.953L85.479 226.5ZM58.309 233V230H11.249V233V236H58.309V233ZM32.179 217.14V220.14H56.749V217.14V214.14H32.179V217.14ZM56.749 217.14V220.14C62.4353 220.14 67.2174 219.254 70.689 217.084L69.099 214.54L67.509 211.996C65.4339 213.293 61.9827 214.14 56.749 214.14V217.14ZM69.099 214.54L70.7096 217.071C74.5775 214.61 76.389 210.704 76.389 205.96H73.389H70.389C70.389 209.016 69.3404 210.83 67.4884 212.009L69.099 214.54ZM73.389 205.96H76.389C76.389 201.272 74.5554 197.426 70.7096 194.979L69.099 197.51L67.4884 200.041C69.3625 201.234 70.389 203.021 70.389 205.96H73.389ZM69.099 197.51L70.7986 195.038C67.3015 192.634 62.4715 191.65 56.749 191.65V194.65V197.65C61.9465 197.65 65.3498 198.573 67.3994 199.982L69.099 197.51ZM56.749 194.65V191.65H30.619V194.65V197.65H56.749V194.65ZM30.619 194.65H33.619V179.31H30.619H27.619V194.65H30.619ZM30.619 179.31V182.31H53.109V179.31V176.31H30.619V179.31ZM53.109 179.31V182.31C58.4841 182.31 63.0538 181.413 66.4354 179.231L64.809 176.71L63.1826 174.189C61.1908 175.474 57.9605 176.31 53.109 176.31V179.31ZM64.809 176.71L66.455 179.218C70.1663 176.783 71.969 173.054 71.969 168.52H68.969H65.969C65.969 171.266 64.9983 172.997 63.163 174.202L64.809 176.71ZM68.969 168.52H71.969C71.969 164.04 70.1367 160.382 66.399 158.046L64.809 160.59L63.219 163.134C65.0279 164.265 65.969 165.894 65.969 168.52H68.969ZM64.809 160.59L66.4915 158.106C63.0977 155.807 58.5039 154.86 53.109 154.86V157.86V160.86C57.9407 160.86 61.147 161.733 63.1264 163.074L64.809 160.59ZM53.109 157.86V154.86H32.179V157.86V160.86H53.109V157.86ZM32.179 157.86H29.179V217.14H32.179H35.179V157.86H32.179ZM146.533 231.05L145.454 233.849L145.46 233.852L145.467 233.854L146.533 231.05ZM130.673 221.17L128.595 223.333L128.605 223.343L128.616 223.353L130.673 221.17ZM120.273 206.22L117.512 207.392L117.519 207.409L117.527 207.427L120.273 206.22ZM120.273 168.78L117.527 167.573L117.519 167.591L117.512 167.608L120.273 168.78ZM146.663 143.95L145.584 141.151L146.663 143.95ZM186.183 143.95L185.09 146.744L185.097 146.746L185.104 146.749L186.183 143.95ZM201.913 153.83L199.835 155.993L199.845 156.003L199.856 156.013L201.913 153.83ZM212.443 168.78L209.697 169.987L209.7 169.995L209.704 170.002L212.443 168.78ZM212.443 206.35L215.19 207.557L215.193 207.549L215.196 207.542L212.443 206.35ZM201.913 221.3L203.969 223.485L203.971 223.483L201.913 221.3ZM186.183 231.05L185.104 228.251L185.097 228.254L185.09 228.256L186.183 231.05ZM177.603 214.54L176.489 211.755L176.477 211.759L176.465 211.764L177.603 214.54ZM186.703 208.56L184.582 206.439V206.439L186.703 208.56ZM192.683 199.33L189.912 198.181L189.9 198.21L189.889 198.239L192.683 199.33ZM192.683 175.67L189.889 176.761L189.9 176.79L189.912 176.819L192.683 175.67ZM186.703 166.44L184.546 168.525L184.564 168.543L184.582 168.561L186.703 166.44ZM177.733 160.46L176.619 163.245L177.733 160.46ZM155.113 160.46L153.999 157.675L153.987 157.679L153.975 157.684L155.113 160.46ZM146.143 166.44L148.265 168.561L146.143 166.44ZM140.033 175.67L137.262 174.521L137.25 174.55L137.239 174.579L140.033 175.67ZM140.033 199.33L137.23 200.398L137.245 200.439L137.262 200.479L140.033 199.33ZM146.013 208.56L143.856 210.645L143.874 210.663L143.892 210.681L146.013 208.56ZM155.113 214.54L153.999 217.325H153.999L155.113 214.54ZM166.553 234.56V231.56C159.691 231.56 153.382 230.445 147.6 228.246L146.533 231.05L145.467 233.854C151.991 236.335 159.029 237.56 166.553 237.56V234.56ZM146.533 231.05L147.613 228.251C141.891 226.044 136.94 222.953 132.731 218.987L130.673 221.17L128.616 223.353C133.42 227.88 139.043 231.376 145.454 233.849L146.533 231.05ZM130.673 221.17L132.752 219.007C128.62 215.037 125.378 210.381 123.02 205.013L120.273 206.22L117.527 207.427C120.195 213.499 123.886 218.809 128.595 223.333L130.673 221.17ZM120.273 206.22L123.035 205.048C120.779 199.73 119.633 193.893 119.633 187.5H116.633H113.633C113.633 194.627 114.914 201.27 117.512 207.392L120.273 206.22ZM116.633 187.5H119.633C119.633 181.107 120.779 175.27 123.035 169.952L120.273 168.78L117.512 167.608C114.914 173.73 113.633 180.373 113.633 187.5H116.633ZM120.273 168.78L123.02 169.987C125.373 164.632 128.65 159.982 132.861 156.013L130.803 153.83L128.746 151.647C123.944 156.172 120.2 161.488 117.527 167.573L120.273 168.78ZM130.803 153.83L132.861 156.013C137.07 152.047 142.021 148.956 147.743 146.749L146.663 143.95L145.584 141.151C139.173 143.624 133.55 147.12 128.746 151.647L130.803 153.83ZM146.663 143.95L147.743 146.749C153.434 144.554 159.651 143.44 166.423 143.44V140.44V137.44C158.982 137.44 152.025 138.666 145.584 141.151L146.663 143.95ZM166.423 140.44V143.44C173.287 143.44 179.498 144.555 185.09 146.744L186.183 143.95L187.276 141.156C180.909 138.665 173.946 137.44 166.423 137.44V140.44ZM186.183 143.95L185.104 146.749C190.821 148.954 195.719 152.039 199.835 155.993L201.913 153.83L203.992 151.667C199.267 147.127 193.678 143.626 187.263 141.151L186.183 143.95ZM201.913 153.83L199.856 156.013C204.067 159.981 207.344 164.632 209.697 169.987L212.443 168.78L215.19 167.573C212.516 161.488 208.773 156.172 203.971 151.647L201.913 153.83ZM212.443 168.78L209.704 170.002C212.027 175.211 213.213 181.028 213.213 187.5H216.213H219.213C219.213 180.279 217.886 173.616 215.183 167.558L212.443 168.78ZM216.213 187.5H213.213C213.213 193.879 212.03 199.753 209.69 205.158L212.443 206.35L215.196 207.542C217.884 201.334 219.213 194.641 219.213 187.5H216.213ZM212.443 206.35L209.697 205.143C207.344 210.498 204.067 215.148 199.856 219.117L201.913 221.3L203.971 223.483C208.773 218.958 212.516 213.642 215.19 207.557L212.443 206.35ZM201.913 221.3L199.857 219.115C195.74 222.991 190.834 226.041 185.104 228.251L186.183 231.05L187.263 233.849C193.666 231.379 199.247 227.929 203.969 223.485L201.913 221.3ZM186.183 231.05L185.09 228.256C179.494 230.446 173.326 231.56 166.553 231.56V234.56V237.56C173.994 237.56 180.913 236.334 187.276 233.844L186.183 231.05ZM166.423 216.62V219.62C170.842 219.62 174.961 218.867 178.742 217.316L177.603 214.54L176.465 211.764C173.485 212.987 170.151 213.62 166.423 213.62V216.62ZM177.603 214.54L178.717 217.325C182.555 215.79 185.933 213.573 188.825 210.681L186.703 208.56L184.582 206.439C182.274 208.747 179.585 210.516 176.489 211.755L177.603 214.54ZM186.703 208.56L188.825 210.681C191.729 207.777 193.946 204.346 195.478 200.421L192.683 199.33L189.889 198.239C188.647 201.421 186.878 204.143 184.582 206.439L186.703 208.56ZM192.683 199.33L195.454 200.479C197.097 196.518 197.893 192.178 197.893 187.5H194.893H191.893C191.893 191.489 191.216 195.035 189.912 198.181L192.683 199.33ZM194.893 187.5H197.893C197.893 182.822 197.097 178.482 195.454 174.521L192.683 175.67L189.912 176.819C191.216 179.965 191.893 183.511 191.893 187.5H194.893ZM192.683 175.67L195.478 174.579C193.946 170.654 191.729 167.223 188.825 164.319L186.703 166.44L184.582 168.561C186.878 170.857 188.647 173.579 189.889 176.761L192.683 175.67ZM186.703 166.44L188.86 164.355C186.043 161.441 182.694 159.213 178.847 157.675L177.733 160.46L176.619 163.245C179.706 164.48 182.337 166.239 184.546 168.525L186.703 166.44ZM177.733 160.46L178.847 157.675C174.995 156.134 170.843 155.38 166.423 155.38V158.38V161.38C170.15 161.38 173.538 162.013 176.619 163.245L177.733 160.46ZM166.423 158.38V155.38C162.003 155.38 157.851 156.134 153.999 157.675L155.113 160.46L156.227 163.245C159.309 162.013 162.697 161.38 166.423 161.38V158.38ZM155.113 160.46L153.975 157.684C150.225 159.223 146.901 161.44 144.022 164.319L146.143 166.44L148.265 168.561C150.585 166.24 153.242 164.47 156.252 163.236L155.113 160.46ZM146.143 166.44L144.022 164.319C141.131 167.21 138.879 170.621 137.262 174.521L140.033 175.67L142.805 176.819C144.134 173.612 145.956 170.87 148.265 168.561L146.143 166.44ZM140.033 175.67L137.239 174.579C135.699 178.524 134.953 182.844 134.953 187.5H137.953H140.953C140.953 183.489 141.594 179.922 142.828 176.761L140.033 175.67ZM137.953 187.5H134.953C134.953 192.079 135.702 196.387 137.23 200.398L140.033 199.33L142.837 198.262C141.591 194.993 140.953 191.415 140.953 187.5H137.953ZM140.033 199.33L137.262 200.479C138.87 204.358 141.065 207.757 143.856 210.645L146.013 208.56L148.17 206.475C145.935 204.163 144.143 201.409 142.805 198.181L140.033 199.33ZM146.013 208.56L143.892 210.681C146.784 213.573 150.161 215.79 153.999 217.325L155.113 214.54L156.227 211.755C153.132 210.516 150.443 208.747 148.135 206.439L146.013 208.56ZM155.113 214.54L153.999 217.325C157.851 218.866 162.003 219.62 166.423 219.62V216.62V213.62C162.697 213.62 159.309 212.987 156.227 211.755L155.113 214.54ZM243.741 233H240.741V236H243.741V233ZM243.741 142V139H240.741V142H243.741ZM304.191 146.03L302.946 148.76L302.963 148.767L302.98 148.775L304.191 146.03ZM317.841 157.34L315.324 158.973L317.841 157.34ZM317.841 192.57L320.344 194.224L320.35 194.214L320.357 194.203L317.841 192.57ZM304.191 203.75L305.402 206.495L304.191 203.75ZM255.441 207.65L253.334 205.514L248.126 210.65H255.441V207.65ZM264.801 198.42H267.801V191.248L262.694 196.284L264.801 198.42ZM264.801 233V236H267.801V233H264.801ZM301.591 233L299.12 234.702L300.015 236H301.591V233ZM278.841 199.98V196.98H273.131L276.37 201.682L278.841 199.98ZM301.331 199.98L303.792 198.265L302.897 196.98H301.331V199.98ZM324.341 233V236H330.088L326.802 231.285L324.341 233ZM264.801 200.76L262.623 202.823L267.801 208.289V200.76H264.801ZM255.441 190.88V187.88H248.466L253.263 192.943L255.441 190.88ZM296.521 186.72L298.483 188.989L298.501 188.974L298.518 188.959L296.521 186.72ZM255.441 159.16L253.249 157.111L248.528 162.16H255.441V159.16ZM264.801 149.15H267.801V141.549L262.609 147.101L264.801 149.15ZM243.741 233H246.741V142H243.741H240.741V233H243.741ZM243.741 142V145H283.131V142V139H243.741V142ZM283.131 142V145C290.955 145 297.531 146.291 302.946 148.76L304.191 146.03L305.435 143.3C299.064 140.396 291.6 139 283.131 139V142ZM304.191 146.03L302.98 148.775C308.391 151.162 312.465 154.569 315.324 158.973L317.841 157.34L320.357 155.707C316.803 150.231 311.777 146.098 305.402 143.285L304.191 146.03ZM317.841 157.34L315.324 158.973C318.167 163.352 319.651 168.657 319.651 175.02H322.651H325.651C325.651 167.69 323.928 161.208 320.357 155.707L317.841 157.34ZM322.651 175.02H319.651C319.651 181.288 318.171 186.552 315.324 190.937L317.841 192.57L320.357 194.203C323.924 188.708 325.651 182.272 325.651 175.02H322.651ZM317.841 192.57L315.338 190.916C312.482 195.239 308.405 198.612 302.98 201.005L304.191 203.75L305.402 206.495C311.763 203.688 316.786 199.608 320.344 194.224L317.841 192.57ZM304.191 203.75L302.98 201.005C297.555 203.399 290.967 204.65 283.131 204.65V207.65V210.65C291.588 210.65 299.04 209.301 305.402 206.495L304.191 203.75ZM283.131 207.65V204.65H255.441V207.65V210.65H283.131V207.65ZM255.441 207.65L257.547 209.786L266.907 200.556L264.801 198.42L262.694 196.284L253.334 205.514L255.441 207.65ZM264.801 198.42H261.801V233H264.801H267.801V198.42H264.801ZM264.801 233V230H243.741V233V236H264.801V233ZM301.591 233L304.061 231.298L281.311 198.278L278.841 199.98L276.37 201.682L299.12 234.702L301.591 233ZM278.841 199.98V202.98H301.331V199.98V196.98H278.841V199.98ZM301.331 199.98L298.869 201.695L321.879 234.715L324.341 233L326.802 231.285L303.792 198.265L301.331 199.98ZM324.341 233V230H301.591V233V236H324.341V233ZM264.801 200.76L266.979 198.697L257.619 188.817L255.441 190.88L253.263 192.943L262.623 202.823L264.801 200.76ZM255.441 190.88V193.88H281.961V190.88V187.88H255.441V190.88ZM281.961 190.88V193.88C288.813 193.88 294.506 192.429 298.483 188.989L296.521 186.72L294.558 184.451C292.123 186.558 288.109 187.88 281.961 187.88V190.88ZM296.521 186.72L298.518 188.959C302.461 185.442 304.331 180.674 304.331 175.02H301.331H298.331C298.331 179.246 296.994 182.278 294.524 184.481L296.521 186.72ZM301.331 175.02H304.331C304.331 169.3 302.472 164.501 298.483 161.051L296.521 163.32L294.558 165.589C296.982 167.686 298.331 170.687 298.331 175.02H301.331ZM296.521 163.32L298.483 161.051C294.506 157.611 288.813 156.16 281.961 156.16V159.16V162.16C288.109 162.16 292.123 163.482 294.558 165.589L296.521 163.32ZM281.961 159.16V156.16H255.441V159.16V162.16H281.961V159.16ZM255.441 159.16L257.632 161.209L266.992 151.199L264.801 149.15L262.609 147.101L253.249 157.111L255.441 159.16ZM264.801 149.15H261.801V200.76H264.801H267.801V149.15H264.801ZM351.036 233H348.036V236H351.036V233ZM351.036 142V139H348.036V142H351.036ZM368.456 142L370.777 140.099L369.877 139H368.456V142ZM422.146 207.52V210.52H428.483L424.467 205.619L422.146 207.52ZM413.697 207.52H410.697V210.52H413.697V207.52ZM413.697 142V139H410.697V142H413.697ZM434.496 142H437.496V139H434.496V142ZM434.496 233V236H437.496V233H434.496ZM417.206 233L414.888 234.904L415.788 236H417.206V233ZM363.387 167.48V164.48H357.04L361.068 169.384L363.387 167.48ZM371.836 167.48H374.836V164.48H371.836V167.48ZM371.836 233V236H374.836V233H371.836ZM351.036 233H354.036V142H351.036H348.036V233H351.036ZM351.036 142V145H368.456V142V139H351.036V142ZM368.456 142L366.136 143.901L419.826 209.421L422.146 207.52L424.467 205.619L370.777 140.099L368.456 142ZM422.146 207.52V204.52H413.697V207.52V210.52H422.146V207.52ZM413.697 207.52H416.697V142H413.697H410.697V207.52H413.697ZM413.697 142V145H434.496V142V139H413.697V142ZM434.496 142H431.496V233H434.496H437.496V142H434.496ZM434.496 233V230H417.206V233V236H434.496V233ZM417.206 233L419.525 231.096L365.705 165.576L363.387 167.48L361.068 169.384L414.888 234.904L417.206 233ZM363.387 167.48V170.48H371.836V167.48V164.48H363.387V167.48ZM371.836 167.48H368.836V233H371.836H374.836V167.48H371.836ZM371.836 233V230H351.036V233V236H371.836V233ZM487.097 178.66V175.66H484.097V178.66H487.097ZM530.907 178.66H533.907V175.66H530.907V178.66ZM530.907 195.04V198.04H533.907V195.04H530.907ZM487.097 195.04H484.097V198.04H487.097V195.04ZM488.657 216.1H485.657V219.1H488.657V216.1ZM538.187 216.1H541.187V213.1H538.187V216.1ZM538.187 233V236H541.187V233H538.187ZM467.727 233H464.727V236H467.727V233ZM467.727 142V139H464.727V142H467.727ZM536.497 142H539.497V139H536.497V142ZM536.497 158.9V161.9H539.497V158.9H536.497ZM488.657 158.9V155.9H485.657V158.9H488.657ZM487.097 178.66V181.66H530.907V178.66V175.66H487.097V178.66ZM530.907 178.66H527.907V195.04H530.907H533.907V178.66H530.907ZM530.907 195.04V192.04H487.097V195.04V198.04H530.907V195.04ZM487.097 195.04H490.097V178.66H487.097H484.097V195.04H487.097ZM488.657 216.1V219.1H538.187V216.1V213.1H488.657V216.1ZM538.187 216.1H535.187V233H538.187H541.187V216.1H538.187ZM538.187 233V230H467.727V233V236H538.187V233ZM467.727 233H470.727V142H467.727H464.727V233H467.727ZM467.727 142V145H536.497V142V139H467.727V142ZM536.497 142H533.497V158.9H536.497H539.497V142H536.497ZM536.497 158.9V155.9H488.657V158.9V161.9H536.497V158.9ZM488.657 158.9H485.657V216.1H488.657H491.657V158.9H488.657ZM590.824 231.05L589.744 233.849L589.751 233.852L589.757 233.854L590.824 231.05ZM574.964 221.17L572.885 223.333L572.896 223.343L572.906 223.353L574.964 221.17ZM564.564 206.22L561.802 207.392L561.809 207.409L561.817 207.427L564.564 206.22ZM564.564 168.78L561.817 167.573L561.809 167.591L561.802 167.608L564.564 168.78ZM590.953 143.95L589.874 141.151L590.953 143.95ZM630.474 143.95L629.38 146.744L629.387 146.746L629.394 146.749L630.474 143.95ZM646.204 153.83L644.125 155.993L644.136 156.003L644.146 156.013L646.204 153.83ZM656.734 168.78L653.987 169.987L653.99 169.995L653.994 170.002L656.734 168.78ZM656.734 206.35L659.48 207.557L659.483 207.549L659.487 207.542L656.734 206.35ZM646.204 221.3L648.26 223.485L648.261 223.483L646.204 221.3ZM630.474 231.05L629.394 228.251L629.387 228.254L629.38 228.256L630.474 231.05ZM621.893 214.54L620.779 211.755L620.767 211.759L620.755 211.764L621.893 214.54ZM630.994 208.56L628.872 206.439V206.439L630.994 208.56ZM636.974 199.33L634.202 198.181L634.19 198.21L634.179 198.239L636.974 199.33ZM636.974 175.67L634.179 176.761L634.19 176.79L634.202 176.819L636.974 175.67ZM630.994 166.44L628.837 168.525L628.854 168.543L628.872 168.561L630.994 166.44ZM622.023 160.46L620.909 163.245L622.023 160.46ZM599.404 160.46L598.289 157.675L598.277 157.679L598.265 157.684L599.404 160.46ZM590.434 166.44L592.555 168.561L590.434 166.44ZM584.324 175.67L581.552 174.521L581.54 174.55L581.529 174.579L584.324 175.67ZM584.324 199.33L581.52 200.398L581.536 200.439L581.552 200.479L584.324 199.33ZM590.304 208.56L588.147 210.645L588.164 210.663L588.182 210.681L590.304 208.56ZM599.404 214.54L598.289 217.325L599.404 214.54ZM610.844 234.56V231.56C603.981 231.56 597.672 230.445 591.89 228.246L590.824 231.05L589.757 233.854C596.281 236.335 603.32 237.56 610.844 237.56V234.56ZM590.824 231.05L591.903 228.251C586.181 226.044 581.231 222.953 577.021 218.987L574.964 221.17L572.906 223.353C577.71 227.88 583.333 231.376 589.744 233.849L590.824 231.05ZM574.964 221.17L577.042 219.007C572.911 215.037 569.669 210.381 567.31 205.013L564.564 206.22L561.817 207.427C564.485 213.499 568.176 218.809 572.885 223.333L574.964 221.17ZM564.564 206.22L567.325 205.048C565.069 199.73 563.924 193.893 563.924 187.5H560.924H557.924C557.924 194.627 559.205 201.27 561.802 207.392L564.564 206.22ZM560.924 187.5H563.924C563.924 181.107 565.069 175.27 567.325 169.952L564.564 168.78L561.802 167.608C559.205 173.73 557.924 180.373 557.924 187.5H560.924ZM564.564 168.78L567.31 169.987C569.663 164.632 572.94 159.982 577.151 156.013L575.094 153.83L573.036 151.647C568.234 156.172 564.491 161.488 561.817 167.573L564.564 168.78ZM575.094 153.83L577.151 156.013C581.361 152.047 586.311 148.956 592.033 146.749L590.953 143.95L589.874 141.151C583.463 143.624 577.84 147.12 573.036 151.647L575.094 153.83ZM590.953 143.95L592.033 146.749C597.725 144.554 603.942 143.44 610.714 143.44V140.44V137.44C603.272 137.44 596.316 138.666 589.874 141.151L590.953 143.95ZM610.714 140.44V143.44C617.578 143.44 623.788 144.555 629.38 146.744L630.474 143.95L631.567 141.156C625.199 138.665 618.236 137.44 610.714 137.44V140.44ZM630.474 143.95L629.394 146.749C635.112 148.954 640.01 152.039 644.125 155.993L646.204 153.83L648.282 151.667C643.557 147.127 637.969 143.626 631.553 141.151L630.474 143.95ZM646.204 153.83L644.146 156.013C648.357 159.981 651.634 164.632 653.987 169.987L656.734 168.78L659.48 167.573C656.806 161.488 653.063 156.172 648.261 151.647L646.204 153.83ZM656.734 168.78L653.994 170.002C656.318 175.211 657.504 181.028 657.504 187.5H660.504H663.504C663.504 180.279 662.176 173.616 659.473 167.558L656.734 168.78ZM660.504 187.5H657.504C657.504 193.879 656.32 199.753 653.98 205.158L656.734 206.35L659.487 207.542C662.174 201.334 663.504 194.641 663.504 187.5H660.504ZM656.734 206.35L653.987 205.143C651.634 210.498 648.357 215.148 644.146 219.117L646.204 221.3L648.261 223.483C653.063 218.958 656.806 213.642 659.48 207.557L656.734 206.35ZM646.204 221.3L644.147 219.115C640.03 222.991 635.124 226.041 629.394 228.251L630.474 231.05L631.553 233.849C637.956 231.379 643.537 227.929 648.26 223.485L646.204 221.3ZM630.474 231.05L629.38 228.256C623.784 230.446 617.616 231.56 610.844 231.56V234.56V237.56C618.284 237.56 625.203 236.334 631.567 233.844L630.474 231.05ZM610.714 216.62V219.62C615.133 219.62 619.252 218.867 623.032 217.316L621.893 214.54L620.755 211.764C617.776 212.987 614.441 213.62 610.714 213.62V216.62ZM621.893 214.54L623.008 217.325C626.846 215.79 630.223 213.573 633.115 210.681L630.994 208.56L628.872 206.439C626.564 208.747 623.875 210.516 620.779 211.755L621.893 214.54ZM630.994 208.56L633.115 210.681C636.019 207.777 638.237 204.346 639.768 200.421L636.974 199.33L634.179 198.239C632.937 201.421 631.168 204.143 628.872 206.439L630.994 208.56ZM636.974 199.33L639.745 200.479C641.387 196.518 642.184 192.178 642.184 187.5H639.184H636.184C636.184 191.489 635.507 195.035 634.202 198.181L636.974 199.33ZM639.184 187.5H642.184C642.184 182.822 641.387 178.482 639.745 174.521L636.974 175.67L634.202 176.819C635.507 179.965 636.184 183.511 636.184 187.5H639.184ZM636.974 175.67L639.768 174.579C638.237 170.654 636.019 167.223 633.115 164.319L630.994 166.44L628.872 168.561C631.168 170.857 632.937 173.579 634.179 176.761L636.974 175.67ZM630.994 166.44L633.151 164.355C630.333 161.441 626.984 159.213 623.138 157.675L622.023 160.46L620.909 163.245C623.996 164.48 626.627 166.239 628.837 168.525L630.994 166.44ZM622.023 160.46L623.138 157.675C619.286 156.134 615.134 155.38 610.714 155.38V158.38V161.38C614.44 161.38 617.828 162.013 620.909 163.245L622.023 160.46ZM610.714 158.38V155.38C606.293 155.38 602.141 156.134 598.289 157.675L599.404 160.46L600.518 163.245C603.599 162.013 606.987 161.38 610.714 161.38V158.38ZM599.404 160.46L598.265 157.684C594.515 159.223 591.191 161.44 588.312 164.319L590.434 166.44L592.555 168.561C594.876 166.24 597.532 164.47 600.542 163.236L599.404 160.46ZM590.434 166.44L588.312 164.319C585.421 167.21 583.169 170.621 581.552 174.521L584.324 175.67L587.095 176.819C588.424 173.612 590.246 170.87 592.555 168.561L590.434 166.44ZM584.324 175.67L581.529 174.579C579.989 178.524 579.244 182.844 579.244 187.5H582.244H585.244C585.244 183.489 585.884 179.922 587.118 176.761L584.324 175.67ZM582.244 187.5H579.244C579.244 192.079 579.992 196.387 581.52 200.398L584.324 199.33L587.127 198.262C585.882 194.993 585.244 191.415 585.244 187.5H582.244ZM584.324 199.33L581.552 200.479C583.161 204.358 585.355 207.757 588.147 210.645L590.304 208.56L592.461 206.475C590.225 204.163 588.433 201.409 587.095 198.181L584.324 199.33ZM590.304 208.56L588.182 210.681C591.074 213.573 594.451 215.79 598.289 217.325L599.404 214.54L600.518 211.755C597.422 210.516 594.733 208.747 592.425 206.439L590.304 208.56ZM599.404 214.54L598.289 217.325C602.141 218.866 606.293 219.62 610.714 219.62V216.62V213.62C606.987 213.62 603.599 212.987 600.518 211.755L599.404 214.54Z" fill="white" mask="url(#path-1-outside-1_1032_2)"/>
<mask id="path-3-outside-2_1032_2" maskUnits="userSpaceOnUse" x="4" y="238" width="664" height="111" fill="black">
<rect fill="white" x="4" y="238" width="664" height="111"/>
<path d="M11.249 340V249H55.709C67.149 249 75.729 251.167 81.449 255.5C87.2557 259.833 90.159 265.553 90.159 272.66C90.159 277.427 88.989 281.587 86.649 285.14C84.309 288.607 81.1023 291.293 77.029 293.2C72.9557 295.107 68.2757 296.06 62.989 296.06L65.459 290.73C71.179 290.73 76.249 291.683 80.669 293.59C85.089 295.41 88.5123 298.14 90.939 301.78C93.4523 305.42 94.709 309.883 94.709 315.17C94.709 322.97 91.6323 329.08 85.479 333.5C79.3257 337.833 70.269 340 58.309 340H11.249ZM32.179 324.14H56.749C62.209 324.14 66.3257 323.273 69.099 321.54C71.959 319.72 73.389 316.86 73.389 312.96C73.389 309.147 71.959 306.33 69.099 304.51C66.3257 302.603 62.209 301.65 56.749 301.65H30.619V286.31H53.109C58.2223 286.31 62.1223 285.443 64.809 283.71C67.5823 281.89 68.969 279.16 68.969 275.52C68.969 271.967 67.5823 269.323 64.809 267.59C62.1223 265.77 58.2223 264.86 53.109 264.86H32.179V324.14ZM166.553 341.56C159.36 341.56 152.687 340.39 146.533 338.05C140.467 335.71 135.18 332.417 130.673 328.17C126.253 323.923 122.787 318.94 120.273 313.22C117.847 307.5 116.633 301.26 116.633 294.5C116.633 287.74 117.847 281.5 120.273 275.78C122.787 270.06 126.297 265.077 130.803 260.83C135.31 256.583 140.597 253.29 146.663 250.95C152.73 248.61 159.317 247.44 166.423 247.44C173.617 247.44 180.203 248.61 186.183 250.95C192.25 253.29 197.493 256.583 201.913 260.83C206.42 265.077 209.93 270.06 212.443 275.78C214.957 281.413 216.213 287.653 216.213 294.5C216.213 301.26 214.957 307.543 212.443 313.35C209.93 319.07 206.42 324.053 201.913 328.3C197.493 332.46 192.25 335.71 186.183 338.05C180.203 340.39 173.66 341.56 166.553 341.56ZM166.423 323.62C170.497 323.62 174.223 322.927 177.603 321.54C181.07 320.153 184.103 318.16 186.703 315.56C189.303 312.96 191.297 309.883 192.683 306.33C194.157 302.777 194.893 298.833 194.893 294.5C194.893 290.167 194.157 286.223 192.683 282.67C191.297 279.117 189.303 276.04 186.703 273.44C184.19 270.84 181.2 268.847 177.733 267.46C174.267 266.073 170.497 265.38 166.423 265.38C162.35 265.38 158.58 266.073 155.113 267.46C151.733 268.847 148.743 270.84 146.143 273.44C143.543 276.04 141.507 279.117 140.033 282.67C138.647 286.223 137.953 290.167 137.953 294.5C137.953 298.747 138.647 302.69 140.033 306.33C141.507 309.883 143.5 312.96 146.013 315.56C148.613 318.16 151.647 320.153 155.113 321.54C158.58 322.927 162.35 323.62 166.423 323.62ZM243.741 340V249H283.131C291.277 249 298.297 250.343 304.191 253.03C310.084 255.63 314.634 259.4 317.841 264.34C321.047 269.28 322.651 275.173 322.651 282.02C322.651 288.78 321.047 294.63 317.841 299.57C314.634 304.423 310.084 308.15 304.191 310.75C298.297 313.35 291.277 314.65 283.131 314.65H255.441L264.801 305.42V340H243.741ZM301.591 340L278.841 306.98H301.331L324.341 340H301.591ZM264.801 307.76L255.441 297.88H281.961C288.461 297.88 293.314 296.493 296.521 293.72C299.727 290.86 301.331 286.96 301.331 282.02C301.331 276.993 299.727 273.093 296.521 270.32C293.314 267.547 288.461 266.16 281.961 266.16H255.441L264.801 256.15V307.76ZM351.036 340V249H368.456L422.146 314.52H413.696V249H434.496V340H417.206L363.386 274.48H371.836V340H351.036ZM487.097 285.66H530.907V302.04H487.097V285.66ZM488.657 323.1H538.187V340H467.727V249H536.497V265.9H488.657V323.1ZM610.844 341.56C603.65 341.56 596.977 340.39 590.824 338.05C584.757 335.71 579.47 332.417 574.964 328.17C570.544 323.923 567.077 318.94 564.564 313.22C562.137 307.5 560.924 301.26 560.924 294.5C560.924 287.74 562.137 281.5 564.564 275.78C567.077 270.06 570.587 265.077 575.094 260.83C579.6 256.583 584.887 253.29 590.954 250.95C597.02 248.61 603.607 247.44 610.714 247.44C617.907 247.44 624.494 248.61 630.474 250.95C636.54 253.29 641.784 256.583 646.204 260.83C650.71 265.077 654.22 270.06 656.734 275.78C659.247 281.413 660.504 287.653 660.504 294.5C660.504 301.26 659.247 307.543 656.734 313.35C654.22 319.07 650.71 324.053 646.204 328.3C641.784 332.46 636.54 335.71 630.474 338.05C624.494 340.39 617.95 341.56 610.844 341.56ZM610.714 323.62C614.787 323.62 618.514 322.927 621.894 321.54C625.36 320.153 628.394 318.16 630.994 315.56C633.594 312.96 635.587 309.883 636.974 306.33C638.447 302.777 639.184 298.833 639.184 294.5C639.184 290.167 638.447 286.223 636.974 282.67C635.587 279.117 633.594 276.04 630.994 273.44C628.48 270.84 625.49 268.847 622.024 267.46C618.557 266.073 614.787 265.38 610.714 265.38C606.64 265.38 602.87 266.073 599.404 267.46C596.024 268.847 593.034 270.84 590.434 273.44C587.834 276.04 585.797 279.117 584.324 282.67C582.937 286.223 582.244 290.167 582.244 294.5C582.244 298.747 582.937 302.69 584.324 306.33C585.797 309.883 587.79 312.96 590.304 315.56C592.904 318.16 595.937 320.153 599.404 321.54C602.87 322.927 606.64 323.62 610.714 323.62Z"/>
</mask>
<path d="M11.249 340H4.24898V347H11.249V340ZM11.249 249V242H4.24898V249H11.249ZM81.449 255.5L77.222 261.08L77.2421 261.095L77.2624 261.11L81.449 255.5ZM86.649 285.14L92.4509 289.056L92.4732 289.023L92.4952 288.99L86.649 285.14ZM77.029 293.2L79.9966 299.54L79.9966 299.54L77.029 293.2ZM62.989 296.06L56.6378 293.117L52.03 303.06H62.989V296.06ZM65.459 290.73V283.73H60.9878L59.1078 287.787L65.459 290.73ZM80.669 293.59L77.8964 300.017L77.9499 300.041L78.0037 300.063L80.669 293.59ZM90.939 301.78L85.1146 305.663L85.1463 305.71L85.1787 305.757L90.939 301.78ZM85.479 333.5L89.5094 339.223L89.5362 339.204L89.5628 339.185L85.479 333.5ZM32.179 324.14H25.179V331.14H32.179V324.14ZM69.099 321.54L72.809 327.476L72.8331 327.461L72.8571 327.446L69.099 321.54ZM69.099 304.51L65.1333 310.278L65.2358 310.349L65.3409 310.416L69.099 304.51ZM30.619 301.65H23.619V308.65H30.619V301.65ZM30.619 286.31V279.31H23.619V286.31H30.619ZM64.809 283.71L68.6039 289.592L68.6268 289.577L68.6496 289.562L64.809 283.71ZM64.809 267.59L60.8831 273.385L60.9897 273.458L61.099 273.526L64.809 267.59ZM32.179 264.86V257.86H25.179V264.86H32.179ZM11.249 340H18.249V249H11.249H4.24898V340H11.249ZM11.249 249V256H55.709V249V242H11.249V249ZM55.709 249V256C66.4648 256 73.2519 258.072 77.222 261.08L81.449 255.5L85.676 249.92C78.2061 244.261 67.8332 242 55.709 242V249ZM81.449 255.5L77.2624 261.11C81.3393 264.152 83.159 267.813 83.159 272.66H90.159H97.159C97.159 263.294 93.172 255.514 85.6356 249.89L81.449 255.5ZM90.159 272.66H83.159C83.159 276.229 82.3016 279.014 80.8028 281.29L86.649 285.14L92.4952 288.99C95.6764 284.159 97.159 278.625 97.159 272.66H90.159ZM86.649 285.14L80.8471 281.224C79.2687 283.562 77.0777 285.448 74.0614 286.86L77.029 293.2L79.9966 299.54C85.1269 297.138 89.3493 293.651 92.4509 289.056L86.649 285.14ZM77.029 293.2L74.0614 286.86C71.0661 288.262 67.4285 289.06 62.989 289.06V296.06V303.06C69.1228 303.06 74.8453 301.951 79.9966 299.54L77.029 293.2ZM62.989 296.06L69.3402 299.003L71.8102 293.673L65.459 290.73L59.1078 287.787L56.6378 293.117L62.989 296.06ZM65.459 290.73V297.73C70.402 297.73 74.5007 298.553 77.8964 300.017L80.669 293.59L83.4416 287.163C77.9973 284.814 71.956 283.73 65.459 283.73V290.73ZM80.669 293.59L78.0037 300.063C81.2612 301.404 83.5316 303.288 85.1146 305.663L90.939 301.78L96.7633 297.897C93.4931 292.992 88.9168 289.416 83.3342 287.117L80.669 293.59ZM90.939 301.78L85.1787 305.757C86.7377 308.015 87.709 311.021 87.709 315.17H94.709H101.709C101.709 308.745 100.167 302.825 96.6993 297.803L90.939 301.78ZM94.709 315.17H87.709C87.709 320.795 85.6547 324.755 81.3952 327.815L85.479 333.5L89.5628 339.185C97.61 333.405 101.709 325.145 101.709 315.17H94.709ZM85.479 333.5L81.4485 327.777C76.9851 330.92 69.6099 333 58.309 333V340V347C70.9281 347 81.6662 344.747 89.5094 339.223L85.479 333.5ZM58.309 340V333H11.249V340V347H58.309V340ZM32.179 324.14V331.14H56.749V324.14V317.14H32.179V324.14ZM56.749 324.14V331.14C62.7371 331.14 68.4064 330.228 72.809 327.476L69.099 321.54L65.389 315.604C64.2449 316.319 61.6809 317.14 56.749 317.14V324.14ZM69.099 321.54L72.8571 327.446C78.0689 324.129 80.389 318.83 80.389 312.96H73.389H66.389C66.389 314.89 65.8491 315.311 65.3409 315.634L69.099 321.54ZM73.389 312.96H80.389C80.389 307.107 78.0174 301.888 72.8571 298.604L69.099 304.51L65.3409 310.416C65.9006 310.772 66.389 311.187 66.389 312.96H73.389ZM69.099 304.51L73.0647 298.742C68.6026 295.674 62.8215 294.65 56.749 294.65V301.65V308.65C61.5965 308.65 64.0487 309.533 65.1333 310.278L69.099 304.51ZM56.749 301.65V294.65H30.619V301.65V308.65H56.749V301.65ZM30.619 301.65H37.619V286.31H30.619H23.619V301.65H30.619ZM30.619 286.31V293.31H53.109V286.31V279.31H30.619V286.31ZM53.109 286.31V293.31C58.8332 293.31 64.2958 292.371 68.6039 289.592L64.809 283.71L61.0141 277.828C59.9488 278.515 57.6114 279.31 53.109 279.31V286.31ZM64.809 283.71L68.6496 289.562C73.6116 286.306 75.969 281.247 75.969 275.52H68.969H61.969C61.969 277.073 61.553 277.474 60.9684 277.858L64.809 283.71ZM68.969 275.52H75.969C75.969 269.803 73.5425 264.794 68.519 261.654L64.809 267.59L61.099 273.526C61.5363 273.799 61.6679 274.006 61.7302 274.124C61.8058 274.269 61.969 274.661 61.969 275.52H68.969ZM64.809 267.59L68.7349 261.795C64.3982 258.857 58.8794 257.86 53.109 257.86V264.86V271.86C57.5652 271.86 59.8465 272.683 60.8831 273.385L64.809 267.59ZM53.109 264.86V257.86H32.179V264.86V271.86H53.109V264.86ZM32.179 264.86H25.179V324.14H32.179H39.179V264.86H32.179ZM146.533 338.05L144.014 344.581L144.03 344.587L144.045 344.593L146.533 338.05ZM130.673 328.17L125.823 333.218L125.848 333.241L125.873 333.265L130.673 328.17ZM120.273 313.22L113.829 315.954L113.847 315.995L113.865 316.036L120.273 313.22ZM120.273 275.78L113.865 272.964L113.847 273.005L113.829 273.046L120.273 275.78ZM146.663 250.95L144.144 244.419L146.663 250.95ZM186.183 250.95L183.632 257.469L183.648 257.475L183.664 257.481L186.183 250.95ZM201.913 260.83L197.064 265.878L197.088 265.901L197.113 265.925L201.913 260.83ZM212.443 275.78L206.035 278.596L206.043 278.614L206.051 278.632L212.443 275.78ZM212.443 313.35L218.852 316.166L218.86 316.148L218.867 316.131L212.443 313.35ZM201.913 328.3L206.711 333.397L206.714 333.395L201.913 328.3ZM186.183 338.05L183.664 331.519L183.648 331.525L183.632 331.531L186.183 338.05ZM177.603 321.54L175.004 315.041L174.975 315.052L174.946 315.064L177.603 321.54ZM186.703 315.56L181.754 310.61H181.754L186.703 315.56ZM192.683 306.33L186.217 303.649L186.189 303.717L186.162 303.785L192.683 306.33ZM192.683 282.67L186.162 285.215L186.189 285.283L186.217 285.351L192.683 282.67ZM186.703 273.44L181.67 278.305L181.712 278.348L181.754 278.39L186.703 273.44ZM177.733 267.46L175.134 273.959L177.733 267.46ZM155.113 267.46L152.514 260.961L152.485 260.972L152.456 260.984L155.113 267.46ZM146.143 273.44L151.093 278.39L146.143 273.44ZM140.033 282.67L133.567 279.989L133.539 280.057L133.512 280.125L140.033 282.67ZM140.033 306.33L133.492 308.822L133.528 308.917L133.567 309.011L140.033 306.33ZM146.013 315.56L140.98 320.425L141.022 320.468L141.064 320.51L146.013 315.56ZM155.113 321.54L152.514 328.039L155.113 321.54ZM166.553 341.56V334.56C160.131 334.56 154.309 333.518 149.021 331.507L146.533 338.05L144.045 344.593C151.064 347.262 158.589 348.56 166.553 348.56V341.56ZM146.533 338.05L149.052 331.519C143.789 329.489 139.288 326.669 135.474 323.075L130.673 328.17L125.873 333.265C131.072 338.164 137.144 341.931 144.014 344.581L146.533 338.05ZM130.673 328.17L135.523 323.122C131.777 319.523 128.834 315.302 126.682 310.404L120.273 313.22L113.865 316.036C116.739 322.578 120.73 328.324 125.823 333.218L130.673 328.17ZM120.273 313.22L126.717 310.486C124.689 305.704 123.633 300.404 123.633 294.5H116.633H109.633C109.633 302.116 111.004 309.296 113.829 315.954L120.273 313.22ZM116.633 294.5H123.633C123.633 288.596 124.689 283.296 126.717 278.514L120.273 275.78L113.829 273.046C111.004 279.704 109.633 286.884 109.633 294.5H116.633ZM120.273 275.78L126.682 278.596C128.821 273.728 131.787 269.521 135.604 265.925L130.803 260.83L126.003 255.735C120.806 260.632 116.752 266.392 113.865 272.964L120.273 275.78ZM130.803 260.83L135.604 265.925C139.418 262.331 143.919 259.511 149.182 257.481L146.663 250.95L144.144 244.419C137.274 247.069 131.202 250.836 126.003 255.735L130.803 260.83ZM146.663 250.95L149.182 257.481C154.374 255.479 160.098 254.44 166.423 254.44V247.44V240.44C158.535 240.44 151.086 241.741 144.144 244.419L146.663 250.95ZM166.423 247.44V254.44C172.848 254.44 178.557 255.483 183.632 257.469L186.183 250.95L188.734 244.431C181.849 241.737 174.385 240.44 166.423 240.44V247.44ZM186.183 250.95L183.664 257.481C188.917 259.507 193.354 262.314 197.064 265.878L201.913 260.83L206.763 255.782C201.632 250.853 195.583 247.073 188.702 244.419L186.183 250.95ZM201.913 260.83L197.113 265.925C200.93 269.521 203.896 273.728 206.035 278.596L212.443 275.78L218.852 272.964C215.964 266.392 211.91 260.632 206.714 255.735L201.913 260.83ZM212.443 275.78L206.051 278.632C208.122 283.274 209.213 288.527 209.213 294.5H216.213H223.213C223.213 286.779 221.792 279.553 218.836 272.928L212.443 275.78ZM216.213 294.5H209.213C209.213 300.37 208.127 305.699 206.019 310.569L212.443 313.35L218.867 316.131C221.786 309.387 223.213 302.15 223.213 294.5H216.213ZM212.443 313.35L206.035 310.534C203.896 315.402 200.93 319.609 197.113 323.205L201.913 328.3L206.714 333.395C211.91 328.498 215.964 322.738 218.852 316.166L212.443 313.35ZM201.913 328.3L197.116 323.203C193.401 326.699 188.947 329.481 183.664 331.519L186.183 338.05L188.702 344.581C195.553 341.939 201.585 338.221 206.711 333.397L201.913 328.3ZM186.183 338.05L183.632 331.531C178.548 333.521 172.88 334.56 166.553 334.56V341.56V348.56C174.44 348.56 181.859 347.259 188.734 344.569L186.183 338.05ZM166.423 323.62V330.62C171.303 330.62 175.945 329.786 180.26 328.016L177.603 321.54L174.946 315.064C172.501 316.067 169.69 316.62 166.423 316.62V323.62ZM177.603 321.54L180.203 328.039C184.536 326.306 188.372 323.791 191.653 320.51L186.703 315.56L181.754 310.61C179.834 312.529 177.604 314 175.004 315.041L177.603 321.54ZM186.703 315.56L191.653 320.51C194.963 317.2 197.479 313.295 199.204 308.875L192.683 306.33L186.162 303.785C185.114 306.471 183.643 308.72 181.754 310.61L186.703 315.56ZM192.683 306.33L199.149 309.011C201.017 304.507 201.893 299.637 201.893 294.5H194.893H187.893C187.893 298.029 187.296 301.047 186.217 303.649L192.683 306.33ZM194.893 294.5H201.893C201.893 289.363 201.017 284.493 199.149 279.989L192.683 282.67L186.217 285.351C187.296 287.953 187.893 290.971 187.893 294.5H194.893ZM192.683 282.67L199.204 280.125C197.479 275.705 194.963 271.8 191.653 268.49L186.703 273.44L181.754 278.39C183.643 280.28 185.114 282.529 186.162 285.215L192.683 282.67ZM186.703 273.44L191.736 268.575C188.514 265.241 184.686 262.702 180.333 260.961L177.733 267.46L175.134 273.959C177.714 274.991 179.866 276.439 181.67 278.305L186.703 273.44ZM177.733 267.46L180.333 260.961C175.967 259.214 171.306 258.38 166.423 258.38V265.38V272.38C169.687 272.38 172.566 272.932 175.134 273.959L177.733 267.46ZM166.423 265.38V258.38C161.541 258.38 156.879 259.214 152.514 260.961L155.113 267.46L157.713 273.959C160.281 272.932 163.159 272.38 166.423 272.38V265.38ZM155.113 267.46L152.456 260.984C148.213 262.725 144.445 265.239 141.194 268.49L146.143 273.44L151.093 278.39C153.042 276.441 155.254 274.969 157.77 273.936L155.113 267.46ZM146.143 273.44L141.194 268.49C137.914 271.769 135.376 275.627 133.567 279.989L140.033 282.67L146.499 285.351C147.638 282.606 149.172 280.311 151.093 278.39L146.143 273.44ZM140.033 282.67L133.512 280.125C131.769 284.592 130.953 289.413 130.953 294.5H137.953H144.953C144.953 290.92 145.524 287.854 146.554 285.215L140.033 282.67ZM137.953 294.5H130.953C130.953 299.521 131.776 304.317 133.492 308.822L140.033 306.33L146.575 303.838C145.517 301.063 144.953 297.972 144.953 294.5H137.953ZM140.033 306.33L133.567 309.011C135.355 313.324 137.818 317.154 140.98 320.425L146.013 315.56L151.046 310.695C149.182 308.766 147.658 306.443 146.499 303.649L140.033 306.33ZM146.013 315.56L141.064 320.51C144.344 323.791 148.181 326.306 152.514 328.039L155.113 321.54L157.713 315.041C155.113 314 152.882 312.529 150.963 310.61L146.013 315.56ZM155.113 321.54L152.514 328.039C156.879 329.786 161.541 330.62 166.423 330.62V323.62V316.62C163.159 316.62 160.281 316.068 157.713 315.041L155.113 321.54ZM243.741 340H236.741V347H243.741V340ZM243.741 249V242H236.741V249H243.741ZM304.191 253.03L301.287 259.399L301.326 259.417L301.365 259.434L304.191 253.03ZM317.841 264.34L311.969 268.151L317.841 264.34ZM317.841 299.57L323.681 303.429L323.697 303.405L323.712 303.381L317.841 299.57ZM304.191 310.75L307.016 317.154L304.191 310.75ZM255.441 314.65L250.526 309.666L238.373 321.65H255.441V314.65ZM264.801 305.42H271.801V288.686L259.886 300.436L264.801 305.42ZM264.801 340V347H271.801V340H264.801ZM301.591 340L295.826 343.971L297.913 347H301.591V340ZM278.841 306.98V299.98H265.517L273.076 310.951L278.841 306.98ZM301.331 306.98L307.074 302.978L304.985 299.98H301.331V306.98ZM324.341 340V347H337.751L330.084 335.998L324.341 340ZM264.801 307.76L259.719 312.574L271.801 325.327V307.76H264.801ZM255.441 297.88V290.88H239.167L250.359 302.694L255.441 297.88ZM296.521 293.72L301.1 299.015L301.14 298.98L301.18 298.944L296.521 293.72ZM255.441 266.16L250.328 261.379L239.312 273.16H255.441V266.16ZM264.801 256.15H271.801V238.415L259.688 251.369L264.801 256.15ZM243.741 340H250.741V249H243.741H236.741V340H243.741ZM243.741 249V256H283.131V249V242H243.741V249ZM283.131 249V256C290.526 256 296.509 257.221 301.287 259.399L304.191 253.03L307.094 246.661C300.086 243.466 292.029 242 283.131 242V249ZM304.191 253.03L301.365 259.434C306.134 261.538 309.573 264.46 311.969 268.151L317.841 264.34L323.712 260.529C319.695 254.34 314.034 249.722 307.016 246.626L304.191 253.03ZM317.841 264.34L311.969 268.151C314.326 271.782 315.651 276.301 315.651 282.02H322.651H329.651C329.651 274.045 327.769 266.778 323.712 260.529L317.841 264.34ZM322.651 282.02H315.651C315.651 287.632 314.335 292.114 311.969 295.759L317.841 299.57L323.712 303.381C327.76 297.146 329.651 289.928 329.651 282.02H322.651ZM317.841 299.57L312 295.711C309.612 299.326 306.167 302.227 301.365 304.346L304.191 310.75L307.016 317.154C314.001 314.073 319.656 309.521 323.681 303.429L317.841 299.57ZM304.191 310.75L301.365 304.346C296.565 306.464 290.553 307.65 283.131 307.65V314.65V321.65C292.002 321.65 300.03 320.236 307.016 317.154L304.191 310.75ZM283.131 314.65V307.65H255.441V314.65V321.65H283.131V314.65ZM255.441 314.65L260.356 319.634L269.716 310.404L264.801 305.42L259.886 300.436L250.526 309.666L255.441 314.65ZM264.801 305.42H257.801V340H264.801H271.801V305.42H264.801ZM264.801 340V333H243.741V340V347H264.801V340ZM301.591 340L307.355 336.029L284.605 303.009L278.841 306.98L273.076 310.951L295.826 343.971L301.591 340ZM278.841 306.98V313.98H301.331V306.98V299.98H278.841V306.98ZM301.331 306.98L295.588 310.982L318.598 344.002L324.341 340L330.084 335.998L307.074 302.978L301.331 306.98ZM324.341 340V333H301.591V340V347H324.341V340ZM264.801 307.76L269.882 302.946L260.522 293.066L255.441 297.88L250.359 302.694L259.719 312.574L264.801 307.76ZM255.441 297.88V304.88H281.961V297.88V290.88H255.441V297.88ZM281.961 297.88V304.88C289.282 304.88 296.094 303.344 301.1 299.015L296.521 293.72L291.942 288.425C290.534 289.643 287.639 290.88 281.961 290.88V297.88ZM296.521 293.72L301.18 298.944C306.106 294.551 308.331 288.625 308.331 282.02H301.331H294.331C294.331 285.295 293.349 287.169 291.861 288.496L296.521 293.72ZM301.331 282.02H308.331C308.331 275.376 306.132 269.378 301.1 265.025L296.521 270.32L291.942 275.615C293.323 276.809 294.331 278.611 294.331 282.02H301.331ZM296.521 270.32L301.1 265.025C296.094 260.696 289.282 259.16 281.961 259.16V266.16V273.16C287.639 273.16 290.534 274.397 291.942 275.615L296.521 270.32ZM281.961 266.16V259.16H255.441V266.16V273.16H281.961V266.16ZM255.441 266.16L260.554 270.941L269.914 260.931L264.801 256.15L259.688 251.369L250.328 261.379L255.441 266.16ZM264.801 256.15H257.801V307.76H264.801H271.801V256.15H264.801ZM351.036 340H344.036V347H351.036V340ZM351.036 249V242H344.036V249H351.036ZM368.456 249L373.871 244.563L371.77 242H368.456V249ZM422.146 314.52V321.52H436.933L427.561 310.083L422.146 314.52ZM413.697 314.52H406.697V321.52H413.697V314.52ZM413.697 249V242H406.697V249H413.697ZM434.496 249H441.496V242H434.496V249ZM434.496 340V347H441.496V340H434.496ZM417.206 340L411.797 344.443L413.898 347H417.206V340ZM363.387 274.48V267.48H348.578L357.977 278.923L363.387 274.48ZM371.836 274.48H378.836V267.48H371.836V274.48ZM371.836 340V347H378.836V340H371.836ZM351.036 340H358.036V249H351.036H344.036V340H351.036ZM351.036 249V256H368.456V249V242H351.036V249ZM368.456 249L363.042 253.437L416.732 318.957L422.146 314.52L427.561 310.083L373.871 244.563L368.456 249ZM422.146 314.52V307.52H413.697V314.52V321.52H422.146V314.52ZM413.697 314.52H420.697V249H413.697H406.697V314.52H413.697ZM413.697 249V256H434.496V249V242H413.697V249ZM434.496 249H427.496V340H434.496H441.496V249H434.496ZM434.496 340V333H417.206V340V347H434.496V340ZM417.206 340L422.616 335.557L368.796 270.037L363.387 274.48L357.977 278.923L411.797 344.443L417.206 340ZM363.387 274.48V281.48H371.836V274.48V267.48H363.387V274.48ZM371.836 274.48H364.836V340H371.836H378.836V274.48H371.836ZM371.836 340V333H351.036V340V347H371.836V340ZM487.097 285.66V278.66H480.097V285.66H487.097ZM530.907 285.66H537.907V278.66H530.907V285.66ZM530.907 302.04V309.04H537.907V302.04H530.907ZM487.097 302.04H480.097V309.04H487.097V302.04ZM488.657 323.1H481.657V330.1H488.657V323.1ZM538.187 323.1H545.187V316.1H538.187V323.1ZM538.187 340V347H545.187V340H538.187ZM467.727 340H460.727V347H467.727V340ZM467.727 249V242H460.727V249H467.727ZM536.497 249H543.497V242H536.497V249ZM536.497 265.9V272.9H543.497V265.9H536.497ZM488.657 265.9V258.9H481.657V265.9H488.657ZM487.097 285.66V292.66H530.907V285.66V278.66H487.097V285.66ZM530.907 285.66H523.907V302.04H530.907H537.907V285.66H530.907ZM530.907 302.04V295.04H487.097V302.04V309.04H530.907V302.04ZM487.097 302.04H494.097V285.66H487.097H480.097V302.04H487.097ZM488.657 323.1V330.1H538.187V323.1V316.1H488.657V323.1ZM538.187 323.1H531.187V340H538.187H545.187V323.1H538.187ZM538.187 340V333H467.727V340V347H538.187V340ZM467.727 340H474.727V249H467.727H460.727V340H467.727ZM467.727 249V256H536.497V249V242H467.727V249ZM536.497 249H529.497V265.9H536.497H543.497V249H536.497ZM536.497 265.9V258.9H488.657V265.9V272.9H536.497V265.9ZM488.657 265.9H481.657V323.1H488.657H495.657V265.9H488.657ZM590.824 338.05L588.304 344.581L588.32 344.587L588.335 344.593L590.824 338.05ZM574.964 328.17L570.114 333.218L570.138 333.241L570.163 333.265L574.964 328.17ZM564.564 313.22L558.119 315.954L558.137 315.995L558.155 316.036L564.564 313.22ZM564.564 275.78L558.155 272.964L558.137 273.005L558.119 273.046L564.564 275.78ZM590.953 250.95L588.434 244.419L590.953 250.95ZM630.474 250.95L627.923 257.469L627.939 257.475L627.954 257.481L630.474 250.95ZM646.204 260.83L641.354 265.878L641.378 265.901L641.403 265.925L646.204 260.83ZM656.734 275.78L650.325 278.596L650.333 278.614L650.341 278.632L656.734 275.78ZM656.734 313.35L663.142 316.166L663.15 316.148L663.158 316.131L656.734 313.35ZM646.204 328.3L651.001 333.397L651.004 333.395L646.204 328.3ZM630.474 338.05L627.954 331.519L627.939 331.525L627.923 331.531L630.474 338.05ZM621.893 321.54L619.294 315.041L619.265 315.052L619.237 315.064L621.893 321.54ZM630.994 315.56L626.044 310.61L630.994 315.56ZM636.974 306.33L630.507 303.649L630.479 303.717L630.452 303.785L636.974 306.33ZM636.974 282.67L630.452 285.215L630.479 285.283L630.507 285.351L636.974 282.67ZM630.994 273.44L625.961 278.305L626.002 278.348L626.044 278.39L630.994 273.44ZM622.023 267.46L619.424 273.959L622.023 267.46ZM599.404 267.46L596.804 260.961L596.775 260.972L596.747 260.984L599.404 267.46ZM590.434 273.44L595.383 278.39L590.434 273.44ZM584.324 282.67L577.857 279.989L577.829 280.057L577.802 280.125L584.324 282.67ZM584.324 306.33L577.782 308.822L577.818 308.917L577.857 309.011L584.324 306.33ZM590.304 315.56L585.271 320.425L585.312 320.468L585.354 320.51L590.304 315.56ZM599.404 321.54L596.804 328.039L599.404 321.54ZM610.844 341.56V334.56C604.422 334.56 598.6 333.518 593.312 331.507L590.824 338.05L588.335 344.593C595.354 347.262 602.879 348.56 610.844 348.56V341.56ZM590.824 338.05L593.343 331.519C588.079 329.489 583.578 326.669 579.764 323.075L574.964 328.17L570.163 333.265C575.363 338.164 581.434 341.931 588.304 344.581L590.824 338.05ZM574.964 328.17L579.813 323.122C576.067 319.523 573.124 315.302 570.972 310.404L564.564 313.22L558.155 316.036C561.029 322.578 565.02 328.324 570.114 333.218L574.964 328.17ZM564.564 313.22L571.008 310.486C568.979 305.704 567.924 300.404 567.924 294.5H560.924H553.924C553.924 302.116 555.295 309.296 558.119 315.954L564.564 313.22ZM560.924 294.5H567.924C567.924 288.596 568.979 283.296 571.008 278.514L564.564 275.78L558.119 273.046C555.295 279.704 553.924 286.884 553.924 294.5H560.924ZM564.564 275.78L570.972 278.596C573.111 273.728 576.077 269.521 579.894 265.925L575.094 260.83L570.293 255.735C565.097 260.632 561.042 266.392 558.155 272.964L564.564 275.78ZM575.094 260.83L579.894 265.925C583.708 262.331 588.209 259.511 593.473 257.481L590.953 250.95L588.434 244.419C581.564 247.069 575.493 250.836 570.293 255.735L575.094 260.83ZM590.953 250.95L593.473 257.481C598.664 255.479 604.388 254.44 610.714 254.44V247.44V240.44C602.826 240.44 595.376 241.741 588.434 244.419L590.953 250.95ZM610.714 247.44V254.44C617.138 254.44 622.847 255.483 627.923 257.469L630.474 250.95L633.024 244.431C626.14 241.737 618.675 240.44 610.714 240.44V247.44ZM630.474 250.95L627.954 257.481C633.207 259.507 637.645 262.314 641.354 265.878L646.204 260.83L651.053 255.782C645.922 250.853 639.873 247.073 632.993 244.419L630.474 250.95ZM646.204 260.83L641.403 265.925C645.22 269.521 648.186 273.728 650.325 278.596L656.734 275.78L663.142 272.964C660.255 266.392 656.201 260.632 651.004 255.735L646.204 260.83ZM656.734 275.78L650.341 278.632C652.412 283.274 653.504 288.527 653.504 294.5H660.504H667.504C667.504 286.779 666.082 279.553 663.126 272.928L656.734 275.78ZM660.504 294.5H653.504C653.504 300.37 652.417 305.699 650.309 310.569L656.734 313.35L663.158 316.131C666.076 309.387 667.504 302.15 667.504 294.5H660.504ZM656.734 313.35L650.325 310.534C648.186 315.402 645.22 319.609 641.403 323.205L646.204 328.3L651.004 333.395C656.201 328.498 660.255 322.738 663.142 316.166L656.734 313.35ZM646.204 328.3L641.406 323.203C637.691 326.699 633.237 329.481 627.954 331.519L630.474 338.05L632.993 344.581C639.844 341.939 645.876 338.221 651.001 333.397L646.204 328.3ZM630.474 338.05L627.923 331.531C622.838 333.521 617.17 334.56 610.844 334.56V341.56V348.56C618.73 348.56 626.149 347.259 633.024 344.569L630.474 338.05ZM610.714 323.62V330.62C615.593 330.62 620.236 329.786 624.55 328.016L621.893 321.54L619.237 315.064C616.791 316.067 613.98 316.62 610.714 316.62V323.62ZM621.893 321.54L624.493 328.039C628.826 326.306 632.662 323.791 635.943 320.51L630.994 315.56L626.044 310.61C624.125 312.529 621.894 314 619.294 315.041L621.893 321.54ZM630.994 315.56L635.943 320.51C639.253 317.2 641.769 313.295 643.495 308.875L636.974 306.33L630.452 303.785C629.404 306.471 627.934 308.72 626.044 310.61L630.994 315.56ZM636.974 306.33L643.44 309.011C645.307 304.507 646.184 299.637 646.184 294.5H639.184H632.184C632.184 298.029 631.586 301.047 630.507 303.649L636.974 306.33ZM639.184 294.5H646.184C646.184 289.363 645.307 284.493 643.44 279.989L636.974 282.67L630.507 285.351C631.586 287.953 632.184 290.971 632.184 294.5H639.184ZM636.974 282.67L643.495 280.125C641.769 275.705 639.253 271.8 635.943 268.49L630.994 273.44L626.044 278.39C627.934 280.28 629.404 282.529 630.452 285.215L636.974 282.67ZM630.994 273.44L636.026 268.575C632.804 265.241 628.977 262.702 624.623 260.961L622.023 267.46L619.424 273.959C622.004 274.991 624.156 276.439 625.961 278.305L630.994 273.44ZM622.023 267.46L624.623 260.961C620.257 259.214 615.596 258.38 610.714 258.38V265.38V272.38C613.978 272.38 616.856 272.932 619.424 273.959L622.023 267.46ZM610.714 265.38V258.38C605.831 258.38 601.17 259.214 596.804 260.961L599.404 267.46L602.003 273.959C604.571 272.932 607.449 272.38 610.714 272.38V265.38ZM599.404 267.46L596.747 260.984C592.503 262.725 588.735 265.239 585.484 268.49L590.434 273.44L595.383 278.39C597.332 276.441 599.544 274.969 602.06 273.936L599.404 267.46ZM590.434 273.44L585.484 268.49C582.205 271.769 579.666 275.627 577.857 279.989L584.324 282.67L590.79 285.351C591.928 282.606 593.463 280.311 595.383 278.39L590.434 273.44ZM584.324 282.67L577.802 280.125C576.059 284.592 575.244 289.413 575.244 294.5H582.244H589.244C589.244 290.92 589.815 287.854 590.845 285.215L584.324 282.67ZM582.244 294.5H575.244C575.244 299.521 576.066 304.317 577.782 308.822L584.324 306.33L590.865 303.838C589.808 301.063 589.244 297.972 589.244 294.5H582.244ZM584.324 306.33L577.857 309.011C579.645 313.324 582.109 317.154 585.271 320.425L590.304 315.56L595.336 310.695C593.472 308.766 591.948 306.443 590.79 303.649L584.324 306.33ZM590.304 315.56L585.354 320.51C588.635 323.791 592.471 326.306 596.804 328.039L599.404 321.54L602.003 315.041C599.403 314 597.172 312.529 595.253 310.61L590.304 315.56ZM599.404 321.54L596.804 328.039C601.17 329.786 605.831 330.62 610.714 330.62V323.62V316.62C607.449 316.62 604.571 316.068 602.003 315.041L599.404 321.54Z" fill="white" mask="url(#path-3-outside-2_1032_2)"/>
<mask id="path-5-outside-3_1032_2" maskUnits="userSpaceOnUse" x="4" y="24" width="664" height="111" fill="black">
<rect fill="white" x="4" y="24" width="664" height="111"/>
<path d="M11.249 126V35H55.709C67.149 35 75.729 37.1667 81.449 41.5C87.2557 45.8333 90.159 51.5533 90.159 58.66C90.159 63.4267 88.989 67.5867 86.649 71.14C84.309 74.6067 81.1023 77.2933 77.029 79.2C72.9557 81.1067 68.2757 82.06 62.989 82.06L65.459 76.73C71.179 76.73 76.249 77.6833 80.669 79.59C85.089 81.41 88.5123 84.14 90.939 87.78C93.4523 91.42 94.709 95.8833 94.709 101.17C94.709 108.97 91.6323 115.08 85.479 119.5C79.3257 123.833 70.269 126 58.309 126H11.249ZM32.179 110.14H56.749C62.209 110.14 66.3257 109.273 69.099 107.54C71.959 105.72 73.389 102.86 73.389 98.96C73.389 95.1467 71.959 92.33 69.099 90.51C66.3257 88.6033 62.209 87.65 56.749 87.65H30.619V72.31H53.109C58.2223 72.31 62.1223 71.4433 64.809 69.71C67.5823 67.89 68.969 65.16 68.969 61.52C68.969 57.9667 67.5823 55.3233 64.809 53.59C62.1223 51.77 58.2223 50.86 53.109 50.86H32.179V110.14ZM166.553 127.56C159.36 127.56 152.687 126.39 146.533 124.05C140.467 121.71 135.18 118.417 130.673 114.17C126.253 109.923 122.787 104.94 120.273 99.22C117.847 93.5 116.633 87.26 116.633 80.5C116.633 73.74 117.847 67.5 120.273 61.78C122.787 56.06 126.297 51.0767 130.803 46.83C135.31 42.5833 140.597 39.29 146.663 36.95C152.73 34.61 159.317 33.44 166.423 33.44C173.617 33.44 180.203 34.61 186.183 36.95C192.25 39.29 197.493 42.5833 201.913 46.83C206.42 51.0767 209.93 56.06 212.443 61.78C214.957 67.4133 216.213 73.6533 216.213 80.5C216.213 87.26 214.957 93.5433 212.443 99.35C209.93 105.07 206.42 110.053 201.913 114.3C197.493 118.46 192.25 121.71 186.183 124.05C180.203 126.39 173.66 127.56 166.553 127.56ZM166.423 109.62C170.497 109.62 174.223 108.927 177.603 107.54C181.07 106.153 184.103 104.16 186.703 101.56C189.303 98.96 191.297 95.8833 192.683 92.33C194.157 88.7767 194.893 84.8333 194.893 80.5C194.893 76.1667 194.157 72.2233 192.683 68.67C191.297 65.1167 189.303 62.04 186.703 59.44C184.19 56.84 181.2 54.8467 177.733 53.46C174.267 52.0733 170.497 51.38 166.423 51.38C162.35 51.38 158.58 52.0733 155.113 53.46C151.733 54.8467 148.743 56.84 146.143 59.44C143.543 62.04 141.507 65.1167 140.033 68.67C138.647 72.2233 137.953 76.1667 137.953 80.5C137.953 84.7467 138.647 88.69 140.033 92.33C141.507 95.8833 143.5 98.96 146.013 101.56C148.613 104.16 151.647 106.153 155.113 107.54C158.58 108.927 162.35 109.62 166.423 109.62ZM243.741 126V35H283.131C291.277 35 298.297 36.3433 304.191 39.03C310.084 41.63 314.634 45.4 317.841 50.34C321.047 55.28 322.651 61.1733 322.651 68.02C322.651 74.78 321.047 80.63 317.841 85.57C314.634 90.4233 310.084 94.15 304.191 96.75C298.297 99.35 291.277 100.65 283.131 100.65H255.441L264.801 91.42V126H243.741ZM301.591 126L278.841 92.98H301.331L324.341 126H301.591ZM264.801 93.76L255.441 83.88H281.961C288.461 83.88 293.314 82.4933 296.521 79.72C299.727 76.86 301.331 72.96 301.331 68.02C301.331 62.9933 299.727 59.0933 296.521 56.32C293.314 53.5467 288.461 52.16 281.961 52.16H255.441L264.801 42.15V93.76ZM351.036 126V35H368.456L422.146 100.52H413.696V35H434.496V126H417.206L363.386 60.48H371.836V126H351.036ZM487.097 71.66H530.907V88.04H487.097V71.66ZM488.657 109.1H538.187V126H467.727V35H536.497V51.9H488.657V109.1ZM610.844 127.56C603.65 127.56 596.977 126.39 590.824 124.05C584.757 121.71 579.47 118.417 574.964 114.17C570.544 109.923 567.077 104.94 564.564 99.22C562.137 93.5 560.924 87.26 560.924 80.5C560.924 73.74 562.137 67.5 564.564 61.78C567.077 56.06 570.587 51.0767 575.094 46.83C579.6 42.5833 584.887 39.29 590.954 36.95C597.02 34.61 603.607 33.44 610.714 33.44C617.907 33.44 624.494 34.61 630.474 36.95C636.54 39.29 641.784 42.5833 646.204 46.83C650.71 51.0767 654.22 56.06 656.734 61.78C659.247 67.4133 660.504 73.6533 660.504 80.5C660.504 87.26 659.247 93.5433 656.734 99.35C654.22 105.07 650.71 110.053 646.204 114.3C641.784 118.46 636.54 121.71 630.474 124.05C624.494 126.39 617.95 127.56 610.844 127.56ZM610.714 109.62C614.787 109.62 618.514 108.927 621.894 107.54C625.36 106.153 628.394 104.16 630.994 101.56C633.594 98.96 635.587 95.8833 636.974 92.33C638.447 88.7767 639.184 84.8333 639.184 80.5C639.184 76.1667 638.447 72.2233 636.974 68.67C635.587 65.1167 633.594 62.04 630.994 59.44C628.48 56.84 625.49 54.8467 622.024 53.46C618.557 52.0733 614.787 51.38 610.714 51.38C606.64 51.38 602.87 52.0733 599.404 53.46C596.024 54.8467 593.034 56.84 590.434 59.44C587.834 62.04 585.797 65.1167 584.324 68.67C582.937 72.2233 582.244 76.1667 582.244 80.5C582.244 84.7467 582.937 88.69 584.324 92.33C585.797 95.8833 587.79 98.96 590.304 101.56C592.904 104.16 595.937 106.153 599.404 107.54C602.87 108.927 606.64 109.62 610.714 109.62Z"/>
</mask>
<path d="M11.249 126H4.24898V133H11.249V126ZM11.249 35V28H4.24898V35H11.249ZM81.449 41.5L77.222 47.0796L77.2421 47.0949L77.2624 47.11L81.449 41.5ZM86.649 71.14L92.4509 75.0563L92.4732 75.0232L92.4952 74.9899L86.649 71.14ZM77.029 79.2L79.9966 85.5398L79.9966 85.5398L77.029 79.2ZM62.989 82.06L56.6378 79.1168L52.03 89.06H62.989V82.06ZM65.459 76.73V69.73H60.9878L59.1078 73.7868L65.459 76.73ZM80.669 79.59L77.8964 86.0175L77.9499 86.0406L78.0037 86.0627L80.669 79.59ZM90.939 87.78L85.1146 91.6629L85.1463 91.7104L85.1787 91.7573L90.939 87.78ZM85.479 119.5L89.5094 125.223L89.5362 125.204L89.5628 125.185L85.479 119.5ZM32.179 110.14H25.179V117.14H32.179V110.14ZM69.099 107.54L72.809 113.476L72.8331 113.461L72.8571 113.446L69.099 107.54ZM69.099 90.51L65.1333 96.2783L65.2358 96.3488L65.3409 96.4156L69.099 90.51ZM30.619 87.65H23.619V94.65H30.619V87.65ZM30.619 72.31V65.31H23.619V72.31H30.619ZM64.809 69.71L68.6039 75.5921L68.6268 75.5773L68.6496 75.5623L64.809 69.71ZM64.809 53.59L60.8831 59.3854L60.9897 59.4577L61.099 59.526L64.809 53.59ZM32.179 50.86V43.86H25.179V50.86H32.179ZM11.249 126H18.249V35H11.249H4.24898V126H11.249ZM11.249 35V42H55.709V35V28H11.249V35ZM55.709 35V42C66.4648 42 73.2519 44.072 77.222 47.0796L81.449 41.5L85.676 35.9204C78.2061 30.2614 67.8332 28 55.709 28V35ZM81.449 41.5L77.2624 47.11C81.3393 50.1525 83.159 53.8129 83.159 58.66H90.159H97.159C97.159 49.2938 93.172 41.5142 85.6356 35.89L81.449 41.5ZM90.159 58.66H83.159C83.159 62.2286 82.3016 65.0141 80.8028 67.2901L86.649 71.14L92.4952 74.9899C95.6764 70.1592 97.159 64.6247 97.159 58.66H90.159ZM86.649 71.14L80.8471 67.2237C79.2687 69.5621 77.0777 71.4483 74.0614 72.8602L77.029 79.2L79.9966 85.5398C85.1269 83.1384 89.3493 79.6513 92.4509 75.0563L86.649 71.14ZM77.029 79.2L74.0614 72.8602C71.0661 74.2622 67.4285 75.06 62.989 75.06V82.06V89.06C69.1228 89.06 74.8453 87.9511 79.9966 85.5398L77.029 79.2ZM62.989 82.06L69.3402 85.0032L71.8102 79.6732L65.459 76.73L59.1078 73.7868L56.6378 79.1168L62.989 82.06ZM65.459 76.73V83.73C70.402 83.73 74.5007 84.5527 77.8964 86.0175L80.669 79.59L83.4416 73.1625C77.9973 70.814 71.956 69.73 65.459 69.73V76.73ZM80.669 79.59L78.0037 86.0627C81.2612 87.404 83.5316 89.2883 85.1146 91.6629L90.939 87.78L96.7633 83.8971C93.4931 78.9917 88.9168 75.416 83.3342 73.1172L80.669 79.59ZM90.939 87.78L85.1787 91.7573C86.7377 94.0152 87.709 97.0214 87.709 101.17H94.709H101.709C101.709 94.7453 100.167 88.8248 96.6993 83.8027L90.939 87.78ZM94.709 101.17H87.709C87.709 106.795 85.6547 110.755 81.3952 113.815L85.479 119.5L89.5628 125.185C97.61 119.405 101.709 111.145 101.709 101.17H94.709ZM85.479 119.5L81.4485 113.777C76.9851 116.92 69.6099 119 58.309 119V126V133C70.9281 133 81.6662 130.747 89.5094 125.223L85.479 119.5ZM58.309 126V119H11.249V126V133H58.309V126ZM32.179 110.14V117.14H56.749V110.14V103.14H32.179V110.14ZM56.749 110.14V117.14C62.7371 117.14 68.4064 116.228 72.809 113.476L69.099 107.54L65.389 101.604C64.2449 102.319 61.6809 103.14 56.749 103.14V110.14ZM69.099 107.54L72.8571 113.446C78.0689 110.129 80.389 104.83 80.389 98.96H73.389H66.389C66.389 100.89 65.8491 101.311 65.3409 101.634L69.099 107.54ZM73.389 98.96H80.389C80.389 93.1068 78.0174 87.8882 72.8571 84.6044L69.099 90.51L65.3409 96.4156C65.9006 96.7718 66.389 97.1866 66.389 98.96H73.389ZM69.099 90.51L73.0647 84.7417C68.6026 81.674 62.8215 80.65 56.749 80.65V87.65V94.65C61.5965 94.65 64.0487 95.5326 65.1333 96.2783L69.099 90.51ZM56.749 87.65V80.65H30.619V87.65V94.65H56.749V87.65ZM30.619 87.65H37.619V72.31H30.619H23.619V87.65H30.619ZM30.619 72.31V79.31H53.109V72.31V65.31H30.619V72.31ZM53.109 72.31V79.31C58.8332 79.31 64.2958 78.3715 68.6039 75.5921L64.809 69.71L61.0141 63.8279C59.9488 64.5152 57.6114 65.31 53.109 65.31V72.31ZM64.809 69.71L68.6496 75.5623C73.6116 72.306 75.969 67.2467 75.969 61.52H68.969H61.969C61.969 63.0733 61.553 63.474 60.9684 63.8577L64.809 69.71ZM68.969 61.52H75.969C75.969 55.8033 73.5425 50.7937 68.519 47.654L64.809 53.59L61.099 59.526C61.5363 59.7993 61.6679 60.0057 61.7302 60.1243C61.8058 60.2685 61.969 60.6614 61.969 61.52H68.969ZM64.809 53.59L68.7349 47.7946C64.3982 44.8568 58.8794 43.86 53.109 43.86V50.86V57.86C57.5652 57.86 59.8465 58.6832 60.8831 59.3854L64.809 53.59ZM53.109 50.86V43.86H32.179V50.86V57.86H53.109V50.86ZM32.179 50.86H25.179V110.14H32.179H39.179V50.86H32.179ZM146.533 124.05L144.014 130.581L144.03 130.587L144.045 130.593L146.533 124.05ZM130.673 114.17L125.823 119.218L125.848 119.241L125.873 119.265L130.673 114.17ZM120.273 99.22L113.829 101.954L113.847 101.995L113.865 102.036L120.273 99.22ZM120.273 61.78L113.865 58.9641L113.847 59.005L113.829 59.0461L120.273 61.78ZM146.663 36.95L144.144 30.419L146.663 36.95ZM186.183 36.95L183.632 43.4687L183.648 43.4749L183.664 43.481L186.183 36.95ZM201.913 46.83L197.064 51.8777L197.088 51.9012L197.113 51.9245L201.913 46.83ZM212.443 61.78L206.035 64.5959L206.043 64.614L206.051 64.6321L212.443 61.78ZM212.443 99.35L218.852 102.166L218.86 102.148L218.867 102.131L212.443 99.35ZM201.913 114.3L206.711 119.397L206.714 119.395L201.913 114.3ZM186.183 124.05L183.664 117.519L183.648 117.525L183.632 117.531L186.183 124.05ZM177.603 107.54L175.004 101.041L174.975 101.052L174.946 101.064L177.603 107.54ZM186.703 101.56L181.754 96.6103H181.754L186.703 101.56ZM192.683 92.33L186.217 89.6489L186.189 89.7168L186.162 89.7852L192.683 92.33ZM192.683 68.67L186.162 71.2148L186.189 71.2832L186.217 71.3511L192.683 68.67ZM186.703 59.44L181.67 64.3051L181.712 64.3478L181.754 64.3897L186.703 59.44ZM177.733 53.46L175.134 59.9593L177.733 53.46ZM155.113 53.46L152.514 46.9607L152.485 46.9721L152.456 46.9838L155.113 53.46ZM146.143 59.44L151.093 64.3897L146.143 59.44ZM140.033 68.67L133.567 65.9889L133.539 66.0568L133.512 66.1252L140.033 68.67ZM140.033 92.33L133.492 94.822L133.528 94.9171L133.567 95.0111L140.033 92.33ZM146.013 101.56L140.98 106.425L141.022 106.468L141.064 106.51L146.013 101.56ZM155.113 107.54L152.514 114.039L155.113 107.54ZM166.553 127.56V120.56C160.131 120.56 154.309 119.518 149.021 117.507L146.533 124.05L144.045 130.593C151.064 133.262 158.589 134.56 166.553 134.56V127.56ZM146.533 124.05L149.052 117.519C143.789 115.489 139.288 112.669 135.474 109.075L130.673 114.17L125.873 119.265C131.072 124.164 137.144 127.931 144.014 130.581L146.533 124.05ZM130.673 114.17L135.523 109.122C131.777 105.523 128.834 101.302 126.682 96.4041L120.273 99.22L113.865 102.036C116.739 108.578 120.73 114.324 125.823 119.218L130.673 114.17ZM120.273 99.22L126.717 96.4862C124.689 91.7044 123.633 86.404 123.633 80.5H116.633H109.633C109.633 88.116 111.004 95.2956 113.829 101.954L120.273 99.22ZM116.633 80.5H123.633C123.633 74.596 124.689 69.2956 126.717 64.5138L120.273 61.78L113.829 59.0461C111.004 65.7044 109.633 72.8839 109.633 80.5H116.633ZM120.273 61.78L126.682 64.5959C128.821 59.7277 131.787 55.5213 135.604 51.9245L130.803 46.83L126.003 41.7355C120.806 46.632 116.752 52.3923 113.865 58.9641L120.273 61.78ZM130.803 46.83L135.604 51.9245C139.418 48.3309 143.919 45.5111 149.182 43.481L146.663 36.95L144.144 30.419C137.274 33.0688 131.202 36.8358 126.003 41.7355L130.803 46.83ZM146.663 36.95L149.182 43.481C154.374 41.4786 160.098 40.44 166.423 40.44V33.44V26.44C158.535 26.44 151.086 27.7414 144.144 30.419L146.663 36.95ZM166.423 33.44V40.44C172.848 40.44 178.557 41.4827 183.632 43.4687L186.183 36.95L188.734 30.4313C181.849 27.7373 174.385 26.44 166.423 26.44V33.44ZM186.183 36.95L183.664 43.481C188.917 45.507 193.354 48.314 197.064 51.8777L201.913 46.83L206.763 41.7823C201.632 36.8526 195.583 33.073 188.702 30.419L186.183 36.95ZM201.913 46.83L197.113 51.9245C200.93 55.5213 203.896 59.7277 206.035 64.5959L212.443 61.78L218.852 58.9641C215.964 52.3923 211.91 46.632 206.714 41.7355L201.913 46.83ZM212.443 61.78L206.051 64.6321C208.122 69.2737 209.213 74.5275 209.213 80.5H216.213H223.213C223.213 72.7792 221.792 65.5529 218.836 58.9279L212.443 61.78ZM216.213 80.5H209.213C209.213 86.3699 208.127 91.6995 206.019 96.5694L212.443 99.35L218.867 102.131C221.786 95.3872 223.213 88.1501 223.213 80.5H216.213ZM212.443 99.35L206.035 96.5341C203.896 101.402 200.93 105.609 197.113 109.205L201.913 114.3L206.714 119.395C211.91 114.498 215.964 108.738 218.852 102.166L212.443 99.35ZM201.913 114.3L197.116 109.203C193.401 112.699 188.947 115.481 183.664 117.519L186.183 124.05L188.702 130.581C195.553 127.939 201.585 124.221 206.711 119.397L201.913 114.3ZM186.183 124.05L183.632 117.531C178.548 119.521 172.88 120.56 166.553 120.56V127.56V134.56C174.44 134.56 181.859 133.259 188.734 130.569L186.183 124.05ZM166.423 109.62V116.62C171.303 116.62 175.945 115.786 180.26 114.016L177.603 107.54L174.946 101.064C172.501 102.067 169.69 102.62 166.423 102.62V109.62ZM177.603 107.54L180.203 114.039C184.536 112.306 188.372 109.791 191.653 106.51L186.703 101.56L181.754 96.6103C179.834 98.5294 177.604 100 175.004 101.041L177.603 107.54ZM186.703 101.56L191.653 106.51C194.963 103.2 197.479 99.2953 199.204 94.8748L192.683 92.33L186.162 89.7852C185.114 92.4713 183.643 94.7203 181.754 96.6103L186.703 101.56ZM192.683 92.33L199.149 95.0111C201.017 90.5068 201.893 85.6374 201.893 80.5H194.893H187.893C187.893 84.0293 187.296 87.0465 186.217 89.6489L192.683 92.33ZM194.893 80.5H201.893C201.893 75.3626 201.017 70.4932 199.149 65.9889L192.683 68.67L186.217 71.3511C187.296 73.9535 187.893 76.9707 187.893 80.5H194.893ZM192.683 68.67L199.204 66.1252C197.479 61.7047 194.963 57.8003 191.653 54.4902L186.703 59.44L181.754 64.3897C183.643 66.2797 185.114 68.5287 186.162 71.2148L192.683 68.67ZM186.703 59.44L191.736 54.5748C188.514 51.2412 184.686 48.702 180.333 46.9607L177.733 53.46L175.134 59.9593C177.714 60.9913 179.866 62.4388 181.67 64.3051L186.703 59.44ZM177.733 53.46L180.333 46.9607C175.967 45.2143 171.306 44.38 166.423 44.38V51.38V58.38C169.687 58.38 172.566 58.9323 175.134 59.9593L177.733 53.46ZM166.423 51.38V44.38C161.541 44.38 156.879 45.2143 152.514 46.9607L155.113 53.46L157.713 59.9593C160.281 58.9323 163.159 58.38 166.423 58.38V51.38ZM155.113 53.46L152.456 46.9838C148.213 48.7247 144.445 51.239 141.194 54.4903L146.143 59.44L151.093 64.3897C153.042 62.441 155.254 60.9686 157.77 59.9362L155.113 53.46ZM146.143 59.44L141.194 54.4902C137.914 57.7695 135.376 61.627 133.567 65.9889L140.033 68.67L146.499 71.3511C147.638 68.6063 149.172 66.3105 151.093 64.3897L146.143 59.44ZM140.033 68.67L133.512 66.1252C131.769 70.5923 130.953 75.4135 130.953 80.5H137.953H144.953C144.953 76.9199 145.524 73.8543 146.554 71.2148L140.033 68.67ZM137.953 80.5H130.953C130.953 85.5213 131.776 90.3172 133.492 94.822L140.033 92.33L146.575 89.838C145.517 87.0628 144.953 83.972 144.953 80.5H137.953ZM140.033 92.33L133.567 95.0111C135.355 99.3237 137.818 103.154 140.98 106.425L146.013 101.56L151.046 96.6948C149.182 94.7659 147.658 92.443 146.499 89.6489L140.033 92.33ZM146.013 101.56L141.064 106.51C144.344 109.791 148.181 112.306 152.514 114.039L155.113 107.54L157.713 101.041C155.113 100 152.882 98.5294 150.963 96.6103L146.013 101.56ZM155.113 107.54L152.514 114.039C156.879 115.786 161.541 116.62 166.423 116.62V109.62V102.62C163.159 102.62 160.281 102.068 157.713 101.041L155.113 107.54ZM243.741 126H236.741V133H243.741V126ZM243.741 35V28H236.741V35H243.741ZM304.191 39.03L301.287 45.3993L301.326 45.4171L301.365 45.4344L304.191 39.03ZM317.841 50.34L311.969 54.1513L317.841 50.34ZM317.841 85.57L323.681 89.4288L323.697 89.4051L323.712 89.3813L317.841 85.57ZM304.191 96.75L307.016 103.154L304.191 96.75ZM255.441 100.65L250.526 95.6658L238.373 107.65H255.441V100.65ZM264.801 91.42H271.801V74.6862L259.886 86.4358L264.801 91.42ZM264.801 126V133H271.801V126H264.801ZM301.591 126L295.826 129.971L297.913 133H301.591V126ZM278.841 92.98V85.98H265.517L273.076 96.9515L278.841 92.98ZM301.331 92.98L307.074 88.9779L304.985 85.98H301.331V92.98ZM324.341 126V133H337.751L330.084 121.998L324.341 126ZM264.801 93.76L259.719 98.5742L271.801 111.327V93.76H264.801ZM255.441 83.88V76.88H239.167L250.359 88.6942L255.441 83.88ZM296.521 79.72L301.1 85.0145L301.14 84.9796L301.18 84.9441L296.521 79.72ZM255.441 52.16L250.328 47.379L239.312 59.16H255.441V52.16ZM264.801 42.15H271.801V24.4149L259.688 37.369L264.801 42.15ZM243.741 126H250.741V35H243.741H236.741V126H243.741ZM243.741 35V42H283.131V35V28H243.741V35ZM283.131 35V42C290.526 42 296.509 43.2209 301.287 45.3993L304.191 39.03L307.094 32.6606C300.086 29.4658 292.029 28 283.131 28V35ZM304.191 39.03L301.365 45.4344C306.134 47.5384 309.573 50.4601 311.969 54.1513L317.841 50.34L323.712 46.5287C319.695 40.3399 314.034 35.7216 307.016 32.6256L304.191 39.03ZM317.841 50.34L311.969 54.1513C314.326 57.7818 315.651 62.3014 315.651 68.02H322.651H329.651C329.651 60.0452 327.769 52.7782 323.712 46.5287L317.841 50.34ZM322.651 68.02H315.651C315.651 73.6323 314.335 78.114 311.969 81.7587L317.841 85.57L323.712 89.3813C327.76 83.146 329.651 75.9277 329.651 68.02H322.651ZM317.841 85.57L312 81.7112C309.612 85.3261 306.167 88.2272 301.365 90.3456L304.191 96.75L307.016 103.154C314.001 100.073 319.656 95.5205 323.681 89.4288L317.841 85.57ZM304.191 96.75L301.365 90.3456C296.565 92.4635 290.553 93.65 283.131 93.65V100.65V107.65C292.002 107.65 300.03 106.236 307.016 103.154L304.191 96.75ZM283.131 100.65V93.65H255.441V100.65V107.65H283.131V100.65ZM255.441 100.65L260.356 105.634L269.716 96.4042L264.801 91.42L259.886 86.4358L250.526 95.6658L255.441 100.65ZM264.801 91.42H257.801V126H264.801H271.801V91.42H264.801ZM264.801 126V119H243.741V126V133H264.801V126ZM301.591 126L307.355 122.029L284.605 89.0085L278.841 92.98L273.076 96.9515L295.826 129.971L301.591 126ZM278.841 92.98V99.98H301.331V92.98V85.98H278.841V92.98ZM301.331 92.98L295.588 96.9821L318.598 130.002L324.341 126L330.084 121.998L307.074 88.9779L301.331 92.98ZM324.341 126V119H301.591V126V133H324.341V126ZM264.801 93.76L269.882 88.9458L260.522 79.0658L255.441 83.88L250.359 88.6942L259.719 98.5742L264.801 93.76ZM255.441 83.88V90.88H281.961V83.88V76.88H255.441V83.88ZM281.961 83.88V90.88C289.282 90.88 296.094 89.3436 301.1 85.0145L296.521 79.72L291.942 74.4255C290.534 75.6431 287.639 76.88 281.961 76.88V83.88ZM296.521 79.72L301.18 84.9441C306.106 80.551 308.331 74.6253 308.331 68.02H301.331H294.331C294.331 71.2947 293.349 73.169 291.861 74.4959L296.521 79.72ZM301.331 68.02H308.331C308.331 61.3759 306.132 55.3779 301.1 51.0255L296.521 56.32L291.942 61.6145C293.323 62.8087 294.331 64.6108 294.331 68.02H301.331ZM296.521 56.32L301.1 51.0255C296.094 46.6964 289.282 45.16 281.961 45.16V52.16V59.16C287.639 59.16 290.534 60.3969 291.942 61.6145L296.521 56.32ZM281.961 52.16V45.16H255.441V52.16V59.16H281.961V52.16ZM255.441 52.16L260.554 56.941L269.914 46.931L264.801 42.15L259.688 37.369L250.328 47.379L255.441 52.16ZM264.801 42.15H257.801V93.76H264.801H271.801V42.15H264.801ZM351.036 126H344.036V133H351.036V126ZM351.036 35V28H344.036V35H351.036ZM368.456 35L373.871 30.5632L371.77 28H368.456V35ZM422.146 100.52V107.52H436.933L427.561 96.0832L422.146 100.52ZM413.697 100.52H406.697V107.52H413.697V100.52ZM413.697 35V28H406.697V35H413.697ZM434.496 35H441.496V28H434.496V35ZM434.496 126V133H441.496V126H434.496ZM417.206 126L411.797 130.443L413.898 133H417.206V126ZM363.387 60.48V53.48H348.578L357.977 64.9232L363.387 60.48ZM371.836 60.48H378.836V53.48H371.836V60.48ZM371.836 126V133H378.836V126H371.836ZM351.036 126H358.036V35H351.036H344.036V126H351.036ZM351.036 35V42H368.456V35V28H351.036V35ZM368.456 35L363.042 39.4368L416.732 104.957L422.146 100.52L427.561 96.0832L373.871 30.5632L368.456 35ZM422.146 100.52V93.52H413.697V100.52V107.52H422.146V100.52ZM413.697 100.52H420.697V35H413.697H406.697V100.52H413.697ZM413.697 35V42H434.496V35V28H413.697V35ZM434.496 35H427.496V126H434.496H441.496V35H434.496ZM434.496 126V119H417.206V126V133H434.496V126ZM417.206 126L422.616 121.557L368.796 56.0368L363.387 60.48L357.977 64.9232L411.797 130.443L417.206 126ZM363.387 60.48V67.48H371.836V60.48V53.48H363.387V60.48ZM371.836 60.48H364.836V126H371.836H378.836V60.48H371.836ZM371.836 126V119H351.036V126V133H371.836V126ZM487.097 71.66V64.66H480.097V71.66H487.097ZM530.907 71.66H537.907V64.66H530.907V71.66ZM530.907 88.04V95.04H537.907V88.04H530.907ZM487.097 88.04H480.097V95.04H487.097V88.04ZM488.657 109.1H481.657V116.1H488.657V109.1ZM538.187 109.1H545.187V102.1H538.187V109.1ZM538.187 126V133H545.187V126H538.187ZM467.727 126H460.727V133H467.727V126ZM467.727 35V28H460.727V35H467.727ZM536.497 35H543.497V28H536.497V35ZM536.497 51.9V58.9H543.497V51.9H536.497ZM488.657 51.9V44.9H481.657V51.9H488.657ZM487.097 71.66V78.66H530.907V71.66V64.66H487.097V71.66ZM530.907 71.66H523.907V88.04H530.907H537.907V71.66H530.907ZM530.907 88.04V81.04H487.097V88.04V95.04H530.907V88.04ZM487.097 88.04H494.097V71.66H487.097H480.097V88.04H487.097ZM488.657 109.1V116.1H538.187V109.1V102.1H488.657V109.1ZM538.187 109.1H531.187V126H538.187H545.187V109.1H538.187ZM538.187 126V119H467.727V126V133H538.187V126ZM467.727 126H474.727V35H467.727H460.727V126H467.727ZM467.727 35V42H536.497V35V28H467.727V35ZM536.497 35H529.497V51.9H536.497H543.497V35H536.497ZM536.497 51.9V44.9H488.657V51.9V58.9H536.497V51.9ZM488.657 51.9H481.657V109.1H488.657H495.657V51.9H488.657ZM590.824 124.05L588.304 130.581L588.32 130.587L588.335 130.593L590.824 124.05ZM574.964 114.17L570.114 119.218L570.138 119.241L570.163 119.265L574.964 114.17ZM564.564 99.22L558.119 101.954L558.137 101.995L558.155 102.036L564.564 99.22ZM564.564 61.78L558.155 58.9641L558.137 59.005L558.119 59.0461L564.564 61.78ZM590.953 36.95L588.434 30.419L590.953 36.95ZM630.474 36.95L627.923 43.4687L627.939 43.4749L627.954 43.481L630.474 36.95ZM646.204 46.83L641.354 51.8777L641.378 51.9012L641.403 51.9245L646.204 46.83ZM656.734 61.78L650.325 64.5959L650.333 64.614L650.341 64.6321L656.734 61.78ZM656.734 99.35L663.142 102.166L663.15 102.148L663.158 102.131L656.734 99.35ZM646.204 114.3L651.001 119.397L651.004 119.395L646.204 114.3ZM630.474 124.05L627.954 117.519L627.939 117.525L627.923 117.531L630.474 124.05ZM621.893 107.54L619.294 101.041L619.265 101.052L619.237 101.064L621.893 107.54ZM630.994 101.56L626.044 96.6103L630.994 101.56ZM636.974 92.33L630.507 89.6489L630.479 89.7168L630.452 89.7852L636.974 92.33ZM636.974 68.67L630.452 71.2148L630.479 71.2832L630.507 71.3511L636.974 68.67ZM630.994 59.44L625.961 64.3051L626.002 64.3478L626.044 64.3897L630.994 59.44ZM622.023 53.46L619.424 59.9593L622.023 53.46ZM599.404 53.46L596.804 46.9607L596.775 46.9721L596.747 46.9838L599.404 53.46ZM590.434 59.44L595.383 64.3897L590.434 59.44ZM584.324 68.67L577.857 65.9889L577.829 66.0568L577.802 66.1252L584.324 68.67ZM584.324 92.33L577.782 94.822L577.818 94.9171L577.857 95.0111L584.324 92.33ZM590.304 101.56L585.271 106.425L585.312 106.468L585.354 106.51L590.304 101.56ZM599.404 107.54L596.804 114.039L599.404 107.54ZM610.844 127.56V120.56C604.422 120.56 598.6 119.518 593.312 117.507L590.824 124.05L588.335 130.593C595.354 133.262 602.879 134.56 610.844 134.56V127.56ZM590.824 124.05L593.343 117.519C588.079 115.489 583.578 112.669 579.764 109.075L574.964 114.17L570.163 119.265C575.363 124.164 581.434 127.931 588.304 130.581L590.824 124.05ZM574.964 114.17L579.813 109.122C576.067 105.523 573.124 101.302 570.972 96.4041L564.564 99.22L558.155 102.036C561.029 108.578 565.02 114.324 570.114 119.218L574.964 114.17ZM564.564 99.22L571.008 96.4862C568.979 91.7044 567.924 86.404 567.924 80.5H560.924H553.924C553.924 88.116 555.295 95.2956 558.119 101.954L564.564 99.22ZM560.924 80.5H567.924C567.924 74.596 568.979 69.2956 571.008 64.5138L564.564 61.78L558.119 59.0461C555.295 65.7044 553.924 72.8839 553.924 80.5H560.924ZM564.564 61.78L570.972 64.5959C573.111 59.7277 576.077 55.5213 579.894 51.9245L575.094 46.83L570.293 41.7355C565.097 46.632 561.042 52.3923 558.155 58.9641L564.564 61.78ZM575.094 46.83L579.894 51.9245C583.708 48.3309 588.209 45.5111 593.473 43.481L590.953 36.95L588.434 30.419C581.564 33.0688 575.493 36.8358 570.293 41.7355L575.094 46.83ZM590.953 36.95L593.473 43.481C598.664 41.4786 604.388 40.44 610.714 40.44V33.44V26.44C602.826 26.44 595.376 27.7414 588.434 30.419L590.953 36.95ZM610.714 33.44V40.44C617.138 40.44 622.847 41.4827 627.923 43.4687L630.474 36.95L633.024 30.4313C626.14 27.7373 618.675 26.44 610.714 26.44V33.44ZM630.474 36.95L627.954 43.481C633.207 45.507 637.645 48.314 641.354 51.8777L646.204 46.83L651.053 41.7823C645.922 36.8526 639.873 33.073 632.993 30.419L630.474 36.95ZM646.204 46.83L641.403 51.9245C645.22 55.5213 648.186 59.7277 650.325 64.5959L656.734 61.78L663.142 58.9641C660.255 52.3923 656.201 46.632 651.004 41.7355L646.204 46.83ZM656.734 61.78L650.341 64.6321C652.412 69.2737 653.504 74.5275 653.504 80.5H660.504H667.504C667.504 72.7792 666.082 65.5529 663.126 58.9279L656.734 61.78ZM660.504 80.5H653.504C653.504 86.3699 652.417 91.6995 650.309 96.5694L656.734 99.35L663.158 102.131C666.076 95.3872 667.504 88.1501 667.504 80.5H660.504ZM656.734 99.35L650.325 96.5341C648.186 101.402 645.22 105.609 641.403 109.205L646.204 114.3L651.004 119.395C656.201 114.498 660.255 108.738 663.142 102.166L656.734 99.35ZM646.204 114.3L641.406 109.203C637.691 112.699 633.237 115.481 627.954 117.519L630.474 124.05L632.993 130.581C639.844 127.939 645.876 124.221 651.001 119.397L646.204 114.3ZM630.474 124.05L627.923 117.531C622.838 119.521 617.17 120.56 610.844 120.56V127.56V134.56C618.73 134.56 626.149 133.259 633.024 130.569L630.474 124.05ZM610.714 109.62V116.62C615.593 116.62 620.236 115.786 624.55 114.016L621.893 107.54L619.237 101.064C616.791 102.067 613.98 102.62 610.714 102.62V109.62ZM621.893 107.54L624.493 114.039C628.826 112.306 632.662 109.791 635.943 106.51L630.994 101.56L626.044 96.6103C624.125 98.5294 621.894 100 619.294 101.041L621.893 107.54ZM630.994 101.56L635.943 106.51C639.253 103.2 641.769 99.2953 643.495 94.8748L636.974 92.33L630.452 89.7852C629.404 92.4713 627.934 94.7203 626.044 96.6103L630.994 101.56ZM636.974 92.33L643.44 95.0111C645.307 90.5068 646.184 85.6374 646.184 80.5H639.184H632.184C632.184 84.0293 631.586 87.0465 630.507 89.6489L636.974 92.33ZM639.184 80.5H646.184C646.184 75.3626 645.307 70.4932 643.44 65.9889L636.974 68.67L630.507 71.3511C631.586 73.9535 632.184 76.9707 632.184 80.5H639.184ZM636.974 68.67L643.495 66.1252C641.769 61.7047 639.253 57.8003 635.943 54.4902L630.994 59.44L626.044 64.3897C627.934 66.2797 629.404 68.5287 630.452 71.2148L636.974 68.67ZM630.994 59.44L636.026 54.5748C632.804 51.2412 628.977 48.702 624.623 46.9607L622.023 53.46L619.424 59.9593C622.004 60.9913 624.156 62.4388 625.961 64.3051L630.994 59.44ZM622.023 53.46L624.623 46.9607C620.257 45.2143 615.596 44.38 610.714 44.38V51.38V58.38C613.978 58.38 616.856 58.9323 619.424 59.9593L622.023 53.46ZM610.714 51.38V44.38C605.831 44.38 601.17 45.2143 596.804 46.9607L599.404 53.46L602.003 59.9593C604.571 58.9323 607.449 58.38 610.714 58.38V51.38ZM599.404 53.46L596.747 46.9838C592.503 48.7247 588.735 51.239 585.484 54.4903L590.434 59.44L595.383 64.3897C597.332 62.441 599.544 60.9686 602.06 59.9362L599.404 53.46ZM590.434 59.44L585.484 54.4902C582.205 57.7695 579.666 61.627 577.857 65.9889L584.324 68.67L590.79 71.3511C591.928 68.6063 593.463 66.3105 595.383 64.3897L590.434 59.44ZM584.324 68.67L577.802 66.1252C576.059 70.5923 575.244 75.4135 575.244 80.5H582.244H589.244C589.244 76.9199 589.815 73.8543 590.845 71.2148L584.324 68.67ZM582.244 80.5H575.244C575.244 85.5213 576.066 90.3172 577.782 94.822L584.324 92.33L590.865 89.838C589.808 87.0628 589.244 83.972 589.244 80.5H582.244ZM584.324 92.33L577.857 95.0111C579.645 99.3237 582.109 103.154 585.271 106.425L590.304 101.56L595.336 96.6948C593.472 94.7659 591.948 92.443 590.79 89.6489L584.324 92.33ZM590.304 101.56L585.354 106.51C588.635 109.791 592.471 112.306 596.804 114.039L599.404 107.54L602.003 101.041C599.403 100 597.172 98.5294 595.253 96.6103L590.304 101.56ZM599.404 107.54L596.804 114.039C601.17 115.786 605.831 116.62 610.714 116.62V109.62V102.62C607.449 102.62 604.571 102.068 602.003 101.041L599.404 107.54Z" fill="white" mask="url(#path-5-outside-3_1032_2)"/>
</svg>
