<svg width="433" height="372" viewBox="0 0 433 372" fill="none" xmlns="http://www.w3.org/2000/svg">
<mask id="path-1-outside-1_1032_5" maskUnits="userSpaceOnUse" x="8" y="139" width="417" height="97" fill="black">
<rect fill="white" x="8" y="139" width="417" height="97"/>
<path d="M11.1752 233V142H32.2352V233H11.1752ZM65.5314 233V142H104.921C113.068 142 120.088 143.343 125.981 146.03C131.875 148.63 136.425 152.4 139.631 157.34C142.838 162.28 144.441 168.173 144.441 175.02C144.441 181.78 142.838 187.63 139.631 192.57C136.425 197.423 131.875 201.15 125.981 203.75C120.088 206.35 113.068 207.65 104.921 207.65H77.2314L86.5914 198.42V233H65.5314ZM123.381 233L100.631 199.98H123.121L146.131 233H123.381ZM86.5914 200.76L77.2314 190.88H103.751C110.251 190.88 115.105 189.493 118.311 186.72C121.518 183.86 123.121 179.96 123.121 175.02C123.121 169.993 121.518 166.093 118.311 163.32C115.105 160.547 110.251 159.16 103.751 159.16H77.2314L86.5914 149.15V200.76ZM172.827 233V142H193.887V233H172.827ZM215.223 233L255.783 142H276.583L317.273 233H295.173L261.893 152.66H270.213L236.803 233H215.223ZM235.503 213.5L241.093 197.51H287.893L293.613 213.5H235.503ZM338.415 233V142H355.835L409.525 207.52H401.075V142H421.875V233H404.585L350.765 167.48H359.215V233H338.415Z"/>
</mask>
<path d="M11.1752 233V142H32.2352V233H11.1752ZM65.5314 233V142H104.921C113.068 142 120.088 143.343 125.981 146.03C131.875 148.63 136.425 152.4 139.631 157.34C142.838 162.28 144.441 168.173 144.441 175.02C144.441 181.78 142.838 187.63 139.631 192.57C136.425 197.423 131.875 201.15 125.981 203.75C120.088 206.35 113.068 207.65 104.921 207.65H77.2314L86.5914 198.42V233H65.5314ZM123.381 233L100.631 199.98H123.121L146.131 233H123.381ZM86.5914 200.76L77.2314 190.88H103.751C110.251 190.88 115.105 189.493 118.311 186.72C121.518 183.86 123.121 179.96 123.121 175.02C123.121 169.993 121.518 166.093 118.311 163.32C115.105 160.547 110.251 159.16 103.751 159.16H77.2314L86.5914 149.15V200.76ZM172.827 233V142H193.887V233H172.827ZM215.223 233L255.783 142H276.583L317.273 233H295.173L261.893 152.66H270.213L236.803 233H215.223ZM235.503 213.5L241.093 197.51H287.893L293.613 213.5H235.503ZM338.415 233V142H355.835L409.525 207.52H401.075V142H421.875V233H404.585L350.765 167.48H359.215V233H338.415Z" fill="white"/>
<path d="M11.1752 233H8.17516V236H11.1752V233ZM11.1752 142V139H8.17516V142H11.1752ZM32.2352 142H35.2352V139H32.2352V142ZM32.2352 233V236H35.2352V233H32.2352ZM11.1752 233H14.1752V142H11.1752H8.17516V233H11.1752ZM11.1752 142V145H32.2352V142V139H11.1752V142ZM32.2352 142H29.2352V233H32.2352H35.2352V142H32.2352ZM32.2352 233V230H11.1752V233V236H32.2352V233ZM65.5314 233H62.5314V236H65.5314V233ZM65.5314 142V139H62.5314V142H65.5314ZM125.981 146.03L124.737 148.76L124.754 148.767L124.771 148.775L125.981 146.03ZM139.631 157.34L137.115 158.973L139.631 157.34ZM139.631 192.57L142.134 194.224L142.141 194.214L142.148 194.203L139.631 192.57ZM125.981 203.75L127.192 206.495L125.981 203.75ZM77.2314 207.65L75.125 205.514L69.9165 210.65H77.2314V207.65ZM86.5914 198.42H89.5914V191.248L84.485 196.284L86.5914 198.42ZM86.5914 233V236H89.5914V233H86.5914ZM123.381 233L120.911 234.702L121.805 236H123.381V233ZM100.631 199.98V196.98H94.9214L98.161 201.682L100.631 199.98ZM123.121 199.98L125.583 198.265L124.687 196.98H123.121V199.98ZM146.131 233V236H151.879L148.593 231.285L146.131 233ZM86.5914 200.76L84.4136 202.823L89.5914 208.289V200.76H86.5914ZM77.2314 190.88V187.88H70.2568L75.0536 192.943L77.2314 190.88ZM118.311 186.72L120.274 188.989L120.291 188.974L120.308 188.959L118.311 186.72ZM77.2314 159.16L75.0401 157.111L70.319 162.16H77.2314V159.16ZM86.5914 149.15H89.5914V141.549L84.4001 147.101L86.5914 149.15ZM65.5314 233H68.5314V142H65.5314H62.5314V233H65.5314ZM65.5314 142V145H104.921V142V139H65.5314V142ZM104.921 142V145C112.746 145 119.321 146.291 124.737 148.76L125.981 146.03L127.226 143.3C120.855 140.396 113.39 139 104.921 139V142ZM125.981 146.03L124.771 148.775C130.182 151.162 134.256 154.569 137.115 158.973L139.631 157.34L142.148 155.707C138.594 150.231 133.568 146.098 127.192 143.285L125.981 146.03ZM139.631 157.34L137.115 158.973C139.957 163.352 141.441 168.657 141.441 175.02H144.441H147.441C147.441 167.69 145.719 161.208 142.148 155.707L139.631 157.34ZM144.441 175.02H141.441C141.441 181.288 139.961 186.552 137.115 190.937L139.631 192.57L142.148 194.203C145.715 188.708 147.441 182.272 147.441 175.02H144.441ZM139.631 192.57L137.128 190.916C134.272 195.239 130.196 198.612 124.771 201.005L125.981 203.75L127.192 206.495C133.554 203.688 138.577 199.608 142.134 194.224L139.631 192.57ZM125.981 203.75L124.771 201.005C119.345 203.399 112.758 204.65 104.921 204.65V207.65V210.65C113.378 210.65 120.831 209.301 127.192 206.495L125.981 203.75ZM104.921 207.65V204.65H77.2314V207.65V210.65H104.921V207.65ZM77.2314 207.65L79.3378 209.786L88.6978 200.556L86.5914 198.42L84.485 196.284L75.125 205.514L77.2314 207.65ZM86.5914 198.42H83.5914V233H86.5914H89.5914V198.42H86.5914ZM86.5914 233V230H65.5314V233V236H86.5914V233ZM123.381 233L125.852 231.298L103.102 198.278L100.631 199.98L98.161 201.682L120.911 234.702L123.381 233ZM100.631 199.98V202.98H123.121V199.98V196.98H100.631V199.98ZM123.121 199.98L120.66 201.695L143.67 234.715L146.131 233L148.593 231.285L125.583 198.265L123.121 199.98ZM146.131 233V230H123.381V233V236H146.131V233ZM86.5914 200.76L88.7693 198.697L79.4093 188.817L77.2314 190.88L75.0536 192.943L84.4136 202.823L86.5914 200.76ZM77.2314 190.88V193.88H103.751V190.88V187.88H77.2314V190.88ZM103.751 190.88V193.88C110.603 193.88 116.296 192.429 120.274 188.989L118.311 186.72L116.349 184.451C113.913 186.558 109.899 187.88 103.751 187.88V190.88ZM118.311 186.72L120.308 188.959C124.252 185.442 126.121 180.674 126.121 175.02H123.121H120.121C120.121 179.246 118.785 182.278 116.315 184.481L118.311 186.72ZM123.121 175.02H126.121C126.121 169.3 124.263 164.501 120.274 161.051L118.311 163.32L116.349 165.589C118.773 167.686 120.121 170.687 120.121 175.02H123.121ZM118.311 163.32L120.274 161.051C116.296 157.611 110.603 156.16 103.751 156.16V159.16V162.16C109.899 162.16 113.913 163.482 116.349 165.589L118.311 163.32ZM103.751 159.16V156.16H77.2314V159.16V162.16H103.751V159.16ZM77.2314 159.16L79.4227 161.209L88.7827 151.199L86.5914 149.15L84.4001 147.101L75.0401 157.111L77.2314 159.16ZM86.5914 149.15H83.5914V200.76H86.5914H89.5914V149.15H86.5914ZM172.827 233H169.827V236H172.827V233ZM172.827 142V139H169.827V142H172.827ZM193.887 142H196.887V139H193.887V142ZM193.887 233V236H196.887V233H193.887ZM172.827 233H175.827V142H172.827H169.827V233H172.827ZM172.827 142V145H193.887V142V139H172.827V142ZM193.887 142H190.887V233H193.887H196.887V142H193.887ZM193.887 233V230H172.827V233V236H193.887V233ZM215.223 233L212.483 231.779L210.602 236H215.223V233ZM255.783 142V139H253.836L253.043 140.779L255.783 142ZM276.583 142L279.322 140.775L278.528 139H276.583V142ZM317.273 233V236H321.901L320.012 231.775L317.273 233ZM295.173 233L292.402 234.148L293.169 236H295.173V233ZM261.893 152.66V149.66H257.403L259.122 153.808L261.893 152.66ZM270.213 152.66L272.983 153.812L274.71 149.66H270.213V152.66ZM236.803 233V236H238.805L239.573 234.152L236.803 233ZM235.503 213.5L232.671 212.51L231.277 216.5H235.503V213.5ZM241.093 197.51V194.51H238.964L238.261 196.52L241.093 197.51ZM287.893 197.51L290.718 196.5L290.006 194.51H287.893V197.51ZM293.613 213.5V216.5H297.873L296.438 212.49L293.613 213.5ZM215.223 233L217.964 234.221L258.523 143.221L255.783 142L253.043 140.779L212.483 231.779L215.223 233ZM255.783 142V145H276.583V142V139H255.783V142ZM276.583 142L273.845 143.225L314.535 234.225L317.273 233L320.012 231.775L279.322 140.775L276.583 142ZM317.273 233V230H295.173V233V236H317.273V233ZM295.173 233L297.945 231.852L264.665 151.512L261.893 152.66L259.122 153.808L292.402 234.148L295.173 233ZM261.893 152.66V155.66H270.213V152.66V149.66H261.893V152.66ZM270.213 152.66L267.443 151.508L234.033 231.848L236.803 233L239.573 234.152L272.983 153.812L270.213 152.66ZM236.803 233V230H215.223V233V236H236.803V233ZM235.503 213.5L238.335 214.49L243.925 198.5L241.093 197.51L238.261 196.52L232.671 212.51L235.503 213.5ZM241.093 197.51V200.51H287.893V197.51V194.51H241.093V197.51ZM287.893 197.51L285.069 198.52L290.789 214.51L293.613 213.5L296.438 212.49L290.718 196.5L287.893 197.51ZM293.613 213.5V210.5H235.503V213.5V216.5H293.613V213.5ZM338.415 233H335.415V236H338.415V233ZM338.415 142V139H335.415V142H338.415ZM355.835 142L358.155 140.099L357.255 139H355.835V142ZM409.525 207.52V210.52H415.862L411.845 205.619L409.525 207.52ZM401.075 207.52H398.075V210.52H401.075V207.52ZM401.075 142V139H398.075V142H401.075ZM421.875 142H424.875V139H421.875V142ZM421.875 233V236H424.875V233H421.875ZM404.585 233L402.266 234.904L403.167 236H404.585V233ZM350.765 167.48V164.48H344.418L348.446 169.384L350.765 167.48ZM359.215 167.48H362.215V164.48H359.215V167.48ZM359.215 233V236H362.215V233H359.215ZM338.415 233H341.415V142H338.415H335.415V233H338.415ZM338.415 142V145H355.835V142V139H338.415V142ZM355.835 142L353.514 143.901L407.204 209.421L409.525 207.52L411.845 205.619L358.155 140.099L355.835 142ZM409.525 207.52V204.52H401.075V207.52V210.52H409.525V207.52ZM401.075 207.52H404.075V142H401.075H398.075V207.52H401.075ZM401.075 142V145H421.875V142V139H401.075V142ZM421.875 142H418.875V233H421.875H424.875V142H421.875ZM421.875 233V230H404.585V233V236H421.875V233ZM404.585 233L406.903 231.096L353.083 165.576L350.765 167.48L348.446 169.384L402.266 234.904L404.585 233ZM350.765 167.48V170.48H359.215V167.48V164.48H350.765V167.48ZM359.215 167.48H356.215V233H359.215H362.215V167.48H359.215ZM359.215 233V230H338.415V233V236H359.215V233Z" fill="white" mask="url(#path-1-outside-1_1032_5)"/>
<mask id="path-3-outside-2_1032_5" maskUnits="userSpaceOnUse" x="4" y="238" width="425" height="109" fill="black">
<rect fill="white" x="4" y="238" width="425" height="109"/>
<path d="M11.1752 340V249H32.2352V340H11.1752ZM65.5314 340V249H104.921C113.068 249 120.088 250.343 125.981 253.03C131.875 255.63 136.425 259.4 139.631 264.34C142.838 269.28 144.441 275.173 144.441 282.02C144.441 288.78 142.838 294.63 139.631 299.57C136.425 304.423 131.875 308.15 125.981 310.75C120.088 313.35 113.068 314.65 104.921 314.65H77.2314L86.5914 305.42V340H65.5314ZM123.381 340L100.631 306.98H123.121L146.131 340H123.381ZM86.5914 307.76L77.2314 297.88H103.751C110.251 297.88 115.105 296.493 118.311 293.72C121.518 290.86 123.121 286.96 123.121 282.02C123.121 276.993 121.518 273.093 118.311 270.32C115.105 267.547 110.251 266.16 103.751 266.16H77.2314L86.5914 256.15V307.76ZM172.827 340V249H193.887V340H172.827ZM215.223 340L255.783 249H276.583L317.273 340H295.173L261.893 259.66H270.213L236.803 340H215.223ZM235.503 320.5L241.093 304.51H287.893L293.613 320.5H235.503ZM338.415 340V249H355.835L409.525 314.52H401.075V249H421.875V340H404.585L350.765 274.48H359.215V340H338.415Z"/>
</mask>
<path d="M11.1752 340H4.17516V347H11.1752V340ZM11.1752 249V242H4.17516V249H11.1752ZM32.2352 249H39.2352V242H32.2352V249ZM32.2352 340V347H39.2352V340H32.2352ZM11.1752 340H18.1752V249H11.1752H4.17516V340H11.1752ZM11.1752 249V256H32.2352V249V242H11.1752V249ZM32.2352 249H25.2352V340H32.2352H39.2352V249H32.2352ZM32.2352 340V333H11.1752V340V347H32.2352V340ZM65.5314 340H58.5314V347H65.5314V340ZM65.5314 249V242H58.5314V249H65.5314ZM125.981 253.03L123.078 259.399L123.117 259.417L123.156 259.434L125.981 253.03ZM139.631 264.34L133.76 268.151L139.631 264.34ZM139.631 299.57L145.472 303.429L145.487 303.405L145.503 303.381L139.631 299.57ZM125.981 310.75L128.807 317.154L125.981 310.75ZM77.2314 314.65L72.3164 309.666L60.1634 321.65H77.2314V314.65ZM86.5914 305.42H93.5914V288.686L81.6764 300.436L86.5914 305.42ZM86.5914 340V347H93.5914V340H86.5914ZM123.381 340L117.617 343.971L119.704 347H123.381V340ZM100.631 306.98V299.98H87.308L94.8671 310.951L100.631 306.98ZM123.121 306.98L128.865 302.978L126.775 299.98H123.121V306.98ZM146.131 340V347H159.541L151.875 335.998L146.131 340ZM86.5914 307.76L81.5097 312.574L93.5914 325.327V307.76H86.5914ZM77.2314 297.88V290.88H60.9573L72.1497 302.694L77.2314 297.88ZM118.311 293.72L122.89 299.015L122.931 298.98L122.971 298.944L118.311 293.72ZM77.2314 266.16L72.1184 261.379L61.1025 273.16H77.2314V266.16ZM86.5914 256.15H93.5914V238.415L81.4784 251.369L86.5914 256.15ZM65.5314 340H72.5314V249H65.5314H58.5314V340H65.5314ZM65.5314 249V256H104.921V249V242H65.5314V249ZM104.921 249V256C112.317 256 118.299 257.221 123.078 259.399L125.981 253.03L128.885 246.661C121.877 243.466 113.82 242 104.921 242V249ZM125.981 253.03L123.156 259.434C127.925 261.538 131.364 264.46 133.76 268.151L139.631 264.34L145.503 260.529C141.486 254.34 135.825 249.722 128.807 246.626L125.981 253.03ZM139.631 264.34L133.76 268.151C136.117 271.782 137.441 276.301 137.441 282.02H144.441H151.441C151.441 274.045 149.56 266.778 145.503 260.529L139.631 264.34ZM144.441 282.02H137.441C137.441 287.632 136.126 292.114 133.76 295.759L139.631 299.57L145.503 303.381C149.55 297.146 151.441 289.928 151.441 282.02H144.441ZM139.631 299.57L133.791 295.711C131.403 299.326 127.958 302.227 123.156 304.346L125.981 310.75L128.807 317.154C135.792 314.073 141.447 309.521 145.472 303.429L139.631 299.57ZM125.981 310.75L123.156 304.346C118.355 306.464 112.344 307.65 104.921 307.65V314.65V321.65C113.792 321.65 121.821 320.236 128.807 317.154L125.981 310.75ZM104.921 314.65V307.65H77.2314V314.65V321.65H104.921V314.65ZM77.2314 314.65L82.1464 319.634L91.5064 310.404L86.5914 305.42L81.6764 300.436L72.3164 309.666L77.2314 314.65ZM86.5914 305.42H79.5914V340H86.5914H93.5914V305.42H86.5914ZM86.5914 340V333H65.5314V340V347H86.5914V340ZM123.381 340L129.146 336.029L106.396 303.009L100.631 306.98L94.8671 310.951L117.617 343.971L123.381 340ZM100.631 306.98V313.98H123.121V306.98V299.98H100.631V306.98ZM123.121 306.98L117.378 310.982L140.388 344.002L146.131 340L151.875 335.998L128.865 302.978L123.121 306.98ZM146.131 340V333H123.381V340V347H146.131V340ZM86.5914 307.76L91.6731 302.946L82.3131 293.066L77.2314 297.88L72.1497 302.694L81.5097 312.574L86.5914 307.76ZM77.2314 297.88V304.88H103.751V297.88V290.88H77.2314V297.88ZM103.751 297.88V304.88C111.073 304.88 117.885 303.344 122.89 299.015L118.311 293.72L113.732 288.425C112.324 289.643 109.43 290.88 103.751 290.88V297.88ZM118.311 293.72L122.971 298.944C127.896 294.551 130.121 288.625 130.121 282.02H123.121H116.121C116.121 285.295 115.14 287.169 113.652 288.496L118.311 293.72ZM123.121 282.02H130.121C130.121 275.376 127.923 269.378 122.89 265.025L118.311 270.32L113.732 275.615C115.113 276.809 116.121 278.611 116.121 282.02H123.121ZM118.311 270.32L122.89 265.025C117.885 260.696 111.073 259.16 103.751 259.16V266.16V273.16C109.43 273.16 112.324 274.397 113.732 275.615L118.311 270.32ZM103.751 266.16V259.16H77.2314V266.16V273.16H103.751V266.16ZM77.2314 266.16L82.3444 270.941L91.7044 260.931L86.5914 256.15L81.4784 251.369L72.1184 261.379L77.2314 266.16ZM86.5914 256.15H79.5914V307.76H86.5914H93.5914V256.15H86.5914ZM172.827 340H165.827V347H172.827V340ZM172.827 249V242H165.827V249H172.827ZM193.887 249H200.887V242H193.887V249ZM193.887 340V347H200.887V340H193.887ZM172.827 340H179.827V249H172.827H165.827V340H172.827ZM172.827 249V256H193.887V249V242H172.827V249ZM193.887 249H186.887V340H193.887H200.887V249H193.887ZM193.887 340V333H172.827V340V347H193.887V340ZM215.223 340L208.83 337.15L204.44 347H215.223V340ZM255.783 249V242H251.24L249.39 246.15L255.783 249ZM276.583 249L282.974 246.143L281.121 242H276.583V249ZM317.273 340V347H328.071L323.664 337.143L317.273 340ZM295.173 340L288.706 342.679L290.496 347H295.173V340ZM261.893 259.66V252.66H251.417L255.426 262.339L261.893 259.66ZM270.213 259.66L276.677 262.348L280.706 252.66H270.213V259.66ZM236.803 340V347H241.474L243.267 342.688L236.803 340ZM235.503 320.5L228.896 318.19L225.641 327.5H235.503V320.5ZM241.093 304.51V297.51H236.125L234.486 302.2L241.093 304.51ZM287.893 304.51L294.484 302.152L292.824 297.51H287.893V304.51ZM293.613 320.5V327.5H303.552L300.204 318.142L293.613 320.5ZM215.223 340L221.617 342.85L262.177 251.85L255.783 249L249.39 246.15L208.83 337.15L215.223 340ZM255.783 249V256H276.583V249V242H255.783V249ZM276.583 249L270.193 251.857L310.883 342.857L317.273 340L323.664 337.143L282.974 246.143L276.583 249ZM317.273 340V333H295.173V340V347H317.273V340ZM295.173 340L301.64 337.321L268.36 256.981L261.893 259.66L255.426 262.339L288.706 342.679L295.173 340ZM261.893 259.66V266.66H270.213V259.66V252.66H261.893V259.66ZM270.213 259.66L263.75 256.972L230.34 337.312L236.803 340L243.267 342.688L276.677 262.348L270.213 259.66ZM236.803 340V333H215.223V340V347H236.803V340ZM235.503 320.5L242.111 322.81L247.701 306.82L241.093 304.51L234.486 302.2L228.896 318.19L235.503 320.5ZM241.093 304.51V311.51H287.893V304.51V297.51H241.093V304.51ZM287.893 304.51L281.302 306.868L287.022 322.858L293.613 320.5L300.204 318.142L294.484 302.152L287.893 304.51ZM293.613 320.5V313.5H235.503V320.5V327.5H293.613V320.5ZM338.415 340H331.415V347H338.415V340ZM338.415 249V242H331.415V249H338.415ZM355.835 249L361.249 244.563L359.149 242H355.835V249ZM409.525 314.52V321.52H424.311L414.939 310.083L409.525 314.52ZM401.075 314.52H394.075V321.52H401.075V314.52ZM401.075 249V242H394.075V249H401.075ZM421.875 249H428.875V242H421.875V249ZM421.875 340V347H428.875V340H421.875ZM404.585 340L399.176 344.443L401.276 347H404.585V340ZM350.765 274.48V267.48H335.956L345.356 278.923L350.765 274.48ZM359.215 274.48H366.215V267.48H359.215V274.48ZM359.215 340V347H366.215V340H359.215ZM338.415 340H345.415V249H338.415H331.415V340H338.415ZM338.415 249V256H355.835V249V242H338.415V249ZM355.835 249L350.42 253.437L404.11 318.957L409.525 314.52L414.939 310.083L361.249 244.563L355.835 249ZM409.525 314.52V307.52H401.075V314.52V321.52H409.525V314.52ZM401.075 314.52H408.075V249H401.075H394.075V314.52H401.075ZM401.075 249V256H421.875V249V242H401.075V249ZM421.875 249H414.875V340H421.875H428.875V249H421.875ZM421.875 340V333H404.585V340V347H421.875V340ZM404.585 340L409.994 335.557L356.174 270.037L350.765 274.48L345.356 278.923L399.176 344.443L404.585 340ZM350.765 274.48V281.48H359.215V274.48V267.48H350.765V274.48ZM359.215 274.48H352.215V340H359.215H366.215V274.48H359.215ZM359.215 340V333H338.415V340V347H359.215V340Z" fill="white" mask="url(#path-3-outside-2_1032_5)"/>
<mask id="path-5-outside-3_1032_5" maskUnits="userSpaceOnUse" x="4" y="24" width="425" height="109" fill="black">
<rect fill="white" x="4" y="24" width="425" height="109"/>
<path d="M11.1752 126V35H32.2352V126H11.1752ZM65.5314 126V35H104.921C113.068 35 120.088 36.3433 125.981 39.03C131.875 41.63 136.425 45.4 139.631 50.34C142.838 55.28 144.441 61.1733 144.441 68.02C144.441 74.78 142.838 80.63 139.631 85.57C136.425 90.4233 131.875 94.15 125.981 96.75C120.088 99.35 113.068 100.65 104.921 100.65H77.2314L86.5914 91.42V126H65.5314ZM123.381 126L100.631 92.98H123.121L146.131 126H123.381ZM86.5914 93.76L77.2314 83.88H103.751C110.251 83.88 115.105 82.4933 118.311 79.72C121.518 76.86 123.121 72.96 123.121 68.02C123.121 62.9933 121.518 59.0933 118.311 56.32C115.105 53.5467 110.251 52.16 103.751 52.16H77.2314L86.5914 42.15V93.76ZM172.827 126V35H193.887V126H172.827ZM215.223 126L255.783 35H276.583L317.273 126H295.173L261.893 45.66H270.213L236.803 126H215.223ZM235.503 106.5L241.093 90.51H287.893L293.613 106.5H235.503ZM338.415 126V35H355.835L409.525 100.52H401.075V35H421.875V126H404.585L350.765 60.48H359.215V126H338.415Z"/>
</mask>
<path d="M11.1752 126H4.17516V133H11.1752V126ZM11.1752 35V28H4.17516V35H11.1752ZM32.2352 35H39.2352V28H32.2352V35ZM32.2352 126V133H39.2352V126H32.2352ZM11.1752 126H18.1752V35H11.1752H4.17516V126H11.1752ZM11.1752 35V42H32.2352V35V28H11.1752V35ZM32.2352 35H25.2352V126H32.2352H39.2352V35H32.2352ZM32.2352 126V119H11.1752V126V133H32.2352V126ZM65.5314 126H58.5314V133H65.5314V126ZM65.5314 35V28H58.5314V35H65.5314ZM125.981 39.03L123.078 45.3993L123.117 45.4171L123.156 45.4344L125.981 39.03ZM139.631 50.34L133.76 54.1513L139.631 50.34ZM139.631 85.57L145.472 89.4288L145.487 89.4051L145.503 89.3813L139.631 85.57ZM125.981 96.75L128.807 103.154L125.981 96.75ZM77.2314 100.65L72.3164 95.6658L60.1634 107.65H77.2314V100.65ZM86.5914 91.42H93.5914V74.6862L81.6764 86.4358L86.5914 91.42ZM86.5914 126V133H93.5914V126H86.5914ZM123.381 126L117.617 129.971L119.704 133H123.381V126ZM100.631 92.98V85.98H87.308L94.8671 96.9515L100.631 92.98ZM123.121 92.98L128.865 88.9779L126.775 85.98H123.121V92.98ZM146.131 126V133H159.541L151.875 121.998L146.131 126ZM86.5914 93.76L81.5097 98.5742L93.5914 111.327V93.76H86.5914ZM77.2314 83.88V76.88H60.9573L72.1497 88.6942L77.2314 83.88ZM118.311 79.72L122.89 85.0145L122.931 84.9796L122.971 84.9441L118.311 79.72ZM77.2314 52.16L72.1184 47.379L61.1025 59.16H77.2314V52.16ZM86.5914 42.15H93.5914V24.4149L81.4784 37.369L86.5914 42.15ZM65.5314 126H72.5314V35H65.5314H58.5314V126H65.5314ZM65.5314 35V42H104.921V35V28H65.5314V35ZM104.921 35V42C112.317 42 118.299 43.2209 123.078 45.3993L125.981 39.03L128.885 32.6606C121.877 29.4658 113.82 28 104.921 28V35ZM125.981 39.03L123.156 45.4344C127.925 47.5384 131.364 50.4601 133.76 54.1513L139.631 50.34L145.503 46.5287C141.486 40.3399 135.825 35.7216 128.807 32.6256L125.981 39.03ZM139.631 50.34L133.76 54.1513C136.117 57.7818 137.441 62.3014 137.441 68.02H144.441H151.441C151.441 60.0452 149.56 52.7782 145.503 46.5287L139.631 50.34ZM144.441 68.02H137.441C137.441 73.6323 136.126 78.114 133.76 81.7587L139.631 85.57L145.503 89.3813C149.55 83.146 151.441 75.9277 151.441 68.02H144.441ZM139.631 85.57L133.791 81.7112C131.403 85.3261 127.958 88.2272 123.156 90.3456L125.981 96.75L128.807 103.154C135.792 100.073 141.447 95.5205 145.472 89.4288L139.631 85.57ZM125.981 96.75L123.156 90.3456C118.355 92.4635 112.344 93.65 104.921 93.65V100.65V107.65C113.792 107.65 121.821 106.236 128.807 103.154L125.981 96.75ZM104.921 100.65V93.65H77.2314V100.65V107.65H104.921V100.65ZM77.2314 100.65L82.1464 105.634L91.5064 96.4042L86.5914 91.42L81.6764 86.4358L72.3164 95.6658L77.2314 100.65ZM86.5914 91.42H79.5914V126H86.5914H93.5914V91.42H86.5914ZM86.5914 126V119H65.5314V126V133H86.5914V126ZM123.381 126L129.146 122.029L106.396 89.0085L100.631 92.98L94.8671 96.9515L117.617 129.971L123.381 126ZM100.631 92.98V99.98H123.121V92.98V85.98H100.631V92.98ZM123.121 92.98L117.378 96.9821L140.388 130.002L146.131 126L151.875 121.998L128.865 88.9779L123.121 92.98ZM146.131 126V119H123.381V126V133H146.131V126ZM86.5914 93.76L91.6731 88.9458L82.3131 79.0658L77.2314 83.88L72.1497 88.6942L81.5097 98.5742L86.5914 93.76ZM77.2314 83.88V90.88H103.751V83.88V76.88H77.2314V83.88ZM103.751 83.88V90.88C111.073 90.88 117.885 89.3436 122.89 85.0145L118.311 79.72L113.732 74.4255C112.324 75.6431 109.43 76.88 103.751 76.88V83.88ZM118.311 79.72L122.971 84.9441C127.896 80.551 130.121 74.6253 130.121 68.02H123.121H116.121C116.121 71.2947 115.14 73.169 113.652 74.4959L118.311 79.72ZM123.121 68.02H130.121C130.121 61.3759 127.923 55.3779 122.89 51.0255L118.311 56.32L113.732 61.6145C115.113 62.8087 116.121 64.6108 116.121 68.02H123.121ZM118.311 56.32L122.89 51.0255C117.885 46.6964 111.073 45.16 103.751 45.16V52.16V59.16C109.43 59.16 112.324 60.3969 113.732 61.6145L118.311 56.32ZM103.751 52.16V45.16H77.2314V52.16V59.16H103.751V52.16ZM77.2314 52.16L82.3444 56.941L91.7044 46.931L86.5914 42.15L81.4784 37.369L72.1184 47.379L77.2314 52.16ZM86.5914 42.15H79.5914V93.76H86.5914H93.5914V42.15H86.5914ZM172.827 126H165.827V133H172.827V126ZM172.827 35V28H165.827V35H172.827ZM193.887 35H200.887V28H193.887V35ZM193.887 126V133H200.887V126H193.887ZM172.827 126H179.827V35H172.827H165.827V126H172.827ZM172.827 35V42H193.887V35V28H172.827V35ZM193.887 35H186.887V126H193.887H200.887V35H193.887ZM193.887 126V119H172.827V126V133H193.887V126ZM215.223 126L208.83 123.15L204.44 133H215.223V126ZM255.783 35V28H251.24L249.39 32.1502L255.783 35ZM276.583 35L282.974 32.1426L281.121 28H276.583V35ZM317.273 126V133H328.071L323.664 123.143L317.273 126ZM295.173 126L288.706 128.679L290.496 133H295.173V126ZM261.893 45.66V38.66H251.417L255.426 48.3389L261.893 45.66ZM270.213 45.66L276.677 48.3478L280.706 38.66H270.213V45.66ZM236.803 126V133H241.474L243.267 128.688L236.803 126ZM235.503 106.5L228.896 104.19L225.641 113.5H235.503V106.5ZM241.093 90.51V83.51H236.125L234.486 88.1999L241.093 90.51ZM287.893 90.51L294.484 88.1523L292.824 83.51H287.893V90.51ZM293.613 106.5V113.5H303.552L300.204 104.142L293.613 106.5ZM215.223 126L221.617 128.85L262.177 37.8497L255.783 35L249.39 32.1502L208.83 123.15L215.223 126ZM255.783 35V42H276.583V35V28H255.783V35ZM276.583 35L270.193 37.8574L310.883 128.857L317.273 126L323.664 123.143L282.974 32.1426L276.583 35ZM317.273 126V119H295.173V126V133H317.273V126ZM295.173 126L301.64 123.321L268.36 42.9811L261.893 45.66L255.426 48.3389L288.706 128.679L295.173 126ZM261.893 45.66V52.66H270.213V45.66V38.66H261.893V45.66ZM270.213 45.66L263.75 42.9721L230.34 123.312L236.803 126L243.267 128.688L276.677 48.3478L270.213 45.66ZM236.803 126V119H215.223V126V133H236.803V126ZM235.503 106.5L242.111 108.81L247.701 92.8201L241.093 90.51L234.486 88.1999L228.896 104.19L235.503 106.5ZM241.093 90.51V97.51H287.893V90.51V83.51H241.093V90.51ZM287.893 90.51L281.302 92.8678L287.022 108.858L293.613 106.5L300.204 104.142L294.484 88.1523L287.893 90.51ZM293.613 106.5V99.5H235.503V106.5V113.5H293.613V106.5ZM338.415 126H331.415V133H338.415V126ZM338.415 35V28H331.415V35H338.415ZM355.835 35L361.249 30.5632L359.149 28H355.835V35ZM409.525 100.52V107.52H424.311L414.939 96.0832L409.525 100.52ZM401.075 100.52H394.075V107.52H401.075V100.52ZM401.075 35V28H394.075V35H401.075ZM421.875 35H428.875V28H421.875V35ZM421.875 126V133H428.875V126H421.875ZM404.585 126L399.176 130.443L401.276 133H404.585V126ZM350.765 60.48V53.48H335.956L345.356 64.9232L350.765 60.48ZM359.215 60.48H366.215V53.48H359.215V60.48ZM359.215 126V133H366.215V126H359.215ZM338.415 126H345.415V35H338.415H331.415V126H338.415ZM338.415 35V42H355.835V35V28H338.415V35ZM355.835 35L350.42 39.4368L404.11 104.957L409.525 100.52L414.939 96.0832L361.249 30.5632L355.835 35ZM409.525 100.52V93.52H401.075V100.52V107.52H409.525V100.52ZM401.075 100.52H408.075V35H401.075H394.075V100.52H401.075ZM401.075 35V42H421.875V35V28H401.075V35ZM421.875 35H414.875V126H421.875H428.875V35H421.875ZM421.875 126V119H404.585V126V133H421.875V126ZM404.585 126L409.994 121.557L356.174 56.0368L350.765 60.48L345.356 64.9232L399.176 130.443L404.585 126ZM350.765 60.48V67.48H359.215V60.48V53.48H350.765V60.48ZM359.215 60.48H352.215V126H359.215H366.215V60.48H359.215ZM359.215 126V119H338.415V126V133H359.215V126Z" fill="white" mask="url(#path-5-outside-3_1032_5)"/>
</svg>
