<svg width="694" height="372" viewBox="0 0 694 372" fill="none" xmlns="http://www.w3.org/2000/svg">
<mask id="path-1-outside-1_1032_3" maskUnits="userSpaceOnUse" x="4" y="137" width="686" height="101" fill="black">
<rect fill="white" x="4" y="137" width="686" height="101"/>
<path d="M56.363 234.56C49.343 234.56 42.7997 233.433 36.733 231.18C30.753 228.84 25.553 225.547 21.133 221.3C16.713 217.053 13.2464 212.07 10.733 206.35C8.30637 200.63 7.09304 194.347 7.09304 187.5C7.09304 180.653 8.30637 174.37 10.733 168.65C13.2464 162.93 16.713 157.947 21.133 153.7C25.6397 149.453 30.883 146.203 36.863 143.95C42.843 141.61 49.3864 140.44 56.493 140.44C64.3797 140.44 71.4864 141.827 77.813 144.6C84.2264 147.287 89.5997 151.273 93.933 156.56L80.413 169.04C77.293 165.487 73.8264 162.843 70.013 161.11C66.1997 159.29 62.0397 158.38 57.533 158.38C53.2864 158.38 49.3864 159.073 45.833 160.46C42.2797 161.847 39.203 163.84 36.603 166.44C34.003 169.04 31.9664 172.117 30.493 175.67C29.1064 179.223 28.413 183.167 28.413 187.5C28.413 191.833 29.1064 195.777 30.493 199.33C31.9664 202.883 34.003 205.96 36.603 208.56C39.203 211.16 42.2797 213.153 45.833 214.54C49.3864 215.927 53.2864 216.62 57.533 216.62C62.0397 216.62 66.1997 215.753 70.013 214.02C73.8264 212.2 77.293 209.47 80.413 205.83L93.933 218.31C89.5997 223.597 84.2264 227.627 77.813 230.4C71.4864 233.173 64.3364 234.56 56.363 234.56ZM139.225 178.66H183.035V195.04H139.225V178.66ZM140.785 216.1H190.315V233H119.855V142H188.625V158.9H140.785V216.1ZM218.772 233V142H239.832V215.84H285.462V233H218.772ZM328.299 178.66H372.109V195.04H328.299V178.66ZM329.859 216.1H379.389V233H308.929V142H377.699V158.9H329.859V216.1ZM407.845 233V142H452.305C463.745 142 472.325 144.167 478.045 148.5C483.852 152.833 486.755 158.553 486.755 165.66C486.755 170.427 485.585 174.587 483.245 178.14C480.905 181.607 477.699 184.293 473.625 186.2C469.552 188.107 464.872 189.06 459.585 189.06L462.055 183.73C467.775 183.73 472.845 184.683 477.265 186.59C481.685 188.41 485.109 191.14 487.535 194.78C490.049 198.42 491.305 202.883 491.305 208.17C491.305 215.97 488.229 222.08 482.075 226.5C475.922 230.833 466.865 233 454.905 233H407.845ZM428.775 217.14H453.345C458.805 217.14 462.922 216.273 465.695 214.54C468.555 212.72 469.985 209.86 469.985 205.96C469.985 202.147 468.555 199.33 465.695 197.51C462.922 195.603 458.805 194.65 453.345 194.65H427.215V179.31H449.705C454.819 179.31 458.719 178.443 461.405 176.71C464.179 174.89 465.565 172.16 465.565 168.52C465.565 164.967 464.179 162.323 461.405 160.59C458.719 158.77 454.819 157.86 449.705 157.86H428.775V217.14ZM538.32 178.66H582.13V195.04H538.32V178.66ZM539.88 216.1H589.41V233H518.95V142H587.72V158.9H539.88V216.1ZM647.767 234.56C640.487 234.56 633.51 233.607 626.837 231.7C620.163 229.707 614.79 227.15 610.717 224.03L617.867 208.17C621.767 210.943 626.36 213.24 631.647 215.06C637.02 216.793 642.437 217.66 647.897 217.66C652.057 217.66 655.393 217.27 657.907 216.49C660.507 215.623 662.413 214.453 663.627 212.98C664.84 211.507 665.447 209.817 665.447 207.91C665.447 205.483 664.493 203.577 662.587 202.19C660.68 200.717 658.167 199.547 655.047 198.68C651.927 197.727 648.46 196.86 644.647 196.08C640.92 195.213 637.15 194.173 633.337 192.96C629.61 191.747 626.187 190.187 623.067 188.28C619.947 186.373 617.39 183.86 615.397 180.74C613.49 177.62 612.537 173.633 612.537 168.78C612.537 163.58 613.923 158.857 616.697 154.61C619.557 150.277 623.803 146.853 629.437 144.34C635.157 141.74 642.307 140.44 650.887 140.44C656.607 140.44 662.24 141.133 667.787 142.52C673.333 143.82 678.23 145.813 682.477 148.5L675.977 164.49C671.73 162.063 667.483 160.287 663.237 159.16C658.99 157.947 654.83 157.34 650.757 157.34C646.683 157.34 643.347 157.817 640.747 158.77C638.147 159.723 636.283 160.98 635.157 162.54C634.03 164.013 633.467 165.747 633.467 167.74C633.467 170.08 634.42 171.987 636.327 173.46C638.233 174.847 640.747 175.973 643.867 176.84C646.987 177.707 650.41 178.573 654.137 179.44C657.95 180.307 661.72 181.303 665.447 182.43C669.26 183.557 672.727 185.073 675.847 186.98C678.967 188.887 681.48 191.4 683.387 194.52C685.38 197.64 686.377 201.583 686.377 206.35C686.377 211.463 684.947 216.143 682.087 220.39C679.227 224.637 674.937 228.06 669.217 230.66C663.583 233.26 656.433 234.56 647.767 234.56Z"/>
</mask>
<path d="M56.363 234.56C49.343 234.56 42.7997 233.433 36.733 231.18C30.753 228.84 25.553 225.547 21.133 221.3C16.713 217.053 13.2464 212.07 10.733 206.35C8.30637 200.63 7.09304 194.347 7.09304 187.5C7.09304 180.653 8.30637 174.37 10.733 168.65C13.2464 162.93 16.713 157.947 21.133 153.7C25.6397 149.453 30.883 146.203 36.863 143.95C42.843 141.61 49.3864 140.44 56.493 140.44C64.3797 140.44 71.4864 141.827 77.813 144.6C84.2264 147.287 89.5997 151.273 93.933 156.56L80.413 169.04C77.293 165.487 73.8264 162.843 70.013 161.11C66.1997 159.29 62.0397 158.38 57.533 158.38C53.2864 158.38 49.3864 159.073 45.833 160.46C42.2797 161.847 39.203 163.84 36.603 166.44C34.003 169.04 31.9664 172.117 30.493 175.67C29.1064 179.223 28.413 183.167 28.413 187.5C28.413 191.833 29.1064 195.777 30.493 199.33C31.9664 202.883 34.003 205.96 36.603 208.56C39.203 211.16 42.2797 213.153 45.833 214.54C49.3864 215.927 53.2864 216.62 57.533 216.62C62.0397 216.62 66.1997 215.753 70.013 214.02C73.8264 212.2 77.293 209.47 80.413 205.83L93.933 218.31C89.5997 223.597 84.2264 227.627 77.813 230.4C71.4864 233.173 64.3364 234.56 56.363 234.56ZM139.225 178.66H183.035V195.04H139.225V178.66ZM140.785 216.1H190.315V233H119.855V142H188.625V158.9H140.785V216.1ZM218.772 233V142H239.832V215.84H285.462V233H218.772ZM328.299 178.66H372.109V195.04H328.299V178.66ZM329.859 216.1H379.389V233H308.929V142H377.699V158.9H329.859V216.1ZM407.845 233V142H452.305C463.745 142 472.325 144.167 478.045 148.5C483.852 152.833 486.755 158.553 486.755 165.66C486.755 170.427 485.585 174.587 483.245 178.14C480.905 181.607 477.699 184.293 473.625 186.2C469.552 188.107 464.872 189.06 459.585 189.06L462.055 183.73C467.775 183.73 472.845 184.683 477.265 186.59C481.685 188.41 485.109 191.14 487.535 194.78C490.049 198.42 491.305 202.883 491.305 208.17C491.305 215.97 488.229 222.08 482.075 226.5C475.922 230.833 466.865 233 454.905 233H407.845ZM428.775 217.14H453.345C458.805 217.14 462.922 216.273 465.695 214.54C468.555 212.72 469.985 209.86 469.985 205.96C469.985 202.147 468.555 199.33 465.695 197.51C462.922 195.603 458.805 194.65 453.345 194.65H427.215V179.31H449.705C454.819 179.31 458.719 178.443 461.405 176.71C464.179 174.89 465.565 172.16 465.565 168.52C465.565 164.967 464.179 162.323 461.405 160.59C458.719 158.77 454.819 157.86 449.705 157.86H428.775V217.14ZM538.32 178.66H582.13V195.04H538.32V178.66ZM539.88 216.1H589.41V233H518.95V142H587.72V158.9H539.88V216.1ZM647.767 234.56C640.487 234.56 633.51 233.607 626.837 231.7C620.163 229.707 614.79 227.15 610.717 224.03L617.867 208.17C621.767 210.943 626.36 213.24 631.647 215.06C637.02 216.793 642.437 217.66 647.897 217.66C652.057 217.66 655.393 217.27 657.907 216.49C660.507 215.623 662.413 214.453 663.627 212.98C664.84 211.507 665.447 209.817 665.447 207.91C665.447 205.483 664.493 203.577 662.587 202.19C660.68 200.717 658.167 199.547 655.047 198.68C651.927 197.727 648.46 196.86 644.647 196.08C640.92 195.213 637.15 194.173 633.337 192.96C629.61 191.747 626.187 190.187 623.067 188.28C619.947 186.373 617.39 183.86 615.397 180.74C613.49 177.62 612.537 173.633 612.537 168.78C612.537 163.58 613.923 158.857 616.697 154.61C619.557 150.277 623.803 146.853 629.437 144.34C635.157 141.74 642.307 140.44 650.887 140.44C656.607 140.44 662.24 141.133 667.787 142.52C673.333 143.82 678.23 145.813 682.477 148.5L675.977 164.49C671.73 162.063 667.483 160.287 663.237 159.16C658.99 157.947 654.83 157.34 650.757 157.34C646.683 157.34 643.347 157.817 640.747 158.77C638.147 159.723 636.283 160.98 635.157 162.54C634.03 164.013 633.467 165.747 633.467 167.74C633.467 170.08 634.42 171.987 636.327 173.46C638.233 174.847 640.747 175.973 643.867 176.84C646.987 177.707 650.41 178.573 654.137 179.44C657.95 180.307 661.72 181.303 665.447 182.43C669.26 183.557 672.727 185.073 675.847 186.98C678.967 188.887 681.48 191.4 683.387 194.52C685.38 197.64 686.377 201.583 686.377 206.35C686.377 211.463 684.947 216.143 682.087 220.39C679.227 224.637 674.937 228.06 669.217 230.66C663.583 233.26 656.433 234.56 647.767 234.56Z" fill="white"/>
<path d="M36.733 231.18L35.6398 233.974L35.6641 233.983L35.6885 233.992L36.733 231.18ZM21.133 221.3L19.0546 223.463H19.0546L21.133 221.3ZM10.733 206.35L7.9713 207.522L7.97878 207.539L7.98648 207.557L10.733 206.35ZM10.733 168.65L7.98648 167.443L7.97878 167.461L7.9713 167.478L10.733 168.65ZM21.133 153.7L19.0756 151.517L19.0651 151.527L19.0546 151.537L21.133 153.7ZM36.863 143.95L37.9209 146.757L37.9386 146.751L37.9562 146.744L36.863 143.95ZM77.813 144.6L76.6086 147.348L76.6312 147.357L76.6539 147.367L77.813 144.6ZM93.933 156.56L95.9679 158.764L98.0463 156.846L96.2532 154.658L93.933 156.56ZM80.413 169.04L78.1587 171.019L80.188 173.33L82.4479 171.244L80.413 169.04ZM70.013 161.11L68.7209 163.817L68.7461 163.83L68.7716 163.841L70.013 161.11ZM36.603 166.44L38.7244 168.561L36.603 166.44ZM30.493 175.67L27.7218 174.521L27.7098 174.55L27.6983 174.579L30.493 175.67ZM30.493 199.33L27.6983 200.421L27.7098 200.45L27.7218 200.479L30.493 199.33ZM36.603 208.56L34.4817 210.681L36.603 208.56ZM70.013 214.02L71.2544 216.751L71.28 216.74L71.3052 216.727L70.013 214.02ZM80.413 205.83L82.4479 203.626L80.1608 201.514L78.1353 203.878L80.413 205.83ZM93.933 218.31L96.2532 220.212L98.0463 218.024L95.9679 216.106L93.933 218.31ZM77.813 230.4L76.6223 227.646L76.6154 227.649L76.6086 227.652L77.813 230.4ZM56.363 234.56V231.56C49.6693 231.56 43.4827 230.487 37.7776 228.368L36.733 231.18L35.6885 233.992C42.1167 236.38 49.0168 237.56 56.363 237.56V234.56ZM36.733 231.18L37.8262 228.386C32.1951 226.183 27.3342 223.098 23.2115 219.137L21.133 221.3L19.0546 223.463C23.7719 227.996 29.311 231.497 35.6398 233.974L36.733 231.18ZM21.133 221.3L23.2115 219.137C19.0802 215.167 15.8381 210.511 13.4796 205.143L10.733 206.35L7.98648 207.557C10.6546 213.629 14.3459 218.939 19.0546 223.463L21.133 221.3ZM10.733 206.35L13.4948 205.178C11.2407 199.865 10.093 193.985 10.093 187.5H7.09304H4.09304C4.09304 194.708 5.37207 201.395 7.9713 207.522L10.733 206.35ZM7.09304 187.5H10.093C10.093 181.015 11.2407 175.135 13.4948 169.822L10.733 168.65L7.9713 167.478C5.37207 173.605 4.09304 180.292 4.09304 187.5H7.09304ZM10.733 168.65L13.4796 169.857C15.8381 164.489 19.0802 159.833 23.2115 155.863L21.133 153.7L19.0546 151.537C14.3459 156.061 10.6546 161.371 7.98648 167.443L10.733 168.65ZM21.133 153.7L23.1904 155.883C27.3992 151.917 32.2999 148.875 37.9209 146.757L36.863 143.95L35.8052 141.143C29.4662 143.531 23.8803 146.989 19.0756 151.517L21.133 153.7ZM36.863 143.95L37.9562 146.744C43.5526 144.554 49.7206 143.44 56.493 143.44V140.44V137.44C49.0522 137.44 42.1335 138.666 35.7698 141.156L36.863 143.95ZM56.493 140.44V143.44C64.0236 143.44 70.7118 144.763 76.6086 147.348L77.813 144.6L79.0175 141.852C72.2609 138.891 64.7358 137.44 56.493 137.44V140.44ZM77.813 144.6L76.6539 147.367C82.6235 149.868 87.5956 153.561 91.6129 158.462L93.933 156.56L96.2532 154.658C91.6038 148.986 85.8293 144.706 78.9722 141.833L77.813 144.6ZM93.933 156.56L91.8982 154.356L78.3782 166.836L80.413 169.04L82.4479 171.244L95.9679 158.764L93.933 156.56ZM80.413 169.04L82.6674 167.061C79.303 163.229 75.5019 160.31 71.2544 158.379L70.013 161.11L68.7716 163.841C72.1509 165.377 75.2831 167.744 78.1587 171.019L80.413 169.04ZM70.013 161.11L71.3052 158.403C67.0618 156.377 62.4565 155.38 57.533 155.38V158.38V161.38C61.623 161.38 65.3376 162.203 68.7209 163.817L70.013 161.11ZM57.533 158.38V155.38C52.9554 155.38 48.6806 156.128 44.7424 157.665L45.833 160.46L46.9237 163.255C50.0921 162.018 53.6173 161.38 57.533 161.38V158.38ZM45.833 160.46L44.7424 157.665C40.8174 159.197 37.386 161.414 34.4817 164.319L36.603 166.44L38.7244 168.561C41.02 166.266 43.742 164.496 46.9237 163.255L45.833 160.46ZM36.603 166.44L34.4817 164.319C31.5906 167.21 29.3388 170.621 27.7218 174.521L30.493 175.67L33.2643 176.819C34.5939 173.612 36.4155 170.87 38.7244 168.561L36.603 166.44ZM30.493 175.67L27.6983 174.579C26.1588 178.524 25.413 182.844 25.413 187.5H28.413H31.413C31.413 183.489 32.0539 179.922 33.2878 176.761L30.493 175.67ZM28.413 187.5H25.413C25.413 192.156 26.1588 196.476 27.6983 200.421L30.493 199.33L33.2878 198.239C32.0539 195.078 31.413 191.511 31.413 187.5H28.413ZM30.493 199.33L27.7218 200.479C29.3388 204.379 31.5906 207.79 34.4817 210.681L36.603 208.56L38.7244 206.439C36.4155 204.13 34.5939 201.388 33.2643 198.181L30.493 199.33ZM36.603 208.56L34.4817 210.681C37.386 213.586 40.8174 215.803 44.7424 217.335L45.833 214.54L46.9237 211.745C43.742 210.504 41.02 208.734 38.7244 206.439L36.603 208.56ZM45.833 214.54L44.7424 217.335C48.6806 218.872 52.9554 219.62 57.533 219.62V216.62V213.62C53.6173 213.62 50.0921 212.982 46.9237 211.745L45.833 214.54ZM57.533 216.62V219.62C62.435 219.62 67.0223 218.675 71.2544 216.751L70.013 214.02L68.7716 211.289C65.3771 212.832 61.6445 213.62 57.533 213.62V216.62ZM70.013 214.02L71.3052 216.727C75.5438 214.704 79.3351 211.697 82.6908 207.782L80.413 205.83L78.1353 203.878C75.251 207.243 72.1089 209.696 68.7209 211.313L70.013 214.02ZM80.413 205.83L78.3782 208.034L91.8982 220.514L93.933 218.31L95.9679 216.106L82.4479 203.626L80.413 205.83ZM93.933 218.31L91.6129 216.408C87.5896 221.317 82.6068 225.059 76.6223 227.646L77.813 230.4L79.0038 233.154C85.846 230.195 91.6098 225.877 96.2532 220.212L93.933 218.31ZM77.813 230.4L76.6086 227.652C70.7158 230.236 63.9853 231.56 56.363 231.56V234.56V237.56C64.6875 237.56 72.2569 236.111 79.0175 233.148L77.813 230.4ZM139.225 178.66V175.66H136.225V178.66H139.225ZM183.035 178.66H186.035V175.66H183.035V178.66ZM183.035 195.04V198.04H186.035V195.04H183.035ZM139.225 195.04H136.225V198.04H139.225V195.04ZM140.785 216.1H137.785V219.1H140.785V216.1ZM190.315 216.1H193.315V213.1H190.315V216.1ZM190.315 233V236H193.315V233H190.315ZM119.855 233H116.855V236H119.855V233ZM119.855 142V139H116.855V142H119.855ZM188.625 142H191.625V139H188.625V142ZM188.625 158.9V161.9H191.625V158.9H188.625ZM140.785 158.9V155.9H137.785V158.9H140.785ZM139.225 178.66V181.66H183.035V178.66V175.66H139.225V178.66ZM183.035 178.66H180.035V195.04H183.035H186.035V178.66H183.035ZM183.035 195.04V192.04H139.225V195.04V198.04H183.035V195.04ZM139.225 195.04H142.225V178.66H139.225H136.225V195.04H139.225ZM140.785 216.1V219.1H190.315V216.1V213.1H140.785V216.1ZM190.315 216.1H187.315V233H190.315H193.315V216.1H190.315ZM190.315 233V230H119.855V233V236H190.315V233ZM119.855 233H122.855V142H119.855H116.855V233H119.855ZM119.855 142V145H188.625V142V139H119.855V142ZM188.625 142H185.625V158.9H188.625H191.625V142H188.625ZM188.625 158.9V155.9H140.785V158.9V161.9H188.625V158.9ZM140.785 158.9H137.785V216.1H140.785H143.785V158.9H140.785ZM218.772 233H215.772V236H218.772V233ZM218.772 142V139H215.772V142H218.772ZM239.832 142H242.832V139H239.832V142ZM239.832 215.84H236.832V218.84H239.832V215.84ZM285.462 215.84H288.462V212.84H285.462V215.84ZM285.462 233V236H288.462V233H285.462ZM218.772 233H221.772V142H218.772H215.772V233H218.772ZM218.772 142V145H239.832V142V139H218.772V142ZM239.832 142H236.832V215.84H239.832H242.832V142H239.832ZM239.832 215.84V218.84H285.462V215.84V212.84H239.832V215.84ZM285.462 215.84H282.462V233H285.462H288.462V215.84H285.462ZM285.462 233V230H218.772V233V236H285.462V233ZM328.299 178.66V175.66H325.299V178.66H328.299ZM372.109 178.66H375.109V175.66H372.109V178.66ZM372.109 195.04V198.04H375.109V195.04H372.109ZM328.299 195.04H325.299V198.04H328.299V195.04ZM329.859 216.1H326.859V219.1H329.859V216.1ZM379.389 216.1H382.389V213.1H379.389V216.1ZM379.389 233V236H382.389V233H379.389ZM308.929 233H305.929V236H308.929V233ZM308.929 142V139H305.929V142H308.929ZM377.699 142H380.699V139H377.699V142ZM377.699 158.9V161.9H380.699V158.9H377.699ZM329.859 158.9V155.9H326.859V158.9H329.859ZM328.299 178.66V181.66H372.109V178.66V175.66H328.299V178.66ZM372.109 178.66H369.109V195.04H372.109H375.109V178.66H372.109ZM372.109 195.04V192.04H328.299V195.04V198.04H372.109V195.04ZM328.299 195.04H331.299V178.66H328.299H325.299V195.04H328.299ZM329.859 216.1V219.1H379.389V216.1V213.1H329.859V216.1ZM379.389 216.1H376.389V233H379.389H382.389V216.1H379.389ZM379.389 233V230H308.929V233V236H379.389V233ZM308.929 233H311.929V142H308.929H305.929V233H308.929ZM308.929 142V145H377.699V142V139H308.929V142ZM377.699 142H374.699V158.9H377.699H380.699V142H377.699ZM377.699 158.9V155.9H329.859V158.9V161.9H377.699V158.9ZM329.859 158.9H326.859V216.1H329.859H332.859V158.9H329.859ZM407.845 233H404.845V236H407.845V233ZM407.845 142V139H404.845V142H407.845ZM478.045 148.5L476.234 150.891L476.243 150.898L476.251 150.904L478.045 148.5ZM483.245 178.14L485.732 179.818L485.742 179.804L485.751 179.79L483.245 178.14ZM473.625 186.2L474.897 188.917L473.625 186.2ZM459.585 189.06L456.864 187.799L454.889 192.06H459.585V189.06ZM462.055 183.73V180.73H460.139L459.334 182.469L462.055 183.73ZM477.265 186.59L476.077 189.345L476.1 189.355L476.123 189.364L477.265 186.59ZM487.535 194.78L485.039 196.444L485.053 196.464L485.067 196.485L487.535 194.78ZM482.075 226.5L483.803 228.953L483.814 228.945L483.826 228.937L482.075 226.5ZM428.775 217.14H425.775V220.14H428.775V217.14ZM465.695 214.54L467.285 217.084L467.296 217.078L467.306 217.071L465.695 214.54ZM465.695 197.51L463.996 199.982L464.04 200.012L464.085 200.041L465.695 197.51ZM427.215 194.65H424.215V197.65H427.215V194.65ZM427.215 179.31V176.31H424.215V179.31H427.215ZM461.405 176.71L463.032 179.231L463.042 179.225L463.051 179.218L461.405 176.71ZM461.405 160.59L459.723 163.074L459.769 163.105L459.815 163.134L461.405 160.59ZM428.775 157.86V154.86H425.775V157.86H428.775ZM407.845 233H410.845V142H407.845H404.845V233H407.845ZM407.845 142V145H452.305V142V139H407.845V142ZM452.305 142V145C463.452 145 471.264 147.126 476.234 150.891L478.045 148.5L479.857 146.109C473.387 141.207 464.039 139 452.305 139V142ZM478.045 148.5L476.251 150.904C481.317 154.684 483.755 159.522 483.755 165.66H486.755H489.755C489.755 157.585 486.388 150.982 479.84 146.096L478.045 148.5ZM486.755 165.66H483.755C483.755 169.913 482.719 173.484 480.74 176.49L483.245 178.14L485.751 179.79C488.452 175.689 489.755 170.94 489.755 165.66H486.755ZM483.245 178.14L480.759 176.462C478.745 179.445 475.974 181.788 472.354 183.483L473.625 186.2L474.897 188.917C479.424 186.798 483.066 183.769 485.732 179.818L483.245 178.14ZM473.625 186.2L472.354 183.483C468.742 185.173 464.509 186.06 459.585 186.06V189.06V192.06C465.235 192.06 470.362 191.04 474.897 188.917L473.625 186.2ZM459.585 189.06L462.307 190.321L464.777 184.991L462.055 183.73L459.334 182.469L456.864 187.799L459.585 189.06ZM462.055 183.73V186.73C467.442 186.73 472.096 187.627 476.077 189.345L477.265 186.59L478.454 183.835C473.595 181.739 468.108 180.73 462.055 180.73V183.73ZM477.265 186.59L476.123 189.364C480.045 190.979 482.974 193.346 485.039 196.444L487.535 194.78L490.032 193.116C487.243 188.934 483.326 185.841 478.408 183.816L477.265 186.59ZM487.535 194.78L485.067 196.485C487.171 199.532 488.305 203.371 488.305 208.17H491.305H494.305C494.305 202.396 492.926 197.308 490.004 193.075L487.535 194.78ZM491.305 208.17H488.305C488.305 215.038 485.667 220.226 480.325 224.063L482.075 226.5L483.826 228.937C490.791 223.934 494.305 216.902 494.305 208.17H491.305ZM482.075 226.5L480.348 224.047C474.919 227.87 466.583 230 454.905 230V233V236C467.148 236 476.925 233.796 483.803 228.953L482.075 226.5ZM454.905 233V230H407.845V233V236H454.905V233ZM428.775 217.14V220.14H453.345V217.14V214.14H428.775V217.14ZM453.345 217.14V220.14C459.032 220.14 463.814 219.254 467.285 217.084L465.695 214.54L464.105 211.996C462.03 213.293 458.579 214.14 453.345 214.14V217.14ZM465.695 214.54L467.306 217.071C471.174 214.61 472.985 210.704 472.985 205.96H469.985H466.985C466.985 209.016 465.937 210.83 464.085 212.009L465.695 214.54ZM469.985 205.96H472.985C472.985 201.272 471.152 197.426 467.306 194.979L465.695 197.51L464.085 200.041C465.959 201.234 466.985 203.021 466.985 205.96H469.985ZM465.695 197.51L467.395 195.038C463.898 192.634 459.068 191.65 453.345 191.65V194.65V197.65C458.543 197.65 461.946 198.573 463.996 199.982L465.695 197.51ZM453.345 194.65V191.65H427.215V194.65V197.65H453.345V194.65ZM427.215 194.65H430.215V179.31H427.215H424.215V194.65H427.215ZM427.215 179.31V182.31H449.705V179.31V176.31H427.215V179.31ZM449.705 179.31V182.31C455.081 182.31 459.65 181.413 463.032 179.231L461.405 176.71L459.779 174.189C457.787 175.474 454.557 176.31 449.705 176.31V179.31ZM461.405 176.71L463.051 179.218C466.763 176.783 468.565 173.054 468.565 168.52H465.565H462.565C462.565 171.266 461.595 172.997 459.759 174.202L461.405 176.71ZM465.565 168.52H468.565C468.565 164.04 466.733 160.382 462.995 158.046L461.405 160.59L459.815 163.134C461.624 164.265 462.565 165.894 462.565 168.52H465.565ZM461.405 160.59L463.088 158.106C459.694 155.807 455.1 154.86 449.705 154.86V157.86V160.86C454.537 160.86 457.743 161.733 459.723 163.074L461.405 160.59ZM449.705 157.86V154.86H428.775V157.86V160.86H449.705V157.86ZM428.775 157.86H425.775V217.14H428.775H431.775V157.86H428.775ZM538.32 178.66V175.66H535.32V178.66H538.32ZM582.13 178.66H585.13V175.66H582.13V178.66ZM582.13 195.04V198.04H585.13V195.04H582.13ZM538.32 195.04H535.32V198.04H538.32V195.04ZM539.88 216.1H536.88V219.1H539.88V216.1ZM589.41 216.1H592.41V213.1H589.41V216.1ZM589.41 233V236H592.41V233H589.41ZM518.95 233H515.95V236H518.95V233ZM518.95 142V139H515.95V142H518.95ZM587.72 142H590.72V139H587.72V142ZM587.72 158.9V161.9H590.72V158.9H587.72ZM539.88 158.9V155.9H536.88V158.9H539.88ZM538.32 178.66V181.66H582.13V178.66V175.66H538.32V178.66ZM582.13 178.66H579.13V195.04H582.13H585.13V178.66H582.13ZM582.13 195.04V192.04H538.32V195.04V198.04H582.13V195.04ZM538.32 195.04H541.32V178.66H538.32H535.32V195.04H538.32ZM539.88 216.1V219.1H589.41V216.1V213.1H539.88V216.1ZM589.41 216.1H586.41V233H589.41H592.41V216.1H589.41ZM589.41 233V230H518.95V233V236H589.41V233ZM518.95 233H521.95V142H518.95H515.95V233H518.95ZM518.95 142V145H587.72V142V139H518.95V142ZM587.72 142H584.72V158.9H587.72H590.72V142H587.72ZM587.72 158.9V155.9H539.88V158.9V161.9H587.72V158.9ZM539.88 158.9H536.88V216.1H539.88H542.88V158.9H539.88ZM626.837 231.7L625.978 234.575L625.995 234.58L626.012 234.585L626.837 231.7ZM610.717 224.03L607.982 222.797L607.004 224.965L608.892 226.412L610.717 224.03ZM617.867 208.17L619.605 205.725L616.631 203.61L615.132 206.937L617.867 208.17ZM631.647 215.06L630.67 217.897L630.698 217.906L630.726 217.915L631.647 215.06ZM657.907 216.49L658.796 219.355L658.826 219.346L658.855 219.336L657.907 216.49ZM663.627 212.98L661.311 211.073L663.627 212.98ZM662.587 202.19L660.752 204.564L660.787 204.591L660.822 204.616L662.587 202.19ZM655.047 198.68L654.17 201.549L654.207 201.56L654.244 201.571L655.047 198.68ZM644.647 196.08L643.967 199.002L644.006 199.011L644.045 199.019L644.647 196.08ZM633.337 192.96L632.408 195.813L632.417 195.816L632.427 195.819L633.337 192.96ZM623.067 188.28L621.502 190.84L623.067 188.28ZM615.397 180.74L612.837 182.304L612.852 182.33L612.868 182.355L615.397 180.74ZM616.697 154.61L614.193 152.957L614.189 152.964L614.185 152.97L616.697 154.61ZM629.437 144.34L630.659 147.08L630.668 147.075L630.678 147.071L629.437 144.34ZM667.787 142.52L667.059 145.43L667.08 145.436L667.102 145.441L667.787 142.52ZM682.477 148.5L685.256 149.63L686.2 147.306L684.08 145.965L682.477 148.5ZM675.977 164.49L674.488 167.095L677.465 168.796L678.756 165.62L675.977 164.49ZM663.237 159.16L662.412 162.045L662.44 162.052L662.467 162.06L663.237 159.16ZM640.747 158.77L639.714 155.953H639.714L640.747 158.77ZM635.157 162.54L637.54 164.362L637.565 164.33L637.589 164.296L635.157 162.54ZM636.327 173.46L634.492 175.834L634.527 175.861L634.562 175.886L636.327 173.46ZM643.867 176.84L643.064 179.731L643.867 176.84ZM654.137 179.44L653.457 182.362L653.464 182.364L653.472 182.365L654.137 179.44ZM665.447 182.43L664.578 185.302L664.587 185.304L664.596 185.307L665.447 182.43ZM675.847 186.98L677.411 184.42V184.42L675.847 186.98ZM683.387 194.52L680.827 196.084L680.842 196.11L680.858 196.135L683.387 194.52ZM682.087 220.39L684.575 222.066L682.087 220.39ZM669.217 230.66L667.975 227.929L667.967 227.932L667.959 227.936L669.217 230.66ZM647.767 234.56V231.56C640.752 231.56 634.053 230.642 627.661 228.815L626.837 231.7L626.012 234.585C632.967 236.571 640.221 237.56 647.767 237.56V234.56ZM626.837 231.7L627.695 228.825C621.254 226.902 616.242 224.483 612.541 221.648L610.717 224.03L608.892 226.412C613.338 229.817 619.072 232.512 625.978 234.575L626.837 231.7ZM610.717 224.03L613.451 225.263L620.601 209.403L617.867 208.17L615.132 206.937L607.982 222.797L610.717 224.03ZM617.867 208.17L616.128 210.615C620.297 213.58 625.156 215.998 630.67 217.897L631.647 215.06L632.623 212.223C627.563 210.482 623.236 208.307 619.605 205.725L617.867 208.17ZM631.647 215.06L630.726 217.915C636.386 219.741 642.113 220.66 647.897 220.66V217.66V214.66C642.76 214.66 637.654 213.846 632.568 212.205L631.647 215.06ZM647.897 217.66V220.66C652.205 220.66 655.878 220.261 658.796 219.355L657.907 216.49L657.017 213.625C654.909 214.279 651.909 214.66 647.897 214.66V217.66ZM657.907 216.49L658.855 219.336C661.769 218.365 664.247 216.946 665.942 214.887L663.627 212.98L661.311 211.073C660.58 211.961 659.244 212.882 656.958 213.644L657.907 216.49ZM663.627 212.98L665.942 214.887C667.597 212.877 668.447 210.513 668.447 207.91H665.447H662.447C662.447 209.12 662.082 210.136 661.311 211.073L663.627 212.98ZM665.447 207.91H668.447C668.447 204.557 667.06 201.734 664.351 199.764L662.587 202.19L660.822 204.616C661.926 205.419 662.447 206.41 662.447 207.91H665.447ZM662.587 202.19L664.421 199.816C662.121 198.039 659.222 196.726 655.849 195.789L655.047 198.68L654.244 201.571C657.111 202.367 659.239 203.394 660.752 204.564L662.587 202.19ZM655.047 198.68L655.923 195.811C652.697 194.825 649.137 193.936 645.248 193.141L644.647 196.08L644.045 199.019C647.783 199.784 651.156 200.628 654.17 201.549L655.047 198.68ZM644.647 196.08L645.326 193.158C641.68 192.31 637.987 191.292 634.246 190.101L633.337 192.96L632.427 195.819C636.313 197.055 640.159 198.117 643.967 199.002L644.647 196.08ZM633.337 192.96L634.265 190.107C630.745 188.961 627.537 187.496 624.631 185.72L623.067 188.28L621.502 190.84C624.836 192.877 628.474 194.532 632.408 195.813L633.337 192.96ZM623.067 188.28L624.631 185.72C621.905 184.054 619.676 181.866 617.925 179.125L615.397 180.74L612.868 182.355C615.104 185.854 617.988 188.692 621.502 190.84L623.067 188.28ZM615.397 180.74L617.956 179.176C616.417 176.657 615.537 173.257 615.537 168.78H612.537H609.537C609.537 174.009 610.562 178.583 612.837 182.304L615.397 180.74ZM612.537 168.78H615.537C615.537 164.147 616.762 159.996 619.208 156.25L616.697 154.61L614.185 152.97C611.084 157.717 609.537 163.013 609.537 168.78H612.537ZM616.697 154.61L619.2 156.263C621.69 152.49 625.448 149.405 630.659 147.08L629.437 144.34L628.214 141.6C622.158 144.302 617.423 148.064 614.193 152.957L616.697 154.61ZM629.437 144.34L630.678 147.071C635.893 144.701 642.587 143.44 650.887 143.44V140.44V137.44C642.026 137.44 634.42 138.779 628.195 141.609L629.437 144.34ZM650.887 140.44V143.44C656.361 143.44 661.75 144.103 667.059 145.43L667.787 142.52L668.514 139.61C662.729 138.163 656.852 137.44 650.887 137.44V140.44ZM667.787 142.52L667.102 145.441C672.366 146.675 676.944 148.55 680.873 151.035L682.477 148.5L684.08 145.965C679.516 143.077 674.301 140.965 668.471 139.599L667.787 142.52ZM682.477 148.5L679.697 147.37L673.197 163.36L675.977 164.49L678.756 165.62L685.256 149.63L682.477 148.5ZM675.977 164.49L677.465 161.885C673.018 159.344 668.531 157.461 664.006 156.26L663.237 159.16L662.467 162.06C666.436 163.113 670.442 164.783 674.488 167.095L675.977 164.49ZM663.237 159.16L664.061 156.275C659.568 154.992 655.131 154.34 650.757 154.34V157.34V160.34C654.529 160.34 658.411 160.901 662.412 162.045L663.237 159.16ZM650.757 157.34V154.34C646.481 154.34 642.761 154.836 639.714 155.953L640.747 158.77L641.779 161.587C643.932 160.797 646.885 160.34 650.757 160.34V157.34ZM640.747 158.77L639.714 155.953C636.788 157.026 634.324 158.569 632.724 160.784L635.157 162.54L637.589 164.296C638.242 163.391 639.506 162.42 641.779 161.587L640.747 158.77ZM635.157 162.54L632.773 160.718C631.216 162.754 630.467 165.14 630.467 167.74H633.467H636.467C636.467 166.353 636.844 165.272 637.54 164.362L635.157 162.54ZM633.467 167.74H630.467C630.467 171.041 631.876 173.812 634.492 175.834L636.327 173.46L638.161 171.086C636.964 170.161 636.467 169.119 636.467 167.74H633.467ZM636.327 173.46L634.562 175.886C636.845 177.547 639.718 178.801 643.064 179.731L643.867 176.84L644.669 173.949C641.775 173.145 639.621 172.147 638.091 171.034L636.327 173.46ZM643.867 176.84L643.064 179.731C646.231 180.61 649.696 181.487 653.457 182.362L654.137 179.44L654.816 176.518C651.124 175.659 647.742 174.803 644.669 173.949L643.867 176.84ZM654.137 179.44L653.472 182.365C657.217 183.217 660.919 184.195 664.578 185.302L665.447 182.43L666.315 179.558C662.521 178.411 658.683 177.397 654.801 176.515L654.137 179.44ZM665.447 182.43L664.596 185.307C668.181 186.366 671.404 187.781 674.282 189.54L675.847 186.98L677.411 184.42C674.049 182.366 670.339 180.747 666.297 179.553L665.447 182.43ZM675.847 186.98L674.282 189.54C676.996 191.198 679.168 193.37 680.827 196.084L683.387 194.52L685.946 192.956C683.792 189.43 680.937 186.575 677.411 184.42L675.847 186.98ZM683.387 194.52L680.858 196.135C682.466 198.652 683.377 201.993 683.377 206.35H686.377H689.377C689.377 201.173 688.293 196.628 685.915 192.905L683.387 194.52ZM686.377 206.35H683.377C683.377 210.865 682.125 214.962 679.598 218.714L682.087 220.39L684.575 222.066C687.768 217.325 689.377 212.061 689.377 206.35H686.377ZM682.087 220.39L679.598 218.714C677.112 222.406 673.305 225.506 667.975 227.929L669.217 230.66L670.458 233.391C676.568 230.614 681.341 226.867 684.575 222.066L682.087 220.39ZM669.217 230.66L667.959 227.936C662.844 230.297 656.16 231.56 647.767 231.56V234.56V237.56C656.706 237.56 664.322 236.223 670.474 233.384L669.217 230.66Z" fill="white" mask="url(#path-1-outside-1_1032_3)"/>
<mask id="path-3-outside-2_1032_3" maskUnits="userSpaceOnUse" x="0" y="240" width="694" height="109" fill="black">
<rect fill="white" y="240" width="694" height="109"/>
<path d="M56.363 341.56C49.343 341.56 42.7997 340.433 36.733 338.18C30.753 335.84 25.553 332.547 21.133 328.3C16.713 324.053 13.2464 319.07 10.733 313.35C8.30637 307.63 7.09304 301.347 7.09304 294.5C7.09304 287.653 8.30637 281.37 10.733 275.65C13.2464 269.93 16.713 264.947 21.133 260.7C25.6397 256.453 30.883 253.203 36.863 250.95C42.843 248.61 49.3864 247.44 56.493 247.44C64.3797 247.44 71.4864 248.827 77.813 251.6C84.2264 254.287 89.5997 258.273 93.933 263.56L80.413 276.04C77.293 272.487 73.8264 269.843 70.013 268.11C66.1997 266.29 62.0397 265.38 57.533 265.38C53.2864 265.38 49.3864 266.073 45.833 267.46C42.2797 268.847 39.203 270.84 36.603 273.44C34.003 276.04 31.9664 279.117 30.493 282.67C29.1064 286.223 28.413 290.167 28.413 294.5C28.413 298.833 29.1064 302.777 30.493 306.33C31.9664 309.883 34.003 312.96 36.603 315.56C39.203 318.16 42.2797 320.153 45.833 321.54C49.3864 322.927 53.2864 323.62 57.533 323.62C62.0397 323.62 66.1997 322.753 70.013 321.02C73.8264 319.2 77.293 316.47 80.413 312.83L93.933 325.31C89.5997 330.597 84.2264 334.627 77.813 337.4C71.4864 340.173 64.3364 341.56 56.363 341.56ZM139.225 285.66H183.035V302.04H139.225V285.66ZM140.785 323.1H190.315V340H119.855V249H188.625V265.9H140.785V323.1ZM218.772 340V249H239.832V322.84H285.462V340H218.772ZM328.299 285.66H372.109V302.04H328.299V285.66ZM329.859 323.1H379.389V340H308.929V249H377.699V265.9H329.859V323.1ZM407.845 340V249H452.305C463.745 249 472.325 251.167 478.045 255.5C483.852 259.833 486.755 265.553 486.755 272.66C486.755 277.427 485.585 281.587 483.245 285.14C480.905 288.607 477.699 291.293 473.625 293.2C469.552 295.107 464.872 296.06 459.585 296.06L462.055 290.73C467.775 290.73 472.845 291.683 477.265 293.59C481.685 295.41 485.109 298.14 487.535 301.78C490.049 305.42 491.305 309.883 491.305 315.17C491.305 322.97 488.229 329.08 482.075 333.5C475.922 337.833 466.865 340 454.905 340H407.845ZM428.775 324.14H453.345C458.805 324.14 462.922 323.273 465.695 321.54C468.555 319.72 469.985 316.86 469.985 312.96C469.985 309.147 468.555 306.33 465.695 304.51C462.922 302.603 458.805 301.65 453.345 301.65H427.215V286.31H449.705C454.819 286.31 458.719 285.443 461.405 283.71C464.179 281.89 465.565 279.16 465.565 275.52C465.565 271.967 464.179 269.323 461.405 267.59C458.719 265.77 454.819 264.86 449.705 264.86H428.775V324.14ZM538.32 285.66H582.13V302.04H538.32V285.66ZM539.88 323.1H589.41V340H518.95V249H587.72V265.9H539.88V323.1ZM647.767 341.56C640.487 341.56 633.51 340.607 626.837 338.7C620.163 336.707 614.79 334.15 610.717 331.03L617.867 315.17C621.767 317.943 626.36 320.24 631.647 322.06C637.02 323.793 642.437 324.66 647.897 324.66C652.057 324.66 655.393 324.27 657.907 323.49C660.507 322.623 662.413 321.453 663.627 319.98C664.84 318.507 665.447 316.817 665.447 314.91C665.447 312.483 664.493 310.577 662.587 309.19C660.68 307.717 658.167 306.547 655.047 305.68C651.927 304.727 648.46 303.86 644.647 303.08C640.92 302.213 637.15 301.173 633.337 299.96C629.61 298.747 626.187 297.187 623.067 295.28C619.947 293.373 617.39 290.86 615.397 287.74C613.49 284.62 612.537 280.633 612.537 275.78C612.537 270.58 613.923 265.857 616.697 261.61C619.557 257.277 623.803 253.853 629.437 251.34C635.157 248.74 642.307 247.44 650.887 247.44C656.607 247.44 662.24 248.133 667.787 249.52C673.333 250.82 678.23 252.813 682.477 255.5L675.977 271.49C671.73 269.063 667.483 267.287 663.237 266.16C658.99 264.947 654.83 264.34 650.757 264.34C646.683 264.34 643.347 264.817 640.747 265.77C638.147 266.723 636.283 267.98 635.157 269.54C634.03 271.013 633.467 272.747 633.467 274.74C633.467 277.08 634.42 278.987 636.327 280.46C638.233 281.847 640.747 282.973 643.867 283.84C646.987 284.707 650.41 285.573 654.137 286.44C657.95 287.307 661.72 288.303 665.447 289.43C669.26 290.557 672.727 292.073 675.847 293.98C678.967 295.887 681.48 298.4 683.387 301.52C685.38 304.64 686.377 308.583 686.377 313.35C686.377 318.463 684.947 323.143 682.087 327.39C679.227 331.637 674.937 335.06 669.217 337.66C663.583 340.26 656.433 341.56 647.767 341.56Z"/>
</mask>
<path d="M36.733 338.18L34.1822 344.699L34.2388 344.721L34.2957 344.742L36.733 338.18ZM21.133 328.3L16.2833 333.348H16.2833L21.133 328.3ZM10.733 313.35L4.28897 316.084L4.30642 316.125L4.3244 316.166L10.733 313.35ZM10.733 275.65L4.3244 272.834L4.30642 272.875L4.28897 272.916L10.733 275.65ZM21.133 260.7L16.3324 255.605L16.3077 255.629L16.2833 255.652L21.133 260.7ZM36.863 250.95L39.3313 257.5L39.3727 257.485L39.4138 257.469L36.863 250.95ZM77.813 251.6L75.0027 258.011L75.0553 258.034L75.1084 258.056L77.813 251.6ZM93.933 263.56L98.681 268.704L103.531 264.227L99.3468 259.123L93.933 263.56ZM80.413 276.04L75.153 280.659L79.8879 286.051L85.161 281.184L80.413 276.04ZM70.013 268.11L66.9979 274.427L67.0569 274.456L67.1164 274.483L70.013 268.11ZM36.603 273.44L41.5528 278.39L36.603 273.44ZM30.493 282.67L24.0268 279.989L23.9987 280.057L23.972 280.125L30.493 282.67ZM30.493 306.33L23.972 308.875L23.9987 308.943L24.0268 309.011L30.493 306.33ZM36.603 315.56L31.6533 320.51H31.6533L36.603 315.56ZM70.013 321.02L72.9097 327.393L72.9692 327.366L73.0281 327.337L70.013 321.02ZM80.413 312.83L85.161 307.686L79.8246 302.76L75.0983 308.274L80.413 312.83ZM93.933 325.31L99.3468 329.747L103.531 324.643L98.681 320.166L93.933 325.31ZM77.813 337.4L75.0347 330.975L75.0187 330.982L75.0027 330.989L77.813 337.4ZM56.363 341.56V334.56C50.1044 334.56 44.3935 333.558 39.1703 331.618L36.733 338.18L34.2957 344.742C41.206 347.309 48.5817 348.56 56.363 348.56V341.56ZM36.733 338.18L39.2838 331.661C34.1178 329.64 29.7091 326.832 25.9828 323.252L21.133 328.3L16.2833 333.348C21.397 338.261 27.3883 342.04 34.1822 344.699L36.733 338.18ZM21.133 328.3L25.9828 323.252C22.2364 319.653 19.2937 315.432 17.1417 310.534L10.733 313.35L4.3244 316.166C7.19901 322.708 11.1897 328.454 16.2833 333.348L21.133 328.3ZM10.733 313.35L17.1771 310.616C15.1531 305.845 14.093 300.503 14.093 294.5H7.09304H0.0930408C0.0930408 302.19 1.45965 309.415 4.28897 316.084L10.733 313.35ZM7.09304 294.5H14.093C14.093 288.497 15.1531 283.155 17.1771 278.384L10.733 275.65L4.28897 272.916C1.45965 279.585 0.0930408 286.81 0.0930408 294.5H7.09304ZM10.733 275.65L17.1417 278.466C19.2937 273.568 22.2364 269.347 25.9828 265.748L21.133 260.7L16.2833 255.652C11.1897 260.546 7.19901 266.292 4.3244 272.834L10.733 275.65ZM21.133 260.7L25.9336 265.795C29.7451 262.203 34.189 259.438 39.3313 257.5L36.863 250.95L34.3948 244.4C27.5771 246.969 21.5343 250.704 16.3324 255.605L21.133 260.7ZM36.863 250.95L39.4138 257.469C44.4986 255.479 50.1662 254.44 56.493 254.44V247.44V240.44C48.6066 240.44 41.1875 241.741 34.3123 244.431L36.863 250.95ZM56.493 247.44V254.44C63.5489 254.44 69.6791 255.677 75.0027 258.011L77.813 251.6L80.6234 245.189C73.2936 241.976 65.2105 240.44 56.493 240.44V247.44ZM77.813 251.6L75.1084 258.056C80.4863 260.309 84.9235 263.611 88.5193 267.997L93.933 263.56L99.3468 259.123C94.2759 252.936 87.9665 248.264 80.5177 245.144L77.813 251.6ZM93.933 263.56L89.1851 258.416L75.6651 270.896L80.413 276.04L85.161 281.184L98.681 268.704L93.933 263.56ZM80.413 276.04L85.6731 271.421C81.983 267.219 77.7359 263.931 72.9097 261.737L70.013 268.11L67.1164 274.483C69.9168 275.755 72.6031 277.755 75.153 280.659L80.413 276.04ZM70.013 268.11L73.0281 261.793C68.2112 259.494 63.0121 258.38 57.533 258.38V265.38V272.38C61.0673 272.38 64.1882 273.086 66.9979 274.427L70.013 268.11ZM57.533 265.38V258.38C52.5141 258.38 47.7396 259.202 43.2882 260.939L45.833 267.46L48.3778 273.981C51.0332 272.945 54.0586 272.38 57.533 272.38V265.38ZM45.833 267.46L43.2882 260.939C38.8677 262.664 34.9634 265.18 31.6533 268.49L36.603 273.44L41.5528 278.39C43.4427 276.5 45.6917 275.029 48.3778 273.981L45.833 267.46ZM36.603 273.44L31.6533 268.49C28.3741 271.769 25.8354 275.627 24.0268 279.989L30.493 282.67L36.9592 285.351C38.0973 282.606 39.632 280.311 41.5528 278.39L36.603 273.44ZM30.493 282.67L23.972 280.125C22.2287 284.592 21.413 289.413 21.413 294.5H28.413H35.413C35.413 290.92 35.984 287.854 37.0141 285.215L30.493 282.67ZM28.413 294.5H21.413C21.413 299.587 22.2287 304.408 23.972 308.875L30.493 306.33L37.0141 303.785C35.984 301.146 35.413 298.08 35.413 294.5H28.413ZM30.493 306.33L24.0268 309.011C25.8354 313.373 28.3741 317.231 31.6533 320.51L36.603 315.56L41.5528 310.61C39.632 308.689 38.0973 306.394 36.9592 303.649L30.493 306.33ZM36.603 315.56L31.6533 320.51C34.9634 323.82 38.8677 326.336 43.2882 328.061L45.833 321.54L48.3778 315.019C45.6917 313.971 43.4427 312.5 41.5528 310.61L36.603 315.56ZM45.833 321.54L43.2882 328.061C47.7396 329.798 52.5141 330.62 57.533 330.62V323.62V316.62C54.0586 316.62 51.0332 316.055 48.3778 315.019L45.833 321.54ZM57.533 323.62V330.62C62.962 330.62 68.1191 329.57 72.9097 327.393L70.013 321.02L67.1164 314.647C64.2804 315.937 61.1175 316.62 57.533 316.62V323.62ZM70.013 321.02L73.0281 327.337C77.8337 325.044 82.0579 321.667 85.7278 317.386L80.413 312.83L75.0983 308.274C72.5282 311.273 69.819 313.356 66.9979 314.703L70.013 321.02ZM80.413 312.83L75.6651 317.974L89.1851 330.454L93.933 325.31L98.681 320.166L85.161 307.686L80.413 312.83ZM93.933 325.31L88.5193 320.873C84.9095 325.276 80.4473 328.634 75.0347 330.975L77.813 337.4L80.5914 343.825C88.0055 340.619 94.2899 335.917 99.3468 329.747L93.933 325.31ZM77.813 337.4L75.0027 330.989C69.6884 333.318 63.5172 334.56 56.363 334.56V341.56V348.56C65.1556 348.56 73.2844 347.028 80.6234 343.811L77.813 337.4ZM139.225 285.66V278.66H132.225V285.66H139.225ZM183.035 285.66H190.035V278.66H183.035V285.66ZM183.035 302.04V309.04H190.035V302.04H183.035ZM139.225 302.04H132.225V309.04H139.225V302.04ZM140.785 323.1H133.785V330.1H140.785V323.1ZM190.315 323.1H197.315V316.1H190.315V323.1ZM190.315 340V347H197.315V340H190.315ZM119.855 340H112.855V347H119.855V340ZM119.855 249V242H112.855V249H119.855ZM188.625 249H195.625V242H188.625V249ZM188.625 265.9V272.9H195.625V265.9H188.625ZM140.785 265.9V258.9H133.785V265.9H140.785ZM139.225 285.66V292.66H183.035V285.66V278.66H139.225V285.66ZM183.035 285.66H176.035V302.04H183.035H190.035V285.66H183.035ZM183.035 302.04V295.04H139.225V302.04V309.04H183.035V302.04ZM139.225 302.04H146.225V285.66H139.225H132.225V302.04H139.225ZM140.785 323.1V330.1H190.315V323.1V316.1H140.785V323.1ZM190.315 323.1H183.315V340H190.315H197.315V323.1H190.315ZM190.315 340V333H119.855V340V347H190.315V340ZM119.855 340H126.855V249H119.855H112.855V340H119.855ZM119.855 249V256H188.625V249V242H119.855V249ZM188.625 249H181.625V265.9H188.625H195.625V249H188.625ZM188.625 265.9V258.9H140.785V265.9V272.9H188.625V265.9ZM140.785 265.9H133.785V323.1H140.785H147.785V265.9H140.785ZM218.772 340H211.772V347H218.772V340ZM218.772 249V242H211.772V249H218.772ZM239.832 249H246.832V242H239.832V249ZM239.832 322.84H232.832V329.84H239.832V322.84ZM285.462 322.84H292.462V315.84H285.462V322.84ZM285.462 340V347H292.462V340H285.462ZM218.772 340H225.772V249H218.772H211.772V340H218.772ZM218.772 249V256H239.832V249V242H218.772V249ZM239.832 249H232.832V322.84H239.832H246.832V249H239.832ZM239.832 322.84V329.84H285.462V322.84V315.84H239.832V322.84ZM285.462 322.84H278.462V340H285.462H292.462V322.84H285.462ZM285.462 340V333H218.772V340V347H285.462V340ZM328.299 285.66V278.66H321.299V285.66H328.299ZM372.109 285.66H379.109V278.66H372.109V285.66ZM372.109 302.04V309.04H379.109V302.04H372.109ZM328.299 302.04H321.299V309.04H328.299V302.04ZM329.859 323.1H322.859V330.1H329.859V323.1ZM379.389 323.1H386.389V316.1H379.389V323.1ZM379.389 340V347H386.389V340H379.389ZM308.929 340H301.929V347H308.929V340ZM308.929 249V242H301.929V249H308.929ZM377.699 249H384.699V242H377.699V249ZM377.699 265.9V272.9H384.699V265.9H377.699ZM329.859 265.9V258.9H322.859V265.9H329.859ZM328.299 285.66V292.66H372.109V285.66V278.66H328.299V285.66ZM372.109 285.66H365.109V302.04H372.109H379.109V285.66H372.109ZM372.109 302.04V295.04H328.299V302.04V309.04H372.109V302.04ZM328.299 302.04H335.299V285.66H328.299H321.299V302.04H328.299ZM329.859 323.1V330.1H379.389V323.1V316.1H329.859V323.1ZM379.389 323.1H372.389V340H379.389H386.389V323.1H379.389ZM379.389 340V333H308.929V340V347H379.389V340ZM308.929 340H315.929V249H308.929H301.929V340H308.929ZM308.929 249V256H377.699V249V242H308.929V249ZM377.699 249H370.699V265.9H377.699H384.699V249H377.699ZM377.699 265.9V258.9H329.859V265.9V272.9H377.699V265.9ZM329.859 265.9H322.859V323.1H329.859H336.859V265.9H329.859ZM407.845 340H400.845V347H407.845V340ZM407.845 249V242H400.845V249H407.845ZM478.045 255.5L473.818 261.08L473.839 261.095L473.859 261.11L478.045 255.5ZM483.245 285.14L489.047 289.056L489.07 289.023L489.092 288.99L483.245 285.14ZM473.625 293.2L476.593 299.54V299.54L473.625 293.2ZM459.585 296.06L453.234 293.117L448.626 303.06H459.585V296.06ZM462.055 290.73V283.73H457.584L455.704 287.787L462.055 290.73ZM477.265 293.59L474.493 300.017L474.546 300.041L474.6 300.063L477.265 293.59ZM487.535 301.78L481.711 305.663L481.743 305.71L481.775 305.757L487.535 301.78ZM482.075 333.5L486.106 339.223L486.133 339.204L486.159 339.185L482.075 333.5ZM428.775 324.14H421.775V331.14H428.775V324.14ZM465.695 321.54L469.405 327.476L469.43 327.461L469.454 327.446L465.695 321.54ZM465.695 304.51L461.73 310.278L461.832 310.349L461.937 310.416L465.695 304.51ZM427.215 301.65H420.215V308.65H427.215V301.65ZM427.215 286.31V279.31H420.215V286.31H427.215ZM461.405 283.71L465.2 289.592L465.223 289.577L465.246 289.562L461.405 283.71ZM461.405 267.59L457.48 273.385L457.586 273.458L457.695 273.526L461.405 267.59ZM428.775 264.86V257.86H421.775V264.86H428.775ZM407.845 340H414.845V249H407.845H400.845V340H407.845ZM407.845 249V256H452.305V249V242H407.845V249ZM452.305 249V256C463.061 256 469.848 258.072 473.818 261.08L478.045 255.5L482.272 249.92C474.803 244.261 464.43 242 452.305 242V249ZM478.045 255.5L473.859 261.11C477.936 264.152 479.755 267.813 479.755 272.66H486.755H493.755C493.755 263.294 489.768 255.514 482.232 249.89L478.045 255.5ZM486.755 272.66H479.755C479.755 276.229 478.898 279.014 477.399 281.29L483.245 285.14L489.092 288.99C492.273 284.159 493.755 278.625 493.755 272.66H486.755ZM483.245 285.14L477.444 281.224C475.865 283.562 473.674 285.448 470.658 286.86L473.625 293.2L476.593 299.54C481.723 297.138 485.946 293.651 489.047 289.056L483.245 285.14ZM473.625 293.2L470.658 286.86C467.663 288.262 464.025 289.06 459.585 289.06V296.06V303.06C465.719 303.06 471.442 301.951 476.593 299.54L473.625 293.2ZM459.585 296.06L465.937 299.003L468.407 293.673L462.055 290.73L455.704 287.787L453.234 293.117L459.585 296.06ZM462.055 290.73V297.73C466.998 297.73 471.097 298.553 474.493 300.017L477.265 293.59L480.038 287.163C474.594 284.814 468.552 283.73 462.055 283.73V290.73ZM477.265 293.59L474.6 300.063C477.858 301.404 480.128 303.288 481.711 305.663L487.535 301.78L493.36 297.897C490.09 292.992 485.513 289.416 479.931 287.117L477.265 293.59ZM487.535 301.78L481.775 305.757C483.334 308.015 484.305 311.021 484.305 315.17H491.305H498.305C498.305 308.745 496.763 302.825 493.296 297.803L487.535 301.78ZM491.305 315.17H484.305C484.305 320.795 482.251 324.755 477.992 327.815L482.075 333.5L486.159 339.185C494.206 333.405 498.305 325.145 498.305 315.17H491.305ZM482.075 333.5L478.045 327.777C473.582 330.92 466.206 333 454.905 333V340V347C467.525 347 478.263 344.747 486.106 339.223L482.075 333.5ZM454.905 340V333H407.845V340V347H454.905V340ZM428.775 324.14V331.14H453.345V324.14V317.14H428.775V324.14ZM453.345 324.14V331.14C459.334 331.14 465.003 330.228 469.405 327.476L465.695 321.54L461.985 315.604C460.841 316.319 458.277 317.14 453.345 317.14V324.14ZM465.695 321.54L469.454 327.446C474.665 324.129 476.985 318.83 476.985 312.96H469.985H462.985C462.985 314.89 462.446 315.311 461.937 315.634L465.695 321.54ZM469.985 312.96H476.985C476.985 307.107 474.614 301.888 469.454 298.604L465.695 304.51L461.937 310.416C462.497 310.772 462.985 311.187 462.985 312.96H469.985ZM465.695 304.51L469.661 298.742C465.199 295.674 459.418 294.65 453.345 294.65V301.65V308.65C458.193 308.65 460.645 309.533 461.73 310.278L465.695 304.51ZM453.345 301.65V294.65H427.215V301.65V308.65H453.345V301.65ZM427.215 301.65H434.215V286.31H427.215H420.215V301.65H427.215ZM427.215 286.31V293.31H449.705V286.31V279.31H427.215V286.31ZM449.705 286.31V293.31C455.43 293.31 460.892 292.371 465.2 289.592L461.405 283.71L457.611 277.828C456.545 278.515 454.208 279.31 449.705 279.31V286.31ZM461.405 283.71L465.246 289.562C470.208 286.306 472.565 281.247 472.565 275.52H465.565H458.565C458.565 277.073 458.15 277.474 457.565 277.858L461.405 283.71ZM465.565 275.52H472.565C472.565 269.803 470.139 264.794 465.115 261.654L461.405 267.59L457.695 273.526C458.133 273.799 458.264 274.006 458.327 274.124C458.402 274.269 458.565 274.661 458.565 275.52H465.565ZM461.405 267.59L465.331 261.795C460.995 258.857 455.476 257.86 449.705 257.86V264.86V271.86C454.162 271.86 456.443 272.683 457.48 273.385L461.405 267.59ZM449.705 264.86V257.86H428.775V264.86V271.86H449.705V264.86ZM428.775 264.86H421.775V324.14H428.775H435.775V264.86H428.775ZM538.32 285.66V278.66H531.32V285.66H538.32ZM582.13 285.66H589.13V278.66H582.13V285.66ZM582.13 302.04V309.04H589.13V302.04H582.13ZM538.32 302.04H531.32V309.04H538.32V302.04ZM539.88 323.1H532.88V330.1H539.88V323.1ZM589.41 323.1H596.41V316.1H589.41V323.1ZM589.41 340V347H596.41V340H589.41ZM518.95 340H511.95V347H518.95V340ZM518.95 249V242H511.95V249H518.95ZM587.72 249H594.72V242H587.72V249ZM587.72 265.9V272.9H594.72V265.9H587.72ZM539.88 265.9V258.9H532.88V265.9H539.88ZM538.32 285.66V292.66H582.13V285.66V278.66H538.32V285.66ZM582.13 285.66H575.13V302.04H582.13H589.13V285.66H582.13ZM582.13 302.04V295.04H538.32V302.04V309.04H582.13V302.04ZM538.32 302.04H545.32V285.66H538.32H531.32V302.04H538.32ZM539.88 323.1V330.1H589.41V323.1V316.1H539.88V323.1ZM589.41 323.1H582.41V340H589.41H596.41V323.1H589.41ZM589.41 340V333H518.95V340V347H589.41V340ZM518.95 340H525.95V249H518.95H511.95V340H518.95ZM518.95 249V256H587.72V249V242H518.95V249ZM587.72 249H580.72V265.9H587.72H594.72V249H587.72ZM587.72 265.9V258.9H539.88V265.9V272.9H587.72V265.9ZM539.88 265.9H532.88V323.1H539.88H546.88V265.9H539.88ZM626.837 338.7L624.833 345.407L624.873 345.419L624.914 345.431L626.837 338.7ZM610.717 331.03L604.335 328.153L602.054 333.212L606.46 336.587L610.717 331.03ZM617.867 315.17L621.923 309.465L614.984 304.531L611.485 312.293L617.867 315.17ZM631.647 322.06L629.368 328.679L629.432 328.701L629.497 328.722L631.647 322.06ZM657.907 323.49L659.981 330.175L660.051 330.154L660.12 330.131L657.907 323.49ZM663.627 319.98L658.223 315.53V315.53L663.627 319.98ZM662.587 309.19L658.306 314.729L658.387 314.791L658.469 314.851L662.587 309.19ZM655.047 305.68L653.001 312.374L653.087 312.401L653.173 312.425L655.047 305.68ZM644.647 303.08L643.061 309.898L643.152 309.919L643.244 309.938L644.647 303.08ZM633.337 299.96L631.169 306.616L631.192 306.623L631.214 306.63L633.337 299.96ZM623.067 295.28L619.416 301.253V301.253L623.067 295.28ZM615.397 287.74L609.424 291.39L609.46 291.45L609.498 291.509L615.397 287.74ZM616.697 261.61L610.854 257.754L610.845 257.768L610.836 257.782L616.697 261.61ZM629.437 251.34L632.289 257.733L632.311 257.723L632.333 257.713L629.437 251.34ZM667.787 249.52L666.089 256.311L666.139 256.324L666.189 256.335L667.787 249.52ZM682.477 255.5L688.961 258.136L691.165 252.714L686.219 249.584L682.477 255.5ZM675.977 271.49L672.504 277.568L679.449 281.536L682.461 274.126L675.977 271.49ZM663.237 266.16L661.313 272.891L661.377 272.909L661.441 272.926L663.237 266.16ZM640.747 265.77L638.337 259.198V259.198L640.747 265.77ZM635.157 269.54L640.717 273.792L640.775 273.716L640.831 273.638L635.157 269.54ZM636.327 280.46L632.046 285.999L632.127 286.061L632.209 286.121L636.327 280.46ZM643.867 283.84L641.993 290.585L643.867 283.84ZM654.137 286.44L652.551 293.258L652.568 293.262L652.585 293.266L654.137 286.44ZM665.447 289.43L663.421 296.13L663.442 296.137L663.463 296.143L665.447 289.43ZM675.847 293.98L679.497 288.007L675.847 293.98ZM683.387 301.52L677.414 305.17L677.45 305.23L677.488 305.289L683.387 301.52ZM682.087 327.39L687.893 331.3L682.087 327.39ZM669.217 337.66L666.32 331.287L666.302 331.296L666.283 331.304L669.217 337.66ZM647.767 341.56V334.56C641.105 334.56 634.778 333.689 628.76 331.969L626.837 338.7L624.914 345.431C632.242 347.525 639.868 348.56 647.767 348.56V341.56ZM626.837 338.7L628.84 331.993C622.709 330.161 618.178 327.927 614.973 325.473L610.717 331.03L606.46 336.587C611.402 340.373 617.617 343.252 624.833 345.407L626.837 338.7ZM610.717 331.03L617.098 333.907L624.248 318.047L617.867 315.17L611.485 312.293L604.335 328.153L610.717 331.03ZM617.867 315.17L613.81 320.875C618.339 324.095 623.552 326.676 629.368 328.679L631.647 322.06L633.925 315.441C629.168 313.804 625.195 311.792 621.923 309.465L617.867 315.17ZM631.647 322.06L629.497 328.722C635.541 330.672 641.682 331.66 647.897 331.66V324.66V317.66C643.191 317.66 638.498 316.915 633.796 315.398L631.647 322.06ZM647.897 324.66V331.66C652.402 331.66 656.523 331.249 659.981 330.175L657.907 323.49L655.832 316.805C654.263 317.291 651.711 317.66 647.897 317.66V324.66ZM657.907 323.49L660.12 330.131C663.452 329.02 666.691 327.27 669.03 324.43L663.627 319.98L658.223 315.53C658.135 315.637 657.561 316.227 655.693 316.849L657.907 323.49ZM663.627 319.98L669.03 324.43C671.274 321.705 672.447 318.442 672.447 314.91H665.447H658.447C658.447 315.191 658.405 315.309 658.223 315.53L663.627 319.98ZM665.447 314.91H672.447C672.447 310.321 670.483 306.278 666.704 303.529L662.587 309.19L658.469 314.851C658.511 314.882 658.536 314.903 658.548 314.914C658.56 314.925 658.56 314.926 658.553 314.917C658.545 314.908 658.532 314.892 658.516 314.869C658.5 314.845 658.485 314.819 658.471 314.79C658.457 314.762 658.446 314.738 658.44 314.718C658.433 314.699 658.431 314.689 658.431 314.692C658.432 314.696 658.447 314.762 658.447 314.91H665.447ZM662.587 309.19L666.867 303.651C664.043 301.469 660.63 299.966 656.92 298.935L655.047 305.68L653.173 312.425C655.703 313.127 657.317 313.964 658.306 314.729L662.587 309.19ZM655.047 305.68L657.092 298.986C653.725 297.957 650.039 297.038 646.049 296.222L644.647 303.08L643.244 309.938C646.88 310.682 650.128 311.497 653.001 312.374L655.047 305.68ZM644.647 303.08L646.232 296.262C642.694 295.439 639.103 294.449 635.459 293.29L633.337 299.96L631.214 306.63C635.196 307.898 639.145 308.987 643.061 309.898L644.647 303.08ZM633.337 299.96L635.504 293.304C632.259 292.248 629.339 290.909 626.717 289.307L623.067 295.28L619.416 301.253C623.034 303.464 626.961 305.246 631.169 306.616L633.337 299.96ZM623.067 295.28L626.717 289.307C624.516 287.962 622.724 286.207 621.295 283.971L615.397 287.74L609.498 291.509C612.056 295.513 615.377 298.785 619.416 301.253L623.067 295.28ZM615.397 287.74L621.37 284.09C620.32 282.373 619.537 279.756 619.537 275.78H612.537H605.537C605.537 281.511 606.659 286.867 609.424 291.39L615.397 287.74ZM612.537 275.78H619.537C619.537 271.903 620.547 268.516 622.557 265.438L616.697 261.61L610.836 257.782C607.299 263.197 605.537 269.257 605.537 275.78H612.537ZM616.697 261.61L622.539 265.466C624.536 262.44 627.641 259.806 632.289 257.733L629.437 251.34L626.584 244.947C619.965 247.901 614.577 252.113 610.854 257.754L616.697 261.61ZM629.437 251.34L632.333 257.713C636.875 255.648 642.962 254.44 650.887 254.44V247.44V240.44C641.651 240.44 633.438 241.832 626.54 244.967L629.437 251.34ZM650.887 247.44V254.44C656.034 254.44 661.098 255.063 666.089 256.311L667.787 249.52L669.484 242.729C663.382 241.203 657.179 240.44 650.887 240.44V247.44ZM667.787 249.52L666.189 256.335C671.076 257.481 675.229 259.198 678.734 261.416L682.477 255.5L686.219 249.584C681.231 246.429 675.59 244.159 669.384 242.705L667.787 249.52ZM682.477 255.5L675.992 252.864L669.492 268.854L675.977 271.49L682.461 274.126L688.961 258.136L682.477 255.5ZM675.977 271.49L679.45 265.412C674.734 262.718 669.927 260.693 665.032 259.394L663.237 266.16L661.441 272.926C665.039 273.88 668.725 275.409 672.504 277.568L675.977 271.49ZM663.237 266.16L665.16 259.429C660.34 258.052 655.533 257.34 650.757 257.34V264.34V271.34C654.127 271.34 657.64 271.841 661.313 272.891L663.237 266.16ZM650.757 264.34V257.34C646.212 257.34 641.981 257.862 638.337 259.198L640.747 265.77L643.156 272.342C644.712 271.772 647.154 271.34 650.757 271.34V264.34ZM640.747 265.77L638.337 259.198C634.975 260.43 631.712 262.354 629.482 265.442L635.157 269.54L640.831 273.638C640.855 273.606 641.318 273.016 643.156 272.342L640.747 265.77ZM635.157 269.54L629.596 265.288C627.464 268.076 626.467 271.332 626.467 274.74H633.467H640.467C640.467 274.161 640.596 273.951 640.717 273.792L635.157 269.54ZM633.467 274.74H626.467C626.467 279.322 628.484 283.246 632.046 285.999L636.327 280.46L640.607 274.921C640.485 274.827 640.432 274.768 640.419 274.752C640.408 274.739 640.422 274.754 640.443 274.795C640.463 274.836 640.473 274.869 640.475 274.88C640.477 274.889 640.467 274.848 640.467 274.74H633.467ZM636.327 280.46L632.209 286.121C634.994 288.146 638.347 289.572 641.993 290.585L643.867 283.84L645.74 277.095C643.146 276.375 641.472 275.547 640.444 274.799L636.327 280.46ZM643.867 283.84L641.993 290.585C645.224 291.482 648.745 292.373 652.551 293.258L654.137 286.44L655.722 279.622C652.075 278.774 648.749 277.931 645.74 277.095L643.867 283.84ZM654.137 286.44L652.585 293.266C656.24 294.096 659.851 295.051 663.421 296.13L665.447 289.43L667.472 282.73C663.588 281.555 659.66 280.517 655.688 279.614L654.137 286.44ZM665.447 289.43L663.463 296.143C666.742 297.112 669.641 298.391 672.196 299.953L675.847 293.98L679.497 288.007C675.812 285.756 671.778 284.002 667.43 282.717L665.447 289.43ZM675.847 293.98L672.196 299.953C674.369 301.281 676.086 302.998 677.414 305.17L683.387 301.52L689.359 297.87C686.874 293.802 683.564 290.493 679.497 288.007L675.847 293.98ZM683.387 301.52L677.488 305.289C678.582 307.001 679.377 309.54 679.377 313.35H686.377H693.377C693.377 307.627 692.178 302.279 689.285 297.751L683.387 301.52ZM686.377 313.35H679.377C679.377 317.068 678.363 320.387 676.28 323.48L682.087 327.39L687.893 331.3C691.53 325.9 693.377 319.858 693.377 313.35H686.377ZM682.087 327.39L676.28 323.48C674.292 326.432 671.129 329.102 666.32 331.287L669.217 337.66L672.113 344.033C678.744 341.018 684.161 336.841 687.893 331.3L682.087 327.39ZM669.217 337.66L666.283 331.304C661.859 333.346 655.796 334.56 647.767 334.56V341.56V348.56C657.07 348.56 665.308 347.174 672.15 344.016L669.217 337.66Z" fill="white" mask="url(#path-3-outside-2_1032_3)"/>
<mask id="path-5-outside-3_1032_3" maskUnits="userSpaceOnUse" x="0" y="26" width="694" height="109" fill="black">
<rect fill="white" y="26" width="694" height="109"/>
<path d="M56.363 127.56C49.343 127.56 42.7997 126.433 36.733 124.18C30.753 121.84 25.553 118.547 21.133 114.3C16.713 110.053 13.2464 105.07 10.733 99.35C8.30637 93.63 7.09304 87.3467 7.09304 80.5C7.09304 73.6533 8.30637 67.37 10.733 61.65C13.2464 55.93 16.713 50.9467 21.133 46.7C25.6397 42.4533 30.883 39.2033 36.863 36.95C42.843 34.61 49.3864 33.44 56.493 33.44C64.3797 33.44 71.4864 34.8267 77.813 37.6C84.2264 40.2867 89.5997 44.2733 93.933 49.56L80.413 62.04C77.293 58.4867 73.8264 55.8433 70.013 54.11C66.1997 52.29 62.0397 51.38 57.533 51.38C53.2864 51.38 49.3864 52.0733 45.833 53.46C42.2797 54.8467 39.203 56.84 36.603 59.44C34.003 62.04 31.9664 65.1167 30.493 68.67C29.1064 72.2233 28.413 76.1667 28.413 80.5C28.413 84.8333 29.1064 88.7767 30.493 92.33C31.9664 95.8833 34.003 98.96 36.603 101.56C39.203 104.16 42.2797 106.153 45.833 107.54C49.3864 108.927 53.2864 109.62 57.533 109.62C62.0397 109.62 66.1997 108.753 70.013 107.02C73.8264 105.2 77.293 102.47 80.413 98.83L93.933 111.31C89.5997 116.597 84.2264 120.627 77.813 123.4C71.4864 126.173 64.3364 127.56 56.363 127.56ZM139.225 71.66H183.035V88.04H139.225V71.66ZM140.785 109.1H190.315V126H119.855V35H188.625V51.9H140.785V109.1ZM218.772 126V35H239.832V108.84H285.462V126H218.772ZM328.299 71.66H372.109V88.04H328.299V71.66ZM329.859 109.1H379.389V126H308.929V35H377.699V51.9H329.859V109.1ZM407.845 126V35H452.305C463.745 35 472.325 37.1667 478.045 41.5C483.852 45.8333 486.755 51.5533 486.755 58.66C486.755 63.4267 485.585 67.5867 483.245 71.14C480.905 74.6067 477.699 77.2933 473.625 79.2C469.552 81.1067 464.872 82.06 459.585 82.06L462.055 76.73C467.775 76.73 472.845 77.6833 477.265 79.59C481.685 81.41 485.109 84.14 487.535 87.78C490.049 91.42 491.305 95.8833 491.305 101.17C491.305 108.97 488.229 115.08 482.075 119.5C475.922 123.833 466.865 126 454.905 126H407.845ZM428.775 110.14H453.345C458.805 110.14 462.922 109.273 465.695 107.54C468.555 105.72 469.985 102.86 469.985 98.96C469.985 95.1467 468.555 92.33 465.695 90.51C462.922 88.6033 458.805 87.65 453.345 87.65H427.215V72.31H449.705C454.819 72.31 458.719 71.4433 461.405 69.71C464.179 67.89 465.565 65.16 465.565 61.52C465.565 57.9667 464.179 55.3233 461.405 53.59C458.719 51.77 454.819 50.86 449.705 50.86H428.775V110.14ZM538.32 71.66H582.13V88.04H538.32V71.66ZM539.88 109.1H589.41V126H518.95V35H587.72V51.9H539.88V109.1ZM647.767 127.56C640.487 127.56 633.51 126.607 626.837 124.7C620.163 122.707 614.79 120.15 610.717 117.03L617.867 101.17C621.767 103.943 626.36 106.24 631.647 108.06C637.02 109.793 642.437 110.66 647.897 110.66C652.057 110.66 655.393 110.27 657.907 109.49C660.507 108.623 662.413 107.453 663.627 105.98C664.84 104.507 665.447 102.817 665.447 100.91C665.447 98.4833 664.493 96.5767 662.587 95.19C660.68 93.7167 658.167 92.5467 655.047 91.68C651.927 90.7267 648.46 89.86 644.647 89.08C640.92 88.2133 637.15 87.1733 633.337 85.96C629.61 84.7467 626.187 83.1867 623.067 81.28C619.947 79.3733 617.39 76.86 615.397 73.74C613.49 70.62 612.537 66.6333 612.537 61.78C612.537 56.58 613.923 51.8567 616.697 47.61C619.557 43.2767 623.803 39.8533 629.437 37.34C635.157 34.74 642.307 33.44 650.887 33.44C656.607 33.44 662.24 34.1333 667.787 35.52C673.333 36.82 678.23 38.8133 682.477 41.5L675.977 57.49C671.73 55.0633 667.483 53.2867 663.237 52.16C658.99 50.9467 654.83 50.34 650.757 50.34C646.683 50.34 643.347 50.8167 640.747 51.77C638.147 52.7233 636.283 53.98 635.157 55.54C634.03 57.0133 633.467 58.7467 633.467 60.74C633.467 63.08 634.42 64.9867 636.327 66.46C638.233 67.8467 640.747 68.9733 643.867 69.84C646.987 70.7067 650.41 71.5733 654.137 72.44C657.95 73.3067 661.72 74.3033 665.447 75.43C669.26 76.5567 672.727 78.0733 675.847 79.98C678.967 81.8867 681.48 84.4 683.387 87.52C685.38 90.64 686.377 94.5833 686.377 99.35C686.377 104.463 684.947 109.143 682.087 113.39C679.227 117.637 674.937 121.06 669.217 123.66C663.583 126.26 656.433 127.56 647.767 127.56Z"/>
</mask>
<path d="M36.733 124.18L34.1822 130.699L34.2388 130.721L34.2957 130.742L36.733 124.18ZM21.133 114.3L16.2833 119.348H16.2833L21.133 114.3ZM10.733 99.35L4.28897 102.084L4.30642 102.125L4.3244 102.166L10.733 99.35ZM10.733 61.65L4.3244 58.8341L4.30642 58.875L4.28897 58.9161L10.733 61.65ZM21.133 46.7L16.3324 41.6055L16.3077 41.6287L16.2833 41.6523L21.133 46.7ZM36.863 36.95L39.3313 43.5004L39.3727 43.4848L39.4138 43.4687L36.863 36.95ZM77.813 37.6L75.0027 44.0111L75.0553 44.0342L75.1084 44.0564L77.813 37.6ZM93.933 49.56L98.681 54.7036L103.531 50.2269L99.3468 45.1225L93.933 49.56ZM80.413 62.04L75.153 66.6586L79.8879 72.0511L85.161 67.1836L80.413 62.04ZM70.013 54.11L66.9979 60.4274L67.0569 60.4555L67.1164 60.4826L70.013 54.11ZM36.603 59.44L41.5528 64.3897L36.603 59.44ZM30.493 68.67L24.0268 65.9889L23.9987 66.0568L23.972 66.1252L30.493 68.67ZM30.493 92.33L23.972 94.8748L23.9987 94.9432L24.0268 95.0111L30.493 92.33ZM36.603 101.56L31.6533 106.51H31.6533L36.603 101.56ZM70.013 107.02L72.9097 113.393L72.9692 113.366L73.0281 113.337L70.013 107.02ZM80.413 98.83L85.161 93.6864L79.8246 88.7604L75.0983 94.2745L80.413 98.83ZM93.933 111.31L99.3468 115.747L103.531 110.643L98.681 106.166L93.933 111.31ZM77.813 123.4L75.0347 116.975L75.0187 116.982L75.0027 116.989L77.813 123.4ZM56.363 127.56V120.56C50.1044 120.56 44.3935 119.558 39.1703 117.618L36.733 124.18L34.2957 130.742C41.206 133.309 48.5817 134.56 56.363 134.56V127.56ZM36.733 124.18L39.2838 117.661C34.1178 115.64 29.7091 112.832 25.9828 109.252L21.133 114.3L16.2833 119.348C21.397 124.261 27.3883 128.04 34.1822 130.699L36.733 124.18ZM21.133 114.3L25.9828 109.252C22.2364 105.653 19.2937 101.432 17.1417 96.5341L10.733 99.35L4.3244 102.166C7.19901 108.708 11.1897 114.454 16.2833 119.348L21.133 114.3ZM10.733 99.35L17.1771 96.6161C15.1531 91.8452 14.093 86.5035 14.093 80.5H7.09304H0.0930408C0.0930408 88.1898 1.45965 95.4147 4.28897 102.084L10.733 99.35ZM7.09304 80.5H14.093C14.093 74.4965 15.1531 69.1547 17.1771 64.3838L10.733 61.65L4.28897 58.9161C1.45965 65.5852 0.0930408 72.8102 0.0930408 80.5H7.09304ZM10.733 61.65L17.1417 64.4659C19.2937 59.5681 22.2364 55.3472 25.9828 51.7477L21.133 46.7L16.2833 41.6523C11.1897 46.5461 7.19901 52.2919 4.3244 58.8341L10.733 61.65ZM21.133 46.7L25.9336 51.7945C29.7451 48.203 34.189 45.4381 39.3313 43.5004L36.863 36.95L34.3948 30.3996C27.5771 32.9686 21.5343 36.7037 16.3324 41.6055L21.133 46.7ZM36.863 36.95L39.4138 43.4687C44.4986 41.479 50.1662 40.44 56.493 40.44V33.44V26.44C48.6066 26.44 41.1875 27.741 34.3123 30.4313L36.863 36.95ZM56.493 33.44V40.44C63.5489 40.44 69.6791 41.6775 75.0027 44.0111L77.813 37.6L80.6234 31.1889C73.2936 27.9759 65.2105 26.44 56.493 26.44V33.44ZM77.813 37.6L75.1084 44.0564C80.4863 46.3093 84.9235 49.6106 88.5193 53.9975L93.933 49.56L99.3468 45.1225C94.2759 38.9361 87.9665 34.264 80.5177 31.1436L77.813 37.6ZM93.933 49.56L89.1851 44.4164L75.6651 56.8964L80.413 62.04L85.161 67.1836L98.681 54.7036L93.933 49.56ZM80.413 62.04L85.6731 57.4214C81.983 53.2187 77.7359 49.9312 72.9097 47.7374L70.013 54.11L67.1164 60.4826C69.9168 61.7555 72.6031 63.7546 75.153 66.6586L80.413 62.04ZM70.013 54.11L73.0281 47.7926C68.2112 45.4937 63.0121 44.38 57.533 44.38V51.38V58.38C61.0673 58.38 64.1882 59.0863 66.9979 60.4274L70.013 54.11ZM57.533 51.38V44.38C52.5141 44.38 47.7396 45.2018 43.2882 46.9389L45.833 53.46L48.3778 59.981C51.0332 58.9448 54.0586 58.38 57.533 58.38V51.38ZM45.833 53.46L43.2882 46.9389C38.8677 48.664 34.9634 51.1802 31.6533 54.4903L36.603 59.44L41.5528 64.3897C43.4427 62.4998 45.6917 61.0293 48.3778 59.981L45.833 53.46ZM36.603 59.44L31.6533 54.4902C28.3741 57.7695 25.8354 61.627 24.0268 65.9889L30.493 68.67L36.9592 71.3511C38.0973 68.6063 39.632 66.3105 41.5528 64.3897L36.603 59.44ZM30.493 68.67L23.972 66.1252C22.2287 70.5923 21.413 75.4135 21.413 80.5H28.413H35.413C35.413 76.9199 35.984 73.8543 37.0141 71.2148L30.493 68.67ZM28.413 80.5H21.413C21.413 85.5865 22.2287 90.4077 23.972 94.8748L30.493 92.33L37.0141 89.7852C35.984 87.1457 35.413 84.0801 35.413 80.5H28.413ZM30.493 92.33L24.0268 95.0111C25.8354 99.373 28.3741 103.231 31.6533 106.51L36.603 101.56L41.5528 96.6103C39.632 94.6895 38.0973 92.3937 36.9592 89.6489L30.493 92.33ZM36.603 101.56L31.6533 106.51C34.9634 109.82 38.8677 112.336 43.2882 114.061L45.833 107.54L48.3778 101.019C45.6917 99.9707 43.4427 98.5002 41.5528 96.6103L36.603 101.56ZM45.833 107.54L43.2882 114.061C47.7396 115.798 52.5141 116.62 57.533 116.62V109.62V102.62C54.0586 102.62 51.0332 102.055 48.3778 101.019L45.833 107.54ZM57.533 109.62V116.62C62.962 116.62 68.1191 115.57 72.9097 113.393L70.013 107.02L67.1164 100.647C64.2804 101.937 61.1175 102.62 57.533 102.62V109.62ZM70.013 107.02L73.0281 113.337C77.8337 111.044 82.0579 107.667 85.7278 103.386L80.413 98.83L75.0983 94.2745C72.5282 97.2729 69.819 99.3562 66.9979 100.703L70.013 107.02ZM80.413 98.83L75.6651 103.974L89.1851 116.454L93.933 111.31L98.681 106.166L85.161 93.6864L80.413 98.83ZM93.933 111.31L88.5193 106.873C84.9095 111.276 80.4473 114.634 75.0347 116.975L77.813 123.4L80.5914 129.825C88.0055 126.619 94.2899 121.917 99.3468 115.747L93.933 111.31ZM77.813 123.4L75.0027 116.989C69.6884 119.318 63.5172 120.56 56.363 120.56V127.56V134.56C65.1556 134.56 73.2844 133.028 80.6234 129.811L77.813 123.4ZM139.225 71.66V64.66H132.225V71.66H139.225ZM183.035 71.66H190.035V64.66H183.035V71.66ZM183.035 88.04V95.04H190.035V88.04H183.035ZM139.225 88.04H132.225V95.04H139.225V88.04ZM140.785 109.1H133.785V116.1H140.785V109.1ZM190.315 109.1H197.315V102.1H190.315V109.1ZM190.315 126V133H197.315V126H190.315ZM119.855 126H112.855V133H119.855V126ZM119.855 35V28H112.855V35H119.855ZM188.625 35H195.625V28H188.625V35ZM188.625 51.9V58.9H195.625V51.9H188.625ZM140.785 51.9V44.9H133.785V51.9H140.785ZM139.225 71.66V78.66H183.035V71.66V64.66H139.225V71.66ZM183.035 71.66H176.035V88.04H183.035H190.035V71.66H183.035ZM183.035 88.04V81.04H139.225V88.04V95.04H183.035V88.04ZM139.225 88.04H146.225V71.66H139.225H132.225V88.04H139.225ZM140.785 109.1V116.1H190.315V109.1V102.1H140.785V109.1ZM190.315 109.1H183.315V126H190.315H197.315V109.1H190.315ZM190.315 126V119H119.855V126V133H190.315V126ZM119.855 126H126.855V35H119.855H112.855V126H119.855ZM119.855 35V42H188.625V35V28H119.855V35ZM188.625 35H181.625V51.9H188.625H195.625V35H188.625ZM188.625 51.9V44.9H140.785V51.9V58.9H188.625V51.9ZM140.785 51.9H133.785V109.1H140.785H147.785V51.9H140.785ZM218.772 126H211.772V133H218.772V126ZM218.772 35V28H211.772V35H218.772ZM239.832 35H246.832V28H239.832V35ZM239.832 108.84H232.832V115.84H239.832V108.84ZM285.462 108.84H292.462V101.84H285.462V108.84ZM285.462 126V133H292.462V126H285.462ZM218.772 126H225.772V35H218.772H211.772V126H218.772ZM218.772 35V42H239.832V35V28H218.772V35ZM239.832 35H232.832V108.84H239.832H246.832V35H239.832ZM239.832 108.84V115.84H285.462V108.84V101.84H239.832V108.84ZM285.462 108.84H278.462V126H285.462H292.462V108.84H285.462ZM285.462 126V119H218.772V126V133H285.462V126ZM328.299 71.66V64.66H321.299V71.66H328.299ZM372.109 71.66H379.109V64.66H372.109V71.66ZM372.109 88.04V95.04H379.109V88.04H372.109ZM328.299 88.04H321.299V95.04H328.299V88.04ZM329.859 109.1H322.859V116.1H329.859V109.1ZM379.389 109.1H386.389V102.1H379.389V109.1ZM379.389 126V133H386.389V126H379.389ZM308.929 126H301.929V133H308.929V126ZM308.929 35V28H301.929V35H308.929ZM377.699 35H384.699V28H377.699V35ZM377.699 51.9V58.9H384.699V51.9H377.699ZM329.859 51.9V44.9H322.859V51.9H329.859ZM328.299 71.66V78.66H372.109V71.66V64.66H328.299V71.66ZM372.109 71.66H365.109V88.04H372.109H379.109V71.66H372.109ZM372.109 88.04V81.04H328.299V88.04V95.04H372.109V88.04ZM328.299 88.04H335.299V71.66H328.299H321.299V88.04H328.299ZM329.859 109.1V116.1H379.389V109.1V102.1H329.859V109.1ZM379.389 109.1H372.389V126H379.389H386.389V109.1H379.389ZM379.389 126V119H308.929V126V133H379.389V126ZM308.929 126H315.929V35H308.929H301.929V126H308.929ZM308.929 35V42H377.699V35V28H308.929V35ZM377.699 35H370.699V51.9H377.699H384.699V35H377.699ZM377.699 51.9V44.9H329.859V51.9V58.9H377.699V51.9ZM329.859 51.9H322.859V109.1H329.859H336.859V51.9H329.859ZM407.845 126H400.845V133H407.845V126ZM407.845 35V28H400.845V35H407.845ZM478.045 41.5L473.818 47.0796L473.839 47.0949L473.859 47.11L478.045 41.5ZM483.245 71.14L489.047 75.0563L489.07 75.0232L489.092 74.9899L483.245 71.14ZM473.625 79.2L476.593 85.5398V85.5398L473.625 79.2ZM459.585 82.06L453.234 79.1168L448.626 89.06H459.585V82.06ZM462.055 76.73V69.73H457.584L455.704 73.7868L462.055 76.73ZM477.265 79.59L474.493 86.0175L474.546 86.0406L474.6 86.0627L477.265 79.59ZM487.535 87.78L481.711 91.6629L481.743 91.7104L481.775 91.7573L487.535 87.78ZM482.075 119.5L486.106 125.223L486.133 125.204L486.159 125.185L482.075 119.5ZM428.775 110.14H421.775V117.14H428.775V110.14ZM465.695 107.54L469.405 113.476L469.43 113.461L469.454 113.446L465.695 107.54ZM465.695 90.51L461.73 96.2783L461.832 96.3488L461.937 96.4156L465.695 90.51ZM427.215 87.65H420.215V94.65H427.215V87.65ZM427.215 72.31V65.31H420.215V72.31H427.215ZM461.405 69.71L465.2 75.5921L465.223 75.5773L465.246 75.5623L461.405 69.71ZM461.405 53.59L457.48 59.3854L457.586 59.4577L457.695 59.526L461.405 53.59ZM428.775 50.86V43.86H421.775V50.86H428.775ZM407.845 126H414.845V35H407.845H400.845V126H407.845ZM407.845 35V42H452.305V35V28H407.845V35ZM452.305 35V42C463.061 42 469.848 44.072 473.818 47.0796L478.045 41.5L482.272 35.9204C474.803 30.2614 464.43 28 452.305 28V35ZM478.045 41.5L473.859 47.11C477.936 50.1525 479.755 53.8129 479.755 58.66H486.755H493.755C493.755 49.2938 489.768 41.5142 482.232 35.89L478.045 41.5ZM486.755 58.66H479.755C479.755 62.2286 478.898 65.0141 477.399 67.2901L483.245 71.14L489.092 74.9899C492.273 70.1592 493.755 64.6247 493.755 58.66H486.755ZM483.245 71.14L477.444 67.2237C475.865 69.5621 473.674 71.4483 470.658 72.8602L473.625 79.2L476.593 85.5398C481.723 83.1384 485.946 79.6513 489.047 75.0563L483.245 71.14ZM473.625 79.2L470.658 72.8602C467.663 74.2622 464.025 75.06 459.585 75.06V82.06V89.06C465.719 89.06 471.442 87.9511 476.593 85.5398L473.625 79.2ZM459.585 82.06L465.937 85.0032L468.407 79.6732L462.055 76.73L455.704 73.7868L453.234 79.1168L459.585 82.06ZM462.055 76.73V83.73C466.998 83.73 471.097 84.5527 474.493 86.0175L477.265 79.59L480.038 73.1625C474.594 70.814 468.552 69.73 462.055 69.73V76.73ZM477.265 79.59L474.6 86.0627C477.858 87.404 480.128 89.2883 481.711 91.6629L487.535 87.78L493.36 83.8971C490.09 78.9917 485.513 75.416 479.931 73.1172L477.265 79.59ZM487.535 87.78L481.775 91.7573C483.334 94.0152 484.305 97.0214 484.305 101.17H491.305H498.305C498.305 94.7453 496.763 88.8248 493.296 83.8027L487.535 87.78ZM491.305 101.17H484.305C484.305 106.795 482.251 110.755 477.992 113.815L482.075 119.5L486.159 125.185C494.206 119.405 498.305 111.145 498.305 101.17H491.305ZM482.075 119.5L478.045 113.777C473.582 116.92 466.206 119 454.905 119V126V133C467.525 133 478.263 130.747 486.106 125.223L482.075 119.5ZM454.905 126V119H407.845V126V133H454.905V126ZM428.775 110.14V117.14H453.345V110.14V103.14H428.775V110.14ZM453.345 110.14V117.14C459.334 117.14 465.003 116.228 469.405 113.476L465.695 107.54L461.985 101.604C460.841 102.319 458.277 103.14 453.345 103.14V110.14ZM465.695 107.54L469.454 113.446C474.665 110.129 476.985 104.83 476.985 98.96H469.985H462.985C462.985 100.89 462.446 101.311 461.937 101.634L465.695 107.54ZM469.985 98.96H476.985C476.985 93.1068 474.614 87.8882 469.454 84.6044L465.695 90.51L461.937 96.4156C462.497 96.7718 462.985 97.1866 462.985 98.96H469.985ZM465.695 90.51L469.661 84.7417C465.199 81.674 459.418 80.65 453.345 80.65V87.65V94.65C458.193 94.65 460.645 95.5326 461.73 96.2783L465.695 90.51ZM453.345 87.65V80.65H427.215V87.65V94.65H453.345V87.65ZM427.215 87.65H434.215V72.31H427.215H420.215V87.65H427.215ZM427.215 72.31V79.31H449.705V72.31V65.31H427.215V72.31ZM449.705 72.31V79.31C455.43 79.31 460.892 78.3715 465.2 75.5921L461.405 69.71L457.611 63.8279C456.545 64.5152 454.208 65.31 449.705 65.31V72.31ZM461.405 69.71L465.246 75.5623C470.208 72.306 472.565 67.2467 472.565 61.52H465.565H458.565C458.565 63.0733 458.15 63.474 457.565 63.8577L461.405 69.71ZM465.565 61.52H472.565C472.565 55.8033 470.139 50.7937 465.115 47.654L461.405 53.59L457.695 59.526C458.133 59.7993 458.264 60.0057 458.327 60.1243C458.402 60.2685 458.565 60.6614 458.565 61.52H465.565ZM461.405 53.59L465.331 47.7946C460.995 44.8568 455.476 43.86 449.705 43.86V50.86V57.86C454.162 57.86 456.443 58.6832 457.48 59.3854L461.405 53.59ZM449.705 50.86V43.86H428.775V50.86V57.86H449.705V50.86ZM428.775 50.86H421.775V110.14H428.775H435.775V50.86H428.775ZM538.32 71.66V64.66H531.32V71.66H538.32ZM582.13 71.66H589.13V64.66H582.13V71.66ZM582.13 88.04V95.04H589.13V88.04H582.13ZM538.32 88.04H531.32V95.04H538.32V88.04ZM539.88 109.1H532.88V116.1H539.88V109.1ZM589.41 109.1H596.41V102.1H589.41V109.1ZM589.41 126V133H596.41V126H589.41ZM518.95 126H511.95V133H518.95V126ZM518.95 35V28H511.95V35H518.95ZM587.72 35H594.72V28H587.72V35ZM587.72 51.9V58.9H594.72V51.9H587.72ZM539.88 51.9V44.9H532.88V51.9H539.88ZM538.32 71.66V78.66H582.13V71.66V64.66H538.32V71.66ZM582.13 71.66H575.13V88.04H582.13H589.13V71.66H582.13ZM582.13 88.04V81.04H538.32V88.04V95.04H582.13V88.04ZM538.32 88.04H545.32V71.66H538.32H531.32V88.04H538.32ZM539.88 109.1V116.1H589.41V109.1V102.1H539.88V109.1ZM589.41 109.1H582.41V126H589.41H596.41V109.1H589.41ZM589.41 126V119H518.95V126V133H589.41V126ZM518.95 126H525.95V35H518.95H511.95V126H518.95ZM518.95 35V42H587.72V35V28H518.95V35ZM587.72 35H580.72V51.9H587.72H594.72V35H587.72ZM587.72 51.9V44.9H539.88V51.9V58.9H587.72V51.9ZM539.88 51.9H532.88V109.1H539.88H546.88V51.9H539.88ZM626.837 124.7L624.833 131.407L624.873 131.419L624.914 131.431L626.837 124.7ZM610.717 117.03L604.335 114.153L602.054 119.212L606.46 122.587L610.717 117.03ZM617.867 101.17L621.923 95.4653L614.984 90.531L611.485 98.2931L617.867 101.17ZM631.647 108.06L629.368 114.679L629.432 114.701L629.497 114.722L631.647 108.06ZM657.907 109.49L659.981 116.175L660.051 116.154L660.12 116.131L657.907 109.49ZM663.627 105.98L658.223 101.53V101.53L663.627 105.98ZM662.587 95.19L658.306 100.729L658.387 100.791L658.469 100.851L662.587 95.19ZM655.047 91.68L653.001 98.3745L653.087 98.4006L653.173 98.4246L655.047 91.68ZM644.647 89.08L643.061 95.8981L643.152 95.9193L643.244 95.938L644.647 89.08ZM633.337 85.96L631.169 92.6161L631.192 92.6234L631.214 92.6305L633.337 85.96ZM623.067 81.28L619.416 87.253V87.253L623.067 81.28ZM615.397 73.74L609.424 77.3901L609.46 77.4498L609.498 77.5087L615.397 73.74ZM616.697 47.61L610.854 43.7541L610.845 43.7683L610.836 43.7825L616.697 47.61ZM629.437 37.34L632.289 43.7326L632.311 43.7227L632.333 43.7126L629.437 37.34ZM667.787 35.52L666.089 42.311L666.139 42.3235L666.189 42.3353L667.787 35.52ZM682.477 41.5L688.961 44.136L691.165 38.7138L686.219 35.5844L682.477 41.5ZM675.977 57.49L672.504 63.5677L679.449 67.5364L682.461 60.1261L675.977 57.49ZM663.237 52.16L661.313 58.8907L661.377 58.9089L661.441 58.9259L663.237 52.16ZM640.747 51.77L638.337 45.1979V45.1979L640.747 51.77ZM635.157 55.54L640.717 59.7921L640.775 59.7161L640.831 59.6384L635.157 55.54ZM636.327 66.46L632.046 71.999L632.127 72.0613L632.209 72.1211L636.327 66.46ZM643.867 69.84L641.993 76.5846L643.867 69.84ZM654.137 72.44L652.551 79.258L652.568 79.262L652.585 79.2659L654.137 72.44ZM665.447 75.43L663.421 82.1305L663.442 82.1369L663.463 82.1431L665.447 75.43ZM675.847 79.98L679.497 74.007L675.847 79.98ZM683.387 87.52L677.414 91.1702L677.45 91.2298L677.488 91.2887L683.387 87.52ZM682.087 113.39L687.893 117.3L682.087 113.39ZM669.217 123.66L666.32 117.287L666.302 117.296L666.283 117.304L669.217 123.66ZM647.767 127.56V120.56C641.105 120.56 634.778 119.689 628.76 117.969L626.837 124.7L624.914 131.431C632.242 133.525 639.868 134.56 647.767 134.56V127.56ZM626.837 124.7L628.84 117.993C622.709 116.161 618.178 113.927 614.973 111.473L610.717 117.03L606.46 122.587C611.402 126.373 617.617 129.252 624.833 131.407L626.837 124.7ZM610.717 117.03L617.098 119.907L624.248 104.047L617.867 101.17L611.485 98.2931L604.335 114.153L610.717 117.03ZM617.867 101.17L613.81 106.875C618.339 110.095 623.552 112.676 629.368 114.679L631.647 108.06L633.925 101.441C629.168 99.8036 625.195 97.7916 621.923 95.4653L617.867 101.17ZM631.647 108.06L629.497 114.722C635.541 116.672 641.682 117.66 647.897 117.66V110.66V103.66C643.191 103.66 638.498 102.915 633.796 101.398L631.647 108.06ZM647.897 110.66V117.66C652.402 117.66 656.523 117.249 659.981 116.175L657.907 109.49L655.832 102.805C654.263 103.291 651.711 103.66 647.897 103.66V110.66ZM657.907 109.49L660.12 116.131C663.452 115.02 666.691 113.27 669.03 110.43L663.627 105.98L658.223 101.53C658.135 101.637 657.561 102.227 655.693 102.849L657.907 109.49ZM663.627 105.98L669.03 110.43C671.274 107.705 672.447 104.442 672.447 100.91H665.447H658.447C658.447 101.191 658.405 101.309 658.223 101.53L663.627 105.98ZM665.447 100.91H672.447C672.447 96.3213 670.483 92.2777 666.704 89.5288L662.587 95.19L658.469 100.851C658.511 100.882 658.536 100.903 658.548 100.914C658.56 100.925 658.56 100.926 658.553 100.917C658.545 100.908 658.532 100.892 658.516 100.869C658.5 100.845 658.485 100.819 658.471 100.79C658.457 100.762 658.446 100.738 658.44 100.718C658.433 100.699 658.431 100.689 658.431 100.692C658.432 100.696 658.447 100.762 658.447 100.91H665.447ZM662.587 95.19L666.867 89.651C664.043 87.4691 660.63 85.9659 656.92 84.9354L655.047 91.68L653.173 98.4246C655.703 99.1274 657.317 99.9643 658.306 100.729L662.587 95.19ZM655.047 91.68L657.092 84.9855C653.725 83.9567 650.039 83.0382 646.049 82.222L644.647 89.08L643.244 95.938C646.88 96.6818 650.128 97.4967 653.001 98.3745L655.047 91.68ZM644.647 89.08L646.232 82.2619C642.694 81.4392 639.103 80.4491 635.459 79.2895L633.337 85.96L631.214 92.6305C635.196 93.8975 639.145 94.9875 643.061 95.8981L644.647 89.08ZM633.337 85.96L635.504 79.3039C632.259 78.2476 629.339 76.9093 626.717 75.307L623.067 81.28L619.416 87.253C623.034 89.464 626.961 91.2457 631.169 92.6161L633.337 85.96ZM623.067 81.28L626.717 75.307C624.516 73.962 622.724 72.2069 621.295 69.9713L615.397 73.74L609.498 77.5087C612.056 81.5131 615.377 84.7847 619.416 87.253L623.067 81.28ZM615.397 73.74L621.37 70.0899C620.32 68.373 619.537 65.7556 619.537 61.78H612.537H605.537C605.537 67.511 606.659 72.867 609.424 77.3901L615.397 73.74ZM612.537 61.78H619.537C619.537 57.9031 620.547 54.516 622.557 51.4375L616.697 47.61L610.836 43.7825C607.299 49.1973 605.537 55.2569 605.537 61.78H612.537ZM616.697 47.61L622.539 51.4659C624.536 48.4404 627.641 45.8061 632.289 43.7326L629.437 37.34L626.584 30.9474C619.965 33.9006 614.577 38.1129 610.854 43.7541L616.697 47.61ZM629.437 37.34L632.333 43.7126C636.875 41.648 642.962 40.44 650.887 40.44V33.44V26.44C641.651 26.44 633.438 27.8319 626.54 30.9674L629.437 37.34ZM650.887 33.44V40.44C656.034 40.44 661.098 41.0632 666.089 42.311L667.787 35.52L669.484 28.729C663.382 27.2035 657.179 26.44 650.887 26.44V33.44ZM667.787 35.52L666.189 42.3353C671.076 43.4806 675.229 45.1981 678.734 47.4155L682.477 41.5L686.219 35.5844C681.231 32.4286 675.59 30.1593 669.384 28.7047L667.787 35.52ZM682.477 41.5L675.992 38.8639L669.492 54.8539L675.977 57.49L682.461 60.1261L688.961 44.136L682.477 41.5ZM675.977 57.49L679.45 51.4123C674.734 48.718 669.927 46.6929 665.032 45.3941L663.237 52.16L661.441 58.9259C665.039 59.8805 668.725 61.4087 672.504 63.5677L675.977 57.49ZM663.237 52.16L665.16 45.4293C660.34 44.0523 655.533 43.34 650.757 43.34V50.34V57.34C654.127 57.34 657.64 57.8411 661.313 58.8907L663.237 52.16ZM650.757 50.34V43.34C646.212 43.34 641.981 43.8617 638.337 45.1979L640.747 51.77L643.156 58.3421C644.712 57.7717 647.154 57.34 650.757 57.34V50.34ZM640.747 51.77L638.337 45.1979C634.975 46.4303 631.712 48.3538 629.482 51.4415L635.157 55.54L640.831 59.6384C640.855 59.6062 641.318 59.0163 643.156 58.3421L640.747 51.77ZM635.157 55.54L629.596 51.2878C627.464 54.0758 626.467 57.332 626.467 60.74H633.467H640.467C640.467 60.1614 640.596 59.9509 640.717 59.7921L635.157 55.54ZM633.467 60.74H626.467C626.467 65.3221 628.484 69.2462 632.046 71.999L636.327 66.46L640.607 60.921C640.485 60.8273 640.432 60.7677 640.419 60.7522C640.408 60.7388 640.422 60.7537 640.443 60.7945C640.463 60.8358 640.473 60.8694 640.475 60.8805C640.477 60.8891 640.467 60.8477 640.467 60.74H633.467ZM636.327 66.46L632.209 72.1211C634.994 74.1465 638.347 75.5718 641.993 76.5846L643.867 69.84L645.74 63.0954C643.146 62.3749 641.472 61.5469 640.444 60.7988L636.327 66.46ZM643.867 69.84L641.993 76.5846C645.224 77.482 648.745 78.3728 652.551 79.258L654.137 72.44L655.722 65.6219C652.075 64.7738 648.749 63.9313 645.74 63.0954L643.867 69.84ZM654.137 72.44L652.585 79.2659C656.24 80.0965 659.851 81.0514 663.421 82.1305L665.447 75.43L667.472 68.7295C663.588 67.5553 659.66 66.5168 655.688 65.6141L654.137 72.44ZM665.447 75.43L663.463 82.1431C666.742 83.1118 669.641 84.3911 672.196 85.953L675.847 79.98L679.497 74.007C675.812 71.7556 671.778 70.0015 667.43 68.7169L665.447 75.43ZM675.847 79.98L672.196 85.953C674.369 87.2806 676.086 88.9977 677.414 91.1702L683.387 87.52L689.359 83.8699C686.874 79.8023 683.564 76.4928 679.497 74.007L675.847 79.98ZM683.387 87.52L677.488 91.2887C678.582 93.0015 679.377 95.5397 679.377 99.35H686.377H693.377C693.377 93.6269 692.178 88.2785 689.285 83.7513L683.387 87.52ZM686.377 99.35H679.377C679.377 103.068 678.363 106.387 676.28 109.48L682.087 113.39L687.893 117.3C691.53 111.9 693.377 105.858 693.377 99.35H686.377ZM682.087 113.39L676.28 109.48C674.292 112.432 671.129 115.102 666.32 117.287L669.217 123.66L672.113 130.033C678.744 127.018 684.161 122.841 687.893 117.3L682.087 113.39ZM669.217 123.66L666.283 117.304C661.859 119.346 655.796 120.56 647.767 120.56V127.56V134.56C657.07 134.56 665.308 133.174 672.15 130.016L669.217 123.66Z" fill="white" mask="url(#path-5-outside-3_1032_3)"/>
</svg>
