<svg width="758" height="372" viewBox="0 0 758 372" fill="none" xmlns="http://www.w3.org/2000/svg">
<mask id="path-1-outside-1_1032_4" maskUnits="userSpaceOnUse" x="6" y="137" width="748" height="101" fill="black">
<rect fill="white" x="6" y="137" width="748" height="101"/>
<path d="M10.939 233L51.499 142H72.299L112.989 233H90.889L57.609 152.66H65.929L32.519 233H10.939ZM31.219 213.5L36.809 197.51H83.609L89.329 213.5H31.219ZM134.13 233V142H151.55L205.24 207.52H196.79V142H217.59V233H200.3L146.48 167.48H154.93V233H134.13ZM250.82 233V142H292.16C302.04 142 310.75 143.907 318.29 147.72C325.83 151.447 331.724 156.69 335.97 163.45C340.217 170.21 342.34 178.227 342.34 187.5C342.34 196.687 340.217 204.703 335.97 211.55C331.724 218.31 325.83 223.597 318.29 227.41C310.75 231.137 302.04 233 292.16 233H250.82ZM271.88 215.71H291.12C297.187 215.71 302.43 214.583 306.85 212.33C311.357 209.99 314.824 206.697 317.25 202.45C319.764 198.203 321.02 193.22 321.02 187.5C321.02 181.693 319.764 176.71 317.25 172.55C314.824 168.303 311.357 165.053 306.85 162.8C302.43 160.46 297.187 159.29 291.12 159.29H271.88V215.71ZM356.693 233L397.253 142H418.053L458.743 233H436.643L403.363 152.66H411.683L378.273 233H356.693ZM376.973 213.5L382.563 197.51H429.363L435.083 213.5H376.973ZM479.885 233V142H500.945V215.84H546.575V233H479.885ZM558.589 233L599.149 142H619.949L660.639 233H638.539L605.259 152.66H613.579L580.169 233H558.589ZM578.869 213.5L584.459 197.51H631.259L636.979 213.5H578.869ZM711.681 234.56C704.401 234.56 697.424 233.607 690.751 231.7C684.077 229.707 678.704 227.15 674.631 224.03L681.781 208.17C685.681 210.943 690.274 213.24 695.561 215.06C700.934 216.793 706.351 217.66 711.811 217.66C715.971 217.66 719.307 217.27 721.821 216.49C724.421 215.623 726.327 214.453 727.541 212.98C728.754 211.507 729.361 209.817 729.361 207.91C729.361 205.483 728.407 203.577 726.501 202.19C724.594 200.717 722.081 199.547 718.961 198.68C715.841 197.727 712.374 196.86 708.561 196.08C704.834 195.213 701.064 194.173 697.251 192.96C693.524 191.747 690.101 190.187 686.981 188.28C683.861 186.373 681.304 183.86 679.311 180.74C677.404 177.62 676.451 173.633 676.451 168.78C676.451 163.58 677.837 158.857 680.611 154.61C683.471 150.277 687.717 146.853 693.351 144.34C699.071 141.74 706.221 140.44 714.801 140.44C720.521 140.44 726.154 141.133 731.701 142.52C737.247 143.82 742.144 145.813 746.391 148.5L739.891 164.49C735.644 162.063 731.397 160.287 727.151 159.16C722.904 157.947 718.744 157.34 714.671 157.34C710.597 157.34 707.261 157.817 704.661 158.77C702.061 159.723 700.197 160.98 699.071 162.54C697.944 164.013 697.381 165.747 697.381 167.74C697.381 170.08 698.334 171.987 700.241 173.46C702.147 174.847 704.661 175.973 707.781 176.84C710.901 177.707 714.324 178.573 718.051 179.44C721.864 180.307 725.634 181.303 729.361 182.43C733.174 183.557 736.641 185.073 739.761 186.98C742.881 188.887 745.394 191.4 747.301 194.52C749.294 197.64 750.291 201.583 750.291 206.35C750.291 211.463 748.861 216.143 746.001 220.39C743.141 224.637 738.851 228.06 733.131 230.66C727.497 233.26 720.347 234.56 711.681 234.56Z"/>
</mask>
<path d="M10.939 233L51.499 142H72.299L112.989 233H90.889L57.609 152.66H65.929L32.519 233H10.939ZM31.219 213.5L36.809 197.51H83.609L89.329 213.5H31.219ZM134.13 233V142H151.55L205.24 207.52H196.79V142H217.59V233H200.3L146.48 167.48H154.93V233H134.13ZM250.82 233V142H292.16C302.04 142 310.75 143.907 318.29 147.72C325.83 151.447 331.724 156.69 335.97 163.45C340.217 170.21 342.34 178.227 342.34 187.5C342.34 196.687 340.217 204.703 335.97 211.55C331.724 218.31 325.83 223.597 318.29 227.41C310.75 231.137 302.04 233 292.16 233H250.82ZM271.88 215.71H291.12C297.187 215.71 302.43 214.583 306.85 212.33C311.357 209.99 314.824 206.697 317.25 202.45C319.764 198.203 321.02 193.22 321.02 187.5C321.02 181.693 319.764 176.71 317.25 172.55C314.824 168.303 311.357 165.053 306.85 162.8C302.43 160.46 297.187 159.29 291.12 159.29H271.88V215.71ZM356.693 233L397.253 142H418.053L458.743 233H436.643L403.363 152.66H411.683L378.273 233H356.693ZM376.973 213.5L382.563 197.51H429.363L435.083 213.5H376.973ZM479.885 233V142H500.945V215.84H546.575V233H479.885ZM558.589 233L599.149 142H619.949L660.639 233H638.539L605.259 152.66H613.579L580.169 233H558.589ZM578.869 213.5L584.459 197.51H631.259L636.979 213.5H578.869ZM711.681 234.56C704.401 234.56 697.424 233.607 690.751 231.7C684.077 229.707 678.704 227.15 674.631 224.03L681.781 208.17C685.681 210.943 690.274 213.24 695.561 215.06C700.934 216.793 706.351 217.66 711.811 217.66C715.971 217.66 719.307 217.27 721.821 216.49C724.421 215.623 726.327 214.453 727.541 212.98C728.754 211.507 729.361 209.817 729.361 207.91C729.361 205.483 728.407 203.577 726.501 202.19C724.594 200.717 722.081 199.547 718.961 198.68C715.841 197.727 712.374 196.86 708.561 196.08C704.834 195.213 701.064 194.173 697.251 192.96C693.524 191.747 690.101 190.187 686.981 188.28C683.861 186.373 681.304 183.86 679.311 180.74C677.404 177.62 676.451 173.633 676.451 168.78C676.451 163.58 677.837 158.857 680.611 154.61C683.471 150.277 687.717 146.853 693.351 144.34C699.071 141.74 706.221 140.44 714.801 140.44C720.521 140.44 726.154 141.133 731.701 142.52C737.247 143.82 742.144 145.813 746.391 148.5L739.891 164.49C735.644 162.063 731.397 160.287 727.151 159.16C722.904 157.947 718.744 157.34 714.671 157.34C710.597 157.34 707.261 157.817 704.661 158.77C702.061 159.723 700.197 160.98 699.071 162.54C697.944 164.013 697.381 165.747 697.381 167.74C697.381 170.08 698.334 171.987 700.241 173.46C702.147 174.847 704.661 175.973 707.781 176.84C710.901 177.707 714.324 178.573 718.051 179.44C721.864 180.307 725.634 181.303 729.361 182.43C733.174 183.557 736.641 185.073 739.761 186.98C742.881 188.887 745.394 191.4 747.301 194.52C749.294 197.64 750.291 201.583 750.291 206.35C750.291 211.463 748.861 216.143 746.001 220.39C743.141 224.637 738.851 228.06 733.131 230.66C727.497 233.26 720.347 234.56 711.681 234.56Z" fill="white"/>
<path d="M10.939 233L8.19884 231.779L6.31733 236H10.939V233ZM51.499 142V139H49.5516L48.7588 140.779L51.499 142ZM72.299 142L75.0377 140.775L74.2438 139H72.299V142ZM112.989 233V236H117.617L115.728 231.775L112.989 233ZM90.889 233L88.1174 234.148L88.8845 236H90.889V233ZM57.609 152.66V149.66H53.1191L54.8374 153.808L57.609 152.66ZM65.929 152.66L68.699 153.812L70.4256 149.66H65.929V152.66ZM32.519 233V236H34.5205L35.289 234.152L32.519 233ZM31.219 213.5L28.387 212.51L26.9922 216.5H31.219V213.5ZM36.809 197.51V194.51H34.6797L33.977 196.52L36.809 197.51ZM83.609 197.51L86.4337 196.5L85.722 194.51H83.609V197.51ZM89.329 213.5V216.5H93.5883L92.1537 212.49L89.329 213.5ZM10.939 233L13.6791 234.221L54.2391 143.221L51.499 142L48.7588 140.779L8.19884 231.779L10.939 233ZM51.499 142V145H72.299V142V139H51.499V142ZM72.299 142L69.5603 143.225L110.25 234.225L112.989 233L115.728 231.775L75.0377 140.775L72.299 142ZM112.989 233V230H90.889V233V236H112.989V233ZM90.889 233L93.6606 231.852L60.3806 151.512L57.609 152.66L54.8374 153.808L88.1174 234.148L90.889 233ZM57.609 152.66V155.66H65.929V152.66V149.66H57.609V152.66ZM65.929 152.66L63.159 151.508L29.749 231.848L32.519 233L35.289 234.152L68.699 153.812L65.929 152.66ZM32.519 233V230H10.939V233V236H32.519V233ZM31.219 213.5L34.0509 214.49L39.6409 198.5L36.809 197.51L33.977 196.52L28.387 212.51L31.219 213.5ZM36.809 197.51V200.51H83.609V197.51V194.51H36.809V197.51ZM83.609 197.51L80.7843 198.52L86.5043 214.51L89.329 213.5L92.1537 212.49L86.4337 196.5L83.609 197.51ZM89.329 213.5V210.5H31.219V213.5V216.5H89.329V213.5ZM134.13 233H131.13V236H134.13V233ZM134.13 142V139H131.13V142H134.13ZM151.55 142L153.871 140.099L152.97 139H151.55V142ZM205.24 207.52V210.52H211.577L207.561 205.619L205.24 207.52ZM196.79 207.52H193.79V210.52H196.79V207.52ZM196.79 142V139H193.79V142H196.79ZM217.59 142H220.59V139H217.59V142ZM217.59 233V236H220.59V233H217.59ZM200.3 233L197.982 234.904L198.882 236H200.3V233ZM146.48 167.48V164.48H140.134L144.162 169.384L146.48 167.48ZM154.93 167.48H157.93V164.48H154.93V167.48ZM154.93 233V236H157.93V233H154.93ZM134.13 233H137.13V142H134.13H131.13V233H134.13ZM134.13 142V145H151.55V142V139H134.13V142ZM151.55 142L149.23 143.901L202.92 209.421L205.24 207.52L207.561 205.619L153.871 140.099L151.55 142ZM205.24 207.52V204.52H196.79V207.52V210.52H205.24V207.52ZM196.79 207.52H199.79V142H196.79H193.79V207.52H196.79ZM196.79 142V145H217.59V142V139H196.79V142ZM217.59 142H214.59V233H217.59H220.59V142H217.59ZM217.59 233V230H200.3V233V236H217.59V233ZM200.3 233L202.618 231.096L148.798 165.576L146.48 167.48L144.162 169.384L197.982 234.904L200.3 233ZM146.48 167.48V170.48H154.93V167.48V164.48H146.48V167.48ZM154.93 167.48H151.93V233H154.93H157.93V167.48H154.93ZM154.93 233V230H134.13V233V236H154.93V233ZM250.82 233H247.82V236H250.82V233ZM250.82 142V139H247.82V142H250.82ZM318.29 147.72L316.937 150.397L316.949 150.403L316.961 150.409L318.29 147.72ZM335.97 163.45L333.43 165.046L335.97 163.45ZM335.97 211.55L338.511 213.146L338.515 213.139L338.52 213.131L335.97 211.55ZM318.29 227.41L319.62 230.099L319.632 230.093L319.644 230.087L318.29 227.41ZM271.88 215.71H268.88V218.71H271.88V215.71ZM306.85 212.33L308.213 215.003L308.223 214.998L308.233 214.992L306.85 212.33ZM317.25 202.45L314.669 200.922L314.657 200.942L314.646 200.962L317.25 202.45ZM317.25 172.55L314.646 174.038L314.664 174.07L314.683 174.101L317.25 172.55ZM306.85 162.8L305.447 165.451L305.478 165.468L305.509 165.483L306.85 162.8ZM271.88 159.29V156.29H268.88V159.29H271.88ZM250.82 233H253.82V142H250.82H247.82V233H250.82ZM250.82 142V145H292.16V142V139H250.82V142ZM292.16 142V145C301.65 145 309.882 146.829 316.937 150.397L318.29 147.72L319.644 145.043C311.619 140.984 302.431 139 292.16 139V142ZM318.29 147.72L316.961 150.409C324.032 153.904 329.494 158.781 333.43 165.046L335.97 163.45L338.511 161.854C333.953 154.599 327.629 148.989 319.62 145.031L318.29 147.72ZM335.97 163.45L333.43 165.046C337.331 171.255 339.34 178.698 339.34 187.5H342.34H345.34C345.34 177.755 343.104 169.165 338.511 161.854L335.97 163.45ZM342.34 187.5H339.34C339.34 196.208 337.334 203.661 333.421 209.969L335.97 211.55L338.52 213.131C343.101 205.746 345.34 197.165 345.34 187.5H342.34ZM335.97 211.55L333.43 209.954C329.491 216.225 324.02 221.151 316.937 224.733L318.29 227.41L319.644 230.087C327.641 226.043 333.957 220.395 338.511 213.146L335.97 211.55ZM318.29 227.41L316.961 224.721C309.901 228.21 301.66 230 292.16 230V233V236C302.421 236 311.6 234.063 319.62 230.099L318.29 227.41ZM292.16 233V230H250.82V233V236H292.16V233ZM271.88 215.71V218.71H291.12V215.71V212.71H271.88V215.71ZM291.12 215.71V218.71C297.557 218.71 303.287 217.514 308.213 215.003L306.85 212.33L305.488 209.657C301.574 211.653 296.817 212.71 291.12 212.71V215.71ZM306.85 212.33L308.233 214.992C313.231 212.397 317.131 208.706 319.855 203.938L317.25 202.45L314.646 200.962C312.516 204.688 309.483 207.583 305.468 209.668L306.85 212.33ZM317.25 202.45L319.832 203.978C322.66 199.199 324.02 193.671 324.02 187.5H321.02H318.02C318.02 192.769 316.867 197.207 314.669 200.922L317.25 202.45ZM321.02 187.5H324.02C324.02 181.254 322.665 175.711 319.818 170.999L317.25 172.55L314.683 174.101C316.863 177.709 318.02 182.133 318.02 187.5H321.02ZM317.25 172.55L319.855 171.062C317.125 166.284 313.212 162.626 308.192 160.117L306.85 162.8L305.509 165.483C309.503 167.48 312.522 170.322 314.646 174.038L317.25 172.55ZM306.85 162.8L308.254 160.149C303.319 157.536 297.573 156.29 291.12 156.29V159.29V162.29C296.801 162.29 301.542 163.384 305.447 165.451L306.85 162.8ZM291.12 159.29V156.29H271.88V159.29V162.29H291.12V159.29ZM271.88 159.29H268.88V215.71H271.88H274.88V159.29H271.88ZM356.693 233L353.953 231.779L352.072 236H356.693V233ZM397.253 142V139H395.306L394.513 140.779L397.253 142ZM418.053 142L420.792 140.775L419.998 139H418.053V142ZM458.743 233V236H463.371L461.482 231.775L458.743 233ZM436.643 233L433.872 234.148L434.639 236H436.643V233ZM403.363 152.66V149.66H398.873L400.592 153.808L403.363 152.66ZM411.683 152.66L414.453 153.812L416.18 149.66H411.683V152.66ZM378.273 233V236H380.275L381.043 234.152L378.273 233ZM376.973 213.5L374.141 212.51L372.746 216.5H376.973V213.5ZM382.563 197.51V194.51H380.434L379.731 196.52L382.563 197.51ZM429.363 197.51L432.188 196.5L431.476 194.51H429.363V197.51ZM435.083 213.5V216.5H439.343L437.908 212.49L435.083 213.5ZM356.693 233L359.433 234.221L399.993 143.221L397.253 142L394.513 140.779L353.953 231.779L356.693 233ZM397.253 142V145H418.053V142V139H397.253V142ZM418.053 142L415.315 143.225L456.005 234.225L458.743 233L461.482 231.775L420.792 140.775L418.053 142ZM458.743 233V230H436.643V233V236H458.743V233ZM436.643 233L439.415 231.852L406.135 151.512L403.363 152.66L400.592 153.808L433.872 234.148L436.643 233ZM403.363 152.66V155.66H411.683V152.66V149.66H403.363V152.66ZM411.683 152.66L408.913 151.508L375.503 231.848L378.273 233L381.043 234.152L414.453 153.812L411.683 152.66ZM378.273 233V230H356.693V233V236H378.273V233ZM376.973 213.5L379.805 214.49L385.395 198.5L382.563 197.51L379.731 196.52L374.141 212.51L376.973 213.5ZM382.563 197.51V200.51H429.363V197.51V194.51H382.563V197.51ZM429.363 197.51L426.539 198.52L432.259 214.51L435.083 213.5L437.908 212.49L432.188 196.5L429.363 197.51ZM435.083 213.5V210.5H376.973V213.5V216.5H435.083V213.5ZM479.885 233H476.885V236H479.885V233ZM479.885 142V139H476.885V142H479.885ZM500.945 142H503.945V139H500.945V142ZM500.945 215.84H497.945V218.84H500.945V215.84ZM546.575 215.84H549.575V212.84H546.575V215.84ZM546.575 233V236H549.575V233H546.575ZM479.885 233H482.885V142H479.885H476.885V233H479.885ZM479.885 142V145H500.945V142V139H479.885V142ZM500.945 142H497.945V215.84H500.945H503.945V142H500.945ZM500.945 215.84V218.84H546.575V215.84V212.84H500.945V215.84ZM546.575 215.84H543.575V233H546.575H549.575V215.84H546.575ZM546.575 233V230H479.885V233V236H546.575V233ZM558.589 233L555.849 231.779L553.968 236H558.589V233ZM599.149 142V139H597.202L596.409 140.779L599.149 142ZM619.949 142L622.688 140.775L621.894 139H619.949V142ZM660.639 233V236H665.267L663.378 231.775L660.639 233ZM638.539 233L635.768 234.148L636.535 236H638.539V233ZM605.259 152.66V149.66H600.769L602.488 153.808L605.259 152.66ZM613.579 152.66L616.349 153.812L618.076 149.66H613.579V152.66ZM580.169 233V236H582.171L582.939 234.152L580.169 233ZM578.869 213.5L576.037 212.51L574.643 216.5H578.869V213.5ZM584.459 197.51V194.51H582.33L581.627 196.52L584.459 197.51ZM631.259 197.51L634.084 196.5L633.372 194.51H631.259V197.51ZM636.979 213.5V216.5H641.239L639.804 212.49L636.979 213.5ZM558.589 233L561.33 234.221L601.89 143.221L599.149 142L596.409 140.779L555.849 231.779L558.589 233ZM599.149 142V145H619.949V142V139H599.149V142ZM619.949 142L617.211 143.225L657.901 234.225L660.639 233L663.378 231.775L622.688 140.775L619.949 142ZM660.639 233V230H638.539V233V236H660.639V233ZM638.539 233L641.311 231.852L608.031 151.512L605.259 152.66L602.488 153.808L635.768 234.148L638.539 233ZM605.259 152.66V155.66H613.579V152.66V149.66H605.259V152.66ZM613.579 152.66L610.809 151.508L577.399 231.848L580.169 233L582.939 234.152L616.349 153.812L613.579 152.66ZM580.169 233V230H558.589V233V236H580.169V233ZM578.869 213.5L581.701 214.49L587.291 198.5L584.459 197.51L581.627 196.52L576.037 212.51L578.869 213.5ZM584.459 197.51V200.51H631.259V197.51V194.51H584.459V197.51ZM631.259 197.51L628.435 198.52L634.155 214.51L636.979 213.5L639.804 212.49L634.084 196.5L631.259 197.51ZM636.979 213.5V210.5H578.869V213.5V216.5H636.979V213.5ZM690.751 231.7L689.892 234.575L689.909 234.58L689.926 234.585L690.751 231.7ZM674.631 224.03L671.896 222.797L670.918 224.965L672.806 226.412L674.631 224.03ZM681.781 208.17L683.519 205.725L680.545 203.61L679.046 206.937L681.781 208.17ZM695.561 215.06L694.584 217.897L694.612 217.906L694.64 217.915L695.561 215.06ZM721.821 216.49L722.71 219.355L722.74 219.346L722.769 219.336L721.821 216.49ZM727.541 212.98L725.225 211.073L727.541 212.98ZM726.501 202.19L724.666 204.564L724.701 204.591L724.736 204.616L726.501 202.19ZM718.961 198.68L718.084 201.549L718.121 201.56L718.158 201.571L718.961 198.68ZM708.561 196.08L707.881 199.002L707.92 199.011L707.959 199.019L708.561 196.08ZM697.251 192.96L696.322 195.813L696.331 195.816L696.341 195.819L697.251 192.96ZM686.981 188.28L685.416 190.84L686.981 188.28ZM679.311 180.74L676.751 182.304L676.766 182.33L676.783 182.355L679.311 180.74ZM680.611 154.61L678.107 152.957L678.103 152.964L678.099 152.97L680.611 154.61ZM693.351 144.34L694.573 147.08L694.582 147.075L694.592 147.071L693.351 144.34ZM731.701 142.52L730.973 145.43L730.994 145.436L731.016 145.441L731.701 142.52ZM746.391 148.5L749.17 149.63L750.114 147.306L747.995 145.965L746.391 148.5ZM739.891 164.49L738.402 167.095L741.379 168.796L742.67 165.62L739.891 164.49ZM727.151 159.16L726.326 162.045L726.354 162.052L726.381 162.06L727.151 159.16ZM704.661 158.77L703.628 155.953H703.628L704.661 158.77ZM699.071 162.54L701.454 164.362L701.479 164.33L701.503 164.296L699.071 162.54ZM700.241 173.46L698.406 175.834L698.441 175.861L698.476 175.886L700.241 173.46ZM707.781 176.84L706.978 179.731L707.781 176.84ZM718.051 179.44L717.371 182.362L717.378 182.364L717.386 182.365L718.051 179.44ZM729.361 182.43L728.492 185.302L728.501 185.304L728.511 185.307L729.361 182.43ZM739.761 186.98L741.325 184.42V184.42L739.761 186.98ZM747.301 194.52L744.741 196.084L744.756 196.11L744.773 196.135L747.301 194.52ZM746.001 220.39L748.489 222.066L746.001 220.39ZM733.131 230.66L731.889 227.929L731.881 227.932L731.873 227.936L733.131 230.66ZM711.681 234.56V231.56C704.666 231.56 697.967 230.642 691.575 228.815L690.751 231.7L689.926 234.585C696.881 236.571 704.135 237.56 711.681 237.56V234.56ZM690.751 231.7L691.609 228.825C685.168 226.902 680.156 224.483 676.455 221.648L674.631 224.03L672.806 226.412C677.252 229.817 682.986 232.512 689.892 234.575L690.751 231.7ZM674.631 224.03L677.366 225.263L684.516 209.403L681.781 208.17L679.046 206.937L671.896 222.797L674.631 224.03ZM681.781 208.17L680.042 210.615C684.211 213.58 689.07 215.998 694.584 217.897L695.561 215.06L696.537 212.223C691.477 210.482 687.15 208.307 683.519 205.725L681.781 208.17ZM695.561 215.06L694.64 217.915C700.3 219.741 706.027 220.66 711.811 220.66V217.66V214.66C706.674 214.66 701.568 213.846 696.482 212.205L695.561 215.06ZM711.811 217.66V220.66C716.119 220.66 719.792 220.261 722.71 219.355L721.821 216.49L720.931 213.625C718.823 214.279 715.823 214.66 711.811 214.66V217.66ZM721.821 216.49L722.769 219.336C725.683 218.365 728.161 216.946 729.856 214.887L727.541 212.98L725.225 211.073C724.494 211.961 723.158 212.882 720.872 213.644L721.821 216.49ZM727.541 212.98L729.856 214.887C731.512 212.877 732.361 210.513 732.361 207.91H729.361H726.361C726.361 209.12 725.996 210.136 725.225 211.073L727.541 212.98ZM729.361 207.91H732.361C732.361 204.557 730.974 201.734 728.265 199.764L726.501 202.19L724.736 204.616C725.84 205.419 726.361 206.41 726.361 207.91H729.361ZM726.501 202.19L728.335 199.816C726.035 198.039 723.136 196.726 719.764 195.789L718.961 198.68L718.158 201.571C721.025 202.367 723.153 203.394 724.666 204.564L726.501 202.19ZM718.961 198.68L719.837 195.811C716.611 194.825 713.051 193.936 709.162 193.141L708.561 196.08L707.959 199.019C711.697 199.784 715.07 200.628 718.084 201.549L718.961 198.68ZM708.561 196.08L709.24 193.158C705.594 192.31 701.901 191.292 698.16 190.101L697.251 192.96L696.341 195.819C700.227 197.055 704.073 198.117 707.881 199.002L708.561 196.08ZM697.251 192.96L698.179 190.107C694.659 188.961 691.451 187.496 688.545 185.72L686.981 188.28L685.416 190.84C688.75 192.877 692.388 194.532 696.322 195.813L697.251 192.96ZM686.981 188.28L688.545 185.72C685.819 184.054 683.59 181.866 681.839 179.125L679.311 180.74L676.783 182.355C679.018 185.854 681.902 188.692 685.416 190.84L686.981 188.28ZM679.311 180.74L681.87 179.176C680.331 176.657 679.451 173.257 679.451 168.78H676.451H673.451C673.451 174.009 674.477 178.583 676.751 182.304L679.311 180.74ZM676.451 168.78H679.451C679.451 164.147 680.676 159.996 683.122 156.25L680.611 154.61L678.099 152.97C674.998 157.717 673.451 163.013 673.451 168.78H676.451ZM680.611 154.61L683.114 156.263C685.604 152.49 689.362 149.405 694.573 147.08L693.351 144.34L692.128 141.6C686.072 144.302 681.337 148.064 678.107 152.957L680.611 154.61ZM693.351 144.34L694.592 147.071C699.807 144.701 706.501 143.44 714.801 143.44V140.44V137.44C705.94 137.44 698.334 138.779 692.109 141.609L693.351 144.34ZM714.801 140.44V143.44C720.275 143.44 725.664 144.103 730.973 145.43L731.701 142.52L732.428 139.61C726.643 138.163 720.766 137.44 714.801 137.44V140.44ZM731.701 142.52L731.016 145.441C736.28 146.675 740.858 148.55 744.787 151.035L746.391 148.5L747.995 145.965C743.43 143.077 738.215 140.965 732.385 139.599L731.701 142.52ZM746.391 148.5L743.611 147.37L737.111 163.36L739.891 164.49L742.67 165.62L749.17 149.63L746.391 148.5ZM739.891 164.49L741.379 161.885C736.932 159.344 732.445 157.461 727.92 156.26L727.151 159.16L726.381 162.06C730.35 163.113 734.356 164.783 738.402 167.095L739.891 164.49ZM727.151 159.16L727.975 156.275C723.482 154.992 719.045 154.34 714.671 154.34V157.34V160.34C718.443 160.34 722.325 160.901 726.326 162.045L727.151 159.16ZM714.671 157.34V154.34C710.395 154.34 706.675 154.836 703.628 155.953L704.661 158.77L705.693 161.587C707.846 160.797 710.799 160.34 714.671 160.34V157.34ZM704.661 158.77L703.628 155.953C700.702 157.026 698.238 158.569 696.639 160.784L699.071 162.54L701.503 164.296C702.156 163.391 703.42 162.42 705.693 161.587L704.661 158.77ZM699.071 162.54L696.688 160.718C695.13 162.754 694.381 165.14 694.381 167.74H697.381H700.381C700.381 166.353 700.758 165.272 701.454 164.362L699.071 162.54ZM697.381 167.74H694.381C694.381 171.041 695.79 173.812 698.406 175.834L700.241 173.46L702.075 171.086C700.878 170.161 700.381 169.119 700.381 167.74H697.381ZM700.241 173.46L698.476 175.886C700.759 177.547 703.632 178.801 706.978 179.731L707.781 176.84L708.584 173.949C705.689 173.145 703.535 172.147 702.005 171.034L700.241 173.46ZM707.781 176.84L706.978 179.731C710.145 180.61 713.61 181.487 717.371 182.362L718.051 179.44L718.73 176.518C715.038 175.659 711.656 174.803 708.584 173.949L707.781 176.84ZM718.051 179.44L717.386 182.365C721.131 183.217 724.833 184.195 728.492 185.302L729.361 182.43L730.229 179.558C726.435 178.411 722.597 177.397 718.715 176.515L718.051 179.44ZM729.361 182.43L728.511 185.307C732.095 186.366 735.318 187.781 738.196 189.54L739.761 186.98L741.325 184.42C737.963 182.366 734.253 180.747 730.211 179.553L729.361 182.43ZM739.761 186.98L738.196 189.54C740.91 191.198 743.082 193.37 744.741 196.084L747.301 194.52L749.86 192.956C747.706 189.43 744.851 186.575 741.325 184.42L739.761 186.98ZM747.301 194.52L744.773 196.135C746.381 198.652 747.291 201.993 747.291 206.35H750.291H753.291C753.291 201.173 752.207 196.628 749.829 192.905L747.301 194.52ZM750.291 206.35H747.291C747.291 210.865 746.039 214.962 743.512 218.714L746.001 220.39L748.489 222.066C751.682 217.325 753.291 212.061 753.291 206.35H750.291ZM746.001 220.39L743.512 218.714C741.026 222.406 737.219 225.506 731.889 227.929L733.131 230.66L734.372 233.391C740.482 230.614 745.255 226.867 748.489 222.066L746.001 220.39ZM733.131 230.66L731.873 227.936C726.758 230.297 720.074 231.56 711.681 231.56V234.56V237.56C720.62 237.56 728.236 236.223 734.388 233.384L733.131 230.66Z" fill="white" mask="url(#path-1-outside-1_1032_4)"/>
<mask id="path-3-outside-2_1032_4" maskUnits="userSpaceOnUse" x="0" y="240" width="758" height="109" fill="black">
<rect fill="white" y="240" width="758" height="109"/>
<path d="M10.939 340L51.499 249H72.299L112.989 340H90.889L57.609 259.66H65.929L32.519 340H10.939ZM31.219 320.5L36.809 304.51H83.609L89.329 320.5H31.219ZM134.13 340V249H151.55L205.24 314.52H196.79V249H217.59V340H200.3L146.48 274.48H154.93V340H134.13ZM250.82 340V249H292.16C302.04 249 310.75 250.907 318.29 254.72C325.83 258.447 331.724 263.69 335.97 270.45C340.217 277.21 342.34 285.227 342.34 294.5C342.34 303.687 340.217 311.703 335.97 318.55C331.724 325.31 325.83 330.597 318.29 334.41C310.75 338.137 302.04 340 292.16 340H250.82ZM271.88 322.71H291.12C297.187 322.71 302.43 321.583 306.85 319.33C311.357 316.99 314.824 313.697 317.25 309.45C319.764 305.203 321.02 300.22 321.02 294.5C321.02 288.693 319.764 283.71 317.25 279.55C314.824 275.303 311.357 272.053 306.85 269.8C302.43 267.46 297.187 266.29 291.12 266.29H271.88V322.71ZM356.693 340L397.253 249H418.053L458.743 340H436.643L403.363 259.66H411.683L378.273 340H356.693ZM376.973 320.5L382.563 304.51H429.363L435.083 320.5H376.973ZM479.885 340V249H500.945V322.84H546.575V340H479.885ZM558.589 340L599.149 249H619.949L660.639 340H638.539L605.259 259.66H613.579L580.169 340H558.589ZM578.869 320.5L584.459 304.51H631.259L636.979 320.5H578.869ZM711.681 341.56C704.401 341.56 697.424 340.607 690.751 338.7C684.077 336.707 678.704 334.15 674.631 331.03L681.781 315.17C685.681 317.943 690.274 320.24 695.561 322.06C700.934 323.793 706.351 324.66 711.811 324.66C715.971 324.66 719.307 324.27 721.821 323.49C724.421 322.623 726.327 321.453 727.541 319.98C728.754 318.507 729.361 316.817 729.361 314.91C729.361 312.483 728.407 310.577 726.501 309.19C724.594 307.717 722.081 306.547 718.961 305.68C715.841 304.727 712.374 303.86 708.561 303.08C704.834 302.213 701.064 301.173 697.251 299.96C693.524 298.747 690.101 297.187 686.981 295.28C683.861 293.373 681.304 290.86 679.311 287.74C677.404 284.62 676.451 280.633 676.451 275.78C676.451 270.58 677.837 265.857 680.611 261.61C683.471 257.277 687.717 253.853 693.351 251.34C699.071 248.74 706.221 247.44 714.801 247.44C720.521 247.44 726.154 248.133 731.701 249.52C737.247 250.82 742.144 252.813 746.391 255.5L739.891 271.49C735.644 269.063 731.397 267.287 727.151 266.16C722.904 264.947 718.744 264.34 714.671 264.34C710.597 264.34 707.261 264.817 704.661 265.77C702.061 266.723 700.197 267.98 699.071 269.54C697.944 271.013 697.381 272.747 697.381 274.74C697.381 277.08 698.334 278.987 700.241 280.46C702.147 281.847 704.661 282.973 707.781 283.84C710.901 284.707 714.324 285.573 718.051 286.44C721.864 287.307 725.634 288.303 729.361 289.43C733.174 290.557 736.641 292.073 739.761 293.98C742.881 295.887 745.394 298.4 747.301 301.52C749.294 304.64 750.291 308.583 750.291 313.35C750.291 318.463 748.861 323.143 746.001 327.39C743.141 331.637 738.851 335.06 733.131 337.66C727.497 340.26 720.347 341.56 711.681 341.56Z"/>
</mask>
<path d="M10.939 340L4.54531 337.15L0.155141 347H10.939V340ZM51.499 249V242H46.9551L45.1053 246.15L51.499 249ZM72.299 249L78.6892 246.143L76.8369 242H72.299V249ZM112.989 340V347H123.787L119.379 337.143L112.989 340ZM90.889 340L84.4219 342.679L86.2118 347H90.889V340ZM57.609 259.66V252.66H47.1325L51.1419 262.339L57.609 259.66ZM65.929 259.66L72.3924 262.348L76.4211 252.66H65.929V259.66ZM32.519 340V347H37.1891L38.9824 342.688L32.519 340ZM31.219 320.5L24.6111 318.19L21.3564 327.5H31.219V320.5ZM36.809 304.51V297.51H31.8407L30.2011 302.2L36.809 304.51ZM83.609 304.51L90.2 302.152L88.5393 297.51H83.609V304.51ZM89.329 320.5V327.5H99.2675L95.92 318.142L89.329 320.5ZM10.939 340L17.3326 342.85L57.8926 251.85L51.499 249L45.1053 246.15L4.54531 337.15L10.939 340ZM51.499 249V256H72.299V249V242H51.499V249ZM72.299 249L65.9087 251.857L106.599 342.857L112.989 340L119.379 337.143L78.6892 246.143L72.299 249ZM112.989 340V333H90.889V340V347H112.989V340ZM90.889 340L97.3561 337.321L64.0761 256.981L57.609 259.66L51.1419 262.339L84.4219 342.679L90.889 340ZM57.609 259.66V266.66H65.929V259.66V252.66H57.609V259.66ZM65.929 259.66L59.4656 256.972L26.0556 337.312L32.519 340L38.9824 342.688L72.3924 262.348L65.929 259.66ZM32.519 340V333H10.939V340V347H32.519V340ZM31.219 320.5L37.8268 322.81L43.4168 306.82L36.809 304.51L30.2011 302.2L24.6111 318.19L31.219 320.5ZM36.809 304.51V311.51H83.609V304.51V297.51H36.809V304.51ZM83.609 304.51L77.018 306.868L82.738 322.858L89.329 320.5L95.92 318.142L90.2 302.152L83.609 304.51ZM89.329 320.5V313.5H31.219V320.5V327.5H89.329V320.5ZM134.13 340H127.13V347H134.13V340ZM134.13 249V242H127.13V249H134.13ZM151.55 249L156.965 244.563L154.864 242H151.55V249ZM205.24 314.52V321.52H220.026L210.655 310.083L205.24 314.52ZM196.79 314.52H189.79V321.52H196.79V314.52ZM196.79 249V242H189.79V249H196.79ZM217.59 249H224.59V242H217.59V249ZM217.59 340V347H224.59V340H217.59ZM200.3 340L194.891 344.443L196.991 347H200.3V340ZM146.48 274.48V267.48H131.671L141.071 278.923L146.48 274.48ZM154.93 274.48H161.93V267.48H154.93V274.48ZM154.93 340V347H161.93V340H154.93ZM134.13 340H141.13V249H134.13H127.13V340H134.13ZM134.13 249V256H151.55V249V242H134.13V249ZM151.55 249L146.136 253.437L199.826 318.957L205.24 314.52L210.655 310.083L156.965 244.563L151.55 249ZM205.24 314.52V307.52H196.79V314.52V321.52H205.24V314.52ZM196.79 314.52H203.79V249H196.79H189.79V314.52H196.79ZM196.79 249V256H217.59V249V242H196.79V249ZM217.59 249H210.59V340H217.59H224.59V249H217.59ZM217.59 340V333H200.3V340V347H217.59V340ZM200.3 340L205.709 335.557L151.889 270.037L146.48 274.48L141.071 278.923L194.891 344.443L200.3 340ZM146.48 274.48V281.48H154.93V274.48V267.48H146.48V274.48ZM154.93 274.48H147.93V340H154.93H161.93V274.48H154.93ZM154.93 340V333H134.13V340V347H154.93V340ZM250.82 340H243.82V347H250.82V340ZM250.82 249V242H243.82V249H250.82ZM318.29 254.72L315.131 260.967L315.16 260.981L315.189 260.995L318.29 254.72ZM335.97 270.45L330.043 274.174L335.97 270.45ZM335.97 318.55L341.898 322.274L341.909 322.257L341.919 322.24L335.97 318.55ZM318.29 334.41L321.392 340.685L321.421 340.671L321.45 340.657L318.29 334.41ZM271.88 322.71H264.88V329.71H271.88V322.71ZM306.85 319.33L310.03 325.566L310.053 325.554L310.076 325.542L306.85 319.33ZM317.25 309.45L311.226 305.885L311.199 305.931L311.173 305.977L317.25 309.45ZM317.25 279.55L311.173 283.023L311.215 283.097L311.259 283.17L317.25 279.55ZM306.85 269.8L303.575 275.987L303.647 276.025L303.72 276.061L306.85 269.8ZM271.88 266.29V259.29H264.88V266.29H271.88ZM250.82 340H257.82V249H250.82H243.82V340H250.82ZM250.82 249V256H292.16V249V242H250.82V249ZM292.16 249V256C301.128 256 308.724 257.726 315.131 260.967L318.29 254.72L321.45 248.473C312.777 244.087 302.952 242 292.16 242V249ZM318.29 254.72L315.189 260.995C321.634 264.181 326.522 268.569 330.043 274.174L335.97 270.45L341.898 266.726C336.926 258.811 330.027 252.712 321.392 248.445L318.29 254.72ZM335.97 270.45L330.043 274.174C333.482 279.648 335.34 286.327 335.34 294.5H342.34H349.34C349.34 284.126 346.952 274.772 341.898 266.726L335.97 270.45ZM342.34 294.5H335.34C335.34 302.57 333.489 309.271 330.022 314.86L335.97 318.55L341.919 322.24C346.945 314.136 349.34 304.803 349.34 294.5H342.34ZM335.97 318.55L330.043 314.826C326.513 320.446 321.606 324.889 315.131 328.163L318.29 334.41L321.45 340.657C330.055 336.304 336.935 330.174 341.898 322.274L335.97 318.55ZM318.29 334.41L315.189 328.135C308.768 331.308 301.152 333 292.16 333V340V347C302.929 347 312.733 344.965 321.392 340.685L318.29 334.41ZM292.16 340V333H250.82V340V347H292.16V340ZM271.88 322.71V329.71H291.12V322.71V315.71H271.88V322.71ZM291.12 322.71V329.71C298.05 329.71 304.43 328.421 310.03 325.566L306.85 319.33L303.671 313.094C300.431 314.745 296.325 315.71 291.12 315.71V322.71ZM306.85 319.33L310.076 325.542C315.729 322.607 320.207 318.384 323.328 312.923L317.25 309.45L311.173 305.977C309.44 309.009 306.985 311.373 303.625 313.118L306.85 319.33ZM317.25 309.45L323.275 313.015C326.522 307.527 328.02 301.272 328.02 294.5H321.02H314.02C314.02 299.168 313.005 302.879 311.226 305.885L317.25 309.45ZM321.02 294.5H328.02C328.02 287.667 326.533 281.378 323.242 275.93L317.25 279.55L311.259 283.17C312.994 286.042 314.02 289.719 314.02 294.5H321.02ZM317.25 279.55L323.328 276.077C320.194 270.593 315.684 266.391 309.981 263.539L306.85 269.8L303.72 276.061C307.03 277.716 309.453 280.014 311.173 283.023L317.25 279.55ZM306.85 269.8L310.126 263.613C304.503 260.637 298.088 259.29 291.12 259.29V266.29V273.29C296.286 273.29 300.358 274.283 303.575 275.987L306.85 269.8ZM291.12 266.29V259.29H271.88V266.29V273.29H291.12V266.29ZM271.88 266.29H264.88V322.71H271.88H278.88V266.29H271.88ZM356.693 340L350.3 337.15L345.909 347H356.693V340ZM397.253 249V242H392.709L390.86 246.15L397.253 249ZM418.053 249L424.444 246.143L422.591 242H418.053V249ZM458.743 340V347H469.541L465.134 337.143L458.743 340ZM436.643 340L430.176 342.679L431.966 347H436.643V340ZM403.363 259.66V252.66H392.887L396.896 262.339L403.363 259.66ZM411.683 259.66L418.147 262.348L422.175 252.66H411.683V259.66ZM378.273 340V347H382.943L384.737 342.688L378.273 340ZM376.973 320.5L370.365 318.19L367.111 327.5H376.973V320.5ZM382.563 304.51V297.51H377.595L375.955 302.2L382.563 304.51ZM429.363 304.51L435.954 302.152L434.294 297.51H429.363V304.51ZM435.083 320.5V327.5H445.022L441.674 318.142L435.083 320.5ZM356.693 340L363.087 342.85L403.647 251.85L397.253 249L390.86 246.15L350.3 337.15L356.693 340ZM397.253 249V256H418.053V249V242H397.253V249ZM418.053 249L411.663 251.857L452.353 342.857L458.743 340L465.134 337.143L424.444 246.143L418.053 249ZM458.743 340V333H436.643V340V347H458.743V340ZM436.643 340L443.11 337.321L409.83 256.981L403.363 259.66L396.896 262.339L430.176 342.679L436.643 340ZM403.363 259.66V266.66H411.683V259.66V252.66H403.363V259.66ZM411.683 259.66L405.22 256.972L371.81 337.312L378.273 340L384.737 342.688L418.147 262.348L411.683 259.66ZM378.273 340V333H356.693V340V347H378.273V340ZM376.973 320.5L383.581 322.81L389.171 306.82L382.563 304.51L375.955 302.2L370.365 318.19L376.973 320.5ZM382.563 304.51V311.51H429.363V304.51V297.51H382.563V304.51ZM429.363 304.51L422.772 306.868L428.492 322.858L435.083 320.5L441.674 318.142L435.954 302.152L429.363 304.51ZM435.083 320.5V313.5H376.973V320.5V327.5H435.083V320.5ZM479.885 340H472.885V347H479.885V340ZM479.885 249V242H472.885V249H479.885ZM500.945 249H507.945V242H500.945V249ZM500.945 322.84H493.945V329.84H500.945V322.84ZM546.575 322.84H553.575V315.84H546.575V322.84ZM546.575 340V347H553.575V340H546.575ZM479.885 340H486.885V249H479.885H472.885V340H479.885ZM479.885 249V256H500.945V249V242H479.885V249ZM500.945 249H493.945V322.84H500.945H507.945V249H500.945ZM500.945 322.84V329.84H546.575V322.84V315.84H500.945V322.84ZM546.575 322.84H539.575V340H546.575H553.575V322.84H546.575ZM546.575 340V333H479.885V340V347H546.575V340ZM558.589 340L552.196 337.15L547.806 347H558.589V340ZM599.149 249V242H594.606L592.756 246.15L599.149 249ZM619.949 249L626.34 246.143L624.487 242H619.949V249ZM660.639 340V347H671.437L667.03 337.143L660.639 340ZM638.539 340L632.072 342.679L633.862 347H638.539V340ZM605.259 259.66V252.66H594.783L598.792 262.339L605.259 259.66ZM613.579 259.66L620.043 262.348L624.072 252.66H613.579V259.66ZM580.169 340V347H584.84L586.633 342.688L580.169 340ZM578.869 320.5L572.262 318.19L569.007 327.5H578.869V320.5ZM584.459 304.51V297.51H579.491L577.852 302.2L584.459 304.51ZM631.259 304.51L637.85 302.152L636.19 297.51H631.259V304.51ZM636.979 320.5V327.5H646.918L643.57 318.142L636.979 320.5ZM558.589 340L564.983 342.85L605.543 251.85L599.149 249L592.756 246.15L552.196 337.15L558.589 340ZM599.149 249V256H619.949V249V242H599.149V249ZM619.949 249L613.559 251.857L654.249 342.857L660.639 340L667.03 337.143L626.34 246.143L619.949 249ZM660.639 340V333H638.539V340V347H660.639V340ZM638.539 340L645.006 337.321L611.727 256.981L605.259 259.66L598.792 262.339L632.072 342.679L638.539 340ZM605.259 259.66V266.66H613.579V259.66V252.66H605.259V259.66ZM613.579 259.66L607.116 256.972L573.706 337.312L580.169 340L586.633 342.688L620.043 262.348L613.579 259.66ZM580.169 340V333H558.589V340V347H580.169V340ZM578.869 320.5L585.477 322.81L591.067 306.82L584.459 304.51L577.852 302.2L572.262 318.19L578.869 320.5ZM584.459 304.51V311.51H631.259V304.51V297.51H584.459V304.51ZM631.259 304.51L624.668 306.868L630.388 322.858L636.979 320.5L643.57 318.142L637.85 302.152L631.259 304.51ZM636.979 320.5V313.5H578.869V320.5V327.5H636.979V320.5ZM690.751 338.7L688.747 345.407L688.787 345.419L688.828 345.431L690.751 338.7ZM674.631 331.03L668.249 328.153L665.968 333.212L670.374 336.587L674.631 331.03ZM681.781 315.17L685.837 309.465L678.898 304.531L675.399 312.293L681.781 315.17ZM695.561 322.06L693.282 328.679L693.347 328.701L693.412 328.722L695.561 322.06ZM721.821 323.49L723.895 330.175L723.965 330.154L724.034 330.131L721.821 323.49ZM727.541 319.98L722.137 315.53V315.53L727.541 319.98ZM726.501 309.19L722.22 314.729L722.301 314.791L722.383 314.851L726.501 309.19ZM718.961 305.68L716.915 312.374L717.001 312.401L717.087 312.425L718.961 305.68ZM708.561 303.08L706.975 309.898L707.066 309.919L707.158 309.938L708.561 303.08ZM697.251 299.96L695.083 306.616L695.106 306.623L695.128 306.63L697.251 299.96ZM686.981 295.28L683.33 301.253V301.253L686.981 295.28ZM679.311 287.74L673.338 291.39L673.374 291.45L673.412 291.509L679.311 287.74ZM680.611 261.61L674.768 257.754L674.759 257.768L674.75 257.782L680.611 261.61ZM693.351 251.34L696.203 257.733L696.225 257.723L696.247 257.713L693.351 251.34ZM731.701 249.52L730.003 256.311L730.053 256.324L730.103 256.335L731.701 249.52ZM746.391 255.5L752.875 258.136L755.079 252.714L750.133 249.584L746.391 255.5ZM739.891 271.49L736.418 277.568L743.363 281.536L746.375 274.126L739.891 271.49ZM727.151 266.16L725.228 272.891L725.291 272.909L725.356 272.926L727.151 266.16ZM704.661 265.77L702.251 259.198V259.198L704.661 265.77ZM699.071 269.54L704.631 273.792L704.689 273.716L704.745 273.638L699.071 269.54ZM700.241 280.46L695.96 285.999L696.041 286.061L696.123 286.121L700.241 280.46ZM707.781 283.84L705.907 290.585L707.781 283.84ZM718.051 286.44L716.465 293.258L716.482 293.262L716.499 293.266L718.051 286.44ZM729.361 289.43L727.335 296.13L727.356 296.137L727.377 296.143L729.361 289.43ZM739.761 293.98L743.411 288.007L739.761 293.98ZM747.301 301.52L741.328 305.17L741.364 305.23L741.402 305.289L747.301 301.52ZM746.001 327.39L751.807 331.3L746.001 327.39ZM733.131 337.66L730.234 331.287L730.216 331.296L730.197 331.304L733.131 337.66ZM711.681 341.56V334.56C705.019 334.56 698.692 333.689 692.674 331.969L690.751 338.7L688.828 345.431C696.156 347.525 703.782 348.56 711.681 348.56V341.56ZM690.751 338.7L692.754 331.993C686.623 330.161 682.092 327.927 678.887 325.473L674.631 331.03L670.374 336.587C675.316 340.373 681.531 343.252 688.747 345.407L690.751 338.7ZM674.631 331.03L681.012 333.907L688.162 318.047L681.781 315.17L675.399 312.293L668.249 328.153L674.631 331.03ZM681.781 315.17L677.724 320.875C682.253 324.095 687.466 326.676 693.282 328.679L695.561 322.06L697.839 315.441C693.082 313.804 689.109 311.792 685.837 309.465L681.781 315.17ZM695.561 322.06L693.412 328.722C699.455 330.672 705.596 331.66 711.811 331.66V324.66V317.66C707.105 317.66 702.412 316.915 697.71 315.398L695.561 322.06ZM711.811 324.66V331.66C716.316 331.66 720.437 331.249 723.895 330.175L721.821 323.49L719.746 316.805C718.177 317.291 715.625 317.66 711.811 317.66V324.66ZM721.821 323.49L724.034 330.131C727.366 329.02 730.606 327.27 732.944 324.43L727.541 319.98L722.137 315.53C722.049 315.637 721.475 316.227 719.607 316.849L721.821 323.49ZM727.541 319.98L732.944 324.43C735.188 321.705 736.361 318.442 736.361 314.91H729.361H722.361C722.361 315.191 722.319 315.309 722.137 315.53L727.541 319.98ZM729.361 314.91H736.361C736.361 310.321 734.398 306.278 730.618 303.529L726.501 309.19L722.383 314.851C722.425 314.882 722.45 314.903 722.462 314.914C722.474 314.925 722.474 314.926 722.467 314.917C722.459 314.908 722.446 314.892 722.43 314.869C722.414 314.845 722.399 314.819 722.385 314.79C722.371 314.762 722.36 314.738 722.354 314.718C722.347 314.699 722.345 314.689 722.345 314.692C722.346 314.696 722.361 314.762 722.361 314.91H729.361ZM726.501 309.19L730.781 303.651C727.957 301.469 724.544 299.966 720.834 298.935L718.961 305.68L717.087 312.425C719.617 313.127 721.231 313.964 722.22 314.729L726.501 309.19ZM718.961 305.68L721.006 298.986C717.639 297.957 713.953 297.038 709.963 296.222L708.561 303.08L707.158 309.938C710.794 310.682 714.042 311.497 716.915 312.374L718.961 305.68ZM708.561 303.08L710.146 296.262C706.608 295.439 703.017 294.449 699.373 293.29L697.251 299.96L695.128 306.63C699.11 307.898 703.059 308.987 706.975 309.898L708.561 303.08ZM697.251 299.96L699.418 293.304C696.173 292.248 693.253 290.909 690.631 289.307L686.981 295.28L683.33 301.253C686.949 303.464 690.875 305.246 695.083 306.616L697.251 299.96ZM686.981 295.28L690.631 289.307C688.43 287.962 686.638 286.207 685.209 283.971L679.311 287.74L673.412 291.509C675.97 295.513 679.291 298.785 683.33 301.253L686.981 295.28ZM679.311 287.74L685.284 284.09C684.234 282.373 683.451 279.756 683.451 275.78H676.451H669.451C669.451 281.511 670.573 286.867 673.338 291.39L679.311 287.74ZM676.451 275.78H683.451C683.451 271.903 684.461 268.516 686.471 265.438L680.611 261.61L674.75 257.782C671.213 263.197 669.451 269.257 669.451 275.78H676.451ZM680.611 261.61L686.453 265.466C688.45 262.44 691.555 259.806 696.203 257.733L693.351 251.34L690.499 244.947C683.879 247.901 678.492 252.113 674.768 257.754L680.611 261.61ZM693.351 251.34L696.247 257.713C700.789 255.648 706.876 254.44 714.801 254.44V247.44V240.44C705.565 240.44 697.352 241.832 690.454 244.967L693.351 251.34ZM714.801 247.44V254.44C719.949 254.44 725.012 255.063 730.003 256.311L731.701 249.52L733.398 242.729C727.296 241.203 721.093 240.44 714.801 240.44V247.44ZM731.701 249.52L730.103 256.335C734.99 257.481 739.143 259.198 742.648 261.416L746.391 255.5L750.133 249.584C745.145 246.429 739.505 244.159 733.298 242.705L731.701 249.52ZM746.391 255.5L739.906 252.864L733.406 268.854L739.891 271.49L746.375 274.126L752.875 258.136L746.391 255.5ZM739.891 271.49L743.364 265.412C738.649 262.718 733.841 260.693 728.946 259.394L727.151 266.16L725.356 272.926C728.953 273.88 732.639 275.409 736.418 277.568L739.891 271.49ZM727.151 266.16L729.074 259.429C724.254 258.052 719.447 257.34 714.671 257.34V264.34V271.34C718.041 271.34 721.554 271.841 725.228 272.891L727.151 266.16ZM714.671 264.34V257.34C710.126 257.34 705.895 257.862 702.251 259.198L704.661 265.77L707.07 272.342C708.626 271.772 711.068 271.34 714.671 271.34V264.34ZM704.661 265.77L702.251 259.198C698.89 260.43 695.626 262.354 693.396 265.442L699.071 269.54L704.745 273.638C704.769 273.606 705.232 273.016 707.07 272.342L704.661 265.77ZM699.071 269.54L693.51 265.288C691.378 268.076 690.381 271.332 690.381 274.74H697.381H704.381C704.381 274.161 704.51 273.951 704.631 273.792L699.071 269.54ZM697.381 274.74H690.381C690.381 279.322 692.398 283.246 695.96 285.999L700.241 280.46L704.521 274.921C704.399 274.827 704.346 274.768 704.333 274.752C704.322 274.739 704.336 274.754 704.357 274.795C704.377 274.836 704.387 274.869 704.389 274.88C704.391 274.889 704.381 274.848 704.381 274.74H697.381ZM700.241 280.46L696.123 286.121C698.908 288.146 702.261 289.572 705.907 290.585L707.781 283.84L709.654 277.095C707.06 276.375 705.386 275.547 704.358 274.799L700.241 280.46ZM707.781 283.84L705.907 290.585C709.138 291.482 712.659 292.373 716.465 293.258L718.051 286.44L719.636 279.622C715.989 278.774 712.663 277.931 709.654 277.095L707.781 283.84ZM718.051 286.44L716.499 293.266C720.154 294.096 723.766 295.051 727.335 296.13L729.361 289.43L731.386 282.73C727.502 281.555 723.574 280.517 719.602 279.614L718.051 286.44ZM729.361 289.43L727.377 296.143C730.656 297.112 733.555 298.391 736.11 299.953L739.761 293.98L743.411 288.007C739.727 285.756 735.692 284.002 731.344 282.717L729.361 289.43ZM739.761 293.98L736.11 299.953C738.283 301.281 740 302.998 741.328 305.17L747.301 301.52L753.274 297.87C750.788 293.802 747.478 290.493 743.411 288.007L739.761 293.98ZM747.301 301.52L741.402 305.289C742.496 307.001 743.291 309.54 743.291 313.35H750.291H757.291C757.291 307.627 756.092 302.279 753.199 297.751L747.301 301.52ZM750.291 313.35H743.291C743.291 317.068 742.277 320.387 740.195 323.48L746.001 327.39L751.807 331.3C755.444 325.9 757.291 319.858 757.291 313.35H750.291ZM746.001 327.39L740.195 323.48C738.206 326.432 735.043 329.102 730.234 331.287L733.131 337.66L736.027 344.033C742.658 341.018 748.075 336.841 751.807 331.3L746.001 327.39ZM733.131 337.66L730.197 331.304C725.773 333.346 719.71 334.56 711.681 334.56V341.56V348.56C720.984 348.56 729.222 347.174 736.064 344.016L733.131 337.66Z" fill="white" mask="url(#path-3-outside-2_1032_4)"/>
<mask id="path-5-outside-3_1032_4" maskUnits="userSpaceOnUse" x="0" y="26" width="758" height="109" fill="black">
<rect fill="white" y="26" width="758" height="109"/>
<path d="M10.939 126L51.499 35H72.299L112.989 126H90.889L57.609 45.66H65.929L32.519 126H10.939ZM31.219 106.5L36.809 90.51H83.609L89.329 106.5H31.219ZM134.13 126V35H151.55L205.24 100.52H196.79V35H217.59V126H200.3L146.48 60.48H154.93V126H134.13ZM250.82 126V35H292.16C302.04 35 310.75 36.9067 318.29 40.72C325.83 44.4467 331.724 49.69 335.97 56.45C340.217 63.21 342.34 71.2267 342.34 80.5C342.34 89.6867 340.217 97.7033 335.97 104.55C331.724 111.31 325.83 116.597 318.29 120.41C310.75 124.137 302.04 126 292.16 126H250.82ZM271.88 108.71H291.12C297.187 108.71 302.43 107.583 306.85 105.33C311.357 102.99 314.824 99.6967 317.25 95.45C319.764 91.2033 321.02 86.22 321.02 80.5C321.02 74.6933 319.764 69.71 317.25 65.55C314.824 61.3033 311.357 58.0533 306.85 55.8C302.43 53.46 297.187 52.29 291.12 52.29H271.88V108.71ZM356.693 126L397.253 35H418.053L458.743 126H436.643L403.363 45.66H411.683L378.273 126H356.693ZM376.973 106.5L382.563 90.51H429.363L435.083 106.5H376.973ZM479.885 126V35H500.945V108.84H546.575V126H479.885ZM558.589 126L599.149 35H619.949L660.639 126H638.539L605.259 45.66H613.579L580.169 126H558.589ZM578.869 106.5L584.459 90.51H631.259L636.979 106.5H578.869ZM711.681 127.56C704.401 127.56 697.424 126.607 690.751 124.7C684.077 122.707 678.704 120.15 674.631 117.03L681.781 101.17C685.681 103.943 690.274 106.24 695.561 108.06C700.934 109.793 706.351 110.66 711.811 110.66C715.971 110.66 719.307 110.27 721.821 109.49C724.421 108.623 726.327 107.453 727.541 105.98C728.754 104.507 729.361 102.817 729.361 100.91C729.361 98.4833 728.407 96.5767 726.501 95.19C724.594 93.7167 722.081 92.5467 718.961 91.68C715.841 90.7267 712.374 89.86 708.561 89.08C704.834 88.2133 701.064 87.1733 697.251 85.96C693.524 84.7467 690.101 83.1867 686.981 81.28C683.861 79.3733 681.304 76.86 679.311 73.74C677.404 70.62 676.451 66.6333 676.451 61.78C676.451 56.58 677.837 51.8567 680.611 47.61C683.471 43.2767 687.717 39.8533 693.351 37.34C699.071 34.74 706.221 33.44 714.801 33.44C720.521 33.44 726.154 34.1333 731.701 35.52C737.247 36.82 742.144 38.8133 746.391 41.5L739.891 57.49C735.644 55.0633 731.397 53.2867 727.151 52.16C722.904 50.9467 718.744 50.34 714.671 50.34C710.597 50.34 707.261 50.8167 704.661 51.77C702.061 52.7233 700.197 53.98 699.071 55.54C697.944 57.0133 697.381 58.7467 697.381 60.74C697.381 63.08 698.334 64.9867 700.241 66.46C702.147 67.8467 704.661 68.9733 707.781 69.84C710.901 70.7067 714.324 71.5733 718.051 72.44C721.864 73.3067 725.634 74.3033 729.361 75.43C733.174 76.5567 736.641 78.0733 739.761 79.98C742.881 81.8867 745.394 84.4 747.301 87.52C749.294 90.64 750.291 94.5833 750.291 99.35C750.291 104.463 748.861 109.143 746.001 113.39C743.141 117.637 738.851 121.06 733.131 123.66C727.497 126.26 720.347 127.56 711.681 127.56Z"/>
</mask>
<path d="M10.939 126L4.54531 123.15L0.155141 133H10.939V126ZM51.499 35V28H46.9551L45.1053 32.1502L51.499 35ZM72.299 35L78.6892 32.1426L76.8369 28H72.299V35ZM112.989 126V133H123.787L119.379 123.143L112.989 126ZM90.889 126L84.4219 128.679L86.2118 133H90.889V126ZM57.609 45.66V38.66H47.1325L51.1419 48.3389L57.609 45.66ZM65.929 45.66L72.3924 48.3478L76.4211 38.66H65.929V45.66ZM32.519 126V133H37.1891L38.9824 128.688L32.519 126ZM31.219 106.5L24.6111 104.19L21.3564 113.5H31.219V106.5ZM36.809 90.51V83.51H31.8407L30.2011 88.1999L36.809 90.51ZM83.609 90.51L90.2 88.1523L88.5393 83.51H83.609V90.51ZM89.329 106.5V113.5H99.2675L95.92 104.142L89.329 106.5ZM10.939 126L17.3326 128.85L57.8926 37.8497L51.499 35L45.1053 32.1502L4.54531 123.15L10.939 126ZM51.499 35V42H72.299V35V28H51.499V35ZM72.299 35L65.9087 37.8574L106.599 128.857L112.989 126L119.379 123.143L78.6892 32.1426L72.299 35ZM112.989 126V119H90.889V126V133H112.989V126ZM90.889 126L97.3561 123.321L64.0761 42.9811L57.609 45.66L51.1419 48.3389L84.4219 128.679L90.889 126ZM57.609 45.66V52.66H65.929V45.66V38.66H57.609V45.66ZM65.929 45.66L59.4656 42.9721L26.0556 123.312L32.519 126L38.9824 128.688L72.3924 48.3478L65.929 45.66ZM32.519 126V119H10.939V126V133H32.519V126ZM31.219 106.5L37.8268 108.81L43.4168 92.8201L36.809 90.51L30.2011 88.1999L24.6111 104.19L31.219 106.5ZM36.809 90.51V97.51H83.609V90.51V83.51H36.809V90.51ZM83.609 90.51L77.018 92.8678L82.738 108.858L89.329 106.5L95.92 104.142L90.2 88.1523L83.609 90.51ZM89.329 106.5V99.5H31.219V106.5V113.5H89.329V106.5ZM134.13 126H127.13V133H134.13V126ZM134.13 35V28H127.13V35H134.13ZM151.55 35L156.965 30.5632L154.864 28H151.55V35ZM205.24 100.52V107.52H220.026L210.655 96.0832L205.24 100.52ZM196.79 100.52H189.79V107.52H196.79V100.52ZM196.79 35V28H189.79V35H196.79ZM217.59 35H224.59V28H217.59V35ZM217.59 126V133H224.59V126H217.59ZM200.3 126L194.891 130.443L196.991 133H200.3V126ZM146.48 60.48V53.48H131.671L141.071 64.9232L146.48 60.48ZM154.93 60.48H161.93V53.48H154.93V60.48ZM154.93 126V133H161.93V126H154.93ZM134.13 126H141.13V35H134.13H127.13V126H134.13ZM134.13 35V42H151.55V35V28H134.13V35ZM151.55 35L146.136 39.4368L199.826 104.957L205.24 100.52L210.655 96.0832L156.965 30.5632L151.55 35ZM205.24 100.52V93.52H196.79V100.52V107.52H205.24V100.52ZM196.79 100.52H203.79V35H196.79H189.79V100.52H196.79ZM196.79 35V42H217.59V35V28H196.79V35ZM217.59 35H210.59V126H217.59H224.59V35H217.59ZM217.59 126V119H200.3V126V133H217.59V126ZM200.3 126L205.709 121.557L151.889 56.0368L146.48 60.48L141.071 64.9232L194.891 130.443L200.3 126ZM146.48 60.48V67.48H154.93V60.48V53.48H146.48V60.48ZM154.93 60.48H147.93V126H154.93H161.93V60.48H154.93ZM154.93 126V119H134.13V126V133H154.93V126ZM250.82 126H243.82V133H250.82V126ZM250.82 35V28H243.82V35H250.82ZM318.29 40.72L315.131 46.9666L315.16 46.9811L315.189 46.9953L318.29 40.72ZM335.97 56.45L330.043 60.1736L335.97 56.45ZM335.97 104.55L341.898 108.274L341.909 108.257L341.919 108.24L335.97 104.55ZM318.29 120.41L321.392 126.685L321.421 126.671L321.45 126.657L318.29 120.41ZM271.88 108.71H264.88V115.71H271.88V108.71ZM306.85 105.33L310.03 111.566L310.053 111.554L310.076 111.542L306.85 105.33ZM317.25 95.45L311.226 91.8848L311.199 91.9307L311.173 91.977L317.25 95.45ZM317.25 65.55L311.173 69.023L311.215 69.0969L311.259 69.1698L317.25 65.55ZM306.85 55.8L303.575 61.9865L303.647 62.0246L303.72 62.061L306.85 55.8ZM271.88 52.29V45.29H264.88V52.29H271.88ZM250.82 126H257.82V35H250.82H243.82V126H250.82ZM250.82 35V42H292.16V35V28H250.82V35ZM292.16 35V42C301.128 42 308.724 43.726 315.131 46.9666L318.29 40.72L321.45 34.4734C312.777 30.0873 302.952 28 292.16 28V35ZM318.29 40.72L315.189 46.9953C321.634 50.181 326.522 54.5687 330.043 60.1736L335.97 56.45L341.898 52.7264C336.926 44.8113 330.027 38.7124 321.392 34.4446L318.29 40.72ZM335.97 56.45L330.043 60.1736C333.482 65.6476 335.34 72.3272 335.34 80.5H342.34H349.34C349.34 70.1262 346.952 60.7724 341.898 52.7264L335.97 56.45ZM342.34 80.5H335.34C335.34 88.57 333.489 95.2706 330.022 100.86L335.97 104.55L341.919 108.24C346.945 100.136 349.34 90.8034 349.34 80.5H342.34ZM335.97 104.55L330.043 100.826C326.513 106.446 321.606 110.889 315.131 114.163L318.29 120.41L321.45 126.657C330.055 122.304 336.935 116.174 341.898 108.274L335.97 104.55ZM318.29 120.41L315.189 114.135C308.768 117.308 301.152 119 292.16 119V126V133C302.929 133 312.733 130.965 321.392 126.685L318.29 120.41ZM292.16 126V119H250.82V126V133H292.16V126ZM271.88 108.71V115.71H291.12V108.71V101.71H271.88V108.71ZM291.12 108.71V115.71C298.05 115.71 304.43 114.421 310.03 111.566L306.85 105.33L303.671 99.0937C300.431 100.745 296.325 101.71 291.12 101.71V108.71ZM306.85 105.33L310.076 111.542C315.729 108.607 320.207 104.384 323.328 98.923L317.25 95.45L311.173 91.977C309.44 95.0092 306.985 97.3726 303.625 99.1175L306.85 105.33ZM317.25 95.45L323.275 99.0152C326.522 93.5273 328.02 87.272 328.02 80.5H321.02H314.02C314.02 85.168 313.005 88.8794 311.226 91.8848L317.25 95.45ZM321.02 80.5H328.02C328.02 73.6674 326.533 67.3782 323.242 61.9302L317.25 65.55L311.259 69.1698C312.994 72.0418 314.02 75.7192 314.02 80.5H321.02ZM317.25 65.55L323.328 62.077C320.194 56.5927 315.684 52.3906 309.981 49.539L306.85 55.8L303.72 62.061C307.03 63.716 309.453 66.014 311.173 69.023L317.25 65.55ZM306.85 55.8L310.126 49.6135C304.503 46.6369 298.088 45.29 291.12 45.29V52.29V59.29C296.286 59.29 300.358 60.2831 303.575 61.9865L306.85 55.8ZM291.12 52.29V45.29H271.88V52.29V59.29H291.12V52.29ZM271.88 52.29H264.88V108.71H271.88H278.88V52.29H271.88ZM356.693 126L350.3 123.15L345.909 133H356.693V126ZM397.253 35V28H392.709L390.86 32.1502L397.253 35ZM418.053 35L424.444 32.1426L422.591 28H418.053V35ZM458.743 126V133H469.541L465.134 123.143L458.743 126ZM436.643 126L430.176 128.679L431.966 133H436.643V126ZM403.363 45.66V38.66H392.887L396.896 48.3389L403.363 45.66ZM411.683 45.66L418.147 48.3478L422.175 38.66H411.683V45.66ZM378.273 126V133H382.943L384.737 128.688L378.273 126ZM376.973 106.5L370.365 104.19L367.111 113.5H376.973V106.5ZM382.563 90.51V83.51H377.595L375.955 88.1999L382.563 90.51ZM429.363 90.51L435.954 88.1523L434.294 83.51H429.363V90.51ZM435.083 106.5V113.5H445.022L441.674 104.142L435.083 106.5ZM356.693 126L363.087 128.85L403.647 37.8497L397.253 35L390.86 32.1502L350.3 123.15L356.693 126ZM397.253 35V42H418.053V35V28H397.253V35ZM418.053 35L411.663 37.8574L452.353 128.857L458.743 126L465.134 123.143L424.444 32.1426L418.053 35ZM458.743 126V119H436.643V126V133H458.743V126ZM436.643 126L443.11 123.321L409.83 42.9811L403.363 45.66L396.896 48.3389L430.176 128.679L436.643 126ZM403.363 45.66V52.66H411.683V45.66V38.66H403.363V45.66ZM411.683 45.66L405.22 42.9721L371.81 123.312L378.273 126L384.737 128.688L418.147 48.3478L411.683 45.66ZM378.273 126V119H356.693V126V133H378.273V126ZM376.973 106.5L383.581 108.81L389.171 92.8201L382.563 90.51L375.955 88.1999L370.365 104.19L376.973 106.5ZM382.563 90.51V97.51H429.363V90.51V83.51H382.563V90.51ZM429.363 90.51L422.772 92.8678L428.492 108.858L435.083 106.5L441.674 104.142L435.954 88.1523L429.363 90.51ZM435.083 106.5V99.5H376.973V106.5V113.5H435.083V106.5ZM479.885 126H472.885V133H479.885V126ZM479.885 35V28H472.885V35H479.885ZM500.945 35H507.945V28H500.945V35ZM500.945 108.84H493.945V115.84H500.945V108.84ZM546.575 108.84H553.575V101.84H546.575V108.84ZM546.575 126V133H553.575V126H546.575ZM479.885 126H486.885V35H479.885H472.885V126H479.885ZM479.885 35V42H500.945V35V28H479.885V35ZM500.945 35H493.945V108.84H500.945H507.945V35H500.945ZM500.945 108.84V115.84H546.575V108.84V101.84H500.945V108.84ZM546.575 108.84H539.575V126H546.575H553.575V108.84H546.575ZM546.575 126V119H479.885V126V133H546.575V126ZM558.589 126L552.196 123.15L547.806 133H558.589V126ZM599.149 35V28H594.606L592.756 32.1502L599.149 35ZM619.949 35L626.34 32.1426L624.487 28H619.949V35ZM660.639 126V133H671.437L667.03 123.143L660.639 126ZM638.539 126L632.072 128.679L633.862 133H638.539V126ZM605.259 45.66V38.66H594.783L598.792 48.3389L605.259 45.66ZM613.579 45.66L620.043 48.3478L624.072 38.66H613.579V45.66ZM580.169 126V133H584.84L586.633 128.688L580.169 126ZM578.869 106.5L572.262 104.19L569.007 113.5H578.869V106.5ZM584.459 90.51V83.51H579.491L577.852 88.1999L584.459 90.51ZM631.259 90.51L637.85 88.1523L636.19 83.51H631.259V90.51ZM636.979 106.5V113.5H646.918L643.57 104.142L636.979 106.5ZM558.589 126L564.983 128.85L605.543 37.8497L599.149 35L592.756 32.1502L552.196 123.15L558.589 126ZM599.149 35V42H619.949V35V28H599.149V35ZM619.949 35L613.559 37.8574L654.249 128.857L660.639 126L667.03 123.143L626.34 32.1426L619.949 35ZM660.639 126V119H638.539V126V133H660.639V126ZM638.539 126L645.006 123.321L611.727 42.9811L605.259 45.66L598.792 48.3389L632.072 128.679L638.539 126ZM605.259 45.66V52.66H613.579V45.66V38.66H605.259V45.66ZM613.579 45.66L607.116 42.9721L573.706 123.312L580.169 126L586.633 128.688L620.043 48.3478L613.579 45.66ZM580.169 126V119H558.589V126V133H580.169V126ZM578.869 106.5L585.477 108.81L591.067 92.8201L584.459 90.51L577.852 88.1999L572.262 104.19L578.869 106.5ZM584.459 90.51V97.51H631.259V90.51V83.51H584.459V90.51ZM631.259 90.51L624.668 92.8678L630.388 108.858L636.979 106.5L643.57 104.142L637.85 88.1523L631.259 90.51ZM636.979 106.5V99.5H578.869V106.5V113.5H636.979V106.5ZM690.751 124.7L688.747 131.407L688.787 131.419L688.828 131.431L690.751 124.7ZM674.631 117.03L668.249 114.153L665.968 119.212L670.374 122.587L674.631 117.03ZM681.781 101.17L685.837 95.4653L678.898 90.531L675.399 98.2931L681.781 101.17ZM695.561 108.06L693.282 114.679L693.347 114.701L693.412 114.722L695.561 108.06ZM721.821 109.49L723.895 116.175L723.965 116.154L724.034 116.131L721.821 109.49ZM727.541 105.98L722.137 101.53V101.53L727.541 105.98ZM726.501 95.19L722.22 100.729L722.301 100.791L722.383 100.851L726.501 95.19ZM718.961 91.68L716.915 98.3745L717.001 98.4006L717.087 98.4246L718.961 91.68ZM708.561 89.08L706.975 95.8981L707.066 95.9193L707.158 95.938L708.561 89.08ZM697.251 85.96L695.083 92.6161L695.106 92.6234L695.128 92.6305L697.251 85.96ZM686.981 81.28L683.33 87.253V87.253L686.981 81.28ZM679.311 73.74L673.338 77.3901L673.374 77.4498L673.412 77.5087L679.311 73.74ZM680.611 47.61L674.768 43.7541L674.759 43.7683L674.75 43.7825L680.611 47.61ZM693.351 37.34L696.203 43.7326L696.225 43.7227L696.247 43.7126L693.351 37.34ZM731.701 35.52L730.003 42.311L730.053 42.3235L730.103 42.3353L731.701 35.52ZM746.391 41.5L752.875 44.136L755.079 38.7138L750.133 35.5844L746.391 41.5ZM739.891 57.49L736.418 63.5677L743.363 67.5364L746.375 60.1261L739.891 57.49ZM727.151 52.16L725.228 58.8907L725.291 58.9089L725.356 58.9259L727.151 52.16ZM704.661 51.77L702.251 45.1979V45.1979L704.661 51.77ZM699.071 55.54L704.631 59.7921L704.689 59.7161L704.745 59.6384L699.071 55.54ZM700.241 66.46L695.96 71.999L696.041 72.0613L696.123 72.1211L700.241 66.46ZM707.781 69.84L705.907 76.5846L707.781 69.84ZM718.051 72.44L716.465 79.258L716.482 79.262L716.499 79.2659L718.051 72.44ZM729.361 75.43L727.335 82.1305L727.356 82.1369L727.377 82.1431L729.361 75.43ZM739.761 79.98L743.411 74.007L739.761 79.98ZM747.301 87.52L741.328 91.1702L741.364 91.2298L741.402 91.2887L747.301 87.52ZM746.001 113.39L751.807 117.3L746.001 113.39ZM733.131 123.66L730.234 117.287L730.216 117.296L730.197 117.304L733.131 123.66ZM711.681 127.56V120.56C705.019 120.56 698.692 119.689 692.674 117.969L690.751 124.7L688.828 131.431C696.156 133.525 703.782 134.56 711.681 134.56V127.56ZM690.751 124.7L692.754 117.993C686.623 116.161 682.092 113.927 678.887 111.473L674.631 117.03L670.374 122.587C675.316 126.373 681.531 129.252 688.747 131.407L690.751 124.7ZM674.631 117.03L681.012 119.907L688.162 104.047L681.781 101.17L675.399 98.2931L668.249 114.153L674.631 117.03ZM681.781 101.17L677.724 106.875C682.253 110.095 687.466 112.676 693.282 114.679L695.561 108.06L697.839 101.441C693.082 99.8036 689.109 97.7916 685.837 95.4653L681.781 101.17ZM695.561 108.06L693.412 114.722C699.455 116.672 705.596 117.66 711.811 117.66V110.66V103.66C707.105 103.66 702.412 102.915 697.71 101.398L695.561 108.06ZM711.811 110.66V117.66C716.316 117.66 720.437 117.249 723.895 116.175L721.821 109.49L719.746 102.805C718.177 103.291 715.625 103.66 711.811 103.66V110.66ZM721.821 109.49L724.034 116.131C727.366 115.02 730.606 113.27 732.944 110.43L727.541 105.98L722.137 101.53C722.049 101.637 721.475 102.227 719.607 102.849L721.821 109.49ZM727.541 105.98L732.944 110.43C735.188 107.705 736.361 104.442 736.361 100.91H729.361H722.361C722.361 101.191 722.319 101.309 722.137 101.53L727.541 105.98ZM729.361 100.91H736.361C736.361 96.3213 734.398 92.2777 730.618 89.5288L726.501 95.19L722.383 100.851C722.425 100.882 722.45 100.903 722.462 100.914C722.474 100.925 722.474 100.926 722.467 100.917C722.459 100.908 722.446 100.892 722.43 100.869C722.414 100.845 722.399 100.819 722.385 100.79C722.371 100.762 722.36 100.738 722.354 100.718C722.347 100.699 722.345 100.689 722.345 100.692C722.346 100.696 722.361 100.762 722.361 100.91H729.361ZM726.501 95.19L730.781 89.651C727.957 87.4691 724.544 85.9659 720.834 84.9354L718.961 91.68L717.087 98.4246C719.617 99.1274 721.231 99.9643 722.22 100.729L726.501 95.19ZM718.961 91.68L721.006 84.9855C717.639 83.9567 713.953 83.0382 709.963 82.222L708.561 89.08L707.158 95.938C710.794 96.6818 714.042 97.4967 716.915 98.3745L718.961 91.68ZM708.561 89.08L710.146 82.2619C706.608 81.4392 703.017 80.4491 699.373 79.2895L697.251 85.96L695.128 92.6305C699.11 93.8975 703.059 94.9875 706.975 95.8981L708.561 89.08ZM697.251 85.96L699.418 79.3039C696.173 78.2476 693.253 76.9093 690.631 75.307L686.981 81.28L683.33 87.253C686.949 89.464 690.875 91.2457 695.083 92.6161L697.251 85.96ZM686.981 81.28L690.631 75.307C688.43 73.962 686.638 72.2069 685.209 69.9713L679.311 73.74L673.412 77.5087C675.97 81.5131 679.291 84.7847 683.33 87.253L686.981 81.28ZM679.311 73.74L685.284 70.0899C684.234 68.373 683.451 65.7556 683.451 61.78H676.451H669.451C669.451 67.511 670.573 72.867 673.338 77.3901L679.311 73.74ZM676.451 61.78H683.451C683.451 57.9031 684.461 54.516 686.471 51.4375L680.611 47.61L674.75 43.7825C671.213 49.1973 669.451 55.2569 669.451 61.78H676.451ZM680.611 47.61L686.453 51.4659C688.45 48.4404 691.555 45.8061 696.203 43.7326L693.351 37.34L690.499 30.9474C683.879 33.9006 678.492 38.1129 674.768 43.7541L680.611 47.61ZM693.351 37.34L696.247 43.7126C700.789 41.648 706.876 40.44 714.801 40.44V33.44V26.44C705.565 26.44 697.352 27.8319 690.454 30.9674L693.351 37.34ZM714.801 33.44V40.44C719.949 40.44 725.012 41.0632 730.003 42.311L731.701 35.52L733.398 28.729C727.296 27.2035 721.093 26.44 714.801 26.44V33.44ZM731.701 35.52L730.103 42.3353C734.99 43.4806 739.143 45.1981 742.648 47.4155L746.391 41.5L750.133 35.5844C745.145 32.4286 739.505 30.1593 733.298 28.7047L731.701 35.52ZM746.391 41.5L739.906 38.8639L733.406 54.8539L739.891 57.49L746.375 60.1261L752.875 44.136L746.391 41.5ZM739.891 57.49L743.364 51.4123C738.649 48.718 733.841 46.6929 728.946 45.3941L727.151 52.16L725.356 58.9259C728.953 59.8805 732.639 61.4087 736.418 63.5677L739.891 57.49ZM727.151 52.16L729.074 45.4293C724.254 44.0523 719.447 43.34 714.671 43.34V50.34V57.34C718.041 57.34 721.554 57.8411 725.228 58.8907L727.151 52.16ZM714.671 50.34V43.34C710.126 43.34 705.895 43.8617 702.251 45.1979L704.661 51.77L707.07 58.3421C708.626 57.7717 711.068 57.34 714.671 57.34V50.34ZM704.661 51.77L702.251 45.1979C698.89 46.4303 695.626 48.3538 693.396 51.4415L699.071 55.54L704.745 59.6384C704.769 59.6062 705.232 59.0163 707.07 58.3421L704.661 51.77ZM699.071 55.54L693.51 51.2878C691.378 54.0758 690.381 57.332 690.381 60.74H697.381H704.381C704.381 60.1614 704.51 59.9509 704.631 59.7921L699.071 55.54ZM697.381 60.74H690.381C690.381 65.3221 692.398 69.2462 695.96 71.999L700.241 66.46L704.521 60.921C704.399 60.8273 704.346 60.7677 704.333 60.7522C704.322 60.7388 704.336 60.7537 704.357 60.7945C704.377 60.8358 704.387 60.8694 704.389 60.8805C704.391 60.8891 704.381 60.8477 704.381 60.74H697.381ZM700.241 66.46L696.123 72.1211C698.908 74.1465 702.261 75.5718 705.907 76.5846L707.781 69.84L709.654 63.0954C707.06 62.3749 705.386 61.5469 704.358 60.7988L700.241 66.46ZM707.781 69.84L705.907 76.5846C709.138 77.482 712.659 78.3728 716.465 79.258L718.051 72.44L719.636 65.6219C715.989 64.7738 712.663 63.9313 709.654 63.0954L707.781 69.84ZM718.051 72.44L716.499 79.2659C720.154 80.0965 723.766 81.0514 727.335 82.1305L729.361 75.43L731.386 68.7295C727.502 67.5553 723.574 66.5168 719.602 65.6141L718.051 72.44ZM729.361 75.43L727.377 82.1431C730.656 83.1118 733.555 84.3911 736.11 85.953L739.761 79.98L743.411 74.007C739.727 71.7556 735.692 70.0015 731.344 68.7169L729.361 75.43ZM739.761 79.98L736.11 85.953C738.283 87.2806 740 88.9977 741.328 91.1702L747.301 87.52L753.274 83.8699C750.788 79.8023 747.478 76.4928 743.411 74.007L739.761 79.98ZM747.301 87.52L741.402 91.2887C742.496 93.0015 743.291 95.5397 743.291 99.35H750.291H757.291C757.291 93.6269 756.092 88.2785 753.199 83.7513L747.301 87.52ZM750.291 99.35H743.291C743.291 103.068 742.277 106.387 740.195 109.48L746.001 113.39L751.807 117.3C755.444 111.9 757.291 105.858 757.291 99.35H750.291ZM746.001 113.39L740.195 109.48C738.206 112.432 735.043 115.102 730.234 117.287L733.131 123.66L736.027 130.033C742.658 127.018 748.075 122.841 751.807 117.3L746.001 113.39ZM733.131 123.66L730.197 117.304C725.773 119.346 719.71 120.56 711.681 120.56V127.56V134.56C720.984 134.56 729.222 133.174 736.064 130.016L733.131 123.66Z" fill="white" mask="url(#path-5-outside-3_1032_4)"/>
</svg>
